<?xml version="1.0" encoding="utf-8"?>
<!-- Generator: Adobe Illustrator 23.0.3, SVG Export Plug-In . SVG Version: 6.00 Build 0)  -->
<svg version="1.1" id="Layer_1" xmlns="http://www.w3.org/2000/svg" xmlns:xlink="http://www.w3.org/1999/xlink" x="0px" y="0px"
	 viewBox="0 0 80 80" style="enable-background:new 0 0 80 80;" xml:space="preserve">
<style type="text/css">
	.st0{fill:#6975A8;}
	.st1{fill:#FFFFFF;}
</style>
<g>
	<g>
		<g>
			<path class="st0" d="M64,79.4H16.4c-8.2,0-15-6.8-15-15V16.8c0-8.2,6.8-15,15-15H64c8.2,0,15,6.8,15,15v47.6
				C79,72.6,72.2,79.4,64,79.4z"/>
		</g>
	</g>
</g>
<g>
	<path class="st1" d="M72,13.7l-4.2-4.2c-2.2-2.2-5.9-2.2-8.1,0l-5.6,5.6l12.3,12.3l5.6-5.6C74.3,19.6,74.3,16,72,13.7z"/>
	<path class="st1" d="M17.7,51.9L17.7,51.9l-0.1,0.3L9.4,71.4c-0.2,0.5,0.3,0.9,0.7,0.7l19.5-8l0.6-0.6L64.9,29L52.6,16.7L17.7,51.9
		z M22.5,53.2v5.2c0,0.4,0.3,0.7,0.7,0.7l5.2,0l0,3.9l-11.6,4.7l0-1.9c0-0.5-0.4-0.9-0.9-0.9l-1.8,0L19,53.2L22.5,53.2z"/>
</g>
</svg>
