<?xml version="1.0" encoding="utf-8"?>
<!-- Generator: Adobe Illustrator 23.0.1, SVG Export Plug-In . SVG Version: 6.00 Build 0)  -->
<svg version="1.1" id="Layer_1" xmlns="http://www.w3.org/2000/svg" xmlns:xlink="http://www.w3.org/1999/xlink" x="0px" y="0px"
	 viewBox="0 0 25 41" style="enable-background:new 0 0 25 41;" xml:space="preserve">
<style type="text/css">
	.st0{fill:#001A72;}
</style>
<g id="Layer_1_copy">
	<path class="st0" d="M16.3,40.2C11.8,39,9,35.7,9.1,29.3c0-2.7,0.3-5.1,0.7-7.6c0.4-2.4,0.7-4.8,0.7-7.1c0-5.4-2-8.6-7.9-8.6H0.8
		V0.5h2.1c8.5,0,14.5,3.9,14.5,13.1c0,2.8-0.4,5.5-0.8,8.3s-0.8,5.6-0.8,8.4c0,3.5,1,7.4,8.2,7.5v2.4C24,40.2,16.3,40.2,16.3,40.2z"
		/>
</g>
</svg>
