<?xml version="1.0" encoding="utf-8"?>
<!-- Generator: Adobe Illustrator 23.0.1, SVG Export Plug-In . SVG Version: 6.00 Build 0)  -->
<svg version="1.1" id="Layer_1" xmlns="http://www.w3.org/2000/svg" xmlns:xlink="http://www.w3.org/1999/xlink" x="0px" y="0px"
	 viewBox="0 0 25 41" style="enable-background:new 0 0 25 41;" xml:space="preserve">
<style type="text/css">
	.st0{fill:#001A72;}
</style>
<g id="Layer_1_copy">
	<path class="st0" d="M0.8,40.2v-2.4C8,37.7,9,33.8,9,30.3c0-2.8-0.4-5.6-0.8-8.4c-0.4-2.8-0.8-5.5-0.8-8.3c0-9.2,6-13.1,14.5-13.1
		H24V6h-1.8c-5.9,0-7.9,3.2-7.9,8.6c0,2.3,0.3,4.7,0.7,7.1c0.4,2.5,0.7,4.9,0.7,7.6c0.1,6.4-2.7,9.7-7.2,10.9
		C8.5,40.2,0.8,40.2,0.8,40.2z"/>
</g>
</svg>
