<?xml version="1.0" encoding="utf-8"?>
<!-- Generator: Adobe Illustrator 23.0.3, SVG Export Plug-In . SVG Version: 6.00 Build 0)  -->
<svg version="1.1" id="Layer_1" xmlns="http://www.w3.org/2000/svg" xmlns:xlink="http://www.w3.org/1999/xlink" x="0px" y="0px"
	 viewBox="0 0 9.9 39.9" style="enable-background:new 0 0 9.9 39.9;" xml:space="preserve">
<style type="text/css">
	.st0{display:none;fill:#949DC1;}
	.st1{fill:#001A72;}
	.st2{fill:#FFFFFF;}
</style>
<polygon class="st0" points="9.9,39.9 0,39.9 0,30 9.9,30 "/>
<path class="st1" d="M1.9,39.9"/>
<path class="st1" d="M10,0v30.9l-10,9v-36c0-2.2,1.8-4,4-4L10,0"/>
<path class="st2" d="M5.9,28V3.9c0-0.6,0.5-1,1-1l0,0c0.6,0,1,0.5,1,1V28c0,0.6-0.5,1-1,1l0,0C6.4,29,6,28.6,5.9,28z"/>
<path class="st2" d="M1.9,28V3.9c0-0.6,0.5-1,1-1l0,0c0.6,0,1,0.4,1,1l0,24.1c0,0.6-0.4,1-1,1l0,0C2.4,29,1.9,28.5,1.9,28z"/>
</svg>
