<?xml version="1.0" encoding="utf-8"?>
<!-- Generator: Adobe Illustrator 23.0.3, SVG Export Plug-In . SVG Version: 6.00 Build 0)  -->
<svg version="1.1" id="Layer_1" xmlns="http://www.w3.org/2000/svg" xmlns:xlink="http://www.w3.org/1999/xlink" x="0px" y="0px"
	 viewBox="0 0 9.9 39.9" style="enable-background:new 0 0 9.9 39.9;" xml:space="preserve">
<style type="text/css">
	.st0{display:none;fill:#949DC1;}
	.st1{fill:#001A72;}
	.st2{display:none;fill:#FFFFFF;}
</style>
<polygon class="st0" points="0,-0.1 10,-0.1 10,9.8 0,9.8 "/>
<path class="st1" d="M8-0.1"/>
<path class="st1" d="M0,39.8V8.9l10-9v36c0,2.2-1.8,3.9-4,3.9H0"/>
<path class="st2" d="M6.9,10.8L6.9,10.8c0.5,0,1,0.4,1,1v24.1c0,0.5-0.4,1-1,1l0,0c-0.5,0-1-0.4-1-1V11.8C6,11.2,6.4,10.8,6.9,10.8z
	"/>
<path class="st2" d="M2.9,10.8L2.9,10.8c0.6,0,1,0.4,1,1l0,24.1c0,0.6-0.4,1-1,1l0,0c-0.5,0-1-0.4-1-1V11.8
	C1.9,11.3,2.4,10.8,2.9,10.8z"/>
</svg>
