<?xml version="1.0" encoding="utf-8"?>
<!-- Generator: Adobe Illustrator 23.0.1, SVG Export Plug-In . SVG Version: 6.00 Build 0)  -->
<svg version="1.1" id="Layer_1" xmlns="http://www.w3.org/2000/svg" xmlns:xlink="http://www.w3.org/1999/xlink" x="0px" y="0px"
	 viewBox="0 0 23.2 39.7" style="enable-background:new 0 0 23.2 39.7;" xml:space="preserve">
<style type="text/css">
	.st0{fill:#949DC1;}
	.st1{fill:#001A72;}
</style>
<g>
	<path class="st0" d="M8.2,29.8c0-2.8-0.4-5.6-0.8-8.4s-0.8-5.5-0.8-8.3C6.6,3.9,12.6,0,21.1,0H0v37.3C7.2,37.2,8.2,33.3,8.2,29.8z"
		/>
</g>
<path class="st1" d="M0,39.7v-2.4c7.2-0.1,8.2-4,8.2-7.5c0-2.8-0.4-5.6-0.8-8.4s-0.8-5.5-0.8-8.3C6.6,3.9,12.6,0,21.1,0h2.1v5.5
	h-1.8c-5.9,0-7.9,3.2-7.9,8.6c0,2.3,0.3,4.7,0.7,7.1c0.4,2.5,0.7,4.9,0.7,7.6c0.1,6.4-2.7,9.7-7.2,10.9C7.7,39.7,0,39.7,0,39.7z"/>
</svg>
