<?xml version="1.0" encoding="utf-8"?>
<!-- Generator: Adobe Illustrator 23.0.2, SVG Export Plug-In . SVG Version: 6.00 Build 0)  -->
<svg version="1.1" id="Layer_1" xmlns="http://www.w3.org/2000/svg" xmlns:xlink="http://www.w3.org/1999/xlink" x="0px" y="0px"
	 viewBox="0 0 30 10" style="enable-background:new 0 0 30 10;" xml:space="preserve">
<style type="text/css">
	.st0{fill:#262C6A;}
	.st1{fill:#FFFFFF;}
</style>
<path class="st0" d="M26,10H4c-2.2,0-4-1.8-4-4V4c0-2.2,1.8-4,4-4l22,0c2.2,0,4,1.8,4,4v2C30,8.2,28.2,10,26,10z"/>
<path class="st1" d="M13,8L13,8c-0.5,0-1-0.4-1-1V3c0-0.5,0.4-1,1-1h0c0.5,0,1,0.4,1,1v4.1C14,7.6,13.5,8,13,8z"/>
<path class="st1" d="M17,8L17,8c-0.6,0-1-0.5-1-1V3c0-0.5,0.5-1,1-1h0c0.6,0,1,0.5,1,1V7C18,7.6,17.6,8,17,8z"/>
</svg>
