<?xml version="1.0" encoding="utf-8"?>
<!-- Generator: Adobe Illustrator 23.0.1, SVG Export Plug-In . SVG Version: 6.00 Build 0)  -->
<svg version="1.1" id="Layer_1" xmlns="http://www.w3.org/2000/svg" xmlns:xlink="http://www.w3.org/1999/xlink" x="0px" y="0px"
	 viewBox="0 0 23.2 39.7" style="enable-background:new 0 0 23.2 39.7;" xml:space="preserve">
<style type="text/css">
	.st0{fill:#6672A6;}
	.st1{fill:#001A72;}
</style>
<g>
	<path class="st0" d="M15,29.8c0-2.8,0.4-5.6,0.8-8.4s0.8-5.5,0.8-8.3C16.6,3.9,10.6,0,2.1,0h21.1v37.3C16,37.2,15,33.3,15,29.8z"/>
</g>
<path class="st1" d="M15.5,39.7c-4.5-1.2-7.3-4.5-7.2-10.9c0-2.7,0.3-5.1,0.7-7.6c0.4-2.4,0.7-4.8,0.7-7.1c0-5.4-2-8.6-7.9-8.6H0V0
	h2.1c8.5,0,14.5,3.9,14.5,13.1c0,2.8-0.4,5.5-0.8,8.3S15,27,15,29.8c0,3.5,1,7.4,8.2,7.5v2.4H15.5z"/>
</svg>
