<?xml version="1.0" encoding="utf-8"?>
<!-- Generator: Adobe Illustrator 23.0.3, SVG Export Plug-In . SVG Version: 6.00 Build 0)  -->
<svg version="1.1" id="Layer_1" xmlns="http://www.w3.org/2000/svg" xmlns:xlink="http://www.w3.org/1999/xlink" x="0px" y="0px"
	 viewBox="0 0 9.9 39.9" style="enable-background:new 0 0 9.9 39.9;" xml:space="preserve">
<style type="text/css">
	.st0{fill:#949DC1;}
	.st1{fill:#001A72;}
	.st2{fill:#FFFFFF;}
</style>
<polygon class="st0" points="0,30 10,30 10,39.9 0,39.9 "/>
<path class="st1" d="M8,39.9"/>
<path class="st1" d="M0,0l6-0.1c2.2,0,4,1.8,4,4v36l-10-9V0"/>
<path class="st2" d="M3,29L3,29c-0.5,0-1-0.4-1-1V3.9c0-0.5,0.4-1,1-1l0,0c0.5,0,1,0.4,1,1V28C3.9,28.6,3.5,29,3,29z"/>
<path class="st2" d="M7,29L7,29c-0.6,0-1-0.4-1-1V3.9c0-0.6,0.4-1,1-1l0,0c0.5,0,1,0.4,1,1V28C8,28.5,7.5,29,7,29z"/>
</svg>
