<?xml version="1.0" encoding="utf-8"?>
<!-- Generator: Adobe Illustrator 22.1.0, SVG Export Plug-In . SVG Version: 6.00 Build 0)  -->
<svg version="1.1" id="Layer_2" xmlns="http://www.w3.org/2000/svg" xmlns:xlink="http://www.w3.org/1999/xlink" x="0px" y="0px"
	 viewBox="0 0 27 27" style="enable-background:new 0 0 27 27;" xml:space="preserve">
<style type="text/css">
	.st0{fill:#4430D6;}
</style>
<g>
	<path class="st0" d="M19.4,5.7c0,0.6-0.5,1.1-1.1,1.1l0,0c-0.6,0-1.1-0.5-1.1-1.1V1.1c0-0.6,0.5-1.1,1.1-1.1l0,0
		c0.6,0,1.1,0.5,1.1,1.1V5.7z"/>
	<path class="st0" d="M9.6,5.7c0,0.6-0.5,1.1-1.1,1.1l0,0c-0.6,0-1.1-0.5-1.1-1.1V1.1C7.4,0.5,7.9,0,8.5,0l0,0
		c0.6,0,1.1,0.5,1.1,1.1V5.7z"/>
	<path class="st0" d="M23.4,3.4H20v2.3c0,0.9-0.7,1.6-1.6,1.6c-0.9,0-1.6-0.7-1.6-1.6V3.4h-6.6v2.3c0,0.9-0.7,1.6-1.6,1.6
		c-0.9,0-1.6-0.7-1.6-1.6V3.4H3.4C2.7,3.4,2,4,2,4.8v19.9c0,0.8,0.6,1.4,1.4,1.4h19.9c0.8,0,1.4-0.6,1.4-1.4V4.8
		C24.8,4,24.2,3.4,23.4,3.4z M23,23.2c0,0.7-0.5,1.2-1.2,1.2H5c-0.7,0-1.2-0.5-1.2-1.2V10.8H23V23.2z"/>
	<g>
		<rect x="10" y="12.2" class="st0" width="2.8" height="2.8"/>
		<rect x="14" y="12.2" class="st0" width="2.8" height="2.8"/>
		<rect x="18" y="12.2" class="st0" width="2.8" height="2.8"/>
	</g>
	<g>
		<rect x="6" y="16.1" class="st0" width="2.8" height="2.8"/>
		<rect x="10" y="16.1" class="st0" width="2.8" height="2.8"/>
		<rect x="14" y="16.1" class="st0" width="2.8" height="2.8"/>
		<rect x="18" y="16.1" class="st0" width="2.8" height="2.8"/>
	</g>
	<g>
		<rect x="6" y="20.1" class="st0" width="2.8" height="2.8"/>
		<rect x="10" y="20.1" class="st0" width="2.8" height="2.8"/>
		<rect x="14" y="20.1" class="st0" width="2.8" height="2.8"/>
	</g>
</g>
</svg>
