<?xml version="1.0" encoding="utf-8"?>
<!-- Generator: Adobe Illustrator 23.0.1, SVG Export Plug-In . SVG Version: 6.00 Build 0)  -->
<svg version="1.1" id="_x2014_ÎÓÈ_x5F_1" xmlns="http://www.w3.org/2000/svg" xmlns:xlink="http://www.w3.org/1999/xlink"
	 x="0px" y="0px" viewBox="0 0 600 600" style="enable-background:new 0 0 600 600;" xml:space="preserve">
<style type="text/css">
	.st0{fill:#8D3031;}
</style>
<g>
	<path class="st0" d="M570.1,78c-6.8-10.5-18.4-16.8-30.9-16.8c-7.1,0-14,2-19.9,5.9c-129.9,84-212.6,207.4-251.7,276.7l-65.9-86.1
		c-7-9.2-17.7-14.4-29.3-14.4c-8.1,0-15.9,2.6-22.3,7.6c-7.8,6-12.8,14.6-14.1,24.4c-1.3,9.7,1.3,19.4,7.2,27.2l101.3,132.4
		c6.9,9,17.9,14.4,29.2,14.4c1.5,0,3-0.1,4.5-0.3c12.9-1.6,24.1-10,29.3-21.9c0.8-1.9,83.8-189.6,251.8-298.2
		c8.3-5.3,13.9-13.6,16-23.2C577.3,96.1,575.5,86.3,570.1,78z"/>
	<path class="st0" d="M488.4,223.4c9,23.9,13.7,49.4,13.7,75.7c0,57.3-22.3,111.1-62.8,151.6c-40.5,40.5-94.3,62.8-151.6,62.8
		c-57.3,0-111.1-22.3-151.6-62.8c-40.5-40.5-62.8-94.3-62.8-151.6S95.7,188,136.2,147.5c40.5-40.5,94.3-62.8,151.6-62.8
		c42.3,0,82.6,12.2,117.2,34.9c10.8-10.1,22-20,33.7-29.8c-42.4-30.7-94.5-48.8-150.9-48.8c-142.5,0-258,115.5-258,258
		s115.5,258,258,258c142.5,0,258-115.5,258-258c0-38-8.3-74.1-23.1-106.6C510.7,202.5,499.3,212.9,488.4,223.4z"/>
</g>
</svg>
