<?xml version="1.0" encoding="utf-8"?>
<!-- Generator: Adobe Illustrator 23.0.1, SVG Export Plug-In . SVG Version: 6.00 Build 0)  -->
<svg version="1.1" id="_x2014_ÎÓÈ_x5F_1" xmlns="http://www.w3.org/2000/svg" xmlns:xlink="http://www.w3.org/1999/xlink"
	 x="0px" y="0px" viewBox="0 0 600 600" style="enable-background:new 0 0 600 600;" xml:space="preserve">
<style type="text/css">
	.st0{fill:#001A72;}
</style>
<g>
	<path class="st0" d="M488.4,223.4c9,23.9,13.7,49.4,13.7,75.7c0,57.3-22.3,111.1-62.8,151.6s-94.3,62.8-151.6,62.8
		s-111.1-22.3-151.6-62.8s-62.8-94.3-62.8-151.6S95.7,188,136.2,147.5s94.3-62.8,151.6-62.8c42.3,0,82.6,12.2,117.2,34.9
		c10.8-10.1,22-20,33.7-29.8C396.3,59.1,344.2,41,287.8,41c-142.5,0-258,115.5-258,258s115.5,258,258,258s258-115.5,258-258
		c0-38-8.3-74.1-23.1-106.6C510.7,202.5,499.3,212.9,488.4,223.4z"/>
</g>
<g>
	<path class="st0" d="M323.7,510.3c-25.2,4.3-51.1,4-76.9-1C190.6,498.4,142,466.3,110,418.8S66.3,314.2,77.3,258
		s43.1-104.8,90.6-136.8s104.6-43.7,160.8-32.7s104.8,43.2,136.8,90.7s43.7,104.6,32.7,160.8c-8.1,41.5-27.7,78.8-56.6,108.4
		c7.9,12.5,15.4,25.4,22.8,38.8c38.2-35.8,65.9-83.5,76.7-138.8c27.2-139.9-64.1-275.3-204-302.5s-275.3,64.1-302.5,204
		s64.1,275.3,204,302.5c37.3,7.3,74.3,6,109-2.3C340,536.2,332,523,323.7,510.3z"/>
</g>
</svg>
