<?xml version="1.0" encoding="utf-8"?>
<!-- Generator: Adobe Illustrator 22.1.0, SVG Export Plug-In . SVG Version: 6.00 Build 0)  -->
<svg version="1.1" id="Layer_2" xmlns="http://www.w3.org/2000/svg" xmlns:xlink="http://www.w3.org/1999/xlink" x="0px" y="0px"
	 viewBox="0 0 27 27" style="enable-background:new 0 0 27 27;" xml:space="preserve">
<style type="text/css">
	.st0{fill:#626363;}
	.st1{fill-rule:evenodd;clip-rule:evenodd;fill:#FFFFFF;}
</style>
<ellipse class="st0" cx="13.5" cy="13.2" rx="11" ry="10.9"/>
<path class="st0" d="M13.5,24.4c-6.2,0-11.3-5-11.3-11.2C2.2,7,7.3,2,13.5,2s11.3,5,11.3,11.2C24.8,19.4,19.7,24.4,13.5,24.4z
	 M13.5,2.6C7.6,2.6,2.8,7.3,2.8,13.2s4.8,10.6,10.7,10.6c5.9,0,10.7-4.8,10.7-10.6S19.4,2.6,13.5,2.6z"/>
<polygon class="st1" points="9.6,6.5 9.6,11.9 6.5,11.9 13.2,18.1 20.7,11.9 17.4,11.9 17.4,6.5 "/>
<rect x="6.5" y="18.5" class="st1" width="14.2" height="1"/>
</svg>
