<?xml version="1.0" encoding="utf-8"?>
<!-- Generator: Adobe Illustrator 23.0.6, SVG Export Plug-In . SVG Version: 6.00 Build 0)  -->
<svg version="1.1" id="Layer_1" xmlns="http://www.w3.org/2000/svg" xmlns:xlink="http://www.w3.org/1999/xlink" x="0px" y="0px"
	 viewBox="0 0 24 24.6" style="enable-background:new 0 0 24 24.6;" xml:space="preserve">
<style type="text/css">
	.st0{fill:#999999;stroke:#FFFFFF;stroke-miterlimit:10;}
	.st1{fill:#FFFFFF;}
</style>
<circle class="st0" cx="12.2" cy="12.3" r="10.6"/>
<path class="st1" d="M16.6,8.5c0,0.4,0,0.7-0.1,1c-0.1,0.4-0.2,0.7-0.4,0.9c-0.2,0.2-0.4,0.5-0.6,0.7c-0.2,0.2-0.5,0.5-0.8,0.7
	c-0.2,0.2-0.4,0.3-0.5,0.4c-0.1,0.1-0.2,0.2-0.3,0.4c-0.1,0.1-0.1,0.3-0.2,0.4c0,0.1,0,0.3,0,0.5V14h-2.9v-0.7c0-0.3,0-0.6,0.1-0.8
	s0.1-0.5,0.3-0.7s0.3-0.4,0.4-0.6c0.2-0.2,0.4-0.4,0.6-0.6l0.6-0.6c0.2-0.2,0.4-0.4,0.5-0.6c0.1-0.2,0.2-0.4,0.2-0.7
	c0-0.4-0.1-0.7-0.4-0.9c-0.2-0.2-0.6-0.3-1-0.3c-0.5,0-0.9,0.2-1.1,0.5c-0.2,0.3-0.3,0.7-0.3,1.2L7.8,8.8c0.1-0.6,0.3-1.2,0.5-1.7
	c0.3-0.5,0.6-0.9,1-1.2c0.4-0.3,0.9-0.6,1.4-0.7C11.2,5.1,11.8,5,12.3,5s1.1,0.1,1.6,0.2s1,0.4,1.4,0.6c0.4,0.3,0.7,0.7,1,1.1
	C16.5,7.4,16.6,7.9,16.6,8.5z M14,17.5c0,0.5-0.2,0.9-0.5,1.2c-0.3,0.3-0.8,0.5-1.2,0.5c-0.2,0-0.5,0-0.7-0.1s-0.4-0.2-0.6-0.4
	c-0.2-0.2-0.3-0.3-0.4-0.5c-0.1-0.2-0.1-0.4-0.1-0.7c0-0.2,0-0.4,0.1-0.7c0.1-0.2,0.2-0.4,0.4-0.5c0.2-0.2,0.4-0.3,0.6-0.4
	c0.2-0.1,0.4-0.1,0.7-0.1s0.5,0,0.7,0.1s0.4,0.2,0.6,0.4c0.2,0.1,0.3,0.3,0.4,0.5C13.9,17,14,17.3,14,17.5z"/>
</svg>
