<?xml version="1.0" encoding="utf-8"?>
<!-- Generator: Adobe Illustrator 22.1.0, SVG Export Plug-In . SVG Version: 6.00 Build 0)  -->
<svg version="1.1" id="Layer_3" xmlns="http://www.w3.org/2000/svg" xmlns:xlink="http://www.w3.org/1999/xlink" x="0px" y="0px"
	 viewBox="0 0 27 27" style="enable-background:new 0 0 27 27;" xml:space="preserve">
<style type="text/css">
	.st0{fill:#FFFFFF;}
	.st1{fill:#626363;}
</style>
<circle class="st0" cx="14.4" cy="13.6" r="9.7"/>
<path id="Info_Button_Icon" class="st1" d="M14.4,2.6c-6.1,0-11,4.9-11,11c0,6.1,4.9,11,11,11s11-4.9,11-11
	C25.4,7.5,20.5,2.6,14.4,2.6z M17.2,19.6c-1.2,1.1-2,1.8-2.6,2.1c-0.6,0.3-1.1,0.5-1.5,0.5c-0.4,0-0.8-0.1-1-0.4
	c-0.3-0.3-0.4-0.6-0.4-1.1c0-1.1,0.6-3.7,1.9-7.8c0,0,0-0.1,0-0.1c0,0-0.1,0-0.1,0c-0.1,0.1-0.4,0.3-1.4,1.2l-0.3,0.3l-1.2-1
	l0.3-0.4c0.9-1,1.7-1.7,2.4-2.1c0.8-0.4,1.4-0.6,2-0.6c0.4,0,0.7,0.1,0.9,0.3c0.2,0.2,0.4,0.5,0.4,0.8c0,0.1,0,0.4-0.8,3.2
	c-1,3.3-1.3,4.6-1.3,5.1c0.2-0.1,0.7-0.5,1.6-1.3l0.3-0.3l1.1,1.1L17.2,19.6z M17.7,7.6c-0.3,0.4-0.7,0.6-1.2,0.6
	c-0.4,0-0.7-0.1-1-0.4c-0.2-0.3-0.4-0.6-0.4-1c0-0.5,0.2-0.9,0.5-1.3C16,5.2,16.4,5,16.8,5c0.4,0,0.7,0.1,1,0.4
	c0.3,0.3,0.4,0.6,0.4,1C18.2,6.8,18,7.3,17.7,7.6z"/>
</svg>
