<?xml version="1.0" encoding="utf-8"?>
<!-- Generator: Adobe Illustrator 22.1.0, SVG Export Plug-In . SVG Version: 6.00 Build 0)  -->
<svg version="1.1" id="Layer_3" xmlns="http://www.w3.org/2000/svg" xmlns:xlink="http://www.w3.org/1999/xlink" x="0px" y="0px"
	 viewBox="0 0 27 27" style="enable-background:new 0 0 27 27;" xml:space="preserve">
<style type="text/css">
	.st0{fill:#001A72;}
</style>
<g>
	<path class="st0" d="M18.1,22.1l0.4,0.3c0.1,0.1,0.2,0.2,0.2,0.3v0.1c-0.3,1-0.7,1.7-1.2,2.1s-1.1,0.6-1.8,0.6s-1.3-0.2-1.9-0.6
		c-0.5-0.4-1-1-1.4-1.9c-0.5,0.9-1.3,1.5-2.2,1.9s-2.1,0.7-3.5,0.7c-1.3,0-2.2-0.2-2.8-0.7S3,23.8,3,23c0-0.4,0.1-0.8,0.3-1.1
		c0.2-0.4,0.5-0.8,0.9-1.1c0.4-0.4,1-0.8,1.9-1.2c0.1-0.1,0.6-0.3,1.4-0.6l4.5-1.7c0-0.4,0.1-0.9,0.1-1.3c0-1.5-0.2-2.6-0.6-3.1
		c-0.2-0.3-0.7-0.5-1.3-0.5S9,12.5,8.5,12.7s-0.9,0.5-1.1,0.8c-0.2,0.2-0.3,0.7-0.4,1.4c-0.1,0.5-0.2,0.8-0.2,0.9
		c-0.2,0.2-0.5,0.4-1,0.6s-0.8,0.3-1,0.4c-0.7,0.3-1.2,0.4-1.6,0.4C3.1,16.8,3,16.6,3,16.3c0-0.6,0.1-1.2,0.4-1.7
		c0.4-0.7,1.1-1.3,2-1.9c0.9-0.6,1.7-1.1,2.5-1.3c1-0.3,2.3-0.5,3.8-0.5c1,0,1.8,0.2,2.5,0.5s1.2,0.8,1.5,1.5s0.4,1.8,0.4,3.6v2.8
		v2.1v0.5c0,0.5,0.1,0.8,0.2,1s0.3,0.3,0.5,0.3c0.1,0,0.2,0,0.3-0.1l0.5-0.8L18.1,22.1z M12.1,18.2c-0.7,0.2-1.5,0.6-2.3,1.1
		c-0.9,0.5-1.5,1-1.8,1.5c-0.2,0.4-0.4,0.8-0.4,1.4c0,0.5,0.2,0.9,0.5,1.2c0.3,0.3,0.7,0.5,1.1,0.5c0.7,0,1.3-0.2,1.7-0.5
		c0.6-0.5,1-0.9,1.1-1.2s0.2-1.1,0.2-2.5C12.1,19.2,12.1,18.7,12.1,18.2z"/>
</g>
</svg>
