<?xml version="1.0" encoding="utf-8"?>
<!-- Generator: Adobe Illustrator 23.0.2, SVG Export Plug-In . SVG Version: 6.00 Build 0)  -->
<svg version="1.1" id="Layer_1" xmlns="http://www.w3.org/2000/svg" xmlns:xlink="http://www.w3.org/1999/xlink" x="0px" y="0px"
	 viewBox="0 0 89.4 79.2" style="enable-background:new 0 0 89.4 79.2;" xml:space="preserve">
<style type="text/css">
	.st0{fill:#FFE500;}
	.st1{fill:#010101;}
</style>
<g>
	<g>
		<g>
			<path class="st0" d="M7.3,73.7c-1,0-1.5-0.7-1.7-1c-0.2-0.3-0.5-1.1,0-2L43,6.1c0.5-0.9,1.4-1,1.7-1c0.3,0,1.2,0.1,1.7,1
				l37.4,64.7c0.5,0.9,0.2,1.7,0,2c-0.2,0.3-0.7,1-1.7,1H7.3z"/>
			<path class="st1" d="M44.7,8.2l36.3,63H8.3L44.7,8.2 M44.7,2.5c-1.5,0-3,0.8-3.9,2.3L3.4,69.5c-1.7,3,0.4,6.8,3.9,6.8H82
				c3.5,0,5.7-3.8,3.9-6.8L48.6,4.8C47.7,3.3,46.2,2.5,44.7,2.5L44.7,2.5z"/>
		</g>
	</g>
	<g>
		<path class="st1" d="M44.7,58.8c-2.3,0-4.2,1.9-4.2,4.2c0,2.3,1.9,4.2,4.2,4.2c2.3,0,4.2-1.9,4.2-4.2C48.9,60.7,47,58.8,44.7,58.8
			z"/>
		<path class="st1" d="M44.7,25.2c-2.8,0-5,2.4-4.8,5.2l2.3,24c0.1,1.3,1.2,2.3,2.5,2.3c1.3,0,2.4-1,2.5-2.3l2.3-24
			C49.7,27.6,47.5,25.2,44.7,25.2z"/>
	</g>
</g>
</svg>
