<?xml version="1.0" encoding="utf-8"?>
<!-- Generator: Adobe Illustrator 23.0.1, SVG Export Plug-In . SVG Version: 6.00 Build 0)  -->
<svg version="1.1" id="Layer_1" xmlns="http://www.w3.org/2000/svg" xmlns:xlink="http://www.w3.org/1999/xlink" x="0px" y="0px"
	 viewBox="0 0 27 27" style="enable-background:new 0 0 27 27;" xml:space="preserve">
<style type="text/css">
	.st0{fill:#001A72;}
	.st1{opacity:0.75;}
	.st2{fill:#FFFFFF;}
</style>
<g id="Layer_3">
	<circle id="White_Background_3_" class="st0" cx="16.9" cy="9.8" r="6.8"/>
</g>
<g id="Layer_1_1_" xmlns:cc="http://creativecommons.org/ns#" xmlns:dc="http://purl.org/dc/elements/1.1/" xmlns:inkscape="http://www.inkscape.org/namespaces/inkscape" xmlns:rdf="http://www.w3.org/1999/02/22-rdf-syntax-ns#" xmlns:sodipodi="http://sodipodi.sourceforge.net/DTD/sodipodi-0.dtd" xmlns:svg="http://www.w3.org/2000/svg" class="st1">
	
		<sodipodi:namedview  bordercolor="#666666" borderopacity="1" gridtolerance="10" guidetolerance="10" id="namedview7" inkscape:current-layer="Layer_1" inkscape:cx="13.5" inkscape:cy="26.079455" inkscape:pageopacity="0" inkscape:pageshadow="2" inkscape:window-height="709" inkscape:window-maximized="0" inkscape:window-width="1537" inkscape:window-x="0" inkscape:window-y="0" inkscape:zoom="8.7407407" objecttolerance="10" pagecolor="#ffffff" showgrid="false">
		</sodipodi:namedview>
	<path id="Search_Button_Icon_2_" class="st2" d="M3.6,23.9l-1.2-1.2c-0.2-0.2-0.2-0.6,0-0.8l7.7-7c0.2-0.2,0.5-0.2,0.7,0l0.6,0.6
		c0.2,0.2,0.2,0.5,0,0.7l-7,7.7C4.2,24.1,3.8,24.1,3.6,23.9z M23.7,9.8c0-3.9-3.2-7.1-7.1-7.1S9.4,5.8,9.4,9.8s3.2,7.1,7.1,7.1
		S23.7,13.7,23.7,9.8z M22.6,9.8c0,3.3-2.7,6-6,6s-6-2.7-6-6s2.7-6,6-6S22.6,6.4,22.6,9.8z M18.7,5.2c-0.2,0-0.5,0-0.7,0
		c-3.4,0-6.1,2.7-6.1,6.1c0,0.2,0,0.5,0,0.7c-0.3-0.6-0.4-1.3-0.4-2.1c0-2.8,2.3-5.1,5.1-5.1C17.3,4.7,18,4.9,18.7,5.2z"/>
</g>
<g id="Layer_2_copy">
	<path class="st2" d="M20.8,6.8l-1.2-1.4l-3,2.9l-2.9-2.9l-1.3,1.3l2.9,2.8l-3,3.1l1.2,1.4l3-3l3.1,3l1.3-1.3l-3.1-3L20.8,6.8z"/>
</g>
<g id="Layer_1_copy" inkscape:version="0.91 r13725" sodipodi:docname="icon-search-cancel.svg" xmlns:cc="http://creativecommons.org/ns#" xmlns:dc="http://purl.org/dc/elements/1.1/" xmlns:inkscape="http://www.inkscape.org/namespaces/inkscape" xmlns:rdf="http://www.w3.org/1999/02/22-rdf-syntax-ns#" xmlns:sodipodi="http://sodipodi.sourceforge.net/DTD/sodipodi-0.dtd" xmlns:svg="http://www.w3.org/2000/svg" class="st1">
	
		<sodipodi:namedview  bordercolor="#666666" borderopacity="1" gridtolerance="10" guidetolerance="10" id="namedview7" inkscape:current-layer="Layer_1" inkscape:cx="13.5" inkscape:cy="26.079455" inkscape:pageopacity="0" inkscape:pageshadow="2" inkscape:window-height="709" inkscape:window-maximized="0" inkscape:window-width="1537" inkscape:window-x="0" inkscape:window-y="0" inkscape:zoom="8.7407407" objecttolerance="10" pagecolor="#ffffff" showgrid="false">
		</sodipodi:namedview>
	<path id="Search_Button_Icon_1_" class="st2" d="M3.6,23.9l-1.2-1.2c-0.2-0.2-0.2-0.6,0-0.8l7.7-7c0.2-0.2,0.5-0.2,0.7,0l0.6,0.6
		c0.2,0.2,0.2,0.5,0,0.7l-7,7.7C4.2,24.1,3.8,24.1,3.6,23.9z M23.7,9.8c0-3.9-3.2-7.1-7.1-7.1S9.4,5.8,9.4,9.8s3.2,7.1,7.1,7.1
		S23.7,13.7,23.7,9.8z M22.6,9.8c0,3.3-2.7,6-6,6s-6-2.7-6-6s2.7-6,6-6S22.6,6.4,22.6,9.8z"/>
</g>
</svg>
