<?xml version="1.0" encoding="utf-8"?>
<!-- Generator: Adobe Illustrator 22.1.0, SVG Export Plug-In . SVG Version: 6.00 Build 0)  -->
<svg version="1.1" id="Layer_3" xmlns="http://www.w3.org/2000/svg" xmlns:xlink="http://www.w3.org/1999/xlink" x="0px" y="0px"
	 viewBox="0 0 80 80" style="enable-background:new 0 0 80 80;" xml:space="preserve">
<style type="text/css">
	.st0{fill:#FFFFFF;}
	.st1{fill:#252525;}
	.st2{fill:#8D3031;}
	.st3{fill:#01A6AA;}
</style>
<circle class="st0" cx="40.1" cy="40.3" r="38"/>
<circle class="st0" cx="40.1" cy="40.1" r="25.6"/>
<path class="st1" d="M77.7,42.7H2.3c-1.3,0-2.3-1-2.3-2.3v0C0,39,1,38,2.3,38h75.3c1.3,0,2.3,1,2.3,2.3v0C80,41.6,79,42.7,77.7,42.7
	z"/>
<path class="st2" d="M40.1,8.5c17.5,0,31.6,14.2,31.6,31.6S57.5,71.7,40.1,71.7S8.5,57.6,8.5,40.1S22.6,8.5,40.1,8.5z M40.1,14.5
	c-14.1,0-25.6,11.5-25.6,25.6c0,14.1,11.5,25.6,25.6,25.6s25.6-11.5,25.6-25.6C65.7,26,54.2,14.5,40.1,14.5z"/>
<circle class="st3" cx="40.1" cy="40.1" r="18.6"/>
</svg>
