<?xml version="1.0" encoding="utf-8"?>
<!-- Generator: Adobe Illustrator 22.1.0, SVG Export Plug-In . SVG Version: 6.00 Build 0)  -->
<svg version="1.1" id="Layer_2_1_" xmlns="http://www.w3.org/2000/svg" xmlns:xlink="http://www.w3.org/1999/xlink" x="0px" y="0px"
	 viewBox="0 0 33 33" style="enable-background:new 0 0 33 33;" xml:space="preserve">
<style type="text/css">
	.st0{fill:#001A72;}
	.st1{fill:#FFFFFF;}
	.st2{fill:#FF1D25;}
</style>
<polygon class="st0" points="9.5,17 11,14.9 17.3,14.9 19.3,16.8 14.3,21.7 "/>
<g>
	<path class="st1" d="M14.4,17.3c2.9,0,5.3-2.9,5.3-6.5s-2.4-6.5-5.3-6.5s-5.3,2.9-5.3,6.5S11.4,17.3,14.4,17.3z"/>
	<path class="st1" d="M22.5,19.2c0.9,0,1.7,0.3,2.3,0.8c0,0,0.1,0,0.1-0.1c-1.1-1.6-3-2.9-5.9-3.6L14.4,21l-4.6-4.6
		C2.8,18,1.7,23,3.3,27.1h16.9c-0.9-1.2-1.6-2.6-1.6-3.9C18.6,21,20.4,19.2,22.5,19.2z"/>
	<path class="st2" d="M27.2,20.3c-1,0-1.8,0.5-2.3,1.2c-0.5-0.7-1.4-1.2-2.3-1.2c-1.5,0-2.8,1.3-2.8,2.8c0,2.9,4.5,6.5,5.1,6.5
		c0.7,0,5.1-3.7,5.1-6.5C30,21.6,28.8,20.3,27.2,20.3z"/>
</g>
</svg>
