<?xml version="1.0" encoding="utf-8"?>
<!-- Generator: Adobe Illustrator 22.1.0, SVG Export Plug-In . SVG Version: 6.00 Build 0)  -->
<svg version="1.1" id="Layer_3" xmlns="http://www.w3.org/2000/svg" xmlns:xlink="http://www.w3.org/1999/xlink" x="0px" y="0px"
	 viewBox="0 0 27 27" style="enable-background:new 0 0 27 27;" xml:space="preserve">
<style type="text/css">
	.st0{fill:#FFFFFF;}
	.st1{fill:#001A72;}
</style>
<path class="st0" d="M15.1,24.7c0,0-1.9,0.1-3.8,0c-0.8,0-2.3-0.6-2.9-1.8c-0.6-1.2-0.8-2.7-0.8-2.7V15l-3.5-0.4V3.9l7-0.8l10.6,1
	l2,5.2l-0.3,4.6L19.8,15l-0.9,0.3l-1,8.2L15.1,24.7z"/>
<path class="st1" d="M22.6,2.7H4.8c-0.9,0-1.7,0.9-1.7,2v9.2c0,1.1,0.8,2,1.7,2h2.8v-1.6h-1c-0.8,0-1.4-0.8-1.4-1.7
	c0-1,0.6-1.7,1.4-1.7H11c0.7-0.5,1.5-0.8,2.3-1C15.8,9,18.5,9.6,21,9c1.3-0.3,2.2-0.6,3-2c0-0.1,0.1-0.2,0.1-0.2l0.1-0.2V4.7
	C24.3,3.6,23.5,2.7,22.6,2.7z M5.9,6.5c-0.6,0-1.1-0.6-1.1-1.3s0.5-1.3,1.1-1.3C6.5,3.9,7,4.5,7,5.2S6.5,6.5,5.9,6.5z M8.9,6.5
	c-0.6,0-1.1-0.6-1.1-1.3s0.5-1.3,1.1-1.3S10,4.5,10,5.2S9.5,6.5,8.9,6.5z"/>
<path class="st1" d="M24.2,6.7c0,0.1-0.1,0.2-0.1,0.2c-0.8,1.3-1.7,1.6-3,2c-2.5,0.6-5.2,0.1-7.7,0.9c-0.8,0.3-1.6,0.6-2.3,1h9.3
	c0.8,0,1.4,0.8,1.4,1.7c0,1-0.6,1.7-1.4,1.7h-0.5v1.6h2.8c0.9,0,1.7-0.9,1.7-2V6.4L24.2,6.7z"/>
<path class="st1" d="M7.6,11.5v2.8v1.6v4.3h2l0,0c0.9,0,1.7,0.9,1.7,2l0,0v2.6h7.2c0.7,0,1.3-0.7,1.3-1.5V16v-1.6v-2.8L7.6,11.5
	L7.6,11.5z M17.6,19.1h-8c-0.2,0-0.4-0.2-0.4-0.5s0.2-0.5,0.4-0.5h8c0.2,0,0.4,0.2,0.4,0.5C18,18.8,17.8,19.1,17.6,19.1z M18,16.3
	c0,0.3-0.2,0.5-0.4,0.5h-8c-0.2,0-0.4-0.2-0.4-0.5c0-0.2,0.1-0.3,0.2-0.4c0.1,0,0.1-0.1,0.2-0.1h8c0.1,0,0.1,0,0.2,0.1
	C17.9,16,18,16.1,18,16.3z M17.6,14.6h-8c-0.1,0-0.3-0.1-0.3-0.2c0-0.1-0.1-0.1-0.1-0.2c0-0.3,0.2-0.5,0.4-0.5h8
	c0.2,0,0.4,0.2,0.4,0.5c0,0.1,0,0.1,0,0.2C17.9,14.5,17.7,14.6,17.6,14.6z"/>
<path class="st1" d="M9.6,21.2H8.2c0.4,1.3,0.9,2.3,2.3,2.9v-1.8l0,0C10.5,21.7,10.1,21.2,9.6,21.2z"/>
</svg>
