<?xml version="1.0" encoding="utf-8"?>
<!-- Generator: Adobe Illustrator 22.1.0, SVG Export Plug-In . SVG Version: 6.00 Build 0)  -->
<svg version="1.1" id="Layer_1" xmlns="http://www.w3.org/2000/svg" xmlns:xlink="http://www.w3.org/1999/xlink" x="0px" y="0px"
	 viewBox="0 0 80 80" style="enable-background:new 0 0 80 80;" xml:space="preserve">
<style type="text/css">
	.st0{fill:#001A72;}
</style>
<g>
	<g>
		<path class="st0" d="M73.5,22.9H6.4c-3,0-5.4-2.4-5.4-5.4c0-3,2.4-5.4,5.4-5.4h67.1c3,0,5.4,2.4,5.4,5.4
			C79,20.4,76.5,22.9,73.5,22.9z"/>
	</g>
	<g>
		<path class="st0" d="M73.5,45.4H6.4C3.4,45.4,1,43,1,40c0-3,2.4-5.4,5.4-5.4h67.1c3,0,5.4,2.4,5.4,5.4C79,43,76.5,45.4,73.5,45.4z
			"/>
	</g>
	<g>
		<path class="st0" d="M73.5,68H6.4c-3,0-5.4-2.4-5.4-5.4c0-3,2.4-5.4,5.4-5.4h67.1c3,0,5.4,2.4,5.4,5.4C79,65.6,76.5,68,73.5,68z"
			/>
	</g>
</g>
</svg>
