<?xml version="1.0" encoding="utf-8"?>
<!-- Generator: Adobe Illustrator 23.0.1, SVG Export Plug-In . SVG Version: 6.00 Build 0)  -->
<svg version="1.1" id="Layer_1" xmlns="http://www.w3.org/2000/svg" xmlns:xlink="http://www.w3.org/1999/xlink" x="0px" y="0px"
	 viewBox="0 0 80 80" style="enable-background:new 0 0 80 80;" xml:space="preserve">
<style type="text/css">
	.st0{fill:#001A72;}
	.st1{fill:#FFFFFF;}
</style>
<g>
	<path class="st0" d="M1,80V6c0-2.8,2.2-5,5-5h68c2.8,0,5,2.2,5,5v74"/>
</g>
<g>
	<g>
		<g>
			<path class="st1" d="M71.2,24H8.8c-2.8,0-5-2.2-5-5s2.2-5,5-5h62.4c2.8,0,5,2.2,5,5C76.3,21.7,74,24,71.2,24z"/>
		</g>
		<g>
			<path class="st1" d="M71.2,45H8.8c-2.8,0-5-2.2-5-5s2.2-5,5-5h62.4c2.8,0,5,2.2,5,5C76.3,42.7,74,45,71.2,45z"/>
		</g>
		<g>
			<path class="st1" d="M71.2,66H8.8c-2.8,0-5-2.2-5-5s2.2-5,5-5h62.4c2.8,0,5,2.2,5,5C76.3,63.8,74,66,71.2,66z"/>
		</g>
	</g>
</g>
</svg>
