<?xml version="1.0" encoding="utf-8"?>
<!-- Generator: Adobe Illustrator 23.0.6, SVG Export Plug-In . SVG Version: 6.00 Build 0)  -->
<svg version="1.1" id="Layer_1" xmlns="http://www.w3.org/2000/svg" xmlns:xlink="http://www.w3.org/1999/xlink" x="0px" y="0px"
	 viewBox="0 0 38 21" style="enable-background:new 0 0 38 21;" xml:space="preserve">
<style type="text/css">
	.st0{fill:#74809A;}
	.st1{fill:#FFFFFF;}
</style>
<g>
	<path class="st0" d="M28.1,20.1H10.2c-5.3,0-9.6-4.3-9.6-9.6l0,0c0-5.3,4.3-9.6,9.6-9.6h17.9c5.3,0,9.6,4.3,9.6,9.6l0,0
		C37.7,15.8,33.4,20.1,28.1,20.1z"/>
	<path class="st1" d="M12.9,10c-0.2,0.3-0.5,0.4-0.7,0.5c0.3,0.1,0.5,0.2,0.7,0.5s0.3,0.6,0.3,1v3c0,0.2,0,0.4,0.1,0.5
		s0.2,0.1,0.5,0.1h1v1.1h-1.5c-0.5,0-0.9-0.1-1.1-0.4c-0.3-0.3-0.4-0.7-0.4-1.1v-3c0-0.4-0.1-0.6-0.2-0.8c-0.1-0.2-0.4-0.3-0.7-0.3
		h-0.4v-1h0.4c0.4,0,0.6-0.1,0.7-0.3c0.1-0.2,0.2-0.4,0.2-0.8V6c0-0.5,0.1-0.9,0.4-1.1c0.3-0.3,0.6-0.4,1.1-0.4h1.5v1.1h-1
		c-0.2,0-0.4,0-0.5,0.1S13.2,6,13.2,6.2v3C13.3,9.4,13.1,9.8,12.9,10z"/>
	<g>
		<path class="st1" d="M19,9L19,9c0.5,0,0.8-0.4,0.8-0.8l0,0c0-0.5-0.4-0.8-0.8-0.8l0,0c-0.5,0-0.8,0.4-0.8,0.8l0,0
			C18.2,8.7,18.6,9,19,9z"/>
		<path class="st1" d="M19.9,13.4L19.9,13.4C19.9,13.3,19.9,13.3,19.9,13.4c0-0.1,0-0.2,0-0.3l0,0c-0.1-0.3-0.4-0.6-0.8-0.6l0,0
			c-0.5,0-0.8,0.4-0.8,0.8l0,0c0,0.4,0.3,0.8,0.8,0.8l0,0c-0.1,0.4-0.3,0.8-0.7,1.2l0.6,0.5C19.5,15.2,20,14.2,19.9,13.4z"/>
	</g>
	<path class="st1" d="M27.6,10v1h-0.4c-0.4,0-0.6,0.1-0.7,0.3s-0.2,0.4-0.2,0.8v3c0,0.5-0.1,0.9-0.4,1.1c-0.3,0.3-0.6,0.4-1.1,0.4
		h-1.4v-1.1h1c0.4,0,0.6-0.2,0.6-0.6v-3c0-0.4,0.1-0.8,0.3-1c0.2-0.3,0.5-0.4,0.7-0.5c-0.3-0.1-0.5-0.2-0.7-0.5S25,9.3,25,8.9v-3
		c0-0.4-0.2-0.6-0.6-0.6h-1V4.4h1.4c0.5,0,0.9,0.1,1.1,0.4c0.3,0.3,0.4,0.7,0.4,1.1v3c0,0.4,0.1,0.7,0.2,0.8
		c0.1,0.2,0.4,0.3,0.7,0.3H27.6z"/>
</g>
</svg>
