<?xml version="1.0" encoding="utf-8"?>
<!-- Generator: Adobe Illustrator 23.0.2, SVG Export Plug-In . SVG Version: 6.00 Build 0)  -->
<svg version="1.1" id="Layer_1" xmlns="http://www.w3.org/2000/svg" xmlns:xlink="http://www.w3.org/1999/xlink" x="0px" y="0px"
	 viewBox="0 0 80 80" style="enable-background:new 0 0 80 80;" xml:space="preserve">
<style type="text/css">
	.st0{fill:#6975A8;}
	.st1{fill:#FFFFFF;}
</style>
<g>
	<g>
		<g>
			<path class="st0" d="M64,79.4H16.4c-8.2,0-15-6.8-15-15V16.8c0-8.2,6.8-15,15-15H64c8.2,0,15,6.8,15,15v47.6
				C79,72.6,72.2,79.4,64,79.4z"/>
		</g>
	</g>
</g>
<g id="Layer_2">
	<g>
		<path class="st1" d="M8.2,37.8c2.6,0,5.4-2,5.4-7.9c0-1.2-0.1-2.1-0.1-3.2c-0.1-1-0.1-2-0.1-3c0-8.8,6.4-10.1,11-9.9v4.4
			c-3.6,1-4.2,3.7-4.2,5.5c0,1.1,0.1,2.2,0.2,3.3c0.1,0.7,0.1,1.3,0.1,1.9v1.9c0,3.8-1.4,7.5-6.9,9.6v0.4c5.6,2.4,6.9,5.4,6.9,9.6
			v1.9c0,0.6-0.1,1.2-0.1,1.9c-0.1,1.2-0.2,2.2-0.2,3.4c0,3.6,2.5,5.1,4.2,5.4v4.4c-8.5,0.5-11-4.6-11-9.9c0-2.3,0.2-2.8,0.2-6.3
			c0-5.6-2.5-7.6-5.4-7.9V37.8z"/>
		<path class="st1" d="M35.2,20.7h10v9.6h-10V20.7z M35.2,41.9h10v9.6c0,2.7-0.4,10.5-10,10.7v-4.8c1.9,0,5.2-1,5.2-5.6v-0.4h-5.2
			V41.9z"/>
		<path class="st1" d="M71.2,43.4c-5.1,0.5-5.4,6.1-5.4,7.9c0,3.7,0.2,4.6,0.2,6.3c0,9.9-8.6,10.1-11,9.9V63
			c1.7-0.3,4.2-1.8,4.2-5.4c0-1.1-0.1-2.2-0.2-3.4c-0.1-0.7-0.1-1.3-0.1-1.9v-1.9c0-4.1,1.3-7.2,6.9-9.6v-0.4
			c-5.5-2.1-6.9-5.8-6.9-9.6v-1.9c0-0.6,0.1-1.2,0.1-1.9c0.1-1.1,0.2-2.2,0.2-3.3c0-1.8-0.6-4.5-4.2-5.5v-4.4c4.2-0.2,11,1.1,11,9.9
			c0,1.4-0.2,2.7-0.2,6.2c0,5.8,2.8,7.9,5.4,7.9V43.4z"/>
	</g>
</g>
</svg>
