<?xml version="1.0" encoding="utf-8"?>
<!-- Generator: Adobe Illustrator 22.1.0, SVG Export Plug-In . SVG Version: 6.00 Build 0)  -->
<svg version="1.1" id="Layer_1" xmlns="http://www.w3.org/2000/svg" xmlns:xlink="http://www.w3.org/1999/xlink" x="0px" y="0px"
	 viewBox="0 0 307.2 87" style="enable-background:new 0 0 307.2 87;" xml:space="preserve">
<style type="text/css">
	.st0{fill:#C41230;}
	.st1{fill:#FFFFFF;}
	.st2{fill:none;stroke:#000000;stroke-width:1.0822;}
	.st3{fill:none;stroke:#000000;stroke-width:0.2211;}
	.st4{fill:none;stroke:#000000;stroke-width:0.2253;}
</style>
<g>
	<path class="st0" d="M36.6,8.5l-30.3,0L6.2,32.7c0,29.7,29.8,48.7,30.1,48.9l0.1,0.1c0.1,0,0.3-0.1,0.3-0.1
		C41.8,78.2,67,60.3,67,32.9l0-24.4C67,8.5,36.6,8.5,36.6,8.5L36.6,8.5L36.6,8.5z M66.9,30h-60v-3.5h60V30L66.9,30z"/>
	<path d="M16.5,11.5c2-0.9,4.3-0.2,6.5-0.4c0.6,0.1,1.4-0.3,1.8,0.3c0,0.7,0,1.3,0,1.9c0.2,0.5,0.9,0.1,1.2,0.3
		c0.2,0.1,0.5,0.2,0.5,0.5c0.1,0.3,0,0.6-0.1,0.9c-0.4,0.5-0.9,0.3-1.5,0.4l-0.2,0.2c0.1,1.2-0.2,2.3,0,3.4c0,0.2-0.1,0.6,0.2,0.7
		c0.6,0,1.1,0,1.6,0.4c0.2,0.3,0.2,0.7,0.1,1c-0.2,1.2-2.1-0.2-1.9,1.3c0,0.5,0.1,1.3-0.1,1.8c-2.2,0-4.5-0.2-6.6,0
		c-0.4,0.3-0.9,0.5-1.4,0.6c-0.5-0.1-0.8-0.3-1.1-0.6c-2-0.1-4-0.1-5.9-0.1C9,23.6,9.4,22.7,9.2,22c-0.3-0.4-0.8-0.1-1.2-0.3
		c-0.3,0-0.4-0.3-0.5-0.5c0-0.4,0-0.8,0.3-1.1c0.3-0.2,0.8-0.2,1.2-0.2l0.2-0.2c-0.1-1.4,0.2-2.6-0.1-4.1c-0.2-0.3-0.6,0-0.8-0.2
		c-0.4-0.1-0.7-0.2-0.9-0.6c-0.1-0.3-0.2-0.7,0.2-0.9c0.5-0.5,1.2,0.1,1.6-0.4l0.2-2c0.3-0.6,1.1-0.3,1.7-0.3c1-0.2,2.2,0,3.3,0
		C15.1,11.1,15.9,11.2,16.5,11.5L16.5,11.5L16.5,11.5L16.5,11.5z"/>
	<path d="M179,20.7c-0.6-1.4-1.6-2.4-3.2-2.7v-0.8c1,0,4.3,0.1,5.1,0.1c0.7,0,3.7-0.1,4.7-0.1v0.8c-0.9,0.2-2,0.7-2,1.6
		c0,0.7,0.4,1.6,1.2,3.3l7.3,16.5l6.9-16.6c0.5-1.3,0.9-2.4,0.9-3.2c0-0.9-0.8-1.5-1.9-1.7v-0.8c0.9,0,3.1,0.1,3.8,0.1
		c0.6,0,3.3-0.1,4.3-0.1V18c-1.7,0.5-2.8,1.4-3.7,3.6l-10.1,23.9h-2.1L179,20.7L179,20.7L179,20.7z"/>
	<path d="M80.8,44.6c1.3-0.3,2.2-0.9,2.2-2.4V20.3c0-1.4-0.9-2-2.2-2.4v-0.8c0.7,0,3.7,0.1,4.4,0.1c0.8,0,4-0.1,4.7-0.1v0.8
		c-1.3,0.3-2.3,0.9-2.3,2.4v9.1h16.3v-9.1c0-1.5-0.9-2.1-2.2-2.4v-0.8c0.7,0,3.8,0.1,4.6,0.1c0.7,0,3.8-0.1,4.5-0.1v0.8
		c-1.3,0.3-2.3,0.9-2.3,2.4v21.9c0,1.4,0.9,2,2.3,2.4v0.7c-0.7,0-3.7-0.1-4.5-0.1c-0.8,0-4,0.1-4.6,0.1v-0.7
		c1.3-0.3,2.2-0.9,2.2-2.4V31.8H87.6v10.3c0,1.5,0.9,2,2.3,2.4v0.7c-0.7,0-3.9-0.1-4.7-0.1c-0.7,0-3.7,0.1-4.4,0.1V44.6L80.8,44.6
		L80.8,44.6z M115.2,44.6c1.8-0.4,2.8-1.6,3.4-3.1l9-21.7c0.4-0.9,0.8-2.7,0.8-2.7h2.5c0,0,0.5,1.9,0.8,2.7l9.5,21.8
		c0.7,1.5,1.4,2.6,3.3,3.1l0,0.7c-1,0-4.2-0.1-5-0.1c-0.7,0-3.8,0.1-4.8,0.1l0-0.7c1.4-0.3,1.8-1.1,1.8-1.7c0-0.6-0.2-1.2-0.5-1.9
		l-2-4.6l-10.6,0l-1.8,4.6c-0.2,0.5-0.5,1.3-0.5,1.8c0,0.8,0.4,1.4,2,1.8l0,0.7c-0.9,0-3.4-0.1-4-0.1l-4.1,0.1L115.2,44.6
		L115.2,44.6L115.2,44.6z M133.2,34l-4.5-10.4L124.5,34H133.2L133.2,34z M115.2,44.6c1.8-0.4,2.8-1.6,3.4-3.1l9-21.7
		c0.4-0.9,0.8-2.7,0.8-2.7h2.5c0,0,0.5,1.9,0.8,2.7l9.5,21.8c0.7,1.5,1.4,2.6,3.3,3.1l0,0.7c-1,0-4.2-0.1-5-0.1
		c-0.7,0-3.8,0.1-4.8,0.1l0-0.7c1.4-0.3,1.8-1.1,1.8-1.7c0-0.6-0.2-1.2-0.5-1.9l-2-4.6l-10.6,0l-1.8,4.6c-0.2,0.5-0.5,1.3-0.5,1.8
		c0,0.8,0.4,1.4,2,1.8l0,0.7c-0.9,0-3.4-0.1-4-0.1l-4.1,0.1L115.2,44.6L115.2,44.6L115.2,44.6z M133.2,34l-4.5-10.4L124.5,34H133.2
		L133.2,34z M204.6,44.6c1.8-0.4,2.8-1.6,3.4-3.1l9-21.7c0.4-0.9,0.8-2.7,0.8-2.7h2.5c0,0,0.5,1.9,0.8,2.7l9.5,21.8
		c0.7,1.5,1.4,2.6,3.3,3.1l0,0.7c-1,0-4.2-0.1-5-0.1c-0.7,0-3.8,0.1-4.8,0.1l0-0.7c1.4-0.3,1.8-1.1,1.8-1.7c0-0.6-0.2-1.2-0.5-1.9
		l-2-4.6l-10.6,0l-1.8,4.6c-0.2,0.5-0.5,1.3-0.5,1.8c0,0.8,0.4,1.4,2,1.8l0,0.7c-0.9,0-3.3-0.1-3.9-0.1l-4.2,0.1L204.6,44.6
		L204.6,44.6L204.6,44.6z M222.5,34L218,23.6L213.8,34H222.5L222.5,34z M269.7,44.6c1.7-0.3,2.6-1,2.6-2.5V20.3
		c0-1.5-0.9-2.1-2.5-2.4v-0.8c0.9,0,4,0.1,4.9,0.1c1.4,0,5.3-0.3,8.3-0.3c10,0,16.1,5.6,16.1,14.1c0,8.3-6.3,14.4-16.7,14.4
		c-3,0-6.6-0.2-8-0.2c-0.8,0-3.7,0.1-4.7,0.1V44.6L269.7,44.6L269.7,44.6z M276.9,43.1c1,0.2,2.9,0.3,4.4,0.3
		c8.4,0,12.8-5.1,12.8-12.1c0-7.3-4.6-12.5-12.5-12.5c-1.6,0-3.6,0.1-4.7,0.3V43.1L276.9,43.1L276.9,43.1z"/>
	<path d="M155.9,42c0,1.5,0.9,2.2,2.6,2.6v0.8c-0.9,0-4-0.1-4.9-0.1c-0.8,0-3.8,0.1-4.7,0.1v-0.8c1.6-0.3,2.5-1.1,2.5-2.6V20.3
		c0-1.3-0.7-2.2-2.5-2.5v-0.8c0.9,0,3.9,0.1,4.8,0.1c1.4,0,5.3-0.2,6.8-0.2c6.7,0,10.5,2.8,10.5,7.6c0,3.8-2.8,6.3-7.1,7.3
		c0,0,1,0.6,1.9,1.7c1.2,1.4,4.6,6.1,5.9,7.7c1.3,1.6,3,3.5,4.8,3.5v0.6c-0.9,0.2-2.3,0.4-3.3,0.4c-2.3,0-4.1-0.8-5.9-3
		c-1.5-1.9-4.3-5.8-5.9-7.8c-1-1.2-2.2-2.2-4.3-2.6c-0.4-0.1-0.8-0.1-1.3-0.2V42L155.9,42L155.9,42z M155.9,30.5
		c0.9,0.1,2.2,0.2,3.5,0.2c5.3,0,6.9-3,6.9-5.7c0-3.8-2.5-6.2-7.2-6.2c-0.9,0-2.3,0.1-3.3,0.3V30.5L155.9,30.5L155.9,30.5z"/>
	<path d="M244.8,42c0,1.5,0.9,2.2,2.6,2.6v0.8c-0.9,0-4-0.1-4.9-0.1c-0.8,0-3.8,0.1-4.7,0.1v-0.8c1.6-0.3,2.5-1.1,2.5-2.6V20.3
		c0-1.3-0.7-2.2-2.5-2.5v-0.8c0.9,0,3.9,0.1,4.8,0.1c1.4,0,5.3-0.2,6.8-0.2c6.7,0,10.5,2.8,10.5,7.6c0,3.8-2.8,6.3-7.1,7.3
		c0,0,1,0.6,2,1.7c1.2,1.4,4.5,6.1,5.8,7.7c1.3,1.6,3,3.5,4.9,3.5v0.6c-0.9,0.2-2.3,0.4-3.3,0.4c-2.3,0-4.1-0.8-5.9-3
		c-1.5-1.9-4.2-5.8-5.7-7.8c-1-1.2-2.2-2.2-4.3-2.6c-0.4-0.1-0.8-0.1-1.3-0.2V42L244.8,42L244.8,42z M244.8,30.5
		c0.9,0.1,2.2,0.2,3.5,0.2c5.3,0,6.9-3,6.9-5.7c0-3.8-2.5-6.2-7.2-6.2c-0.9,0-2.3,0.1-3.3,0.3V30.5L244.8,30.5L244.8,30.5z"/>
	<path class="st0" d="M200.5,69.6h0.4c0.2,0.8,0.7,1.6,1.3,2c0.7,0.5,1.7,0.7,2.6,0.7c1.9,0,3.1-0.9,3.1-2.4c0-1.6-1.6-2.3-3.4-3.2
		c-1.4-0.7-4.2-1.7-4.2-4.5c0-2.5,1.9-4,4.9-4c2,0,2.9,0.5,4.3,0.4l0,3h-0.4c-0.5-1.8-2.1-2.4-3.9-2.4c-1.9,0-2.8,1.1-2.8,2.3
		c0,1.7,1.8,2.6,3.5,3.3c2,0.9,4.2,1.9,4.2,4.5c0,2.4-1.9,4.1-5.3,4.1c-2,0-3.3-0.6-4.3-0.7L200.5,69.6L200.5,69.6z"/>
	<path class="st0" d="M231.3,72.6c0.7-0.2,1.2-0.5,1.2-1.2V60.1c0-0.7-0.4-1.1-1.2-1.2v-0.4c0.4,0,1.9,0.1,2.3,0.1
		c0.4,0,2.1-0.1,2.4-0.1v0.4c-0.7,0.2-1.2,0.5-1.2,1.2v4.7h8.4v-4.7c0-0.8-0.4-1.1-1.2-1.2v-0.4c0.4,0,2,0.1,2.4,0.1
		c0.4,0,2-0.1,2.3-0.1v0.4c-0.7,0.2-1.2,0.5-1.2,1.2v11.3c0,0.7,0.5,1.1,1.2,1.2V73c-0.4,0-2,0-2.3,0c-0.4,0-2,0-2.4,0v-0.4
		c0.7-0.2,1.2-0.5,1.2-1.2V66h-8.4v5.3c0,0.8,0.5,1.1,1.2,1.2V73c-0.4,0-2,0-2.4,0c-0.4,0-2,0-2.3,0V72.6L231.3,72.6z"/>
	<path class="st0" d="M227.1,69.3l-0.2,3.2c-1.1-0.1-2.6,0.7-5.2,0.7c-5.4,0-7.8-3.3-7.8-7.5c0-4.5,3.1-7.7,7.7-7.7
		c2.3,0,3.6,0.8,5.1,0.7l0.1,3.2h-0.4c-0.8-1.9-2.8-2.9-4.7-2.9c-3.4,0-5.2,3-5.2,6.5c0,2.9,1.5,6.5,5.5,6.5c2.3,0,3.9-0.8,4.7-2.9
		H227.1L227.1,69.3z"/>
	<path class="st0" d="M250.3,65.8c0-4.2,2.9-7.6,7.5-7.6c4.6,0,7.5,3.4,7.5,7.6c0,4.2-2.9,7.5-7.5,7.5
		C253.2,73.3,250.3,70,250.3,65.8L250.3,65.8z M262.8,65.8c0-3.4-1.5-6.6-4.9-6.6c-3.4,0-4.9,3.2-4.9,6.6c0,3.4,1.5,6.5,4.9,6.5
		C261.3,72.3,262.8,69.2,262.8,65.8L262.8,65.8z"/>
	<path class="st0" d="M268.7,65.8c0-4.2,2.9-7.6,7.5-7.6c4.6,0,7.5,3.4,7.5,7.6c0,4.2-2.9,7.5-7.5,7.5
		C271.6,73.3,268.7,70,268.7,65.8L268.7,65.8z M281.1,65.8c0-3.4-1.5-6.6-4.9-6.6c-3.4,0-4.9,3.2-4.9,6.6c0,3.4,1.5,6.5,4.9,6.5
		C279.6,72.3,281.1,69.2,281.1,65.8L281.1,65.8z"/>
	<path class="st0" d="M103.6,58.4h9.2c0.3,0,0.8,0,1.1-0.2h0.4l-0.1,3h-0.4c-0.3-0.9-0.8-1.7-2.6-1.7h-3.9v5.3c0,0,2.9,0,3.2,0
		c0.4,0,1,0,1.2-0.1c0.7-0.2,1-0.5,1.1-1.1h0.4c0,0.4,0,1.4,0,1.7c0,0.3,0,1.4,0,1.9h-0.4c-0.2-0.6-0.5-1-1.1-1.2
		c-0.2-0.1-0.8-0.1-1.2-0.1c-0.2,0-3.2,0-3.2,0v5.9h4.4c1.9,0,2.4-0.8,2.9-1.9l0.4,0.1l-0.4,3c-1.4-0.1-2.2-0.1-3.8-0.1H106
		c-0.4,0-2,0.1-2.5,0.1v-0.4c0.8-0.2,1.3-0.6,1.3-1.3V60.1c0-0.7-0.4-1.1-1.3-1.3V58.4L103.6,58.4z"/>
	<path class="st0" d="M138.5,60.2c0-0.7-0.4-1.2-1.3-1.3v-0.4c0.5,0,2.1,0.1,2.6,0.1c0.4,0,2-0.1,2.5-0.1v0.4
		c-0.9,0.2-1.3,0.6-1.3,1.3v11.1c0,0.7,0.4,1.2,1.3,1.3V73c-0.5,0-2-0.1-2.5-0.1c-0.4,0-2.1,0.1-2.6,0.1v-0.4
		c0.9-0.2,1.3-0.6,1.3-1.3V60.2L138.5,60.2z"/>
	<path class="st0" d="M161.1,72.6c0.9-0.2,1.4-0.8,1.8-1.6l4.7-11.2c0.2-0.5,0.4-1.4,0.4-1.4h1.3c0,0,0.2,1,0.4,1.4l4.9,11.2
		c0.4,0.8,0.7,1.3,1.7,1.6l0,0.4c-0.5,0-2.2,0-2.6,0c-0.4,0-2,0-2.5,0l0-0.4c0.7-0.2,1-0.5,1-0.9c0-0.3-0.1-0.6-0.3-1l-1-2.4h-5.5
		l-1,2.4c-0.1,0.3-0.2,0.7-0.2,0.9c0,0.4,0.2,0.7,1,0.9l0,0.4c-0.5,0-1.7,0-2,0l-2.1,0L161.1,72.6L161.1,72.6z M170.4,67.1l-2.3-5.4
		l-2.2,5.4H170.4L170.4,67.1z"/>
	<path class="st0" d="M159.2,69.3l-0.2,3.2c-1.1-0.1-2.6,0.7-5.2,0.7c-5.3,0-7.8-3.3-7.8-7.5c0-4.5,3.1-7.7,7.7-7.7
		c2.3,0,3.6,0.8,5.1,0.7l0.1,3.2h-0.4c-0.8-1.9-2.8-2.9-4.7-2.9c-3.4,0-5.2,3-5.2,6.5c0,2.9,1.5,6.5,5.5,6.5c2.3,0,3.9-0.8,4.7-2.9
		H159.2L159.2,69.3z"/>
	<path class="st0" d="M190,69.9c-0.5,1.1-1,1.9-2.9,1.9h-4.4V60.2c0-0.8,0.5-1.2,1.3-1.3v-0.4c-0.5,0-2.1,0.1-2.5,0.1
		c-0.5,0-2.1-0.1-2.6-0.1v0.4c0.9,0.2,1.3,0.6,1.3,1.3v11.1c0,0.8-0.4,1.2-1.3,1.3V73c0.5,0,2.2-0.1,2.6-0.1c0,0,0,0,0,0l0,0h4.6
		c1.6,0,2.4,0,3.8,0.1l0.4-3L190,69.9L190,69.9z"/>
	<path class="st0" d="M298,69.9c-0.5,1.1-1,1.9-2.9,1.9h-4.4V60.2c0-0.8,0.5-1.2,1.3-1.3v-0.4c-0.5,0-2.1,0.1-2.5,0.1
		c-0.5,0-2.1-0.1-2.6-0.1v0.4c0.9,0.2,1.3,0.6,1.3,1.3v11.1c0,0.8-0.4,1.2-1.3,1.3V73c0.5,0,2.2-0.1,2.6-0.1c0,0,0,0,0,0l0,0h4.6
		c1.6,0,2.4,0,3.8,0.1l0.4-3L298,69.9L298,69.9z"/>
	<path class="st0" d="M118.8,72.6c0.9-0.2,1.4-0.5,1.4-1.3V60.1c0-0.8-0.5-1.1-1.3-1.2v-0.4c0.5,0,2.1,0.1,2.5,0.1
		c0.7,0,2.6-0.2,4.1-0.2c5.2,0,8.3,2.9,8.3,7.3c0,4.3-3.3,7.4-8.6,7.4c-1.5,0-3.3-0.1-4-0.1c-0.4,0-1.9,0.1-2.4,0.1V72.6L118.8,72.6
		z M122.5,71.8c0.5,0.1,1.4,0.2,2.2,0.2c4.3,0,6.6-2.4,6.6-6.3c0-3.8-2.4-6.5-6.5-6.5c-0.8,0-1.8,0.1-2.3,0.2V71.8L122.5,71.8z"/>
	<path class="st0" d="M98.2,71l-0.8-10.8c-0.1-0.7,0.3-1.1,1.1-1.3v-0.4c-0.6,0-1.6,0-1.9,0c-0.3,0-1,0-1.5,0l-4.8,11.2l-4.8-11.2
		c-0.5,0-1.3,0-1.6,0c-0.4,0-1.5,0-2,0v0.4c0.9,0.1,1.3,0.6,1.2,1.3L82.3,71c-0.1,0.9-0.5,1.5-1.5,1.7V73l2.1,0c0.3,0,1.5,0,2,0
		v-0.4c-1-0.3-1.2-0.8-1.2-1.5l0.6-9.6l5,11.5h0.8l5-11.5l0.6,9.6c0,0.7-0.2,1.2-1.2,1.5V73c0.5,0,2.2,0,2.5,0l2.5,0v-0.4
		C98.7,72.4,98.2,71.9,98.2,71L98.2,71z"/>
	<path class="st1" d="M19.2,32.8c0,0-0.1,0.4-0.1,0.4c0,0.2-0.2,0.4-0.4,0.4l-0.9-0.1c-0.4-0.1-0.7-0.2-0.9-0.1
		c-0.1,0.1-0.3,0.2-0.5,0.4c0.1,0,0.1,0.1,0.1,0.1c0.2,0.1,0.6,0.2,0.7,0.7c0,0.4,0.2,0.7,0.4,0.9l0.2,0.2c0.1,0.1,0.1,0.2,0.1,0.3
		c0,0.1,0,0.1-0.1,0.2l-0.4,0.5c0,0-0.2,0.2-0.2,0.2c0,0-0.2,0.5-0.3,0.7c0.1,0.2,0.2,0.3,0.3,0.3c0.4-0.1,0.7,0,1,0l0.6,0.1
		c0,0,0.1,0,0.1,0l0.2,0c0.3,0,0.6-0.1,0.9,0.1c0,0,0.3,0.6,0.3,0.6c0.1,0.2,0.1,0.3,0.1,0.5c0,0.2,0,0.4-0.1,0.6l-0.1,0.3
		c0,0.1,0,0.2-0.1,0.2c-0.5,0.8-1.3,1.4-2.1,1.8c0.1,0,0.1,0,0.1,0c0,0,0,0,0,0.1c0,0,0,0,0,0c0.1,0.1,0.4,0.1,0.7,0l0.2,0
		c0.4,0,0.7-0.1,1.1-0.3l1.2-0.3c0.2-0.1,0.3,0.1,0.4,0.2c0.2,0.4,0.5,0.8,0.7,0.9c0,0,0,0,0.2-0.2c0.2-0.2,0.6-0.5,1.2-0.3
		c0,0,0.1,0,0.1,0.1c0.4,0.3,0.5,0.7,0.6,1.1c0.1,0.2,0.1,0.5,0.3,0.6c0.1,0.1,0.1,0.2,0.1,0.2c0,0,0,0.1,0,0.1
		c0,0.4-0.4,0.6-0.5,0.7l-0.1,0c0,0-0.1,0.1-0.1,0.1l-1,0.2c-0.3,0-0.6,0.1-0.8,0.2c0,0,0,0.1,0.1,0.1c0.4,0.2,1,0.3,1.6,0.4
		l0.3,0.1c0,0,0.7,0,0.7,0l1.2,0c0.2,0,0.3,0.1,0.3,0.2c0.1,0.1,0,0.3-0.1,0.4l-0.2,0.3c0,0.1-0.1,0.1-0.1,0.1l-1.9,1.3
		c-0.1,0-1.1,0.4-1.1,0.4l-1.5,0.6c0,0-0.1,0-0.1,0c-0.9,0.2-1.5-0.3-1.9-0.6c-0.3-0.3-0.6-0.5-1-0.5c-0.4,0-0.6,0.1-0.9,0.3
		c-0.1,0.1-0.1,0.2-0.1,0.4c0,0.1,0,0.1,0,0.2c0,0,0.1,0,0.1,0c0.2,0.1,0.6,0.2,0.6,0.7c0,0.7-0.3,1.2-0.6,1.7
		c-0.2,0.4-0.5,0.9-0.5,1.3c0,0,0,0.1,0,0.1c0,0.1,0,0.2,0.1,0.2c0,0,0.1,0,0.1,0c0,0,0.1,0,0.1,0c0,0,0.1-0.2,0.1-0.2
		c0.1-0.2,0.3-0.5,0.7-0.6c0,0,0.1,0,0.1,0c0.8,0.1,1.2,0,1.5-0.3c0.1-0.1,0.2-0.1,0.3-0.1c0.2,0,0.5,0,0.7,0.2
		c0.2,0.2,0.3,0.4,0.3,0.6c0,0,0,0.1,0,0.2c0.5-0.1,0.8-0.5,1.2-1.2l0.2-0.3c0.1-0.1,0.2-0.2,0.3-0.2l0.3-0.1c0.4-0.1,0.9-0.3,1.3,0
		c0.1,0.1,0.2,0.2,0.2,0.3c0,0.1,0,0.2,0,0.3c0,0.4-0.2,0.8-0.3,1.1c0,0-0.1,0.2-0.1,0.4c0.7-0.2,1.3-0.8,1.8-1.5l0.3-0.4
		c0.1-0.2,0.3-0.7,0.9-0.7c0,0,0.1,0,0.1,0c0.3,0.1,0.4,0,0.7-0.5l0.6-0.7c0.1-0.1,0.1-0.1,0.3-0.1h0.2c0.1,0,0.2,0,0.3,0.1
		C30,49.9,30,49.9,30,50c0,0,0,0.6,0,0.6s0,0,0,0c0.1,0,0.4-0.2,0.6-0.2c0,0,0.8-0.5,0.8-0.5c0.1-0.1,0.3-0.1,0.4,0l3,0.8
		c0.6,0.2,0.7,0.7,0.7,1c0,0.1,0,0.3,0,0.4c0,0.1,0,0.2,0,0.3c0,0.1,0,0.1,0.1,0.2c0.1,0.1,0.1,0.2,0.1,0.3c0,0.1,0,0.1,0,0.2
		c-0.1,0.3-0.4,0.6-1.2,0.6c0,0-1.5,0.1-1.5,0.1c-1.3,0-2.4,0-3.3,0.9c0,0-0.8,0.8-0.8,0.8c-0.1,0.1-0.2,0.1-0.3,0.1
		c-0.6,0-1,0.3-1.5,0.6c-0.5,0.3-0.9,0.6-1.5,0.7C24.9,57,24.4,57,24,57c-0.4,0-0.6,0-0.7,0.1c0.4,0.5,1.1,0.7,1.8,0.9
		c0.1,0,0.4,0.1,0.4,0.1c0.3,0,0.8,0,1.1,0.5c0,0,0,0.1,0,0.2c0,0.4,0.1,0.6,0.3,0.6c0,0,0.1,0,0.1,0c0.2-0.1,0.6-0.3,1,0
		c0.1,0.1,0.7,0.7,0.7,0.7l0.8,0.8c0.1,0.1,0.1,0.3,0,0.5c-0.4,0.6-1.1,0.5-1.5,0.5l-0.3,0c0,0-0.4,0-0.4,0
		c-0.7,0.1-1.5,0.3-2.1-0.5c0,0,0.1,0.1,0.1,0.1l-0.6-0.5c-0.5-0.4-0.9-0.8-1.5-0.8c-0.6,0.2-0.9,0.4-1,0.7c0,0,0,0,0,0
		c0,0,0.1,0.2,0.1,0.2l0.3,0.3c0.1,0.1,0.1,0.2,0.1,0.3c0,0,0,0,0,0.1c0,0.1-0.1,0.2-0.2,0.3c-0.5,0.3-1.1,0.9-1.1,1.5
		c0,0.1,0,0.2,0,0.2c0,0,0,0.1,0,0.1c0.1,0,0.2-0.1,0.2-0.1c0.2-0.1,0.6-0.2,1,0c0.1,0.1,0.2,0.2,0.2,0.3l0,0.5
		c0,0.5,0.1,0.8,0.2,0.9c0.1,0,0.2-0.1,0.2-0.1c0.3-0.2,0.9-0.4,1.5,0c0.1,0,0.3,0,0.6-0.2l0.6-0.3c0.1,0,0.1,0,0.1,0
		c1.1,0,1.5,0.9,1.8,1.5c0,0,0,0,0,0c0,0,0,0,0,0c0.5,0.4,0.9,0.6,1.2,0.5c0,0,0-0.1,0-0.1c0-0.1,0-0.2,0-0.4c0-0.1-0.1-0.3-0.1-0.5
		c0-0.4,0.1-0.8,0.7-1c0.1,0,1.1-0.1,1.1-0.1l0.6,0c0,0,0.1,0,0.1,0c0.9,0.1,1.7,0.1,2-0.5c0,0,0.7-1.1,0.8-1.3
		c0-0.1,0.1-0.8,0.1-0.8c0-0.2,0.1-0.3,0.3-0.3c0.3-0.1,0.7,0,0.9,0.1c0,0,0.1,0,0.2,0.1c-0.2-0.5-0.3-1-0.3-1.6
		c0-0.3,0-0.5,0.1-0.8c0.2-0.8,0.5-1.4,1-1.8c0.1-0.1,0.3-0.2,0.5-0.1l0.2,0.1c0.1,0.1,0.2,0.2,0.3,0.3l0.2,1
		c0.1,0.6,0.2,1.3,0.5,1.8c0,0.1,0.1,0.1,0,0.2l-0.4,1.5l-0.3,1.2c-0.3,1.1-1,2-2,2.5c0,0,0,0.1,0,0.1c0,0,0.2,0,0.4,0
		c0,0,0.3,0,0.4,0c1.1-0.1,2.2-0.7,2.9-1.5c0.1-0.1,0.3-0.2,0.4-0.1c0.2,0.1,0.4,0,0.7-0.2c0.4-0.2,0.9-0.5,1.5-0.1
		c0.3,0.2,0.6,0.2,1,0.1c0.6,0,1.6-0.1,1.9,1c0,0,0,0.2,0,0.2l0,0.5c0.1,0.6,0.2,1.6-0.9,1.9c-0.1,0-0.1,0-0.2,0l-1.1-0.4
		c-0.9-0.4-1.3-0.6-1.7,0c-0.1,0.1-0.2,0.3-0.2,0.4c0.2,0.3,0.5,0.9,0,1.4c0,0,0.1-0.1,0.1-0.1l-0.1,0.1c-0.3,0.5-0.5,0.8-0.3,1.2
		c0,0,0.1,0.1,0.4,0c0.5-0.2,0.9,0,1.3,0.1l0.5,0.2c0.1,0,0.2,0.1,0.2,0.1L43,71c0.4,0.3,0.7,0.5,1.1,0.6c0,0,0-0.1,0-0.1l0.2-0.5
		c0.1-0.1,0.7-0.4,0.7-0.4c0.5-0.2,0.5-0.2,0.5-0.4c0.1-0.7,0.6-1.4,1.3-1.8c0.1,0,0.2-0.1,0.3-0.1c0.2,0,0.7-0.2,1-0.4
		c0,0-0.1-0.1-0.1-0.1L48,67.7c-0.1-0.1-0.1-0.2-0.2-0.3c0-0.1,0-0.2,0-0.3c0-0.5,0.3-0.9,0.5-1.3c0.2-0.4,0.4-0.6,0.4-0.8
		c0-0.1,0-0.2-0.2-0.4c0-0.1-0.1-0.1-0.1-0.1l-0.1-0.7c-0.1-0.5-0.1-0.9-0.4-1.1c0,0-0.8-0.4-0.8-0.4l-0.8-0.4
		c-0.2-0.1-0.2-0.2-0.2-0.4c0-0.4,0.2-0.6,0.7-0.7l0.1,0c0.6-0.2,1,0,1.4,0.2c0.4,0.1,0.5,0.1,0.6,0.1c-0.1-0.3-0.4-0.6-0.6-0.9
		c-0.5-0.3-1.1-0.5-1.7-0.6c-1-0.2-2-0.5-2.7-1.4c-0.1-0.1-0.1-0.2-0.1-0.3c0-0.1,0-0.2,0.1-0.3l0.1-0.1c0.1-0.1,0.3-0.2,0.4-0.1
		c1.2,0.3,2.4,0,3.2-0.7c0.5-0.6,1.1-1.4,2-1.7c0.7-0.5,0.8-1.4,0.8-2.5c0-0.6,0.3-1.1,0.7-1.5c0,0,0.9-0.4,0.9-0.4
		c0.3-0.1,0.4-0.1,0.4-0.2c-0.5-0.3-1.1-0.5-1.7-0.4c-0.1,0-0.2,0-0.3-0.1c-0.3-0.1-0.3-0.3-0.4-0.5c0,0,0-0.1,0-0.1
		c0-0.3,0.2-0.5,0.4-0.6l0.1-0.1c0,0,0.1-0.1,0.1-0.1l1-0.5c1.2-0.7,2-1.2,2-2.2c0,0,0,0,0,0c0-0.1,0-0.1,0-0.1
		c-0.1,0.1-0.3,0.1-0.5,0.3l-0.7,0.4c-0.6,0.3-1.3,0.5-2,0.6c-0.7,0.1-1.3,0.3-1.8,0.6c-0.1,0-0.2,0.1-0.2,0.1
		c-0.2,0-0.5-0.1-0.6-0.4c0-0.1,0-0.2,0-0.3c0-0.2,0.1-0.4,0.2-0.5c0.2-0.3,0.5-0.5,0.8-0.6c0.4-0.2,0.6-0.3,0.7-0.6
		c0,0,0.1-0.3,0.1-0.3c0.2-0.5,0.4-1.2,1.1-1.5c0.1,0,0.6-0.3,0.6-0.3c0.1,0,0.2-0.1,0.2-0.1c0,0,0,0-0.1-0.1
		c-1.1-0.3-2.1,0.5-2.6,1c0,0-0.1,0.1-0.1,0.1l-0.4,0.2c-0.7,0.3-1.4,0.6-1.9,1.1c-0.1,0.1-0.1,0.1-0.2,0.1c-0.2,0.1-0.4,0-0.6-0.1
		c-0.2-0.1-0.3-0.3-0.3-0.6c-0.2-1.6,1.1-2.8,2.2-3.8l0.3-0.2c0,0,0.2-0.1,0.2-0.1l0.6-0.3c0.5-0.3,1.1-0.7,1.9-0.4
		c0.6,0.3,1.1,0.5,1.6,0.4c0.3-0.1,0.6-0.4,0.8-0.8c0.2-0.3,0.5-0.7,1-1c0.5-0.2,0.8,0,1.1,0c0.1,0,0.4,0.1,0.4,0.1
		c0,0,0.1-0.1,0.1-0.1c0,0,0-0.1,0-0.1c0-0.3-0.2-0.6-0.5-1L54.8,37c-0.1-0.1-0.1-0.1-0.1-0.2c0-0.1,0-0.1,0-0.2
		c0.1-0.3,0.2-0.6,0.2-1c0-0.8-0.3-1.5-0.9-2.1c-0.2-0.1-0.6-0.3-1-0.3c0.1,0.1,0.1,0.2,0.1,0.2l0.4,0.8c0,0.1,0,0.2,0,0.3
		c0,1.8-1.6,2.6-2.8,3.2l-1.1,0.6c-2.6,1.3-5.9,3.4-6.1,6.7c0,1.7,0.8,3.4,2.1,4.8c0,0,0.1,0.1,0.1,0.1l0.5,0.7
		c0.5,0.8,1.1,1.7,1.1,2.7c0,0.3,0,0.5-0.1,0.8c-0.4,1-1.6,1-2,1c-2.5-0.2-3.9-2.7-4.9-4.6L40,50.5c0,0-0.2-0.4-0.2-0.4
		c-0.3-0.6-0.6-1.2-0.6-1.9c0-0.1,0-0.3,0.1-0.4c0.1-0.1,0.4-0.4,0.9-0.1c0.1,0,0.5,0.8,0.5,0.8c0.1,0.1,0.1,0.2,0.1,0.3
		c0-0.1,0.1-0.2,0.1-0.4c0-0.4-0.2-0.9-0.4-1.4l-0.1-0.1c-0.1-0.2-0.4-0.5-0.7-0.7c-0.4-0.3-0.8-0.7-1-1.2c0,0,0-0.1,0-0.2
		c0,0,0,0,0-0.1c0-0.6,0.5-0.7,0.7-0.8c0,0,0.1,0,0.1,0c-0.2-0.6-0.3-1.3-0.3-2c0-0.3,0-0.7,0.1-1c0,0,0,0,0,0c0,0,0,0,0,0
		c0,0,0,0,0,0L40,40c0.2-0.1,0.2-0.1,0.2-0.2C40,39.1,40,38.4,40,37.7c0-0.3,0-0.6,0-0.9c0-0.1,0.2-0.7,0.2-0.7
		c0.1-0.3,0.2-0.5,0.2-0.7c0-0.1,0-0.1-0.1-0.2c-0.4-0.2-0.5-0.7-0.5-0.9c0,0,0-0.2,0-0.2c0,0,0,0,0,0c0.1,0,0.1,0,0.1,0
		c-1.1,0-1.9-0.4-2.7-0.8l-0.9-0.4c-0.2-0.1-0.4,0-0.7,0.2L35,33.2c0,0-0.5,0.1-0.5,0.1c-0.5,0.1-1,0.2-1.3,0.5
		C33,34,33,34.2,33,34.7l0,0.3c0,0,0,0.1,0,0.1c-0.1,0.3-0.3,0.4-0.4,0.4c-0.3,0.1-0.6,0-0.7-0.1l-0.1,0c-0.8-0.4-1.1-1.2-0.9-2
		c0-0.1-0.1-0.3-0.1-0.3c-0.2-0.1-0.6-0.2-0.9-0.1c-0.2,0.1-0.4,0.3-0.6,0.8c0,0-0.1,0.1-0.1,0.2c0,0,0,0.1,0,0.1
		c0,0.3,0.1,0.6,0.2,0.7c0.3,0.4,0.9,0.6,1.4,0.9l1.3,0.8c0.1,0.1,0.1,0.1,0.1,0.2c0,0.1,0.1,0.3,0.1,0.4c0,0.5-0.2,0.8-0.5,1.1
		c0,0,0,0,0,0c0.1,0.1,0.4,0.3,0.4,0.7c0,0.1,0,0.1,0,0.2c0,0.2-0.2,0.3-0.3,0.3c-0.8,0.2-1.6,0-2.1-0.4c0,0-0.4-0.5-0.4-0.5
		c-0.1-0.2-0.2-0.3-0.3-0.3c-0.1,0.1-0.1,0.2-0.2,0.3l-0.2,0.4c0-0.1,0,0.3,0,0.3c0,0.3-0.1,0.7-0.4,1c-0.1,0.1-0.2,0.1-0.3,0.1
		l-0.4,0c-1.6-0.5-3.1-1.4-4.7-2.6c-0.7-0.5-1.2-1.3-1.7-2l-0.4-0.5c0,0-0.1-0.1-0.1-0.1l-0.1-0.5c-0.3-1-0.5-1.6-1.2-1.9
		C19.4,32.7,19.3,32.8,19.2,32.8L19.2,32.8L19.2,32.8z M20.3,38.6L20.3,38.6C20.3,38.6,20.3,38.6,20.3,38.6L20.3,38.6L20.3,38.6z
		 M17.1,38c0.1,0,0.1,0,0.2,0C17.2,37.9,17.1,37.9,17.1,38L17.1,38L17.1,38z M31.7,38.5c0.1-0.1,0.1-0.1,0.1-0.2c0,0,0,0,0,0
		C31.8,38.4,31.8,38.4,31.7,38.5L31.7,38.5L31.7,38.5z M39.6,43.9C39.6,43.9,39.7,43.9,39.6,43.9C39.7,43.9,39.7,43.9,39.6,43.9
		C39.6,43.9,39.6,43.9,39.6,43.9L39.6,43.9L39.6,43.9z M29.9,50.6C29.9,50.6,30,50.6,29.9,50.6C30,50.6,29.9,50.6,29.9,50.6
		L29.9,50.6L29.9,50.6L29.9,50.6z M30,50.7C30,50.7,30,50.7,30,50.7C30,50.7,30,50.7,30,50.7C30,50.7,30,50.7,30,50.7L30,50.7
		L30,50.7z M21.3,53.3C21.3,53.3,21.4,53.3,21.3,53.3C21.4,53.3,21.4,53.3,21.3,53.3L21.3,53.3L21.3,53.3z M35.8,61.9
		c0,0,0,0.1,0,0.2C35.8,62,35.8,61.9,35.8,61.9C35.8,61.9,35.8,61.9,35.8,61.9L35.8,61.9L35.8,61.9z M36.3,66.2c0,0,0.1,0,0.1,0
		C36.4,66.2,36.3,66.2,36.3,66.2L36.3,66.2L36.3,66.2z"/>
	<path class="st2" d="M6.6,32.7c0-7.1,0-15,0-24.2h60.5c0,0,0,3.6,0,24.3c0,30.6-30.5,48.6-30.5,48.6S6.6,62.6,6.6,32.7L6.6,32.7
		L6.6,32.7z"/>
	<path d="M48.8,68L48.8,68C48.8,68,48.8,68,48.8,68L48.8,68L48.8,68L48.8,68L48.8,68L48.8,68L48.8,68L48.8,68L48.8,68L48.8,68
		L48.8,68L48.8,68c-0.2-0.2-0.4-0.5-0.5-0.6c-0.2-1.1,1.4-1.8,0.6-2.9c-0.2-0.7,0-1.5-0.7-2.1c-0.5-0.4-1.1-0.5-1.7-0.8
		c0-0.3,0.4-0.2,0.6-0.3c0.9-0.2,1.7,0.8,2.3,0c0.1-0.6-0.5-1.1-0.9-1.5c-1.3-0.9-3.3-0.6-4.3-1.9l0.1-0.1c1.3,0.3,2.7,0,3.6-0.8
		c0.6-0.7,1.1-1.4,2-1.7c0.9-0.7,1-1.8,1-2.9c0-0.4,0.2-0.8,0.6-1.1c0.5-0.4,1.7-0.3,1.5-1.2c-0.7-0.4-1.4-0.7-2.2-0.6
		c-0.4-0.2,0.1-0.5,0.2-0.6c1.3-0.8,3.2-1.3,3.2-3.2c-0.1-0.2-0.1-0.5-0.4-0.6c-0.6,0.1-0.9,0.6-1.4,0.8c-1.2,0.7-2.7,0.6-3.8,1.3
		c-0.2,0-0.2-0.3-0.1-0.4c0.4-0.6,1.3-0.6,1.6-1.4c0.2-0.6,0.4-1.4,1-1.6c0.4-0.3,1-0.3,1.3-0.8c0-0.3-0.4-0.4-0.6-0.5
		c-1.1-0.4-2.3,0.3-3,1.1c-0.8,0.4-1.8,0.7-2.4,1.3c-0.1,0-0.3,0-0.3-0.2c-0.2-1.6,1.3-2.7,2.3-3.7c0.8-0.2,1.4-1.1,2.3-0.7
		c0.6,0.3,1.2,0.6,1.9,0.4c0.9-0.3,1.1-1.3,1.9-1.8c0.6-0.2,1.4,0.7,1.8-0.2c0.2-0.9-0.5-1.4-0.9-2c0.5-1.2,0.1-2.7-0.9-3.5
		c-0.5-0.3-1.1-0.5-1.6-0.3c-0.4,0.6,0.4,0.9,0.4,1.5c0.2,2.3-2.3,2.8-3.7,3.7c-2.8,1.4-6.1,3.5-6.3,7.1c0,2,0.9,3.7,2.2,5.1
		c0.7,1.2,1.9,2.4,1.4,3.9c-0.3,0.6-1,0.7-1.6,0.7c-2.4-0.2-3.7-2.8-4.7-4.6c-0.3-0.7-0.7-1.4-0.8-2.2c0.1-0.1,0.2-0.1,0.4,0
		c0.4,0.4,0.4,1.3,1.1,1.2c0.6-0.8,0.2-1.8-0.2-2.7c-0.4-0.8-1.3-1.1-1.7-1.9c0-0.6,0.8-0.2,0.9-0.8c-0.3-1-0.4-2.1-0.2-3
		c0.2-0.4,0.8-0.4,0.8-0.9c-0.3-1-0.3-2-0.2-3.1c0.1-0.6,0.6-1.3,0.3-2c-0.7-0.2-0.1-1.1-0.8-1.3c-1.3,0-2.3-0.7-3.5-1.1
		c-0.6-0.2-1,0.2-1.5,0.3c-0.8,0.2-1.5,0.2-2.1,0.7c-0.4,0.4-0.3,0.9-0.3,1.5c-0.1,0.4-0.4,0-0.6,0c-0.6-0.3-0.8-0.9-0.6-1.5
		c0.1-0.3,0-0.6-0.3-0.8c-0.4-0.2-0.9-0.4-1.3-0.2c-0.6,0.2-0.7,0.8-1,1.3c0,0.4,0,0.9,0.2,1.2c0.8,0.8,1.9,1.1,2.8,1.9
		c0.2,0.5-0.2,0.9-0.5,1.3c0,0.4,0.6,0.4,0.5,0.8c-0.6,0.2-1.3,0-1.7-0.4c-0.3-0.3-0.4-0.9-0.9-1c-0.5,0-0.6,0.6-0.8,1
		c-0.2,0.4,0,0.9-0.4,1.2l-0.4,0c-1.6-0.6-3.1-1.4-4.5-2.5c-0.8-0.6-1.4-1.6-2.1-2.4c-0.3-1-0.5-2.4-1.7-2.7c-0.3,0-0.6,0.1-0.7,0.4
		l-0.1,0.4c-0.6,0-1.3-0.4-1.9-0.2c-0.3,0.2-0.6,0.4-0.8,0.8c0,0.7,0.8,0.4,1,1c0,0.5,0.4,1,0.6,1.3c-0.2,0.3-0.5,0.4-0.6,0.7
		l-0.4,1c0.2,0.3,0.4,0.7,0.8,0.8c0.6-0.2,1,0.2,1.6,0.1c0.4,0,1-0.3,1,0.3c0.2,0.5,0,0.9,0,1.3c-0.5,0.8-1.2,1.3-1.9,1.7
		c-0.2,0.2-0.2,0.5-0.2,0.8c0.3,0.4,0.9,0.2,1.3,0.2c0.8,0,1.5-0.5,2.3-0.6c0.2,0.4,0.5,0.9,0.9,1.1c0.6,0.2,0.8-0.7,1.4-0.5
		c0.5,0.4,0.4,1.1,0.8,1.6c0,0.3-0.2,0.3-0.4,0.4c-0.7,0.2-1.6,0-2.1,0.6c-0.1,0.3,0.2,0.6,0.4,0.7c0.6,0.3,1.3,0.4,2.1,0.5
		c0.6,0.1,1.3-0.2,1.9,0l-0.2,0.3l-1.9,1.3c-0.9,0.4-1.8,0.6-2.6,1c-1.2,0.3-1.7-1.2-2.9-1.1c-0.5,0-0.8,0.2-1.1,0.4
		c-0.3,0.3-0.3,0.7-0.2,1.1c0.2,0.4,0.7,0.2,0.7,0.6c0,1.1-1,1.9-1.1,3c0,0.3,0,0.6,0.4,0.8c0.2,0.1,0.5,0,0.7-0.1
		c0.2-0.2,0.2-0.6,0.6-0.7c0.7,0.1,1.4,0.1,1.9-0.4c0.2,0,0.5,0.2,0.5,0.4c0,0.3,0,0.6,0.3,0.7c1,0,1.5-1,1.9-1.7
		c0.4-0.1,0.9-0.4,1.3-0.1c0.2,0.7-0.4,1.1-0.5,1.8c0,0.2,0.2,0.3,0.4,0.4c1.2-0.2,1.9-1.3,2.6-2.1c0.1-0.2,0.2-0.6,0.6-0.6
		c0.9,0.3,1.1-0.8,1.7-1.2h0.2c0.1,0.3-0.1,0.5,0,0.8c0.4,0.4,0.8,0,1.2-0.1l0.8-0.5c1,0.3,2,0.6,3,0.8c0.8,0.3,0,1.2,0.5,1.7
		c-0.1,0.3-0.5,0.4-0.8,0.4c-1.7,0.2-3.8-0.2-5.1,1.1L28.4,55c-1.3,0-2,1.1-3.2,1.3c-0.8,0.6-2-0.2-2.5,0.7c0.4,0.8,1.4,1.1,2.3,1.3
		c0.4,0.2,0.9,0,1.1,0.4c0,0.4,0.1,0.9,0.6,1c0.4,0.1,0.6-0.4,0.9-0.1c0.4,0.6,1.1,0.9,1.4,1.4c-0.3,0.5-1,0.2-1.4,0.2l-0.1,0
		c-0.7,0.1-1.6,0.4-2.2-0.2c-0.8-0.6-1.3-1.4-2.4-1.4c-0.6,0.2-1.2,0.4-1.3,1.1c-0.1,0.4,0.3,0.6,0.5,0.8c-0.7,0.5-1.5,1.2-1.2,2.2
		c0.1,0.2,0.2,0.4,0.4,0.4c0.4,0,0.6-0.3,1-0.1c0.1,0.6-0.1,1.5,0.6,1.8c0.6-0.1,1-0.7,1.5-0.2c0.6,0.3,1.1-0.3,1.6-0.4
		c0.8,0,1.1,0.8,1.4,1.4c0.5,0.4,1.2,1,1.9,0.6c0.5-0.7-0.4-1.5,0.5-2c0.6-0.2,1,0,1.6-0.1c0.9,0.1,1.9,0.2,2.4-0.8l0.8-1.3l0.2-0.8
		c0.5-0.2,1.3,0.7,1.5-0.1c-0.3-0.8-0.4-1.6-0.2-2.5c0.2-0.6,0.4-1.1,0.8-1.5l0.2,0.1c0.2,1,0.3,2,0.7,2.9c-0.1,0.9-0.6,1.7-0.7,2.6
		c-0.2,1-0.9,1.7-1.8,2.1c-0.2,0.2-0.4,0.4-0.2,0.7c0.2,0.4,0.8,0.2,1.3,0.3c1.2-0.2,2.4-0.8,3.2-1.7c0.9,0.2,1.3-0.8,2.1-0.4
		c0.8,0.6,2.3-0.5,2.7,0.9c-0.1,0.6,0.5,1.8-0.6,2.1c-1-0.2-2.2-1.5-3.2-0.3c-0.2,0.2-0.4,0.6-0.2,0.9c0.2,0.3,0.4,0.6,0.1,0.9
		c-0.3,0.5-0.7,1.1-0.4,1.7c0.2,0.4,0.6,0.4,0.9,0.3c0.6-0.2,1.1,0.3,1.7,0.3c0.5,0.4,1,0.9,1.7,0.8c0.3-0.2,0.2-0.5,0.4-0.8
		c0.4-0.4,1.3-0.3,1.3-1.1c0.1-0.6,0.6-1.1,1.1-1.4C47.3,68.8,48.5,68.5,48.8,68L48.8,68L48.8,68z"/>
	<path class="st3" d="M48.8,68L48.8,68C48.8,68,48.8,68,48.8,68L48.8,68L48.8,68L48.8,68L48.8,68L48.8,68L48.8,68L48.8,68L48.8,68
		L48.8,68L48.8,68L48.8,68c-0.2-0.2-0.4-0.5-0.5-0.6c-0.2-1.1,1.4-1.8,0.6-2.9c-0.2-0.7,0-1.5-0.7-2.1c-0.5-0.4-1.1-0.5-1.7-0.8
		c0-0.3,0.4-0.2,0.6-0.3c0.9-0.2,1.7,0.8,2.3,0c0.1-0.6-0.5-1.1-0.9-1.5c-1.3-0.9-3.3-0.6-4.3-1.9l0.1-0.1c1.3,0.3,2.7,0,3.6-0.8
		c0.6-0.7,1.1-1.4,2-1.7c0.9-0.7,1-1.8,1-2.9c0-0.4,0.2-0.8,0.6-1.1c0.5-0.4,1.7-0.3,1.5-1.2c-0.7-0.4-1.4-0.7-2.2-0.6
		c-0.4-0.2,0.1-0.5,0.2-0.6c1.3-0.8,3.2-1.3,3.2-3.2c-0.1-0.2-0.1-0.5-0.4-0.6c-0.6,0.1-0.9,0.6-1.4,0.8c-1.2,0.7-2.7,0.6-3.8,1.3
		c-0.2,0-0.2-0.3-0.1-0.4c0.4-0.6,1.3-0.6,1.6-1.4c0.2-0.6,0.4-1.4,1-1.6c0.4-0.3,1-0.3,1.3-0.8c0-0.3-0.4-0.4-0.6-0.5
		c-1.1-0.4-2.3,0.3-3,1.1c-0.8,0.4-1.8,0.7-2.4,1.3c-0.1,0-0.3,0-0.3-0.2c-0.2-1.6,1.3-2.7,2.3-3.7c0.8-0.2,1.4-1.1,2.3-0.7
		c0.6,0.3,1.2,0.6,1.9,0.4c0.9-0.3,1.1-1.3,1.9-1.8c0.6-0.2,1.4,0.7,1.8-0.2c0.2-0.9-0.5-1.4-0.9-2c0.5-1.2,0.1-2.7-0.9-3.5
		c-0.5-0.3-1.1-0.5-1.6-0.3c-0.4,0.6,0.4,0.9,0.4,1.5c0.2,2.3-2.3,2.8-3.7,3.7c-2.8,1.4-6.1,3.5-6.3,7.1c0,2,0.9,3.7,2.2,5.1
		c0.7,1.2,1.9,2.4,1.4,3.9c-0.3,0.6-1,0.7-1.6,0.7c-2.4-0.2-3.7-2.8-4.7-4.6c-0.3-0.7-0.7-1.4-0.8-2.2c0.1-0.1,0.2-0.1,0.4,0
		c0.4,0.4,0.4,1.3,1.1,1.2c0.6-0.8,0.2-1.8-0.2-2.7c-0.4-0.8-1.3-1.1-1.7-1.9c0-0.6,0.8-0.2,0.9-0.8c-0.3-1-0.4-2.1-0.2-3
		c0.2-0.4,0.8-0.4,0.8-0.9c-0.3-1-0.3-2-0.2-3.1c0.1-0.6,0.6-1.3,0.3-2c-0.7-0.2-0.1-1.1-0.8-1.3c-1.3,0-2.3-0.7-3.5-1.1
		c-0.6-0.2-1,0.2-1.5,0.3c-0.8,0.2-1.5,0.2-2.1,0.7c-0.4,0.4-0.3,0.9-0.3,1.5c-0.1,0.4-0.4,0-0.6,0c-0.6-0.3-0.8-0.9-0.6-1.5
		c0.1-0.3,0-0.6-0.3-0.8c-0.4-0.2-0.9-0.4-1.3-0.2c-0.6,0.2-0.7,0.8-1,1.3c0,0.4,0,0.9,0.2,1.2c0.8,0.8,1.9,1.1,2.8,1.9
		c0.2,0.5-0.2,0.9-0.5,1.3c0,0.4,0.6,0.4,0.5,0.8c-0.6,0.2-1.3,0-1.7-0.4c-0.3-0.3-0.4-0.9-0.9-1c-0.5,0-0.6,0.6-0.8,1
		c-0.2,0.4,0,0.9-0.4,1.2l-0.4,0c-1.6-0.6-3.1-1.4-4.5-2.5c-0.8-0.6-1.4-1.6-2.1-2.4c-0.3-1-0.5-2.4-1.7-2.7c-0.3,0-0.6,0.1-0.7,0.4
		l-0.1,0.4c-0.6,0-1.3-0.4-1.9-0.2c-0.3,0.2-0.6,0.4-0.8,0.8c0,0.7,0.8,0.4,1,1c0,0.5,0.4,1,0.6,1.3c-0.2,0.3-0.5,0.4-0.6,0.7
		l-0.4,1c0.2,0.3,0.4,0.7,0.8,0.8c0.6-0.2,1,0.2,1.6,0.1c0.4,0,1-0.3,1,0.3c0.2,0.5,0,0.9,0,1.3c-0.5,0.8-1.2,1.3-1.9,1.7
		c-0.2,0.2-0.2,0.5-0.2,0.8c0.3,0.4,0.9,0.2,1.3,0.2c0.8,0,1.5-0.5,2.3-0.6c0.2,0.4,0.5,0.9,0.9,1.1c0.6,0.2,0.8-0.7,1.4-0.5
		c0.5,0.4,0.4,1.1,0.8,1.6c0,0.3-0.2,0.3-0.4,0.4c-0.7,0.2-1.6,0-2.1,0.6c-0.1,0.3,0.2,0.6,0.4,0.7c0.6,0.3,1.3,0.4,2.1,0.5
		c0.6,0.1,1.3-0.2,1.9,0l-0.2,0.3l-1.9,1.3c-0.9,0.4-1.8,0.6-2.6,1c-1.2,0.3-1.7-1.2-2.9-1.1c-0.5,0-0.8,0.2-1.1,0.4
		c-0.3,0.3-0.3,0.7-0.2,1.1c0.2,0.4,0.7,0.2,0.7,0.6c0,1.1-1,1.9-1.1,3c0,0.3,0,0.6,0.4,0.8c0.2,0.1,0.5,0,0.7-0.1
		c0.2-0.2,0.2-0.6,0.6-0.7c0.7,0.1,1.4,0.1,1.9-0.4c0.2,0,0.5,0.2,0.5,0.4c0,0.3,0,0.6,0.3,0.7c1,0,1.5-1,1.9-1.7
		c0.4-0.1,0.9-0.4,1.3-0.1c0.2,0.7-0.4,1.1-0.5,1.8c0,0.2,0.2,0.3,0.4,0.4c1.2-0.2,1.9-1.3,2.6-2.1c0.1-0.2,0.2-0.6,0.6-0.6
		c0.9,0.3,1.1-0.8,1.7-1.2h0.2c0.1,0.3-0.1,0.5,0,0.8c0.4,0.4,0.8,0,1.2-0.1l0.8-0.5c1,0.3,2,0.6,3,0.8c0.8,0.3,0,1.2,0.5,1.7
		c-0.1,0.3-0.5,0.4-0.8,0.4c-1.7,0.2-3.8-0.2-5.1,1.1L28.4,55c-1.3,0-2,1.1-3.2,1.3c-0.8,0.6-2-0.2-2.5,0.7c0.4,0.8,1.4,1.1,2.3,1.3
		c0.4,0.2,0.9,0,1.1,0.4c0,0.4,0.1,0.9,0.6,1c0.4,0.1,0.6-0.4,0.9-0.1c0.4,0.6,1.1,0.9,1.4,1.4c-0.3,0.5-1,0.2-1.4,0.2l-0.1,0
		c-0.7,0.1-1.6,0.4-2.2-0.2c-0.8-0.6-1.3-1.4-2.4-1.4c-0.6,0.2-1.2,0.4-1.3,1.1c-0.1,0.4,0.3,0.6,0.5,0.8c-0.7,0.5-1.5,1.2-1.2,2.2
		c0.1,0.2,0.2,0.4,0.4,0.4c0.4,0,0.6-0.3,1-0.1c0.1,0.6-0.1,1.5,0.6,1.8c0.6-0.1,1-0.7,1.5-0.2c0.6,0.3,1.1-0.3,1.6-0.4
		c0.8,0,1.1,0.8,1.4,1.4c0.5,0.4,1.2,1,1.9,0.6c0.5-0.7-0.4-1.5,0.5-2c0.6-0.2,1,0,1.6-0.1c0.9,0.1,1.9,0.2,2.4-0.8l0.8-1.3l0.2-0.8
		c0.5-0.2,1.3,0.7,1.5-0.1c-0.3-0.8-0.4-1.6-0.2-2.5c0.2-0.6,0.4-1.1,0.8-1.5l0.2,0.1c0.2,1,0.3,2,0.7,2.9c-0.1,0.9-0.6,1.7-0.7,2.6
		c-0.2,1-0.9,1.7-1.8,2.1c-0.2,0.2-0.4,0.4-0.2,0.7c0.2,0.4,0.8,0.2,1.3,0.3c1.2-0.2,2.4-0.8,3.2-1.7c0.9,0.2,1.3-0.8,2.1-0.4
		c0.8,0.6,2.3-0.5,2.7,0.9c-0.1,0.6,0.5,1.8-0.6,2.1c-1-0.2-2.2-1.5-3.2-0.3c-0.2,0.2-0.4,0.6-0.2,0.9c0.2,0.3,0.4,0.6,0.1,0.9
		c-0.3,0.5-0.7,1.1-0.4,1.7c0.2,0.4,0.6,0.4,0.9,0.3c0.6-0.2,1.1,0.3,1.7,0.3c0.5,0.4,1,0.9,1.7,0.8c0.3-0.2,0.2-0.5,0.4-0.8
		c0.4-0.4,1.3-0.3,1.3-1.1c0.1-0.6,0.6-1.1,1.1-1.4C47.3,68.8,48.5,68.5,48.8,68L48.8,68L48.8,68z"/>
	<path class="st1" d="M30.7,33.3c-0.1,0.5-0.1,1,0.2,1.4c0.8,0.9,2.1,1.2,2.6,2.3l-0.3,0c-1-0.6-1.9-1.4-2.9-1.9
		c-0.4-0.3-0.7-0.7-0.6-1.2c0.1-0.4,0.2-0.8,0.6-0.8C30.5,33,30.7,33.1,30.7,33.3L30.7,33.3L30.7,33.3L30.7,33.3z"/>
	<path class="st1" d="M39.2,34.3c0.2,0.2,0,0.8,0.5,0.8c0.1,0,0.2,0.1,0.2,0.2c0,0.4-0.1,0.8-0.2,1.2c-0.1,0.3-0.6,0.4-0.6,0.9
		c0,0.2,0.4,0.4,0.4,0.6l0,1.6c-1,0.3-0.5,1.5-0.6,2.2c-0.1,0.5,0,1,0,1.5c-0.2,0.1-0.7,0.1-0.8,0.4c0,0.6,0.3,1.1,0.5,1.5
		c0.4,0.5,1.1,0.6,1.1,1.3c-0.5,0-1-0.3-1.5-0.5c-0.8-0.4-1.3-1.2-1.7-1.9c-0.1-0.1-0.3-0.1-0.4,0c-0.1,0.5-0.1,1.1-0.6,1.5
		c-0.5-0.3-0.5-1.6-1.3-1.2c-0.3,1.7-1.4,3-2.4,4.5c-0.2,0.1-0.3,0.4-0.6,0.4c0.5-1.3,0.9-2.9,0.4-4.4c-0.1-0.3-0.4-0.2-0.6-0.1
		c-0.2,0.2-0.4,0.6-0.7,0.4c-0.3-0.4,0.3-1.1-0.4-1.4c-0.6,0.1-0.9,0.6-1.3,0.8c-1.2,0.7-2.6,1-4,1c-0.3,0-0.5-0.1-0.7-0.2
		c0.4-0.4,0.9-0.4,1.3-0.7c1.7-1,2.8-2.8,4.1-4.2c-0.1-0.6-0.6-1.3-0.1-1.9c0.4,0,0.6,0.5,0.9,0.6c0.6,0.3,1.3,0.5,2,0.2
		c0.6-0.1,0.9-0.6,1-1.1c0-0.2-0.1-0.4-0.3-0.4c-0.2,0-0.4,0-0.4-0.2c0-0.3,0.2-0.5,0.4-0.5c0.7,0,1.3,1.5,1.8,0.3
		c0.3-0.9-0.6-1.7-1.3-2.3c-0.2-0.2-0.3-0.4-0.2-0.7c0.5-0.3-0.1-0.8,0.3-1.1c0.7-0.5,1.7-0.2,2.4-0.7C37.2,33.1,38.1,34,39.2,34.3
		L39.2,34.3L39.2,34.3L39.2,34.3z"/>
	<path class="st1" d="M20.3,33.9c0,0.2,0.1,0.4,0,0.6c-0.2,0.2-0.4,0-0.5-0.1c-0.2-0.2-0.4-0.5-0.3-0.7
		C19.6,32.9,20.3,33.6,20.3,33.9L20.3,33.9L20.3,33.9L20.3,33.9z"/>
	<path class="st1" d="M19.8,35.1c1.1,0.5,1.9,1.6,2.6,2.5c1.7,1.4,3.5,2.7,5.6,3.2c0.1,0.3-0.2,0.6-0.4,0.8
		c-0.7,0.7-1.2,1.5-1.9,2.2c-0.2,0-0.3,0-0.4,0c-0.7-0.7-0.6-2.1-1.9-2.1c-0.4,0-0.7,0.5-1.1,0.2c-0.4-0.3,0.1-1-0.5-1.2
		c-0.7,0.3-1.2,1-2,0.9c0.5-0.9,1.4-1.8,1-3c-0.1-0.5-0.4-1.1-0.9-1.3c-0.5,0-0.8,0.5-1.2,0.3c-0.2-0.4-1.1-0.2-0.7-0.8
		c0.3-0.5,1.5-0.6,1-1.3c-0.3-0.4-1.1-0.2-1.1-0.8c0.1-0.4-0.2-0.8,0-1.1C18.6,33.6,19.2,34.5,19.8,35.1L19.8,35.1L19.8,35.1
		L19.8,35.1z"/>
	<path class="st1" d="M54.5,35.6c0.1,0.6-0.5,1-0.3,1.6c0.2,0.3,0.7,0.4,0.6,0.8c-1.5,0-1.8,2-3.3,2c-0.6-0.1-1.1-0.8-1.9-0.5
		c-1.9,0.9-4,2.3-4.6,4.6c-0.2,0.9-0.2,1.9,0.5,2.6c0.2,0.1,0.4,0.1,0.5,0c0.4-0.7,0.7-1.7,1.7-1.9c0.6-0.2,1.1-0.4,1.6-0.7
		c0.1,0,0.2-0.1,0.2,0.1c-0.2,0.7-0.6,1.5-1.3,1.7c-0.6,0.5-1.1,1-1.1,1.7c0,0.4-0.1,0.8,0.2,1.1c0.3,0.2,0.6-0.1,0.8-0.2
		c1-1.3,2.6-1.4,4.1-1.5c0.1,0.1-0.1,0.4-0.3,0.4c-1.3,0.4-2.5,1.5-3,2.8c0,0.2,0.2,0.4,0.3,0.4c0.6-0.1,1.1-0.5,1.8-0.4
		c0.2,0.4-0.5,0.4-0.7,0.8c-1.2,1.1,0,3.5-2.1,3.8c-0.6,0.2-0.5,0.9-0.9,1.2c-0.7,0.9-1.8,1.1-2.9,1c-0.8,0.1-1.5-1.1-2.1-0.3
		c0.1,0.8,0.7,1.2,1.1,1.9c1,1,2.4,1,3.6,1.4c0.2,0,0.3,0.2,0.4,0.3c0,0.3-0.4,0.2-0.6,0.2c-0.8,0.1-1.7,0.2-2.5-0.1
		c-0.1,0-0.2,0.1-0.3,0.2c0.1,0.9,1.1,1.2,1.7,1.7c0.6,0.3,1.4,0.2,1.7,0.9v0.9c0.3,0.4,0.4,1,0.3,1.5c-0.6,0.6-1,1.5-0.5,2.3
		c-0.2,0.2-0.6,0-0.8,0.2c-0.3,0.6-1,0.7-1.2,1.3c0,0.5-0.3,0.9-0.8,1c-0.4,0-0.7,0.2-1,0.1c-0.2-0.3,0.1-0.7-0.3-0.9
		c-0.6-0.1-0.8,0.8-1.3,0.4c-0.3-0.2-0.6-0.3-0.7-0.6c0-0.4,0.3-0.5,0.6-0.6c1.3-0.2,3-0.4,3.5-1.8c0.1-0.7-0.2-1.2-0.1-1.8
		c-0.2-0.8-0.9-1.2-1.7-1.3c-0.7-0.2-1.5,0.1-2-0.4c-0.2-0.2-0.4-0.3-0.7-0.2c-0.2,0-0.3,0.3-0.5,0.2c-0.2-0.2-0.5-0.5-0.7-0.2
		c-0.5,1-1.2,2-2.3,2.2c-0.2-0.3,0.2-0.6,0.3-0.9c0.4-0.8,0.6-1.6,0.8-2.4c0.3-0.4,0.7-1,0.4-1.6c-0.5-1.3-1-2.8-0.6-4.4
		c0.3-1.8-0.2-3.5-1.5-4.7c-0.8-0.4-1.4-1.2-2.3-1.3c-0.6-0.2-1.5,0-1.8-0.6c0.1-0.6,0.8-1,1-1.5l1-1.6c0.4-0.1,0.3,0.6,0.8,0.5
		c0.8,0,0.8-1.4,1.7-0.9c0.4,0.6,1,0.8,1.4,1.2c0.6,2.3,1.4,4.4,2.9,6.3c1.2,1.5,3,2.7,4.9,2.1c0.5-0.4,1.2-0.9,1.3-1.7
		c0.5-3.6-4.1-5.4-3.7-8.9c0.3-3.4,3.8-5.2,6.5-6.5c1.5-0.8,3.4-1.9,3.5-3.8c0-0.2,0-0.3,0.1-0.5C54.5,34.4,54.5,35.1,54.5,35.6
		L54.5,35.6L54.5,35.6L54.5,35.6z"/>
	<path class="st1" d="M29.9,46.3c0.4,0.1,1-0.5,1.1,0.1c-0.1,0.8-0.1,1.8-0.5,2.5c-0.4,0.4-1,0.1-1.4,0.3c-0.6,0.2-0.7,1.6-1.5,0.7
		c-0.3-0.1-0.5,0.2-0.7,0.4c-0.3,0.8-0.6,1.5-1.2,2.1c-0.1,0.1-0.3,0.2-0.4,0c-0.1-0.5,0.3-1.4-0.4-1.6c-0.3,0-0.6,0.2-0.9,0.3
		c-0.6,0-1.4,0-1.7,0.6c-0.1,0.3-0.1,0.7-0.5,0.7c-0.4-0.2-0.8-0.3-1-0.8c-0.2-0.1-0.4-0.3-0.6-0.1c-0.3,0.3-0.4,0.9-1,0.9
		c-0.4,0-0.8-0.1-1.1-0.3c0.1-0.9,1.1-1,1.7-1.4c1.3-0.3,2.2-1.1,3.5-1.3c2-0.8,3.6-2.2,5.1-3.7c0.2-0.1,0.5-0.2,0.7-0.2
		C29.5,45.8,29.5,46.2,29.9,46.3L29.9,46.3L29.9,46.3L29.9,46.3z"/>
	<path class="st1" d="M20.3,49.9c-0.4,0.2-0.9,0.4-1.3,0.2c-0.2-0.2-0.1-0.7-0.2-1c0.1-0.3,0.5-0.2,0.7-0.1
		C19.7,49.3,20.3,49.4,20.3,49.9L20.3,49.9L20.3,49.9L20.3,49.9z"/>
	<path class="st1" d="M37.2,55c0,0.6-0.1,1-0.4,1.5c-0.7,0.6-1.3,1.5-1.5,2.4c0,0.7-0.1,1.3-0.1,1.9c-0.2,0.2-0.4-0.1-0.5-0.2
		c-0.3-0.5-0.2-1.5-1.1-1.4c-0.4,0.5-0.9,1.2-0.6,1.8c0.4,0.5,1.1,0.9,0.7,1.6c-0.6,0.3-0.4,1.2-1.2,1.3c-1.2,0.2-2.4-0.4-3.4,0.5
		c-0.3,0.3-0.5,0.7-0.7,1.1c-0.6,0.1-0.4-0.7-0.7-1c-0.2-0.3-0.6-0.1-0.9-0.3c-0.4-0.2-0.9-0.6-1.4-0.3c-0.4,0.2-0.9,0.8-1.5,0.4
		l-0.7-0.2c0-0.2,0.2-0.6,0-0.8L22,62.8c-0.1-0.1,0-0.3,0.1-0.4c1.1-0.8,2.5,0.1,3.8-0.1c0.9-0.3,1.7-0.2,2.7-0.1
		c0.5,0,1.1,0.2,1.5-0.3c0.2-0.3,0.3-0.7,0.1-1c-0.4-0.9-1.7-1.1-1.8-2.1c-0.1-0.2-0.2-0.4-0.4-0.5c-0.3-0.1-0.5,0.2-0.8,0.1
		c-0.1-0.3-0.2-0.6-0.5-0.8c-0.6,0-1.3,0.3-1.8-0.1c0.1-0.3,0.5-0.2,0.7-0.4c0.8-0.2,1.5-0.7,2.3-1.1l1.1-0.2
		c1.1-1.9,3.5-1.7,5.5-1.8l1.9-0.6C36.9,53.7,37.1,54.5,37.2,55L37.2,55L37.2,55L37.2,55z"/>
	<path class="st1" d="M24.6,61.4c-0.4,0.2-0.8,0.1-1.2,0c-0.2-0.2-0.3-0.6-0.3-0.9C23.7,60.3,24.3,60.9,24.6,61.4L24.6,61.4
		L24.6,61.4L24.6,61.4z"/>
	<path class="st1" d="M42.3,67.9C42.3,68,42,68,42,68c-0.2,0-0.2-0.1-0.2-0.2C41.8,67.5,42.2,67.7,42.3,67.9L42.3,67.9L42.3,67.9
		L42.3,67.9z"/>
	<path d="M37.1,34.9c0.1,0.3-0.1,0.5-0.4,0.6c-0.5,0-0.9,0-1.3-0.4c-0.4-0.3-0.2-0.8-0.1-1.1c0.2-0.2,0.4-0.2,0.6-0.1
		C36.5,34.2,36.8,34.6,37.1,34.9L37.1,34.9L37.1,34.9L37.1,34.9z"/>
	<path d="M39.4,35.6c0,0.3-0.2,0.6-0.4,0.9c-0.2,0.1-0.4,0-0.4-0.2c-0.1-0.4,0.1-0.7,0.3-0.9C39,35.3,39.4,35.4,39.4,35.6L39.4,35.6
		L39.4,35.6L39.4,35.6z"/>
	<path d="M36.9,38.4l0,0.7c-0.7,0.8-0.7,1.9-1.7,2.3c-0.3,0-0.5-0.1-0.6-0.4c0-0.4-0.1-1,0-1.4c0.4-0.2,0.6,0.6,0.9,0.2
		c0.2-0.6,0.7-1.1,1-1.6C36.7,38.2,36.8,38.3,36.9,38.4L36.9,38.4L36.9,38.4z"/>
	<polygon points="6.6,26.1 67.1,26.1 67.1,30.3 6.6,30.3 6.6,26.1 	"/>
	<polygon class="st3" points="6.6,26.1 67.1,26.1 67.1,30.3 6.6,30.3 6.6,26.1 	"/>
	<polygon class="st1" points="51.6,26.9 58.4,26.9 58.4,29.5 51.6,29.5 51.6,26.9 	"/>
	<polygon class="st1" points="36.6,26.9 43.5,26.9 43.5,29.5 36.6,29.5 36.6,26.9 	"/>
	<polygon class="st1" points="21.6,26.9 28.5,26.9 28.5,29.5 21.6,29.5 21.6,26.9 	"/>
	<polygon class="st1" points="7.3,26.9 13.6,26.9 13.6,29.5 7.3,29.5 7.3,26.9 	"/>
	<path d="M64.3,11.2c0.5,0.6,0.2,1.5,0.3,2.2c0.5,0.4,1.7,0,1.8,1c0.1,0.4-0.2,0.7-0.4,0.9c-0.4,0.4-1,0-1.4,0.4c-0.1,1.2,0,2.6,0,4
		c0.4,0.2,0.9,0.2,1.3,0.4c0.2,0.2,0.4,0.5,0.4,0.8c0,0.3-0.2,0.6-0.6,0.7c-0.3,0.2-0.9,0-1.1,0.5c-0.2,0.7,0,1.4-0.1,2.1
		c-0.5,0.2-1,0.2-1.5,0.2l-4.8,0c-0.4,0.2-0.9,0.7-1.6,0.5c-1-0.7-2.4-0.5-3.6-0.5l-3.6,0c-0.7-0.6-0.2-1.6-0.4-2.3
		c-0.2-0.4-0.9-0.2-1.3-0.5c-0.4-0.2-0.5-0.6-0.4-0.9c0-0.4,0.4-0.6,0.8-0.7c0.3-0.2,0.8,0.1,0.9-0.3c0-1.3-0.1-2.5,0-3.7
		c-0.1-0.7-1.1-0.3-1.5-0.6c-0.4-0.2-0.4-0.7-0.3-1.1c0.3-0.7,1.1-0.5,1.8-0.7l0.1-0.2l0.1-2.1l0.2-0.2l5.6,0.1
		c0.7,0,1.2,0.3,1.8,0.5c1.2-0.9,2.9-0.5,4.4-0.7C62.3,11.2,63.3,11,64.3,11.2L64.3,11.2L64.3,11.2L64.3,11.2z"/>
	<path class="st4" d="M64.3,11.2c0.5,0.6,0.2,1.5,0.3,2.2c0.5,0.4,1.7,0,1.8,1c0.1,0.4-0.2,0.7-0.4,0.9c-0.4,0.4-1,0-1.4,0.4
		c-0.1,1.2,0,2.6,0,4c0.4,0.2,0.9,0.2,1.3,0.4c0.2,0.2,0.4,0.5,0.4,0.8c0,0.3-0.2,0.6-0.6,0.7c-0.3,0.2-0.9,0-1.1,0.5
		c-0.2,0.7,0,1.4-0.1,2.1c-0.5,0.2-1,0.2-1.5,0.2l-4.8,0c-0.4,0.2-0.9,0.7-1.6,0.5c-1-0.7-2.4-0.5-3.6-0.5l-3.6,0
		c-0.7-0.6-0.2-1.6-0.4-2.3c-0.2-0.4-0.9-0.2-1.3-0.5c-0.4-0.2-0.5-0.6-0.4-0.9c0-0.4,0.4-0.6,0.8-0.7c0.3-0.2,0.8,0.1,0.9-0.3
		c0-1.3-0.1-2.5,0-3.7c-0.1-0.7-1.1-0.3-1.5-0.6c-0.4-0.2-0.4-0.7-0.3-1.1c0.3-0.7,1.1-0.5,1.8-0.7l0.1-0.2l0.1-2.1l0.2-0.2l5.6,0.1
		c0.7,0,1.2,0.3,1.8,0.5c1.2-0.9,2.9-0.5,4.4-0.7C62.3,11.2,63.3,11,64.3,11.2L64.3,11.2L64.3,11.2L64.3,11.2z"/>
	<path d="M44.2,11.1c0.2,0,0.5,0.2,0.7,0.3c0.2,0.8,0,1.4,0.2,2.2c0.5,0.2,1.3,0,1.6,0.7c0.1,0.3,0.1,0.8-0.1,1
		c-0.4,0.5-1.4,0-1.6,0.7c-0.1,1.5-0.1,2.5,0,3.9c0.4,0.4,1.1,0.1,1.5,0.6c0.2,0.2,0.3,0.5,0.2,0.9c-0.3,0.5-1,0.5-1.6,0.7
		c-0.2,0.2,0,0.6-0.1,0.9c-0.2,0.5,0.3,1.2-0.3,1.5c-1.7,0.2-3.3-0.1-5,0l-1.6,0c-0.4,0.3-1,0.7-1.6,0.4l-1-0.5c-1.2,0-2.4,0-3.6,0
		c-0.8,0-2,0.3-2.5-0.5c0-0.7,0.1-1.3,0-2c-0.6-0.2-1.6,0.1-2-0.7c-0.1-0.2,0-0.6,0.1-0.8c0.5-0.7,1.5-0.1,1.9-0.6l0-1.8
		c0.1-0.9,0-1.6,0-2.4c-0.6-0.2-1.7,0.1-1.8-0.9c-0.1-0.5,0.2-0.9,0.7-1c0.4-0.1,1,0.1,1.2-0.3l0.1-1.9c0.5-0.8,1.7-0.3,2.4-0.5
		l3.7,0c0.6,0.1,1.1,0.7,1.7,0.3C39.4,10.5,41.9,11.3,44.2,11.1L44.2,11.1L44.2,11.1L44.2,11.1z"/>
	<path class="st4" d="M44.2,11.1c0.2,0,0.5,0.2,0.7,0.3c0.2,0.8,0,1.4,0.2,2.2c0.5,0.2,1.3,0,1.6,0.7c0.1,0.3,0.1,0.8-0.1,1
		c-0.4,0.5-1.4,0-1.6,0.7c-0.1,1.5-0.1,2.5,0,3.9c0.4,0.4,1.1,0.1,1.5,0.6c0.2,0.2,0.3,0.5,0.2,0.9c-0.3,0.5-1,0.5-1.6,0.7
		c-0.2,0.2,0,0.6-0.1,0.9c-0.2,0.5,0.3,1.2-0.3,1.5c-1.7,0.2-3.3-0.1-5,0l-1.6,0c-0.4,0.3-1,0.7-1.6,0.4l-1-0.5c-1.2,0-2.4,0-3.6,0
		c-0.8,0-2,0.3-2.5-0.5c0-0.7,0.1-1.3,0-2c-0.6-0.2-1.6,0.1-2-0.7c-0.1-0.2,0-0.6,0.1-0.8c0.5-0.7,1.5-0.1,1.9-0.6l0-1.8
		c0.1-0.9,0-1.6,0-2.4c-0.6-0.2-1.7,0.1-1.8-0.9c-0.1-0.5,0.2-0.9,0.7-1c0.4-0.1,1,0.1,1.2-0.3l0.1-1.9c0.5-0.8,1.7-0.3,2.4-0.5
		l3.7,0c0.6,0.1,1.1,0.7,1.7,0.3C39.4,10.5,41.9,11.3,44.2,11.1L44.2,11.1L44.2,11.1L44.2,11.1z M16.5,11.5c2-0.9,4.3-0.2,6.5-0.4
		c0.6,0.1,1.4-0.3,1.8,0.3c0,0.7,0,1.3,0,1.9c0.2,0.5,0.9,0.1,1.2,0.3c0.2,0.1,0.5,0.2,0.5,0.5c0.1,0.3,0,0.6-0.1,0.9
		c-0.4,0.5-0.9,0.3-1.5,0.4l-0.2,0.2c0.1,1.2-0.2,2.3,0,3.4c0,0.2-0.1,0.6,0.2,0.7c0.6,0,1.1,0,1.6,0.4c0.2,0.3,0.2,0.7,0.1,1
		c-0.2,1.2-2.1-0.2-1.9,1.3c0,0.5,0.1,1.3-0.1,1.8c-2.2,0-4.5-0.2-6.6,0c-0.4,0.3-0.9,0.5-1.4,0.6c-0.5-0.1-0.8-0.3-1.1-0.6
		c-2-0.1-4-0.1-5.9-0.1C9,23.6,9.4,22.7,9.2,22c-0.3-0.4-0.8-0.1-1.2-0.3c-0.3,0-0.4-0.3-0.5-0.5c0-0.4,0-0.8,0.3-1.1
		c0.3-0.2,0.8-0.2,1.2-0.2l0.2-0.2c-0.1-1.4,0.2-2.6-0.1-4.1c-0.2-0.3-0.6,0-0.8-0.2c-0.4-0.1-0.7-0.2-0.9-0.6
		c-0.1-0.3-0.2-0.7,0.2-0.9c0.5-0.5,1.2,0.1,1.6-0.4l0.2-2c0.3-0.6,1.1-0.3,1.7-0.3c1-0.2,2.2,0,3.3,0
		C15.1,11.1,15.9,11.2,16.5,11.5L16.5,11.5L16.5,11.5L16.5,11.5z"/>
	<path class="st1" d="M16.2,12l0.2,0.4c0.1,2.7,0.1,5.5,0.1,8.4l-0.1,1.1c-0.7,0-1.4-0.3-2.2-0.2c-0.8-0.1-1.6,0.1-2.3-0.1
		c-0.4-0.9-0.1-1.9-0.2-2.9c0-2,0.1-4.5,0.1-6.8c0-0.2,0.2-0.2,0.3-0.3C13.5,11.6,15.1,11.3,16.2,12L16.2,12L16.2,12z"/>
	<path class="st1" d="M10.8,11.8c-0.4,0.3-0.9,0.8-0.7,1.3c0.2,3.4,0,6.5,0.2,9.8l0.3,0.3c1.6,0,3.4-0.2,4.9,0.1
		c0.1,0,0.1,0.2,0,0.2c-0.4,0.2-0.9,0.1-1.4,0.1L10,23.5c-0.3-0.2-0.2-0.8-0.2-1.1c0-0.4,0.1-0.9-0.3-1.1c-0.6-0.1-1.1,0-1.5-0.4
		c0.3-0.8,1.6-0.2,1.8-1.1c0.1-1.5-0.1-3,0-4.5c-0.2-0.8-1.1-0.6-1.6-0.7c-0.1-0.1-0.2-0.2-0.2-0.4c0.5-0.5,1.5,0.1,1.8-0.6
		c0.2-0.7,0-1.3,0.1-1.9c0.2-0.2,0.6-0.2,0.9-0.1V11.8L10.8,11.8L10.8,11.8z"/>
	<path class="st1" d="M22.3,11.8c0,3.3,0,6.5,0,9.7c-1.6,0.2-3.5-0.1-5.1,0.3c-0.4-0.3-0.1-0.9-0.2-1.3c-0.1-1.1,0-2.3,0-3.4
		c0-1.6-0.1-3.4,0-5c0.2-0.5,0.8-0.7,1.4-0.7l3.9,0L22.3,11.8L22.3,11.8L22.3,11.8z"/>
	<path class="st1" d="M24.2,11.8c0.1,0.7-0.2,1.5,0.2,2.2c0.4,0.2,1,0.1,1.4,0.2c0.2,0.2,0.1,0.4,0,0.6c-0.4,0.4-1.4-0.1-1.6,0.6
		c0,1.6-0.1,3.2,0,4.8l0.2,0.2c0.5,0.1,1.2-0.1,1.6,0.3c0,0.2,0,0.5-0.2,0.6c-0.5,0.1-1.3-0.2-1.6,0.4c-0.1,0.7,0.1,1.3-0.1,2
		l-0.3,0.1l-5.8-0.1c-0.1-0.1,0-0.2,0-0.2l0.6-0.2l4.7,0c0.5-0.1,0.5-0.7,0.5-1.1c0-2.3,0-4.3,0-6.5c0-1.1,0.2-2.2-0.1-3.2
		c0-0.2-0.4-0.4-0.5-0.7C23.6,11.5,24.1,11.5,24.2,11.8L24.2,11.8L24.2,11.8L24.2,11.8z"/>
	<path class="st1" d="M50.6,11.7c-0.1,0.3-0.5,0.6-0.6,0.9c0,3.4,0,7,0.1,10.5l0.3,0.2c1.8,0,3.7-0.4,5.3,0.4c0.1,0,0,0,0,0.1
		c-2,0-3.9,0.1-5.9,0l-0.2-0.2c-0.1-0.7,0.1-1.4-0.2-2.1C49,21,47.7,21.5,48,20.6c0.5-0.4,1.3,0.1,1.6-0.5c0-1.7,0.1-3.2,0-4.8
		c-0.4-0.5-1.1-0.2-1.6-0.3c-0.2-0.2-0.3-0.4-0.1-0.6c0.5-0.5,2.1,0.1,1.8-1.1c0.2-0.5-0.2-1.6,0.5-1.6
		C50.3,11.6,50.5,11.6,50.6,11.7L50.6,11.7L50.6,11.7L50.6,11.7z"/>
	<path class="st1" d="M64,11.8c0.2,0.8-0.2,1.6,0.3,2.3c0.5,0.1,1.3-0.2,1.5,0.3c0,1-1.4,0.2-1.7,1c0.1,1.6-0.1,2.8,0,4.5
		c-0.2,0.1-0.2,0.3-0.1,0.5c0.5,0.4,1-0.2,1.5,0.2c0.3,0.1,0.1,0.3,0.1,0.5c-0.4,0.5-1.3-0.1-1.5,0.6l-0.1,2l-0.3,0.1l-5.4,0
		c-0.1-0.1,0-0.1,0-0.2l0.7-0.2h4.1c0.2,0,0.5-0.2,0.5-0.5c0-3.2-0.1-6.6-0.1-10.1l-0.5-1C63.3,11.5,63.9,11.5,64,11.8L64,11.8
		L64,11.8L64,11.8z"/>
	<path class="st1" d="M51.2,13.1c0,2.9,0,5.9,0,8.8c-0.1,0.2-0.4,0.4-0.5,0.5l-0.2-0.1c0-0.9,0-2,0-2.9v-0.7c0-1.9,0-4.1,0-6
		c0.2-0.2,0.3-0.5,0.5-0.6C51.2,12.5,51.1,12.7,51.2,13.1L51.2,13.1L51.2,13.1L51.2,13.1z"/>
	<path class="st1" d="M63.2,12.6c-0.1,2.3,0,4.5,0,6.6c0,1,0,1.9,0,2.9c0,0.1,0,0.1-0.1,0.2c-0.7-0.3-0.5-1.1-0.5-1.7
		c0-0.9-0.1-1.8,0.1-2.7l-0.1-0.3l0-5.4C62.7,11.9,63.1,12.4,63.2,12.6L63.2,12.6L63.2,12.6L63.2,12.6z"/>
	<path class="st1" d="M23.4,12.5c0,3.3,0,6.6-0.1,9.6c-0.1,0.2-0.2,0-0.4-0.1c-0.2-0.5,0-1.1,0-1.6c-0.1-2.7,0-5.4,0-8.1
		C23.1,12.1,23.3,12.3,23.4,12.5L23.4,12.5L23.4,12.5L23.4,12.5z"/>
	<path class="st1" d="M57.2,16.7c-0.1,0.2-0.4,0.2-0.7,0.1l-0.2-0.1c0.1-0.5,0-1,0.4-1.3C57,15.7,57,16.2,57.2,16.7L57.2,16.7
		L57.2,16.7L57.2,16.7z"/>
	<path class="st1" d="M22.9,22.5c-0.1,0.2-0.5,0.1-0.7,0.2h-1.3c-1.1,0-2.1-0.1-3.1,0.1c-0.2,0-0.3-0.2-0.3-0.4
		c0.1-0.4,0.6-0.2,0.9-0.4c1.3,0,2.8,0,4,0C22.6,22.2,22.8,22.3,22.9,22.5L22.9,22.5L22.9,22.5L22.9,22.5z"/>
	<path class="st1" d="M16.1,22.4c0,0.2-0.2,0.4-0.4,0.5c-1.3-0.4-2.7-0.1-4.1-0.3l0,0c0.1-0.2,0.3-0.5,0.6-0.5
		C13.5,22.1,14.8,22.1,16.1,22.4L16.1,22.4L16.1,22.4L16.1,22.4z"/>
	<path class="st1" d="M56.3,22.5c0.1,0.1,0.1,0.3,0,0.3c-0.5,0.6-1.1-0.1-1.8,0c-1.1-0.1-2.3,0-3.3-0.1c0.3-0.9,1.6-0.4,2.3-0.5
		C54.4,22.3,55.5,22,56.3,22.5L56.3,22.5L56.3,22.5L56.3,22.5z"/>
	<path class="st1" d="M62.3,22.3c0.2,0.1,0.4,0.3,0.4,0.5c-1.7,0.2-3.3-0.2-4.9,0.2c-0.2,0-0.3-0.3-0.2-0.5c0.3-0.4,0.9-0.3,1.4-0.4
		L62.3,22.3L62.3,22.3L62.3,22.3z"/>
	<path class="st1" d="M17.4,23.2c0.1,0.3,0,0.7-0.2,0.9c-0.2,0.2-0.5,0.2-0.7,0.1c-0.2,0-0.3-0.3-0.3-0.5c-0.1-0.5,0.4-0.6,0.6-0.9
		C17,22.8,17.3,23,17.4,23.2L17.4,23.2L17.4,23.2L17.4,23.2z"/>
	<path class="st1" d="M57.5,23.4c0,0.4,0,0.9-0.5,0.9c-0.3,0-0.6-0.1-0.7-0.4c-0.1-0.4,0.2-0.8,0.5-0.9
		C57.2,22.9,57.3,23.2,57.5,23.4L57.5,23.4L57.5,23.4L57.5,23.4z"/>
	<path class="st1" d="M42.5,11.9c0,3.2,0,6.5,0,9.7l-0.2,0.1c-1.8,0.2-3.5-0.3-5.1,0.3c-0.3-0.2,0-0.7-0.1-0.9c0-2.8,0-5.6,0-8.5
		c0-0.3,0.2-0.5,0.5-0.6c0.5-0.3,1.1-0.2,1.6-0.3l3.2,0.1L42.5,11.9L42.5,11.9L42.5,11.9z"/>
	<path class="st1" d="M44.4,11.8c0,0.7,0,1.4,0.1,2.1c0.5,0.5,1.9-0.2,1.6,0.9c-0.4,0.3-1.1,0.1-1.6,0.2l-0.1,0.2
		c-0.2,1.6,0.1,3.3,0,4.8c0,0.2,0.1,0.5,0.4,0.5c0.5,0,1.1-0.3,1.3,0.3c-0.1,1-1.4,0.1-1.7,0.9c-0.1,0.7,0.2,1.4-0.1,2.1l-0.2,0.1
		c-2.1,0-4.1,0-6.1-0.1c-0.1,0,0-0.2,0-0.2l0.4-0.2c1.6-0.2,3.4,0,5.2-0.2c0.2,0,0.5-0.2,0.4-0.5c0-3.1,0-6.4,0-9.8
		c-0.1-0.5-0.6-0.8-0.7-1.2C43.7,11.6,44.3,11.4,44.4,11.8L44.4,11.8L44.4,11.8L44.4,11.8z"/>
	<path class="st1" d="M30.8,11.6c-0.1,0.4-0.4,0.5-0.6,0.8c-0.2,0.7,0,1.3-0.1,2c0,2.8,0,5.5,0,8.3c0,0.2,0.2,0.5,0.4,0.5l4.4,0.1
		c0.2,0,0.5,0.1,0.7,0.3c-0.1,0.2-0.4,0.2-0.6,0.2c-1.6,0-3.4,0.1-5-0.1l-0.2-0.1c0-0.7,0-1.5-0.3-2.2c-0.5-0.2-1.1,0-1.6-0.2
		c-0.2-0.1-0.2-0.5,0-0.6c0.5-0.3,1.6,0.2,1.8-0.6c0-1.6,0.1-3.1,0-4.8c-0.5-0.7-1.4,0-1.8-0.7c0.2-0.9,1.5-0.1,1.8-0.9l0.1-1.9
		C30.2,11.5,30.6,11.6,30.8,11.6L30.8,11.6L30.8,11.6L30.8,11.6z"/>
	<path class="st1" d="M31.5,12.2c0.1,2.8-0.2,5.4,0,8.2c-0.2,0.7,0.3,1.6-0.7,1.8c-0.2-2.8,0-5.9-0.1-8.9c-0.1-0.5,0.2-0.9,0.6-1.2
		L31.5,12.2L31.5,12.2L31.5,12.2z"/>
	<path class="st1" d="M43.6,12.7c0,3.1,0.1,6.5-0.1,9.5c-0.2,0-0.4-0.2-0.4-0.3c0-1.3-0.2-2.5-0.1-3.9c0.1-1.8-0.1-3.9,0.1-5.7
		C43.3,12.2,43.6,12.5,43.6,12.7L43.6,12.7L43.6,12.7L43.6,12.7z"/>
	<path class="st1" d="M36.1,22.4c0.2,0,0.4,0.2,0.2,0.4L36,23.1c-1.4-0.5-3.2-0.2-4.8-0.4c0.1-0.2,0.2-0.4,0.5-0.6
		C33.2,22.2,34.7,22,36.1,22.4L36.1,22.4L36.1,22.4L36.1,22.4z"/>
	<path class="st1" d="M42.6,22.2c0.2,0.1,0.5,0.3,0.5,0.5l-0.2,0.1c-1.7,0-3.5-0.2-5.1,0.2c-0.2,0-0.5,0-0.6-0.3
		c0.2-0.4,0.7-0.5,1.1-0.5C39.8,22.1,41.2,22.2,42.6,22.2L42.6,22.2L42.6,22.2L42.6,22.2z"/>
	<path class="st1" d="M37.4,23.5c0,0.3,0,0.7-0.4,0.7c-0.3,0-0.7,0-0.7-0.4c0.1-0.3,0.3-0.5,0.6-0.7C37.1,23.1,37.3,23.4,37.4,23.5
		L37.4,23.5L37.4,23.5L37.4,23.5z"/>
	<path class="st1" d="M36.5,18.4c0.2-1.6,0-3.5,0.1-5c0-0.5,0-1.1-0.3-1.4c-1.2-0.5-2.8-0.2-4.1-0.3c-0.1,0-0.2,0-0.2,0.1
		c0,3.2,0,6.3,0,9.5l0.1,0.4c1,0.2,2,0.1,3,0.1c0.5,0.1,1.1,0.2,1.6,0.3c0-1.1,0.1-2,0-3L36.5,18.4L36.5,18.4L36.5,18.4z"/>
	<path d="M36.1,18.2c-0.5-0.4-0.6-1-1-1.5c0.2-0.2,0.5-0.3,0.7-0.5c0.3-0.3,0.7-0.8,0.5-1.3c0-0.4-0.2-0.8-0.7-1
		c-0.9-0.3-2-0.2-2.8-0.1c-0.2,0.1-0.2,0.2-0.1,0.4c0.3,0.1,0.5,0.4,0.5,0.7c0,1.1,0,2.2-0.2,3.3l-0.4,0.5c0.4,0.4,1.1,0.1,1.7,0.2
		c0.2-0.3-0.3-0.5-0.4-0.8c0.1-0.3,0-0.8,0.2-1.1c0.6,0.5,0.8,1.4,1.6,1.9l1,0.1l0-0.5C36.5,18.5,36.2,18.3,36.1,18.2L36.1,18.2
		L36.1,18.2z M34.9,16.2c-0.3,0-0.7,0.2-0.8-0.2c0-0.5-0.2-1.2,0-1.7c0.4-0.3,0.9-0.2,1.2,0.2c0.2,0.3,0.2,0.7,0.2,1
		C35.3,15.8,35.2,16.2,34.9,16.2L34.9,16.2L34.9,16.2z"/>
	<path class="st1" d="M62.1,12.8c0-0.4,0-0.8-0.2-1.1l-1.5,0c-1.1,0.2-2.3-0.2-3.1,0.4c-0.4,0.5-0.2,1.1-0.3,1.6
		c0.1,0.3,0.2,0.7,0.3,1l-0.2,0.4l-0.6-0.1l-0.2-0.4c0.1-0.3,0.1-0.5,0.2-0.8c0-0.7,0.2-1.8-0.7-2c-1.4-0.1-2.6-0.2-4-0.2
		c-0.1,0-0.2,0-0.2,0.1c0,3.2,0,5.9,0,9c0,0.4-0.1,0.9,0.3,1c1.2-0.2,2.3,0,3.4,0c0.5,0,0.7,0.4,1.2,0.3c0.1-1.3,0.1-2.8,0.1-4.2
		c0-0.1,0-0.4-0.2-0.4l0-0.3l0.7,0.1l0.1,0.2c0,0,0,0-0.1,0.1l-0.1,4.2c0,0.1,0,0.4,0.3,0.4c1.3-0.7,2.8-0.2,4.3-0.4l0.3-0.1
		c0.2-0.7,0.1-3.2,0.1-3.2C62.2,16.6,62.1,14.7,62.1,12.8L62.1,12.8L62.1,12.8z"/>
	<path d="M57.4,17.4c0.2,0.2,0.3,0.5,0.2,0.8l-0.3,0.5l0.2,0.2c0.5,0,1.1,0.1,1.6-0.1c-0.1-0.2-0.4-0.3-0.6-0.5
		c-0.6-1.5-1-3.1-1.4-4.7l-0.5,0.2c-0.3,1.4-0.9,2.7-1.2,4.1c-0.1,0.3-0.4,0.3-0.6,0.5c-0.3,0.1-0.4-0.2-0.5-0.4
		c0-1.2,0.1-2.3,0-3.6c0-0.2,0.2-0.4,0.4-0.2c0.3,0.2,0.3,0.6,0.4,0.9c0.1,0.1,0.3,0.1,0.3-0.1l0.2-1.3c-0.2-0.4-0.5,0-0.9,0
		c-0.6,0-1.5,0.1-2-0.2c-0.5,0.2-0.4,0.9-0.5,1.3c0,0.1,0,0.2,0,0.2c0.4-0.2,0.6-0.9,1.2-0.7l0,1.2l-0.1,2.7
		c-0.2,0.2-0.6,0.3-0.5,0.6c0.7,0.2,1.6,0,2.3,0.1c0.4,0,0.9,0.1,1.2,0c0.1-0.1,0-0.2,0-0.3c-0.2-0.1-0.5-0.3-0.4-0.7
		c0.1-0.2,0.2-0.6,0.5-0.5c0.1,0,0.1,0,0.2,0.1l0.6,0.1v0C57.3,17.4,57.3,17.4,57.4,17.4L57.4,17.4L57.4,17.4z M56.5,16.8l-0.2-0.1
		c0.1-0.5,0-1,0.4-1.3c0.4,0.2,0.3,0.8,0.5,1.3C57.1,16.9,56.7,16.9,56.5,16.8L56.5,16.8L56.5,16.8z"/>
	<path d="M61.1,14c0,0.3,0.2,0.8,0,1c-0.3-0.3-0.3-0.5-0.8-0.6c-0.3,0-0.5,0-0.5,0.3c-0.1,0.9,0.8,0.9,1.3,1.5
		c0.5,0.5,0.7,1.2,0.5,1.8c-0.2,0.5-0.4,0.8-0.9,0.8c-0.4,0.1-0.7-0.2-1,0c-0.1,0-0.2,0.1-0.3,0l0-1.6c0-0.1,0.1-0.1,0.2-0.1
		c0.2,0.5,0.1,1.2,0.8,1.2c0.3,0,0.5-0.1,0.5-0.4c0.1-1.5-1.8-1.1-1.8-2.6c0-0.3,0.1-0.6,0.3-0.9c0.3-0.5,1.1-0.2,1.6-0.5
		C61.1,13.6,61.1,13.9,61.1,14L61.1,14L61.1,14L61.1,14z"/>
	<path d="M40.6,13.9c-0.4,0.2-0.9,0.5-0.7,1.1c-0.1,1-0.1,2,0,3.1l0.7,0.6l0,0.1c-0.7,0-1.4,0.1-2,0c-0.3-0.3,0.4-0.5,0.5-0.7
		c0.1-1.1,0.2-2.3,0.1-3.6c-0.1-0.4-0.7-0.2-0.6-0.6c0.6-0.1,1.4-0.1,2.1,0L40.6,13.9L40.6,13.9L40.6,13.9z"/>
	<path d="M20.7,14.7c-0.4,0.5-0.5-0.5-0.9-0.5c-0.2,0-0.6-0.1-0.8,0.1c-0.1,0.5-0.2,1,0,1.5c0.2,0.1,0.5,0.1,0.7,0.1
		c0.2-0.2,0.4-0.6,0.7-0.6c0.2,0.2-0.1,0.5,0,0.7c-0.1,0.3,0.2,0.7-0.2,0.8c-0.2-0.1-0.4-0.6-0.7-0.6l-0.6,0c-0.2,0.7-0.1,1.4,0,2.1
		c0.3,0.3,0.7,0,1.1,0c0.5-0.1,0.4-0.9,0.9-0.8c0.1,0.3,0.2,0.7,0.1,1.1l-0.2,0.2l-2.9,0c-0.1,0-0.4,0-0.3-0.2
		c0.9-0.6,0.4-1.7,0.5-2.6c-0.1-0.7,0.4-1.6-0.5-2c0-0.2,0.2-0.2,0.3-0.2c0.7,0,1.7,0.3,2.3-0.3C20.7,13.7,20.6,14.3,20.7,14.7
		L20.7,14.7L20.7,14.7L20.7,14.7z"/>
	<path d="M16.2,14.1c-0.8,0.7-0.9,1.8-1.2,2.7c-0.3,0.5-0.2,1.3-0.7,1.8c-0.2,0.1-0.4-0.1-0.4-0.3c-0.3-1.3-0.7-2.5-1.1-3.7
		c0-0.4-0.9-0.5-0.4-0.7c0.6-0.1,1.1,0.1,1.6,0c0.1,0.4-0.5,0.6-0.3,1c0.4,0.5,0.2,1.4,0.7,1.9l0.2-0.2c0-0.9,1.1-1.8,0.2-2.6
		c0.2-0.4,0.8-0.1,1.2-0.2C16.1,13.8,16.4,13.9,16.2,14.1L16.2,14.1L16.2,14.1L16.2,14.1z"/>
	<path class="st1" d="M11.2,12.1c0.2,3.3,0,6.5,0,9.7c0,0.2-0.2,0.4-0.4,0.4c-0.2-1-0.2-2-0.1-3c-0.1-2.1,0-4.4,0-6.5
		C10.7,12.4,11,12.2,11.2,12.1L11.2,12.1L11.2,12.1L11.2,12.1z"/>
</g>
</svg>
