<?xml version="1.0" encoding="utf-8"?>
<!-- Generator: Adobe Illustrator 23.0.4, SVG Export Plug-In . SVG Version: 6.00 Build 0)  -->
<svg version="1.1" id="Layer_1" xmlns="http://www.w3.org/2000/svg" xmlns:xlink="http://www.w3.org/1999/xlink" x="0px" y="0px"
	 viewBox="0 0 122 24" style="enable-background:new 0 0 122 24;" xml:space="preserve">
<style type="text/css">
	.st0{fill:#FFFFFF;enable-background:new    ;}
	.st1{opacity:0.75;}
	.st2{fill:#FFFFFF;}
	.st3{enable-background:new    ;}
</style>
<g>
	<g>
		<path id="S4S_Logo_Symbol_19_" class="st0" d="M33.9,8.5h6.4c1.9,0,3.9,1.5,4.1,3.4c0,0.1,0,6.9,0,6.9c0,3.4-4.8,4.6-6.3,4.6
			c-0.3,0-7.6,0-7.6,0c-4.4-0.1-6.6-4-6.6-5.3c0-0.4,0-0.6,0-0.6h10.4v1.5c0,0,0.1,0.3,0.4,0.1c0.2-0.2,3.4-2.7,3.4-2.7
			s0.2-0.2-0.1-0.3c-0.2-0.1-3.2-2.5-3.2-2.5s-0.4-0.2-0.4,0.1v1.4c0,0-6.3,0-7,0c-1.5-0.1-3.4-1.7-3.5-3.2c0,0,0-6.7,0-7.6
			c0-2,2.9-4.4,6.5-4.4h7.9c2.4-0.1,6.2,2,6.2,4.4c0,0.9,0,1.9,0,1.9L33.9,6.2V4.8c0-0.3-0.3-0.3-0.4-0.2c-0.2,0.2-3.3,2.5-3.3,2.5
			s-0.3,0.2,0,0.6c0.3,0.3,3.2,2.5,3.2,2.5s0.4,0.2,0.4-0.2C33.9,9.2,33.9,8.5,33.9,8.5z"/>
		<g class="st1">
			<path class="st2" d="M46.3,23.2"/>
		</g>
	</g>
	<g class="st3">
		<path class="st2" d="M1.5,4.9c0-0.2,0.1-0.3,0.3-0.3h3.6c2.3,0,4,1.4,4,3.6v7.1c0,2.2-1.7,3.6-4,3.6H1.8c-0.2,0-0.3-0.1-0.3-0.3
			V4.9z M3.8,17h1.7c1.1,0,1.9-0.7,1.9-2.2V8.7c0-1.5-0.8-2.2-1.9-2.2H3.8c-0.1,0-0.2,0.1-0.3,0.2v10.2C3.6,17,3.7,17,3.8,17z"/>
		<path class="st2" d="M15.1,18.6V4.9c0-0.2,0.1-0.3,0.3-0.3h1.4c0.2,0,0.3,0.1,0.3,0.3v13.8c0,0.2-0.1,0.3-0.3,0.3h-1.4
			C15.2,18.9,15.1,18.8,15.1,18.6z"/>
	</g>
	<g class="st3">
		<path class="st2" d="M50.6,8.1c0-2.2,1.7-3.6,4-3.6c2.3,0,4,1.4,4,3.6v1c0,0.2-0.1,0.3-0.3,0.3h-1.5c-0.2,0-0.3-0.1-0.3-0.3V8.6
			c0-1.5-0.8-2.2-1.9-2.2c-1.1,0-1.9,0.7-1.9,2.2V15c0,1.5,0.8,2.2,1.9,2.2c1.1,0,1.9-0.7,1.9-2.2v-0.5c0-0.2,0.1-0.3,0.3-0.3h1.5
			c0.2,0,0.3,0.1,0.3,0.3v1c0,2.2-1.7,3.6-4,3.6c-2.3,0-4-1.4-4-3.6V8.1z"/>
		<path class="st2" d="M63.6,8.1c0-2.2,1.7-3.6,4-3.6s4,1.4,4,3.6v7.3c0,2.2-1.7,3.6-4,3.6s-4-1.4-4-3.6V8.1z M67.5,17.1
			c1.1,0,1.9-0.7,1.9-2.2V8.6c0-1.5-0.8-2.2-1.9-2.2c-1.1,0-1.9,0.7-1.9,2.2V15C65.6,16.4,66.4,17.1,67.5,17.1z"/>
		<path class="st2" d="M79.1,18.6L75.8,4.9c-0.1-0.3,0.2-0.3,0.4-0.3h1c0.3,0,0.5,0,0.5,0.3l2.4,9.9c0,0.1,0.2,0.1,0.2,0l2.4-9.9
			c0.1-0.3,0.2-0.3,0.5-0.3h1c0.2,0,0.5,0,0.4,0.3l-3.4,13.6c-0.1,0.3-0.2,0.4-0.6,0.4h-1C79.3,18.9,79.2,18.9,79.1,18.6z"/>
		<path class="st2" d="M89.8,4.9c0-0.2,0.1-0.3,0.3-0.3h5.4c0.2,0,0.3,0.1,0.3,0.3v1.2c0,0.2-0.1,0.3-0.3,0.3H92
			c-0.2,0-0.3,0.1-0.3,0.3v3.8c0,0.2,0.1,0.3,0.3,0.3h3.4c0.2,0,0.3,0.1,0.3,0.3v1.2c0,0.2-0.1,0.3-0.3,0.3H92
			c-0.2,0-0.3,0.1-0.3,0.3v4c0,0.2,0.1,0.3,0.3,0.3h3.4c0.2,0,0.3,0.1,0.3,0.3v1.2c0,0.2-0.1,0.3-0.3,0.3H90c-0.2,0-0.3-0.1-0.3-0.3
			V4.9z"/>
		<path class="st2" d="M101.1,18.6V4.9c0-0.2,0.1-0.3,0.3-0.3h3.7c2.3,0,4,1.6,4,3.4v1.8c0,1-0.5,2-1.5,2.7
			c-0.1,0.1-0.2,0.2-0.2,0.4l1.5,5.7c0.1,0.3-0.1,0.4-0.3,0.4h-1.2c-0.3,0-0.4,0-0.5-0.3l-1.4-5.2c0-0.2-0.2-0.3-0.4-0.3h-1.7
			c-0.2,0-0.3,0.1-0.3,0.3v5.2c0,0.2-0.1,0.3-0.3,0.3h-1.4C101.2,18.9,101.1,18.8,101.1,18.6z M105,11.3c1.1,0,1.9-0.9,1.9-2V8.5
			c0-1.1-0.8-2-1.9-2h-1.7c-0.2,0-0.3,0.1-0.3,0.3V11c0,0.2,0.1,0.3,0.3,0.3H105z"/>
		<path class="st2" d="M116,18.6v-4.9c0-0.1,0-0.2,0-0.2l-2.9-8.6c-0.1-0.2,0.1-0.3,0.3-0.3h1.3c0.2,0,0.4,0.1,0.5,0.3l1.8,5.7
			c0,0.1,0.2,0.1,0.2,0l1.8-5.7c0.1-0.2,0.2-0.3,0.5-0.3h1.3c0.2,0,0.3,0.1,0.3,0.3l-2.9,8.6c0,0.1-0.1,0.2-0.1,0.2v4.9
			c0,0.2-0.1,0.3-0.3,0.3h-1.5C116.1,18.9,116,18.8,116,18.6z"/>
	</g>
</g>
</svg>
