<?xml version="1.0" encoding="utf-8"?>
<!-- Generator: Adobe Illustrator 22.1.0, SVG Export Plug-In . SVG Version: 6.00 Build 0)  -->
<svg version="1.1" id="Layer_1" xmlns="http://www.w3.org/2000/svg" xmlns:xlink="http://www.w3.org/1999/xlink" x="0px" y="0px"
	 viewBox="0 0 636 229" style="enable-background:new 0 0 636 229;" xml:space="preserve">
<style type="text/css">
	.st0{clip-path:url(#SVGID_2_);fill:#165B9E;}
	.st1{fill:#F0CC27;}
	.st2{fill:#165B9E;}
	.st3{clip-path:url(#SVGID_4_);fill:#165B9E;}
</style>
<g>
	<g>
		<g>
			<defs>
				<rect id="SVGID_1_" x="8" y="6.2" width="483.3" height="206.3"/>
			</defs>
			<clipPath id="SVGID_2_">
				<use xlink:href="#SVGID_1_"  style="overflow:visible;"/>
			</clipPath>
			<path class="st0" d="M82.2,201.9c-29.7-13.9-46.4-32.2-45.5-53.3C39.4,89.3,180.1,28.4,349.9,13.1C401,8.4,449,8.5,491.2,12.4
				c-48.5-7-106.9-8.4-170-2.7C151.4,25,10.7,85.9,8,145.2c-1.3,29.1,30.9,52.6,84,67.2L82.2,201.9z"/>
		</g>
	</g>
</g>
<path class="st1" d="M72.3,182.1c-8.9-9-13.1-18.8-12.7-29.2C62.2,98.2,192.4,42.1,350,27.9c24.1-2.2,48.1-3.3,71.1-3.3
	c43.1,0,83.4,3.9,116.7,11.3l0.5-2.3c-35.3-9.2-79.6-14.1-127.9-14.1c-22.9,0-46.6,1.1-70.5,3.2C183.2,36.9,53.6,93.3,51.1,148.5
	c-0.7,15.1,7.9,28.8,25.6,40.7L72.3,182.1z"/>
<path class="st2" d="M209.6,187.5c-44.6,0-80.4-20.7-80.4-51.7c0-31.1,35.8-51.5,80.4-51.5c21.2,0,40.7,5.4,54.9,14l-17.7,12.6
	c-7.8-4.8-19.7-10.2-34.1-10.2c-20.6,0-33.9,10.5-33.9,35.1c0,24.3,13.2,34.8,33.9,34.8c14.4,0,26.3-5.1,34.1-9.9l17.7,12.6
	C250.3,182.1,230.9,187.5,209.6,187.5z"/>
<polygon class="st2" points="410.8,184.4 410.8,123.8 376.3,184.4 346.2,184.4 307,123.8 307,184.4 277.1,184.4 277.1,87.5 
	335.1,87.5 372.6,145.8 406,87.5 457.1,87.5 457.1,184.4 "/>
<path class="st2" d="M537.3,187.5c-33.7,0-54.9-11.4-63.1-19.1l18.1-11.7c9,7.1,28,15.3,45,15.3c15,0,22.4-2.7,22.4-7.4
	c0-8.6-17.7-10.7-35.8-14.6c-26.9-5.9-46.9-13.1-46.9-31.5c0-22.8,27.4-34.1,62.1-34.1c25.1,0,42,5,56.4,15.2L578,110.7
	c-10.3-7.2-28.4-11.1-38.3-11.1c-16,0-22.2,3.5-22.2,8c0,7.1,14,7.8,36.4,12.8c27.8,6.2,48.7,14.9,48.7,33.6
	C602.5,174.5,577.7,187.5,537.3,187.5z"/>
<path class="st2" d="M124,217.2c-0.3,0.7-0.4,1.3-0.5,2c-1.2,0.7-2.9,1-4.8,1c-5.4,0-8.6-3.4-8.6-7.8c0-6.5,4.4-8.9,9.3-8.9
	c1.6,0,3.7,0.5,4.8,1.1c-0.3,0.8-0.5,1.6-0.5,2.4h-0.3c-1.2-1.5-2.4-2.1-4-2.1c-2.5,0-5.3,2.2-5.3,7.1c0,4.8,2.9,6.7,5.5,6.7
	c1.5,0,3.2-0.7,4.2-1.8L124,217.2z"/>
<path class="st2" d="M126.7,210.2c0-2.6,0-4.4-0.2-6.5c1.4,0,2.8,0.1,4.2,0.1c2.3,0,4.3,0,4.9-0.1c0,0.3-0.1,0.6-0.1,1
	c0,0.5,0,0.7,0.1,1.1c-1.8-0.1-4.6-0.3-5.3-0.3c-0.1,1.7-0.1,3.4-0.1,5.1c2,0,3.5-0.1,5.3-0.2c-0.1,0.5-0.1,0.7-0.1,1.1
	c0,0.3,0,0.5,0.1,1c-1.8-0.1-3.5-0.2-5.3-0.2c0,1,0,2,0,3s0,2,0.1,2.9c1.8,0,3.6-0.1,5.4-0.3c0,0.3-0.1,0.6-0.1,1.1s0,0.7,0.1,1
	c-0.8,0-1.9-0.1-4.1-0.1c-3.8,0-4.4,0.1-5,0.1c0.1-2.1,0.2-3.9,0.2-6.5L126.7,210.2L126.7,210.2z"/>
<path class="st2" d="M138.7,203.7c0.3,0.1,0.7,0.1,1,0.1c0.4,0,0.7,0,1.1-0.1c3.4,3.7,6.7,7.4,10.1,11.1c0-3.7,0-10.1-0.2-11.1
	c0.3,0.1,0.7,0.1,1,0.1c0.4,0,0.7,0,1.1-0.1c-0.4,6.8-0.4,9.9-0.4,16.1c-0.3-0.1-0.6-0.1-1-0.1s-0.6,0-0.9,0.1
	c-3.2-3.8-6.6-7.6-10.2-11.4c0,1.7,0,3.7,0,5.4c0,3.7,0.1,5,0.1,5.9c-0.4-0.1-0.8-0.1-1.1-0.1s-0.7,0-1.1,0.1
	c0.1-0.7,0.5-6.7,0.5-11.5C138.8,206.3,138.7,204.9,138.7,203.7z"/>
<path class="st2" d="M159.6,207.6c0-0.9,0-1.7-0.1-2.1c-0.9,0-2.9,0.1-4.3,0.3c0.1-0.3,0.1-0.7,0.1-1c0-0.4,0-0.7-0.1-1
	c2.1,0.1,3.2,0.1,6.1,0.1c2.9,0,4-0.1,5.9-0.1c-0.1,0.4-0.1,0.7-0.1,1c0,0.4,0.1,0.7,0.1,1c-1.3-0.2-3.2-0.3-4.2-0.3
	c0,0.3,0,1.2,0,2.1v5.8c0,2.6,0,4.4,0.2,6.5c-0.5,0-1.1-0.1-1.9-0.1c-0.8,0-1.4,0.1-1.9,0.1c0.1-2.1,0.2-3.9,0.2-6.5V207.6z"/>
<path class="st2" d="M169.6,210.2c0-2.6,0-4.4-0.2-6.5c1.4,0,2.8,0.1,4.2,0.1c2.3,0,4.3,0,4.9-0.1c0,0.3-0.1,0.6-0.1,1
	c0,0.5,0,0.7,0.1,1.1c-1.8-0.1-4.6-0.3-5.3-0.3c-0.1,1.7-0.1,3.4-0.1,5.1c2,0,3.5-0.1,5.3-0.2c-0.1,0.5-0.1,0.7-0.1,1.1
	c0,0.3,0,0.5,0.1,1c-1.8-0.1-3.5-0.2-5.3-0.2c0,1,0,2,0,3s0,2,0.1,2.9c1.8,0,3.6-0.1,5.4-0.3c0,0.3-0.1,0.6-0.1,1.1s0,0.7,0.1,1
	c-0.8,0-1.9-0.1-4.1-0.1c-3.8,0-4.4,0.1-5,0.1c0.1-2.1,0.2-3.9,0.2-6.5L169.6,210.2L169.6,210.2z"/>
<path class="st2" d="M185.2,212.4H185v1c0,2.6,0,4.4,0.2,6.5c-0.5,0-1.1-0.1-1.9-0.1s-1.4,0.1-1.9,0.1c0.1-2.1,0.2-3.9,0.2-6.5v-3.2
	c0-2.6-0.1-4.4-0.2-6.5c0.5,0,1.1,0.1,1.9,0.1c0.8,0,1.8-0.1,3.4-0.1c2.4,0,3.2,0.2,4,0.8c0.9,0.7,1.5,1.7,1.5,3.1
	c0,2.3-1.3,3.7-3.6,4.3c1.5,2.6,3.3,5.3,5,7.9c-0.7,0-1.4-0.1-2.1-0.1s-1.4,0.1-2.1,0.1L185.2,212.4z M185,205.1
	c0,2.1-0.1,4.2-0.1,6.4c0.2,0,0.4,0,0.5,0c2.1,0,3.2-1.1,3.2-3.3C188.6,205.4,187.6,205.1,185,205.1z"/>
<path class="st2" d="M202.7,206.9c-0.5-1.3-1.4-2-2.8-2c-1.4,0-2.4,1-2.4,2.1c0,3.5,7.1,2.6,7.1,7.9c0,3.1-2.5,5.3-6.2,5.3
	c-1.7,0-3.1-0.5-3.8-1c0.3-1.1,0.5-1.9,0.7-3h0.4c0.3,1.4,1.3,2.5,3.2,2.5c1.8,0,2.7-1.1,2.7-2.4c0-3.5-7-2.6-7-7.9
	c0-3.2,2.5-5,5.3-5c1.7,0,2.9,0.4,3.8,1.2c-0.3,0.7-0.4,1.3-0.7,2.3L202.7,206.9L202.7,206.9z"/>
<path class="st2" d="M213.8,210.2c0-2.6,0-4.4-0.2-6.5c1.4,0,2.8,0.1,4.2,0.1c2.3,0,4.3,0,4.9-0.1c0,0.3-0.1,0.6-0.1,1
	c0,0.5,0,0.7,0.1,1.1c-1.8-0.1-4.6-0.3-5.3-0.3c-0.1,1.7-0.1,3.4-0.1,5.1c2,0,3.5-0.1,5.3-0.2c-0.1,0.5-0.1,0.7-0.1,1.1
	c0,0.3,0,0.5,0.1,1c-1.8-0.1-3.5-0.2-5.3-0.2v1.2c0,2.6,0,4.4,0.2,6.5c-0.5,0-1.1-0.1-1.9-0.1c-0.8,0-1.4,0.1-1.9,0.1
	c0.1-2.1,0.2-3.9,0.2-6.5L213.8,210.2L213.8,210.2z"/>
<path class="st2" d="M233.4,203.4c5,0,8.9,2.7,8.9,8.3c0,4.6-3.7,8.4-8.9,8.4c-4.9,0-8.9-2.5-8.9-8.4
	C224.4,207.2,227.9,203.4,233.4,203.4z M233.3,204.8c-3.2,0-5.1,3.2-5.1,7.2c0,5,2.3,6.7,4.9,6.7c2.8,0,5.3-2.3,5.3-7.4
	C238.4,207.3,236.3,204.8,233.3,204.8z"/>
<path class="st2" d="M248.8,212.4h-0.2v1c0,2.6,0,4.4,0.2,6.5c-0.5,0-1.1-0.1-1.9-0.1c-0.8,0-1.4,0.1-1.9,0.1
	c0.1-2.1,0.2-3.9,0.2-6.5v-3.2c0-2.6-0.1-4.4-0.2-6.5c0.5,0,1.1,0.1,1.9,0.1c0.8,0,1.8-0.1,3.4-0.1c2.4,0,3.2,0.2,4,0.8
	c0.9,0.7,1.5,1.7,1.5,3.1c0,2.3-1.3,3.7-3.6,4.3c1.5,2.6,3.3,5.3,5,7.9c-0.7,0-1.4-0.1-2.1-0.1c-0.7,0-1.4,0.1-2.1,0.1L248.8,212.4z
	 M248.7,205.1c0,2.1-0.1,4.2-0.1,6.4c0.2,0,0.4,0,0.5,0c2.1,0,3.2-1.1,3.2-3.3C252.3,205.4,251.2,205.1,248.7,205.1z"/>
<path class="st2" d="M267.8,209.3c-0.5,3.5-0.7,7.1-0.9,10.6c-0.4-0.1-0.8-0.1-1.1-0.1c-0.4,0-0.7,0-1.1,0.1
	c1-5.4,1.8-10.7,2.4-16.1c0.3,0.1,0.6,0.1,1,0.1c0.3,0,0.6-0.1,0.9-0.1c1.7,3.7,3.7,7.9,5.4,11.2c1.8-3.5,3.8-7.5,5.5-11.2
	c0.3,0.1,0.7,0.1,1,0.1s0.7-0.1,1-0.1c0.6,5.4,1.4,12.8,2,16.1c-0.6-0.1-1.3-0.1-1.9-0.1s-1.3,0-1.9,0.1c-0.2-3.2-0.6-7.2-0.9-10.8
	l0,0c-1.8,3.6-3.5,7.2-5.2,10.8c-0.1,0-0.3,0-0.4,0s-0.3,0-0.4,0C271.3,216.3,269.6,212.8,267.8,209.3L267.8,209.3z"/>
<path class="st2" d="M286.5,210.2c0-2.6,0-4.4-0.2-6.5c1.4,0,2.8,0.1,4.2,0.1c2.3,0,4.3,0,4.9-0.1c0,0.3-0.1,0.6-0.1,1
	c0,0.5,0,0.7,0.1,1.1c-1.8-0.1-4.6-0.3-5.3-0.3c-0.1,1.7-0.1,3.4-0.1,5.1c2,0,3.5-0.1,5.3-0.2c-0.1,0.5-0.1,0.7-0.1,1.1
	c0,0.3,0,0.5,0.1,1c-1.8-0.1-3.5-0.2-5.3-0.2c0,1,0,2,0,3s0,2,0.1,2.9c1.8,0,3.6-0.1,5.4-0.3c0,0.3-0.1,0.6-0.1,1.1s0,0.7,0.1,1
	c-0.8,0-1.9-0.1-4.1-0.1c-3.8,0-4.4,0.1-5,0.1c0.1-2.1,0.2-3.9,0.2-6.5v-3.3L286.5,210.2L286.5,210.2z"/>
<path class="st2" d="M298.4,210.2c0-2.6,0-4.4-0.2-6.5c0.5,0,1.1,0.1,1.9,0.1c1,0,2.2-0.1,4.2-0.1c5.3,0,9,1.7,9,7.6
	c0,5.1-3.7,8.5-8.1,8.5c-2.3,0-3.9-0.1-5.1-0.1c-0.8,0-1.4,0.1-1.9,0.1c0.1-2.1,0.2-3.9,0.2-6.5V210.2z M301.8,213.9
	c0,1.3,0,4.1,0,4.6c0.5,0,1.1,0.1,2.1,0.1c3.5,0,5.7-2.4,5.7-7.2c0-3.8-2.1-6.2-5.4-6.2c-1.1,0-1.7,0-2.4,0.1c0,0.4,0,3.3,0,4.6
	L301.8,213.9L301.8,213.9z"/>
<path class="st2" d="M316.7,210.2c0-2.6,0-4.4-0.2-6.5c0.5,0,1.1,0.1,1.9,0.1s1.4-0.1,1.9-0.1c-0.1,2.1-0.2,3.9-0.2,6.5v3.2
	c0,2.6,0,4.4,0.2,6.5c-0.5,0-1.1-0.1-1.9-0.1s-1.4,0.1-1.9,0.1c0.1-2.1,0.2-3.9,0.2-6.5V210.2z"/>
<path class="st2" d="M337,217.2c-0.3,0.7-0.4,1.3-0.5,2c-1.2,0.7-2.9,1-4.8,1c-5.4,0-8.6-3.4-8.6-7.8c0-6.5,4.4-8.9,9.3-8.9
	c1.6,0,3.7,0.5,4.8,1.1c-0.3,0.8-0.5,1.6-0.5,2.4h-0.3c-1.2-1.5-2.4-2.1-4-2.1c-2.5,0-5.3,2.2-5.3,7.1c0,4.8,2.9,6.7,5.5,6.7
	c1.5,0,3.2-0.7,4.2-1.8L337,217.2z"/>
<path class="st2" d="M352.6,219.9c-0.7-0.1-1.4-0.1-2.1-0.1s-1.3,0.1-2,0.1c-0.5-1.6-1-3.2-1.6-4.8c-1,0-2,0-3,0c-0.8,0-1.6,0-2.4,0
	c-0.6,1.6-1.2,3.2-1.6,4.8c-0.4-0.1-0.7-0.1-1.1-0.1s-0.7,0.1-1.2,0.1c1.1-2.6,4.7-10.9,6.7-16.2c0.3,0,0.6,0.1,0.9,0.1
	s0.6-0.1,0.9-0.1C348,209,350.8,216.1,352.6,219.9z M346.4,213.7c-0.7-1.9-1.3-3.7-2.1-5.6c-0.8,1.8-1.5,3.7-2.2,5.6H346.4z"/>
<path class="st2" d="M358.6,212.4h-0.2v1c0,2.6,0,4.4,0.2,6.5c-0.5,0-1.1-0.1-1.9-0.1s-1.4,0.1-1.9,0.1c0.1-2.1,0.2-3.9,0.2-6.5
	v-3.2c0-2.6-0.1-4.4-0.2-6.5c0.5,0,1.1,0.1,1.9,0.1s1.8-0.1,3.4-0.1c2.4,0,3.2,0.2,4,0.8c0.9,0.7,1.5,1.7,1.5,3.1
	c0,2.3-1.3,3.7-3.6,4.3c1.5,2.6,3.3,5.3,5,7.9c-0.7,0-1.4-0.1-2.1-0.1s-1.4,0.1-2.1,0.1L358.6,212.4z M358.5,205.1
	c0,2.1-0.1,4.2-0.1,6.4c0.2,0,0.4,0,0.5,0c2.1,0,3.2-1.1,3.2-3.3C362.1,205.4,361,205.1,358.5,205.1z"/>
<path class="st2" d="M369,210.2c0-2.6,0-4.4-0.2-6.5c1.4,0,2.8,0.1,4.2,0.1c2.3,0,4.3,0,4.9-0.1c0,0.3-0.1,0.6-0.1,1
	c0,0.5,0,0.7,0.1,1.1c-1.8-0.1-4.6-0.3-5.3-0.3c-0.1,1.7-0.1,3.4-0.1,5.1c2,0,3.5-0.1,5.3-0.2c-0.1,0.5-0.1,0.7-0.1,1.1
	c0,0.3,0,0.5,0.1,1c-1.8-0.1-3.5-0.2-5.3-0.2c0,1,0,2,0,3s0,2,0.1,2.9c1.8,0,3.6-0.1,5.4-0.3c0,0.3-0.1,0.6-0.1,1.1s0,0.7,0.1,1
	c-0.8,0-1.9-0.1-4.1-0.1c-3.8,0-4.4,0.1-5,0.1c0.1-2.1,0.2-3.9,0.2-6.5v-3.3L369,210.2L369,210.2z"/>
<path class="st2" d="M395.9,218.3c-1.4,1.1-3.4,1.8-5.2,1.8c-2.9,0-4.4-1.9-4.4-3.8c0-2.4,1.7-3.7,4.2-5c-1-1.4-1.7-2.6-1.7-3.8
	c0-2.7,2.2-3.7,4.3-3.7c2.2,0,3.8,1,3.8,2.8c0,1.5-0.9,2.7-3,4c1.2,1.6,2.4,3,3.7,4.5c0.8-1,1.8-2.5,2.8-4.5c0.4,0.5,0.9,1,1.3,1.4
	c-1,1.6-2.1,2.8-3.3,4.1c1,1.2,2.4,2.7,3.5,3.8c-1.1,0-2-0.1-2.9-0.1c-0.6,0-1.3,0.1-1.9,0.1L395.9,218.3z M392.8,218.4
	c0.9,0,1.9-0.4,2.5-0.9c-1.4-1.7-2.8-3.4-4.1-5.2c-1.1,0.8-1.8,1.6-1.8,2.8C389.4,216.7,390.6,218.4,392.8,218.4z M393.2,209.8
	c0.8-0.6,1.9-1.8,1.9-3.2c0-1-0.8-1.7-1.7-1.7c-0.9,0-1.7,0.6-1.7,1.7C391.8,207.6,392.5,208.7,393.2,209.8z"/>
<path class="st2" d="M412.7,209.3c-0.5,3.5-0.7,7.1-0.9,10.6c-0.4-0.1-0.8-0.1-1.1-0.1c-0.4,0-0.7,0-1.1,0.1
	c1-5.4,1.8-10.7,2.4-16.1c0.3,0.1,0.6,0.1,1,0.1c0.3,0,0.6-0.1,0.9-0.1c1.7,3.7,3.7,7.9,5.4,11.2c1.8-3.5,3.8-7.5,5.5-11.2
	c0.3,0.1,0.7,0.1,1,0.1s0.7-0.1,1-0.1c0.6,5.4,1.4,12.8,2,16.1c-0.6-0.1-1.3-0.1-1.9-0.1s-1.3,0-1.9,0.1c-0.2-3.2-0.6-7.2-0.9-10.8
	l0,0c-1.8,3.6-3.5,7.2-5.2,10.8c-0.1,0-0.3,0-0.4,0s-0.3,0-0.4,0C416.2,216.3,414.5,212.8,412.7,209.3L412.7,209.3z"/>
<path class="st2" d="M431.4,210.2c0-2.6,0-4.4-0.2-6.5c1.4,0,2.8,0.1,4.2,0.1c2.3,0,4.3,0,4.9-0.1c0,0.3-0.1,0.6-0.1,1
	c0,0.5,0,0.7,0.1,1.1c-1.8-0.1-4.6-0.3-5.3-0.3c-0.1,1.7-0.1,3.4-0.1,5.1c2,0,3.5-0.1,5.3-0.2c-0.1,0.5-0.1,0.7-0.1,1.1
	c0,0.3,0,0.5,0.1,1c-1.8-0.1-3.5-0.2-5.3-0.2c0,1,0,2,0,3s0,2,0.1,2.9c1.8,0,3.6-0.1,5.4-0.3c0,0.3-0.1,0.6-0.1,1.1s0,0.7,0.1,1
	c-0.8,0-1.9-0.1-4.1-0.1c-3.8,0-4.4,0.1-5,0.1c0.1-2.1,0.2-3.9,0.2-6.5v-3.3L431.4,210.2L431.4,210.2z"/>
<path class="st2" d="M443.3,210.2c0-2.6,0-4.4-0.2-6.5c0.5,0,1.1,0.1,1.9,0.1c1,0,2.2-0.1,4.2-0.1c5.3,0,9,1.7,9,7.6
	c0,5.1-3.7,8.5-8.1,8.5c-2.3,0-3.9-0.1-5.1-0.1c-0.8,0-1.4,0.1-1.9,0.1c0.1-2.1,0.2-3.9,0.2-6.5V210.2z M446.7,213.9
	c0,1.3,0,4.1,0,4.6c0.5,0,1.1,0.1,2.1,0.1c3.5,0,5.7-2.4,5.7-7.2c0-3.8-2.1-6.2-5.4-6.2c-1.1,0-1.7,0-2.4,0.1c0,0.4,0,3.3,0,4.6
	L446.7,213.9L446.7,213.9z"/>
<path class="st2" d="M461.6,210.2c0-2.6,0-4.4-0.2-6.5c0.5,0,1.1,0.1,1.9,0.1s1.4-0.1,1.9-0.1c-0.1,2.1-0.2,3.9-0.2,6.5v3.2
	c0,2.6,0,4.4,0.2,6.5c-0.5,0-1.1-0.1-1.9-0.1s-1.4,0.1-1.9,0.1c0.1-2.1,0.2-3.9,0.2-6.5V210.2z"/>
<path class="st2" d="M481.9,217.2c-0.3,0.7-0.4,1.3-0.5,2c-1.2,0.7-2.9,1-4.8,1c-5.4,0-8.6-3.4-8.6-7.8c0-6.5,4.4-8.9,9.3-8.9
	c1.6,0,3.7,0.5,4.8,1.1c-0.3,0.8-0.5,1.6-0.5,2.4h-0.3c-1.2-1.5-2.4-2.1-4-2.1c-2.5,0-5.3,2.2-5.3,7.1c0,4.8,2.9,6.7,5.5,6.7
	c1.5,0,3.2-0.7,4.2-1.8L481.9,217.2z"/>
<path class="st2" d="M497.5,219.9c-0.7-0.1-1.4-0.1-2.1-0.1s-1.3,0.1-2,0.1c-0.5-1.6-1-3.2-1.6-4.8c-1,0-2,0-3,0c-0.8,0-1.6,0-2.4,0
	c-0.6,1.6-1.2,3.2-1.6,4.8c-0.4-0.1-0.7-0.1-1.1-0.1s-0.7,0.1-1.2,0.1c1.1-2.6,4.7-10.9,6.7-16.2c0.3,0,0.6,0.1,0.9,0.1
	s0.6-0.1,0.9-0.1C492.9,209,495.7,216.1,497.5,219.9z M491.3,213.7c-0.7-1.9-1.3-3.7-2.1-5.6c-0.8,1.8-1.5,3.7-2.2,5.6H491.3z"/>
<path class="st2" d="M500,210.2c0-2.6,0-4.4-0.2-6.5c0.5,0,1.1,0.1,1.9,0.1s1.4-0.1,1.9-0.1c-0.1,2.1-0.2,3.9-0.2,6.5v3.2
	c0,2.6,0,4.4,0.2,6.5c-0.5,0-1.1-0.1-1.9-0.1s-1.4,0.1-1.9,0.1c0.1-2.1,0.2-3.9,0.2-6.5V210.2z"/>
<path class="st2" d="M507.6,210.2c0-2.6,0-4.4-0.2-6.5c0.5,0,1.1,0.1,1.9,0.1c1,0,2.2-0.1,4.2-0.1c5.3,0,9,1.7,9,7.6
	c0,5.1-3.7,8.5-8.1,8.5c-2.3,0-3.9-0.1-5.1-0.1c-0.8,0-1.4,0.1-1.9,0.1c0.1-2.1,0.2-3.9,0.2-6.5L507.6,210.2L507.6,210.2z
	 M511.1,213.9c0,1.3,0,4.1,0,4.6c0.5,0,1.1,0.1,2.1,0.1c3.5,0,5.7-2.4,5.7-7.2c0-3.8-2.1-6.2-5.4-6.2c-1.1,0-1.7,0-2.4,0.1
	c0,0.4,0,3.3,0,4.6V213.9z"/>
<path class="st2" d="M539.2,206.9c-0.5-1.3-1.4-2-2.8-2c-1.4,0-2.4,1-2.4,2.1c0,3.5,7.1,2.6,7.1,7.9c0,3.1-2.5,5.3-6.2,5.3
	c-1.7,0-3.1-0.5-3.8-1c0.3-1.1,0.5-1.9,0.7-3h0.4c0.3,1.4,1.3,2.5,3.2,2.5c1.8,0,2.7-1.1,2.7-2.4c0-3.5-7-2.6-7-7.9
	c0-3.2,2.5-5,5.3-5c1.7,0,2.9,0.4,3.8,1.2c-0.3,0.7-0.4,1.3-0.7,2.3L539.2,206.9L539.2,206.9z"/>
<path class="st2" d="M543.8,210.2c0-2.6,0-4.4-0.2-6.5c1.4,0,2.8,0.1,4.2,0.1c2.3,0,4.3,0,4.9-0.1c0,0.3-0.1,0.6-0.1,1
	c0,0.5,0,0.7,0.1,1.1c-1.8-0.1-4.6-0.3-5.3-0.3c-0.1,1.7-0.1,3.4-0.1,5.1c2,0,3.5-0.1,5.3-0.2c-0.1,0.5-0.1,0.7-0.1,1.1
	c0,0.3,0,0.5,0.1,1c-1.8-0.1-3.5-0.2-5.3-0.2c0,1,0,2,0,3s0,2,0.1,2.9c1.8,0,3.6-0.1,5.4-0.3c0,0.3-0.1,0.6-0.1,1.1s0,0.7,0.1,1
	c-0.8,0-1.9-0.1-4.1-0.1c-3.8,0-4.4,0.1-5,0.1c0.1-2.1,0.2-3.9,0.2-6.5v-3.3L543.8,210.2L543.8,210.2z"/>
<path class="st2" d="M559.4,212.4h-0.2v1c0,2.6,0,4.4,0.2,6.5c-0.5,0-1.1-0.1-1.9-0.1c-0.8,0-1.4,0.1-1.9,0.1
	c0.1-2.1,0.2-3.9,0.2-6.5v-3.2c0-2.6-0.1-4.4-0.2-6.5c0.5,0,1.1,0.1,1.9,0.1c0.8,0,1.8-0.1,3.4-0.1c2.4,0,3.2,0.2,4,0.8
	c0.9,0.7,1.5,1.7,1.5,3.1c0,2.3-1.3,3.7-3.6,4.3c1.5,2.6,3.3,5.3,5,7.9c-0.7,0-1.4-0.1-2.1-0.1c-0.7,0-1.4,0.1-2.1,0.1L559.4,212.4z
	 M559.2,205.1c0,2.1-0.1,4.2-0.1,6.4c0.2,0,0.4,0,0.5,0c2.1,0,3.2-1.1,3.2-3.3C562.9,205.4,561.8,205.1,559.2,205.1z"/>
<path class="st2" d="M580.7,203.7c0.3,0.1,0.7,0.1,1,0.1s0.7,0,1-0.1c-1.5,3.7-4.6,10.8-6.4,16.1c-0.3,0-0.7-0.1-1-0.1
	c-0.4,0-0.7,0.1-1,0.1c-1.5-4-4.8-12.5-6.3-16.1c0.7,0.1,1.4,0.1,2.1,0.1c0.7,0,1.4,0,2.1-0.1c1.1,3.5,2.7,7.8,4.2,11.7
	C577.9,211.6,579.5,207.4,580.7,203.7z"/>
<path class="st2" d="M585.3,210.2c0-2.6,0-4.4-0.2-6.5c0.5,0,1.1,0.1,1.9,0.1c0.8,0,1.4-0.1,1.9-0.1c-0.1,2.1-0.2,3.9-0.2,6.5v3.2
	c0,2.6,0,4.4,0.2,6.5c-0.5,0-1.1-0.1-1.9-0.1c-0.8,0-1.4,0.1-1.9,0.1c0.1-2.1,0.2-3.9,0.2-6.5V210.2z"/>
<path class="st2" d="M605.6,217.2c-0.3,0.7-0.4,1.3-0.5,2c-1.2,0.7-2.9,1-4.8,1c-5.4,0-8.6-3.4-8.6-7.8c0-6.5,4.4-8.9,9.3-8.9
	c1.6,0,3.7,0.5,4.8,1.1c-0.3,0.8-0.5,1.6-0.5,2.4H605c-1.2-1.5-2.4-2.1-4-2.1c-2.5,0-5.3,2.2-5.3,7.1c0,4.8,2.9,6.7,5.5,6.7
	c1.5,0,3.2-0.7,4.2-1.8L605.6,217.2z"/>
<path class="st2" d="M608.3,210.2c0-2.6,0-4.4-0.2-6.5c1.4,0,2.8,0.1,4.2,0.1c2.3,0,4.3,0,4.9-0.1c0,0.3-0.1,0.6-0.1,1
	c0,0.5,0,0.7,0.1,1.1c-1.8-0.1-4.6-0.3-5.3-0.3c-0.1,1.7-0.1,3.4-0.1,5.1c2,0,3.5-0.1,5.3-0.2c-0.1,0.5-0.1,0.7-0.1,1.1
	c0,0.3,0,0.5,0.1,1c-1.8-0.1-3.5-0.2-5.3-0.2c0,1,0,2,0,3s0,2,0.1,2.9c1.8,0,3.6-0.1,5.4-0.3c0,0.3-0.1,0.6-0.1,1.1s0,0.7,0.1,1
	c-0.8,0-1.9-0.1-4.1-0.1c-3.8,0-4.4,0.1-5,0.1c0.1-2.1,0.2-3.9,0.2-6.5v-3.3L608.3,210.2L608.3,210.2z"/>
<g>
	<g>
		<g>
			<defs>
				<rect id="SVGID_3_" x="619" y="203.4" width="10" height="16.9"/>
			</defs>
			<clipPath id="SVGID_4_">
				<use xlink:href="#SVGID_3_"  style="overflow:visible;"/>
			</clipPath>
			<path class="st3" d="M627.1,206.9c-0.5-1.3-1.4-2-2.8-2c-1.4,0-2.4,1-2.4,2.1c0,3.5,7.1,2.6,7.1,7.9c0,3.1-2.5,5.3-6.2,5.3
				c-1.7,0-3.1-0.5-3.8-1c0.3-1.1,0.5-1.9,0.7-3h0.4c0.3,1.4,1.3,2.5,3.2,2.5c1.8,0,2.7-1.1,2.7-2.4c0-3.5-7-2.6-7-7.9
				c0-3.2,2.5-5,5.3-5c1.7,0,2.9,0.4,3.8,1.2c-0.3,0.7-0.4,1.3-0.7,2.3L627.1,206.9L627.1,206.9z"/>
		</g>
	</g>
</g>
</svg>
