<?xml version="1.0" encoding="utf-8"?>
<!-- Generator: Adobe Illustrator 22.1.0, SVG Export Plug-In . SVG Version: 6.00 Build 0)  -->
<svg version="1.1" id="Layer_1" xmlns="http://www.w3.org/2000/svg" xmlns:xlink="http://www.w3.org/1999/xlink" x="0px" y="0px"
	 viewBox="0 0 452 126" style="enable-background:new 0 0 452 126;" xml:space="preserve">
<style type="text/css">
	.st0{fill:#184171;}
	.st1{fill:#56769C;}
</style>
<g>
	<path class="st0" d="M26.1,110.9L14.2,15.4h24.9l3.1,38.5c1,10.3,1.7,21.3,2.6,32.7h0.3c4-10.8,9.2-22.4,13.7-32.2l17.4-39.1h27.1
		l-48.9,95.5H26.1z"/>
	<path class="st0" d="M101.1,88.4l-9.5,22.5H65.7L111,15.4h31.6l10.2,95.5h-25.5l-1.1-22.5H101.1z M125.3,70.2l-1-17.6
		c-0.4-5.4-0.7-13.3-1.3-19.3h-0.3c-2.4,6-5.1,14-7.5,19.3l-7.4,17.6H125.3z"/>
	<path class="st1" d="M186.3,45.2l-4.9,25.6h23.8l4.9-25.6h14l-12.4,65.5h-14l5.2-27.5h-23.7l-5.2,27.5h-14l12.4-65.5H186.3z"/>
	<path class="st1" d="M262.6,108c-5.5,2.8-12.4,3.8-17.7,3.8c-13.6,0-20.6-7.8-20.6-20.1c0-14.5,10.5-29.5,27.7-29.5
		c9.6,0,16.5,5.3,16.5,14.2c0,12.1-11.8,16.5-30.8,16c0,1.4,0.5,3.5,1.5,4.9c1.8,2.4,5.1,3.7,9.1,3.7c5.2,0,9.5-1.2,13.3-3
		L262.6,108z M255.4,76.3c0-2.3-1.9-4-5.2-4c-6.5,0-10.2,5.3-11.2,9.8C250,82.3,255.4,80.7,255.4,76.3L255.4,76.3z"/>
	<path class="st1" d="M302.7,110.7c0.1-2.8,0.4-6,0.7-9.4h-0.3c-4.4,7.9-10.4,10.5-15.9,10.5c-8.6,0-14.4-6.6-14.4-16.5
		c0-16,10.6-33.1,34-33.1c5.6,0,11.8,1.1,15.7,2.3l-5.1,24.9c-1.2,6.1-2,15.5-1.8,21.4H302.7z M306.8,73.1c-1.1-0.2-2.4-0.4-3.8-0.4
		c-9,0-15.6,11.1-15.6,19.9c0,4.7,1.8,7.9,5.7,7.9c4.2,0,9.3-4.8,11.5-16.4L306.8,73.1z"/>
	<path class="st1" d="M325.4,110.7l13.2-69h14l-13.2,69H325.4z"/>
	<path class="st1" d="M378,50.3l-2.4,12.9h10.1l-2,10.6h-10.1l-3.2,16.1c-0.4,1.8-0.8,4.4-0.8,6c0,2.3,1,4,4,4c1.3,0,2.6,0,3.9-0.2
		l-1.7,11c-1.7,0.7-5.2,1.1-8.3,1.1c-8.4,0-12.3-4.4-12.3-10.3c0-2.6,0.3-5.2,1-8.8l3.7-18.9h-6l1.9-10.6h6.1l1.7-8.9L378,50.3z"/>
	<path class="st1" d="M385,110.7l13-69h14l-5.2,27.5l0.2,0.1c3.9-4.4,8.8-7.2,15.2-7.2c7.4,0,12,4.7,12,12.8c0,2.2-0.4,5.8-0.9,8.6
		l-5.2,27.2h-14l4.9-26c0.4-1.8,0.7-3.9,0.7-5.9c0-3.1-1.4-5.3-4.9-5.3c-4.9,0-9.8,5.9-11.7,15.6l-4.1,21.8H385z"/>
</g>
</svg>
