<?xml version="1.0" encoding="utf-8"?>
<!-- Generator: Adobe Illustrator 22.1.0, SVG Export Plug-In . SVG Version: 6.00 Build 0)  -->
<svg version="1.1" id="Layer_1" xmlns="http://www.w3.org/2000/svg" xmlns:xlink="http://www.w3.org/1999/xlink" x="0px" y="0px"
	 viewBox="0 0 679.4 145.4" style="enable-background:new 0 0 679.4 145.4;" xml:space="preserve">
<style type="text/css">
	.st0{fill:#8F9393;}
	.st1{fill:#6CACE4;}
	.st2{fill:#272660;}
</style>
<g>
	<g>
		<path class="st0" d="M475.1,8.3h-7.3V6h17.1v2.3h-7.3v19.4h-2.5V8.3z"/>
		<path class="st0" d="M488.5,5.1h2.4v9.4c1.1-1.7,2.7-3.1,5.5-3.1c3.9,0,6.1,2.6,6.1,6.4v10h-2.4v-9.4c0-3-1.6-4.8-4.4-4.8
			c-2.8,0-4.8,2-4.8,5v9.2h-2.4V5.1z"/>
		<path class="st0" d="M514.6,26c2.2,0,3.8-0.9,5.1-2.3l1.5,1.3c-1.6,1.8-3.6,3-6.6,3c-4.4,0-8-3.4-8-8.4c0-4.7,3.3-8.4,7.7-8.4
			c4.7,0,7.5,3.8,7.5,8.5c0,0.2,0,0.5,0,0.8h-12.7C509.3,24.1,511.8,26,514.6,26z M519.3,18.8c-0.3-2.9-2-5.4-5.1-5.4
			c-2.8,0-4.9,2.3-5.2,5.4H519.3z"/>
		<path class="st0" d="M469.4,43H485v2.3h-13.1v7.8h11.8v2.2h-11.8v9.5h-2.4V43z"/>
		<path class="st0" d="M488.3,58.7v-10h2.4v9.4c0,3,1.6,4.8,4.4,4.8c2.7,0,4.8-2,4.8-5v-9.2h2.4v16H500V62c-1.1,1.7-2.7,3.1-5.5,3.1
			C490.6,65.1,488.3,62.5,488.3,58.7z"/>
		<path class="st0" d="M508.4,60.5v-9.7h-2.2v-2.1h2.2v-4.8h2.4v4.8h5.1v2.1h-5.1v9.4c0,2,1.1,2.7,2.7,2.7c0.8,0,1.5-0.2,2.3-0.6v2
			c-0.8,0.4-1.7,0.7-2.9,0.7C510.4,65,508.4,63.8,508.4,60.5z"/>
		<path class="st0" d="M519.8,58.7v-10h2.4v9.4c0,3,1.6,4.8,4.4,4.8c2.7,0,4.8-2,4.8-5v-9.2h2.4v16h-2.4V62
			c-1.1,1.7-2.7,3.1-5.5,3.1C522,65.1,519.8,62.5,519.8,58.7z"/>
		<path class="st0" d="M539,48.7h2.4v4.2c1.2-2.7,3.5-4.6,6.5-4.5V51h-0.2c-3.5,0-6.4,2.5-6.4,7.3v6.4H539V48.7z"/>
		<path class="st0" d="M557.9,63c2.2,0,3.8-0.9,5.1-2.3l1.5,1.3c-1.6,1.8-3.6,3-6.6,3c-4.4,0-8-3.4-8-8.4c0-4.7,3.3-8.4,7.7-8.4
			c4.7,0,7.5,3.8,7.5,8.5c0,0.2,0,0.5,0,0.8h-12.7C552.6,61.1,555.1,63,557.9,63z M562.6,55.8c-0.3-2.9-2-5.4-5.1-5.4
			c-2.8,0-4.9,2.3-5.2,5.4H562.6z"/>
		<path class="st0" d="M577.3,56.8L577.3,56.8c0-4.6,3.5-8.4,8.4-8.4c4.8,0,8.3,3.8,8.3,8.3v0.1c0,4.5-3.6,8.4-8.4,8.4
			C580.8,65.1,577.3,61.3,577.3,56.8z M591.5,56.8L591.5,56.8c0-3.5-2.6-6.3-6-6.3c-3.5,0-5.9,2.8-5.9,6.2v0.1
			c0,3.4,2.5,6.2,5.9,6.2C589.1,63,591.5,60.2,591.5,56.8z"/>
		<path class="st0" d="M598.5,50.8h-2.2v-2.1h2.2v-1.4c0-1.8,0.5-3.2,1.4-4.1c0.8-0.8,2-1.2,3.4-1.2c1.1,0,1.9,0.1,2.6,0.4v2.1
			c-0.9-0.2-1.5-0.4-2.3-0.4c-1.9,0-2.8,1.1-2.8,3.4v1.3h5.1v2h-5.1v13.9h-2.4V50.8z"/>
		<path class="st0" d="M469.4,80h2.4v9.6h12.5V80h2.4v21.7h-2.4V92h-12.5v9.8h-2.4V80z"/>
		<path class="st0" d="M499.5,100c2.2,0,3.8-0.9,5.1-2.3l1.5,1.3c-1.6,1.8-3.6,3-6.6,3c-4.4,0-8-3.4-8-8.4c0-4.7,3.3-8.4,7.7-8.4
			c4.7,0,7.5,3.8,7.5,8.5c0,0.2,0,0.5,0,0.8h-12.7C494.2,98.1,496.7,100,499.5,100z M504.2,92.8c-0.3-2.9-2-5.4-5.1-5.4
			c-2.8,0-4.9,2.3-5.2,5.4H504.2z"/>
		<path class="st0" d="M509.5,97.1L509.5,97.1c0-3.5,2.8-5.3,6.9-5.3c2,0,3.5,0.3,4.9,0.7V92c0-2.9-1.7-4.3-4.7-4.3
			c-1.9,0-3.4,0.5-4.9,1.1l-0.7-2c1.8-0.8,3.5-1.4,5.8-1.4c2.3,0,4,0.6,5.2,1.8c1.1,1.1,1.7,2.7,1.7,4.7v9.8h-2.4v-2.4
			c-1.1,1.4-2.9,2.7-5.8,2.7C512.5,102.1,509.5,100.4,509.5,97.1z M521.3,95.9v-1.5c-1.2-0.3-2.7-0.7-4.7-0.7c-3,0-4.7,1.3-4.7,3.2
			V97c0,2,1.9,3.2,4,3.2C518.9,100.2,521.3,98.4,521.3,95.9z"/>
		<path class="st0" d="M528.8,79.1h2.4v22.6h-2.4V79.1z"/>
		<path class="st0" d="M537.4,97.5v-9.7h-2.2v-2.1h2.2v-4.8h2.4v4.8h5.1v2.1h-5.1v9.4c0,2,1.1,2.7,2.7,2.7c0.8,0,1.5-0.2,2.3-0.6v2
			c-0.8,0.4-1.7,0.7-2.9,0.7C539.4,102,537.4,100.8,537.4,97.5z"/>
		<path class="st0" d="M549,79.1h2.4v9.4c1.1-1.7,2.7-3.1,5.5-3.1c3.9,0,6.1,2.6,6.1,6.4v10h-2.4v-9.4c0-3-1.6-4.8-4.4-4.8
			c-2.8,0-4.8,2-4.8,5v9.2H549V79.1z"/>
		<path class="st0" d="M577.7,80h9.2c2.5,0,4.4,0.7,5.7,1.9c0.9,0.9,1.4,2.1,1.4,3.5v0.1c0,2.8-1.7,4.3-3.4,5
			c2.6,0.8,4.7,2.3,4.7,5.2v0.1c0,3.7-3.1,5.9-7.9,5.9h-9.6V80z M586.5,89.7c2.9,0,5-1.3,5-3.9v-0.1c0-2.1-1.7-3.5-4.8-3.5h-6.6v7.5
			H586.5z M587.4,99.5c3.3,0,5.3-1.5,5.3-3.9v-0.1c0-2.4-2-3.7-5.8-3.7h-6.9v7.7H587.4z"/>
		<path class="st0" d="M606.6,100c2.2,0,3.8-0.9,5.1-2.3l1.5,1.3c-1.6,1.8-3.6,3-6.6,3c-4.4,0-8-3.4-8-8.4c0-4.7,3.3-8.4,7.7-8.4
			c4.7,0,7.5,3.8,7.5,8.5c0,0.2,0,0.5,0,0.8H601C601.3,98.1,603.8,100,606.6,100z M611.3,92.8c-0.3-2.9-2-5.4-5.1-5.4
			c-2.8,0-4.9,2.3-5.2,5.4H611.3z"/>
		<path class="st0" d="M617,104.5l1.1-1.9c1.8,1.3,3.9,2,6.2,2c3.5,0,5.8-2,5.8-5.7v-1.9c-1.4,1.9-3.3,3.4-6.3,3.4
			c-3.8,0-7.5-2.9-7.5-7.5v-0.1c0-4.7,3.7-7.6,7.5-7.6c3,0,5,1.5,6.3,3.2v-2.9h2.4V99c0,2.5-0.7,4.4-2,5.7c-1.4,1.4-3.6,2.1-6.1,2.1
			C621.6,106.8,619.1,106,617,104.5z M630.1,93L630.1,93c0-3.3-2.9-5.5-5.9-5.5c-3,0-5.5,2.1-5.5,5.4v0.1c0,3.2,2.6,5.5,5.5,5.5
			C627.3,98.4,630.1,96.2,630.1,93z"/>
		<path class="st0" d="M637.7,79.6h2.7v2.6h-2.7V79.6z M637.9,85.7h2.4v16h-2.4V85.7z"/>
		<path class="st0" d="M645.7,85.7h2.4v2.8c1.1-1.7,2.7-3.1,5.5-3.1c3.9,0,6.1,2.6,6.1,6.4v10h-2.4v-9.4c0-3-1.6-4.8-4.4-4.8
			c-2.8,0-4.8,2-4.8,5v9.2h-2.4V85.7z"/>
		<path class="st0" d="M662.8,99.7L664,98c1.7,1.3,3.7,2,5.6,2c1.9,0,3.3-1,3.3-2.5v-0.1c0-1.6-1.9-2.2-4-2.8
			c-2.5-0.7-5.3-1.6-5.3-4.5V90c0-2.8,2.3-4.6,5.5-4.6c2,0,4.1,0.7,5.8,1.8l-1.1,1.8c-1.5-1-3.2-1.6-4.7-1.6c-1.9,0-3.1,1-3.1,2.3
			v0.1c0,1.5,2,2.1,4.1,2.8c2.5,0.7,5.1,1.7,5.1,4.6v0.1c0,3-2.5,4.8-5.7,4.8C667.1,102.1,664.6,101.2,662.8,99.7z"/>
		<path class="st0" d="M467.7,117h2.7l6.2,18.1l6-18.1h2l6,18.1l6.2-18.1h2.6l-7.8,21.9h-2.1l-6-17.6l-6,17.6h-2L467.7,117z"/>
		<path class="st0" d="M502.8,116.6h2.7v2.6h-2.7V116.6z M502.9,122.7h2.4v16h-2.4V122.7z"/>
		<path class="st0" d="M511.6,134.5v-9.7h-2.2v-2.1h2.2v-4.8h2.4v4.8h5.1v2.1H514v9.4c0,2,1.1,2.7,2.7,2.7c0.8,0,1.5-0.2,2.3-0.6v2
			c-0.8,0.4-1.7,0.7-2.9,0.7C513.6,139,511.6,137.8,511.6,134.5z"/>
		<path class="st0" d="M523.2,116.1h2.4v9.4c1.1-1.7,2.7-3.1,5.5-3.1c3.9,0,6.1,2.6,6.1,6.4v10h-2.4v-9.4c0-3-1.6-4.8-4.4-4.8
			c-2.8,0-4.8,2-4.8,5v9.2h-2.4V116.1z"/>
		<path class="st0" d="M558.6,130.2l-9-13.1h3l7.3,10.9l7.4-10.9h2.9l-9,13.1v8.6h-2.5V130.2z"/>
		<path class="st0" d="M568.5,130.8L568.5,130.8c0-4.6,3.5-8.4,8.4-8.4c4.8,0,8.3,3.8,8.3,8.3v0.1c0,4.5-3.6,8.4-8.4,8.4
			C572,139.1,568.5,135.3,568.5,130.8z M582.8,130.8L582.8,130.8c0-3.5-2.6-6.3-6-6.3c-3.5,0-5.9,2.8-5.9,6.2v0.1
			c0,3.4,2.5,6.2,5.9,6.2C580.4,137,582.8,134.2,582.8,130.8z"/>
		<path class="st0" d="M588.6,132.7v-10h2.4v9.4c0,3,1.6,4.8,4.4,4.8c2.7,0,4.8-2,4.8-5v-9.2h2.4v16h-2.4V136
			c-1.1,1.7-2.7,3.1-5.5,3.1C590.8,139.1,588.6,136.5,588.6,132.7z"/>
	</g>
	<g>
		<g>
			<g>
				<g>
					<g>
						<path class="st1" d="M187.9,64.2c0-2.6,0.8-5.4,2.3-8.3c1.5-3,3.9-5.4,7.1-7.4c3.2-2,7.1-3,11.6-3c5.5,0,9.6,1.3,12.2,4
							c2.6,2.6,3.9,5.8,3.9,9.6c0,5.2-2,9.6-6,13.4c-4,3.8-9.1,5.7-15.3,5.7c-4.5,0-8.3-1.1-11.3-3.4
							C189.4,72.4,187.9,68.9,187.9,64.2 M198.7,68c0,2.2,0.4,3.8,1.2,4.9c0.8,1.1,2.1,1.6,3.7,1.6c3.1,0,5.5-2.3,7.5-6.9
							c1.9-4.6,2.9-8.5,2.9-11.7c0-2.4-0.5-4.2-1.4-5.2c-0.9-1.1-2-1.6-3.2-1.6c-3.3,0-5.9,2.4-7.8,7.2
							C199.7,61.1,198.7,65,198.7,68"/>
						<path class="st1" d="M244.5,50.8l-3.7,16.6c-2.1,9.6-5,16.7-8.6,21.4c-3.6,4.7-8.4,7.1-14.5,7.1c-2.9,0-5-0.6-6.4-1.7
							c-1.3-1.1-2-2.5-2-4c0-1.4,0.5-2.6,1.6-3.6c1-1,2.3-1.5,3.6-1.5c2.9,0,4.5,1.5,5,4.6c0.2,1.6,0.9,2.3,2,2.3
							c1.2,0,2.2-1,3.2-3.1c0.9-2.1,2.1-6.2,3.5-12.5l1.1-5.4c0.3-1.3,0.6-2.3,0.7-3l3.7-17.2H229l1.3-4.1h4.4
							c2.3-8.4,5-14,8.1-16.8c3.1-2.7,6.8-4.1,11.1-4.1c2.9,0,5.2,0.6,7,1.7c1.8,1.1,2.7,2.6,2.7,4.4c0,1.2-0.4,2.3-1.3,3.2
							c-0.9,0.9-2,1.4-3.3,1.4c-1.9,0-3.6-1.4-5-4.1c-1-2-2.1-3.1-3.1-3.1c-1.2,0-2.2,1.6-2.8,4.9l-2.4,12.4h5.5l-1.3,4.1H244.5z"/>
					</g>
					<g>
						<path class="st2" d="M42,8.2h29l36.9,88.2H76.1l-4.6-11.8H40.9l-4.5,11.8H5.1L42,8.2z M64.3,63.9l-8-21.3l-8,21.3H64.3z"/>
						<rect x="111.6" y="5.1" class="st2" width="28.4" height="91.3"/>
						<rect x="152.8" y="5.1" class="st2" width="28.4" height="91.3"/>
					</g>
					<g>
						<path class="st2" d="M268.7,57.1V8.9h29.8v47.9c0,10.9,5.6,15.5,13.5,15.5c7.9,0,13.5-4.3,13.5-14.9V8.9h29.8v47.6
							c0,29.9-17.4,41.6-43.5,41.6C285.6,98.2,268.7,86.1,268.7,57.1"/>
						<path class="st2" d="M358.9,88.2l9.6-16.1c8.3,5.1,17.5,7.6,25.3,7.6c2.8,0,4.1-0.6,4.1-2.3v-0.2c0-1.4-1.2-2.3-8.1-4
							c-17.3-4.3-27.9-8.9-27.9-23v-0.3c0-15,12-23.4,29.8-23.4c11.3,0,22.4,2.9,30.6,7.9l-9,16.9c-7.3-4-16-6.4-21.8-6.4
							c-2.8,0-4,0.8-4,2.1v0.3c0,1.4,1.5,2.3,8.4,4c17.3,4.3,27.6,9,27.6,23v0.3c0,14.9-11.1,23.5-29.6,23.5
							C380.6,98,368.6,94.7,358.9,88.2"/>
					</g>
				</g>
				<rect x="447.9" y="5.8" class="st0" width="1.5" height="133.3"/>
			</g>
		</g>
		<g>
			<path class="st2" d="M5.1,114.3h11.8c3.8,0,6.5,1,8.1,2.7c1.5,1.4,2.2,3.4,2.2,5.8v0.1c0,3.8-2,6.4-5.1,7.7l6,8.7h-8l-5-7.6H15
				h-3v7.6H5.1V114.3z M16.6,126.2c2.4,0,3.7-1.1,3.7-3v-0.1c0-2-1.4-3-3.7-3H12v6H16.6z"/>
			<path class="st2" d="M32.4,114.3h20.1v5.9H39.3v3.8h12v5.5h-12v4h13.4v5.9H32.4V114.3z"/>
			<path class="st2" d="M56.7,135.5l3.9-4.6c2.5,2,5.2,3,8.1,3c1.9,0,2.9-0.6,2.9-1.7v-0.1c0-1-0.8-1.6-4.2-2.4
				c-5.3-1.2-9.4-2.7-9.4-7.9v-0.1c0-4.6,3.7-8,9.7-8c4.2,0,7.6,1.1,10.3,3.3l-3.5,4.9c-2.3-1.6-4.8-2.5-7-2.5
				c-1.7,0-2.5,0.7-2.5,1.6v0.1c0,1.1,0.9,1.6,4.3,2.4c5.7,1.2,9.3,3.1,9.3,7.8v0.1c0,5.1-4,8.1-10.1,8.1
				C64,139.7,59.8,138.3,56.7,135.5z"/>
			<path class="st2" d="M83.6,114.3h20.1v5.9H90.4v3.8h12v5.5h-12v4h13.4v5.9H83.6V114.3z"/>
			<path class="st2" d="M117.7,114.1h6.7l10.6,25.2h-7.4l-1.8-4.5h-9.6l-1.8,4.5h-7.3L117.7,114.1z M123.8,129.4l-2.8-7.1l-2.8,7.1
				H123.8z"/>
			<path class="st2" d="M138.4,114.3h11.8c3.8,0,6.5,1,8.1,2.7c1.5,1.4,2.2,3.4,2.2,5.8v0.1c0,3.8-2,6.4-5.1,7.7l6,8.7h-8l-5-7.6
				h-0.1h-3v7.6h-6.9V114.3z M149.9,126.2c2.4,0,3.7-1.1,3.7-3v-0.1c0-2-1.4-3-3.7-3h-4.5v6H149.9z"/>
			<path class="st2" d="M164.1,126.8L164.1,126.8c0-7.4,5.6-13.1,13.2-13.1c5.1,0,8.4,2.1,10.6,5.2l-5.2,4c-1.4-1.8-3.1-2.9-5.5-2.9
				c-3.5,0-6,3-6,6.6v0.1c0,3.7,2.5,6.7,6,6.7c2.6,0,4.1-1.2,5.6-3l5.2,3.7c-2.4,3.2-5.5,5.6-11.1,5.6
				C169.9,139.7,164.1,134.3,164.1,126.8z"/>
			<path class="st2" d="M192,114.3h6.9v9.3h8.9v-9.3h6.9v25h-6.9v-9.5h-8.9v9.5H192V114.3z"/>
			<path class="st2" d="M232.4,114.3h10.7c6.3,0,10.4,3.2,10.4,8.8v0.1c0,5.9-4.5,9-10.7,9h-3.4v7.1h-6.9V114.3z M242.6,126.7
				c2.5,0,4-1.3,4-3.2v-0.1c0-2.1-1.5-3.3-4-3.3h-3.2v6.6H242.6z"/>
			<path class="st2" d="M257.4,114.3h11.8c3.8,0,6.5,1,8.1,2.7c1.5,1.4,2.2,3.4,2.2,5.8v0.1c0,3.8-2,6.4-5.1,7.7l6,8.7h-8l-5-7.6
				h-0.1h-3v7.6h-6.9V114.3z M268.9,126.2c2.4,0,3.7-1.1,3.7-3v-0.1c0-2-1.4-3-3.7-3h-4.5v6H268.9z"/>
			<path class="st2" d="M282.1,126.8L282.1,126.8c0-7.2,5.8-13.1,13.5-13.1c7.7,0,13.4,5.7,13.4,12.9v0.1c0,7.2-5.8,13-13.5,13
				C287.9,139.7,282.1,134,282.1,126.8z M302,126.8L302,126.8c0-3.7-2.6-6.8-6.4-6.8c-3.8,0-6.3,3.1-6.3,6.7v0.1
				c0,3.6,2.6,6.7,6.4,6.7C299.5,133.5,302,130.4,302,126.8z"/>
			<path class="st2" d="M312,126.8L312,126.8c0-7.4,5.7-13.1,13.5-13.1c4.4,0,7.5,1.4,10.1,3.6l-4.1,4.9c-1.8-1.5-3.6-2.4-6-2.4
				c-3.6,0-6.4,3-6.4,6.9v0.1c0,4,2.8,6.9,6.8,6.9c1.7,0,3-0.4,4-1v-3H325v-5.1h11.5v11.2c-2.6,2.2-6.3,3.9-10.8,3.9
				C317.9,139.7,312,134.4,312,126.8z"/>
			<path class="st2" d="M342,114.3h11.8c3.8,0,6.5,1,8.1,2.7c1.5,1.4,2.2,3.4,2.2,5.8v0.1c0,3.8-2,6.4-5.1,7.7l6,8.7h-8l-5-7.6h-0.1
				h-3v7.6H342V114.3z M353.5,126.2c2.4,0,3.7-1.1,3.7-3v-0.1c0-2-1.4-3-3.7-3h-4.5v6H353.5z"/>
			<path class="st2" d="M377.3,114.1h6.7l10.6,25.2h-7.4l-1.8-4.5h-9.6l-1.8,4.5h-7.3L377.3,114.1z M383.3,129.4l-2.8-7.1l-2.8,7.1
				H383.3z"/>
			<path class="st2" d="M397,114.3h7.3l6,9.7l6-9.7h7.3v25h-6.9v-14.3l-6.4,9.8h-0.1l-6.4-9.7v14.3H397V114.3z"/>
		</g>
	</g>
</g>
</svg>
