<?xml version="1.0" encoding="utf-8"?>
<!-- Generator: Adobe Illustrator 22.1.0, SVG Export Plug-In . SVG Version: 6.00 Build 0)  -->
<svg version="1.1" id="Layer_1" xmlns="http://www.w3.org/2000/svg" xmlns:xlink="http://www.w3.org/1999/xlink" x="0px" y="0px"
	 viewBox="0 0 161 27" style="enable-background:new 0 0 161 27;" xml:space="preserve">
<style type="text/css">
	.st0{fill:#FFFFFF;}
</style>
<g>
	<path class="st0" d="M24.3,6.4c0.1,0.2,0.2,0.3,0.3,0.4C24.8,7,25,7.1,25.3,7.2s0.6,0.2,1.1,0.3c0.9,0.2,1.5,0.5,1.9,0.9
		s0.6,0.9,0.6,1.5c0,0.4-0.1,0.7-0.2,1s-0.3,0.5-0.5,0.8c-0.2,0.2-0.5,0.4-0.8,0.5s-0.7,0.2-1.1,0.2c-0.6,0-1.2-0.1-1.7-0.3
		s-1-0.5-1.5-1l0.5-0.7c0.4,0.4,0.8,0.7,1.2,0.9c0.4,0.2,0.9,0.3,1.4,0.3s0.9-0.1,1.3-0.4c0.3-0.3,0.5-0.6,0.5-1
		c0-0.2,0-0.4-0.1-0.5c-0.1-0.2-0.2-0.3-0.3-0.4C27.5,9.2,27.2,9.1,27,9c-0.3-0.1-0.6-0.2-1-0.3s-0.8-0.2-1.2-0.4
		C24.5,8.2,24.2,8,24,7.8s-0.4-0.4-0.5-0.7c-0.1-0.3-0.2-0.6-0.2-0.9s0.1-0.6,0.2-0.9s0.3-0.5,0.5-0.7s0.5-0.4,0.8-0.5
		s0.7-0.2,1-0.2c0.6,0,1.1,0.1,1.5,0.3s0.8,0.4,1.2,0.8L28,5.7c-0.4-0.3-0.7-0.5-1.1-0.7c-0.4-0.1-0.7-0.2-1.1-0.2
		c-0.3,0-0.5,0-0.7,0.1s-0.4,0.2-0.5,0.3c-0.1,0.1-0.3,0.3-0.3,0.4c-0.1,0.2-0.1,0.3-0.1,0.5C24.2,6.1,24.2,6.2,24.3,6.4z"/>
	<path class="st0" d="M34.5,12.1h-0.9V8.8l-3.2-5h1.1L34.1,8l2.6-4.2h1l-3.2,5C34.5,8.8,34.5,12.1,34.5,12.1z"/>
	<path class="st0" d="M45.7,3.8h0.9v8.3h-0.7l-5-6.8v6.8H40V3.8h0.8l4.9,6.7V3.8z"/>
	<path class="st0" d="M55.7,11.4c-0.2,0.2-0.5,0.3-0.7,0.5c-0.3,0.1-0.5,0.2-0.8,0.3s-0.6,0.1-1,0.1c-0.6,0-1.1-0.1-1.6-0.3
		s-0.9-0.5-1.2-0.9s-0.6-0.8-0.8-1.4S49.3,8.6,49.3,8s0.1-1.2,0.3-1.7s0.5-1,0.8-1.4s0.8-0.7,1.2-0.9c0.5-0.2,1-0.3,1.6-0.3
		c0.4,0,0.7,0,1,0.1c0.3,0,0.6,0.1,0.8,0.2c0.2,0.1,0.5,0.3,0.7,0.4c0.2,0.2,0.4,0.3,0.6,0.5l-0.6,0.7C55.4,5.3,55,5,54.6,4.8
		s-0.8-0.3-1.4-0.3c-0.4,0-0.8,0.1-1.2,0.3c-0.4,0.2-0.7,0.4-1,0.7c-0.3,0.3-0.5,0.7-0.6,1.1c-0.2,0.4-0.2,0.9-0.2,1.3
		s0.1,0.9,0.2,1.4s0.4,0.8,0.6,1.1c0.3,0.3,0.6,0.6,1,0.7c0.4,0.2,0.8,0.3,1.2,0.3c0.5,0,1-0.1,1.4-0.3s0.8-0.5,1.1-0.9l0.6,0.6
		C56.2,11,55.9,11.2,55.7,11.4z"/>
	<path class="st0" d="M68.6,4.7h-4.7v3h4.2v0.9h-4.2v3.6H63V3.8h5.6V4.7z"/>
	<path class="st0" d="M78.3,9.6c-0.2,0.5-0.5,1-0.8,1.4s-0.8,0.7-1.3,0.9s-1,0.4-1.6,0.4S73.5,12.2,73,12s-0.9-0.5-1.2-0.9
		c-0.3-0.4-0.6-0.8-0.8-1.4c-0.2-0.5-0.3-1.1-0.3-1.6S70.8,7,71,6.5s0.5-1,0.8-1.4C72.1,4.5,72.5,4.2,73,4c0.5-0.2,1-0.4,1.6-0.4
		s1.1,0.1,1.6,0.3s0.9,0.5,1.2,0.9c0.3,0.4,0.6,0.8,0.8,1.4s0.3,1.1,0.3,1.6S78.5,9.1,78.3,9.6z M77.4,6.6c-0.2-0.4-0.4-0.8-0.6-1.1
		c-0.3-0.3-0.6-0.6-1-0.7c-0.4-0.2-0.8-0.3-1.2-0.3s-0.9,0.1-1.2,0.3c-0.4,0.2-0.7,0.4-1,0.7s-0.5,0.7-0.6,1.1s-0.2,0.9-0.2,1.3
		c0,0.5,0.1,0.9,0.2,1.3c0.2,0.4,0.4,0.8,0.6,1.1s0.6,0.6,1,0.7s0.8,0.3,1.2,0.3c0.4,0,0.9-0.1,1.2-0.3c0.4-0.2,0.7-0.4,1-0.7
		s0.5-0.7,0.6-1.1s0.2-0.9,0.2-1.3C77.7,7.5,77.6,7,77.4,6.6z"/>
	<path class="st0" d="M86.7,12.1l-2.3-3.2h-2.2v3.2h-0.9V3.8h3.3c0.4,0,0.8,0.1,1.2,0.2c0.3,0.1,0.6,0.3,0.9,0.5
		c0.2,0.2,0.4,0.5,0.6,0.8c0.1,0.3,0.2,0.6,0.2,1c0,0.3-0.1,0.7-0.2,0.9s-0.2,0.5-0.4,0.7c-0.2,0.2-0.4,0.4-0.7,0.5
		c-0.3,0.1-0.5,0.2-0.8,0.3l2.4,3.4H86.7z M86.1,5.1c-0.3-0.3-0.8-0.4-1.5-0.4h-2.4V8h2.4c0.3,0,0.6,0,0.8-0.1s0.5-0.2,0.6-0.3
		c0.2-0.1,0.3-0.3,0.4-0.5s0.2-0.5,0.2-0.7C86.6,5.8,86.4,5.4,86.1,5.1z"/>
	<path class="st0" d="M24.3,18.3c0.1,0.2,0.2,0.3,0.3,0.4c0.2,0.1,0.4,0.2,0.6,0.4c0.3,0.1,0.6,0.2,1.1,0.3c0.9,0.2,1.5,0.5,1.9,0.9
		s0.6,0.9,0.6,1.5c0,0.4-0.1,0.7-0.2,1s-0.3,0.5-0.5,0.8c-0.2,0.2-0.5,0.4-0.8,0.5s-0.7,0.2-1.1,0.2c-0.6,0-1.2-0.1-1.7-0.3
		c-0.5-0.2-1-0.5-1.5-1l0.5-0.7c0.4,0.4,0.8,0.7,1.2,0.9c0.4,0.2,0.9,0.3,1.4,0.3s0.9-0.1,1.3-0.4c0.3-0.3,0.5-0.6,0.5-1
		c0-0.2,0-0.4-0.1-0.5c-0.1-0.2-0.2-0.3-0.3-0.4c-0.1-0.1-0.4-0.2-0.6-0.3c-0.3-0.1-0.6-0.2-1-0.3c-0.4-0.1-0.8-0.2-1.2-0.4
		c-0.3-0.1-0.6-0.3-0.8-0.5c-0.2-0.2-0.4-0.4-0.5-0.7c-0.1-0.3-0.2-0.6-0.2-0.9s0.1-0.6,0.2-0.9s0.3-0.5,0.5-0.7s0.5-0.4,0.8-0.5
		s0.7-0.2,1-0.2c0.6,0,1.1,0.1,1.5,0.3c0.4,0.2,0.8,0.4,1.2,0.8l-0.5,0.7c-0.4-0.3-0.7-0.5-1.1-0.7c-0.4-0.1-0.7-0.2-1.1-0.2
		c-0.3,0-0.5,0-0.7,0.1s-0.4,0.2-0.5,0.3c-0.1,0.1-0.3,0.3-0.3,0.4c-0.1,0.2-0.1,0.3-0.1,0.5C24.2,17.9,24.2,18.1,24.3,18.3z"/>
	<path class="st0" d="M37.6,23.3c-0.2,0.2-0.5,0.3-0.7,0.5C36.6,23.9,36.3,24,36,24c-0.3,0.1-0.6,0.1-1,0.1c-0.6,0-1.1-0.1-1.6-0.3
		c-0.5-0.2-0.9-0.5-1.2-0.9s-0.6-0.8-0.8-1.4s-0.3-1.1-0.3-1.7s0.1-1.2,0.3-1.7s0.5-1,0.8-1.4s0.8-0.7,1.2-0.9
		c0.5-0.2,1-0.3,1.6-0.3c0.4,0,0.7,0,1,0.1s0.5,0.2,0.8,0.3c0.2,0.1,0.5,0.3,0.7,0.4c0.2,0.2,0.4,0.3,0.6,0.5l-0.6,0.7
		c-0.3-0.3-0.7-0.6-1.1-0.8c-0.4-0.2-0.8-0.3-1.4-0.3c-0.4,0-0.8,0.1-1.2,0.3c-0.4,0.2-0.7,0.4-1,0.7c-0.3,0.3-0.5,0.7-0.6,1.1
		C32,18.9,32,19.4,32,19.8s0.1,0.9,0.2,1.4s0.4,0.8,0.6,1.1c0.3,0.3,0.6,0.6,1,0.7c0.4,0.2,0.8,0.3,1.2,0.3c0.5,0,1-0.1,1.4-0.3
		s0.8-0.5,1.1-0.9l0.6,0.6C38,22.9,37.8,23.1,37.6,23.3z"/>
	<path class="st0" d="M41.6,15.7V24h-0.9v-8.3H41.6z"/>
	<path class="st0" d="M50.3,16.5h-4.7v2.8h4.2v0.9h-4.2v2.9h4.8V24h-5.7v-8.3h5.6C50.3,15.7,50.3,16.5,50.3,16.5z"/>
	<path class="st0" d="M58.8,15.7h0.9V24H59l-5-6.8V24h-0.9v-8.3h0.8l4.9,6.7V15.7z"/>
	<path class="st0" d="M68.8,23.3c-0.2,0.2-0.5,0.3-0.7,0.5c-0.3,0.1-0.5,0.2-0.8,0.3c-0.3,0.1-0.6,0.1-1,0.1c-0.6,0-1.1-0.1-1.6-0.3
		c-0.5-0.2-0.9-0.5-1.2-0.9s-0.6-0.8-0.8-1.4s-0.3-1.1-0.3-1.7s0.1-1.2,0.3-1.7s0.5-1,0.8-1.4s0.8-0.7,1.2-0.9
		c0.5-0.2,1-0.3,1.6-0.3c0.4,0,0.7,0,1,0.1s0.5,0.2,0.8,0.3c0.2,0.1,0.5,0.3,0.7,0.4c0.2,0.2,0.4,0.3,0.6,0.5l-0.6,0.7
		c-0.3-0.3-0.7-0.6-1.1-0.8c-0.4-0.2-0.8-0.3-1.4-0.3c-0.4,0-0.8,0.1-1.2,0.3c-0.4,0.2-0.7,0.4-1,0.7c-0.3,0.3-0.5,0.7-0.6,1.1
		c-0.2,0.4-0.2,0.9-0.2,1.3s0.1,0.9,0.2,1.4s0.4,0.8,0.6,1.1c0.3,0.3,0.6,0.6,1,0.7c0.4,0.2,0.8,0.3,1.2,0.3c0.5,0,1-0.1,1.4-0.3
		s0.8-0.5,1.1-0.9l0.6,0.6C69.2,22.9,69,23.1,68.8,23.3z"/>
	<path class="st0" d="M77.4,16.5h-4.7v2.8h4.2v0.9h-4.2v2.9h4.8V24h-5.7v-8.3h5.6C77.4,15.7,77.4,16.5,77.4,16.5z"/>
</g>
<path id="S4S_Logo_Symbol" class="st0" d="M10.4,10.4h5.8c1.7,0,3.5,1.4,3.7,3.1c0,0.1,0,6.2,0,6.2c0,3.1-4.3,4.2-5.7,4.2
	c-0.3,0-6.9,0-6.9,0c-4-0.1-6-3.6-6-4.8c0-0.4,0-0.5,0-0.5h9.4V20c0,0,0.1,0.3,0.4,0.1c0.2-0.2,3.1-2.4,3.1-2.4s0.2-0.2-0.1-0.3
	c-0.2-0.1-2.9-2.3-2.9-2.3s-0.4-0.2-0.4,0.1v1.3c0,0-5.7,0-6.3,0c-1.4-0.1-3.1-1.5-3.2-2.9c0,0,0-6.1,0-6.9c0-1.8,2.6-4,5.9-4h7.1
	c2.2-0.1,5.6,1.8,5.6,4c0,0.8,0,1.7,0,1.7l-9.5-0.1V7c0-0.3-0.3-0.3-0.4-0.2C9.8,7,7,9.1,7,9.1S6.7,9.3,7,9.6s2.9,2.3,2.9,2.3
	s0.4,0.2,0.4-0.2C10.4,11,10.4,10.4,10.4,10.4z"/>
<g>
	<path class="st0" d="M87.9,15.6h2.4c0.8,0,1.5,0.1,2,0.3s1,0.5,1.3,0.8c0.6,0.6,0.9,1.4,0.9,2.5c0,0.6-0.1,1.2-0.3,1.8
		c-0.2,0.6-0.6,1.1-1,1.5c-0.5,0.5-1.1,0.9-1.8,1.2c-0.7,0.3-1.6,0.4-2.6,0.4h-3.1L87.9,15.6z M89,22.3c0.6,0,1.1-0.1,1.6-0.3
		s0.9-0.4,1.2-0.8c0.3-0.3,0.5-0.6,0.6-0.9c0.1-0.4,0.2-0.7,0.2-1.2c0-0.6-0.2-1-0.5-1.3c-0.2-0.2-0.4-0.3-0.7-0.4
		c-0.3-0.1-0.7-0.2-1.2-0.2h-0.9l-1.4,5.1C87.9,22.3,89,22.3,89,22.3z"/>
	<path class="st0" d="M97.3,15.6h1.8L96.9,24h-1.8L97.3,15.6z"/>
	<path class="st0" d="M98.7,22.6l1.4-1.2c0.3,0.4,0.7,0.6,1.1,0.8c0.4,0.2,0.8,0.3,1.3,0.3c0.4,0,0.7-0.1,0.9-0.2s0.4-0.4,0.4-0.6
		c0-0.1,0-0.2-0.1-0.3s-0.1-0.2-0.2-0.3c-0.1-0.1-0.3-0.2-0.4-0.3c-0.2-0.1-0.4-0.2-0.7-0.3c-0.3-0.1-0.5-0.2-0.8-0.4
		c-0.2-0.1-0.5-0.3-0.7-0.5s-0.3-0.4-0.5-0.6s-0.2-0.5-0.2-0.8c0-0.4,0.1-0.8,0.3-1.2c0.2-0.3,0.4-0.6,0.7-0.9
		c0.3-0.2,0.7-0.4,1.1-0.6c0.4-0.1,0.8-0.2,1.3-0.2c0.7,0,1.3,0.1,1.8,0.3s0.9,0.5,1.3,0.9l-1.3,1.3c-0.3-0.3-0.6-0.5-0.9-0.7
		s-0.7-0.2-1.1-0.2s-0.7,0.1-0.9,0.3c-0.2,0.2-0.3,0.4-0.3,0.6c0,0.1,0,0.2,0.1,0.3s0.1,0.2,0.2,0.2c0.1,0.1,0.3,0.2,0.5,0.3
		c0.2,0.1,0.4,0.2,0.7,0.3c0.3,0.1,0.6,0.2,0.8,0.4c0.2,0.1,0.5,0.3,0.6,0.5s0.3,0.4,0.4,0.6s0.2,0.5,0.2,0.8c0,0.4-0.1,0.8-0.3,1.2
		c-0.2,0.3-0.4,0.6-0.7,0.9c-0.3,0.2-0.7,0.4-1.1,0.5s-0.8,0.2-1.3,0.2C100.8,24.1,99.5,23.6,98.7,22.6z"/>
	<path class="st0" d="M109.7,23.9c-0.5-0.2-0.9-0.4-1.2-0.7s-0.6-0.7-0.8-1.2c-0.2-0.5-0.3-1-0.3-1.5c0-0.7,0.1-1.3,0.4-1.9
		s0.6-1.1,1.1-1.6s1-0.8,1.6-1.1c0.6-0.3,1.3-0.4,2-0.4c0.8,0,1.5,0.2,2,0.5c0.5,0.3,1,0.8,1.3,1.3l-1.5,1.1
		c-0.2-0.4-0.5-0.6-0.8-0.8c-0.3-0.2-0.7-0.3-1.2-0.3c-0.4,0-0.8,0.1-1.1,0.3c-0.4,0.2-0.7,0.4-0.9,0.7c-0.3,0.3-0.5,0.6-0.7,1
		s-0.2,0.8-0.2,1.3c0,0.3,0,0.6,0.2,0.8c0.1,0.2,0.2,0.5,0.4,0.6c0.2,0.2,0.4,0.3,0.6,0.4s0.5,0.1,0.8,0.1c0.4,0,0.8-0.1,1.1-0.2
		c0.3-0.1,0.6-0.3,0.9-0.6l1.2,1.2c-0.4,0.4-0.9,0.7-1.4,0.9c-0.5,0.2-1.1,0.4-1.8,0.4C110.7,24.1,110.1,24.1,109.7,23.9z"/>
	<path class="st0" d="M118.3,23.9c-0.5-0.2-0.9-0.4-1.2-0.8s-0.6-0.7-0.8-1.2c-0.2-0.5-0.3-0.9-0.3-1.5s0.1-1.2,0.4-1.8
		s0.6-1.1,1-1.6s1-0.8,1.6-1.1s1.3-0.4,2.1-0.4c0.6,0,1.1,0.1,1.6,0.3s0.9,0.4,1.2,0.8s0.6,0.7,0.8,1.2s0.3,0.9,0.3,1.5
		s-0.1,1.2-0.4,1.8s-0.6,1.1-1,1.6s-1,0.8-1.6,1.1s-1.3,0.4-2.1,0.4C119.3,24.1,118.7,24,118.3,23.9z M121.3,22.2
		c0.4-0.2,0.7-0.4,0.9-0.7c0.3-0.3,0.5-0.6,0.6-1s0.2-0.7,0.2-1.1c0-0.3,0-0.6-0.1-0.9s-0.2-0.5-0.4-0.7c-0.2-0.2-0.4-0.3-0.7-0.4
		c-0.3-0.1-0.6-0.2-0.9-0.2c-0.4,0-0.8,0.1-1.2,0.3c-0.4,0.2-0.7,0.4-0.9,0.7c-0.3,0.3-0.5,0.6-0.6,1s-0.2,0.7-0.2,1.1
		c0,0.3,0,0.6,0.1,0.9s0.2,0.5,0.4,0.7c0.2,0.2,0.4,0.3,0.7,0.4c0.3,0.1,0.6,0.2,0.9,0.2C120.5,22.4,120.9,22.3,121.3,22.2z"/>
	<path class="st0" d="M126.7,15.6h2l0.6,5.9l3.7-5.9h2.1l-5.6,8.5h-1.6L126.7,15.6z"/>
	<path class="st0" d="M136.3,15.6h6.3l-0.4,1.6h-4.4l-0.5,1.7h3.9l-0.4,1.6h-3.9l-0.5,1.8h4.5l-0.4,1.6H134L136.3,15.6z"/>
	<path class="st0" d="M144.3,15.6h3.1c0.6,0,1.2,0.1,1.6,0.2c0.4,0.1,0.8,0.3,1.1,0.6c0.4,0.4,0.6,1,0.6,1.7c0,0.8-0.2,1.4-0.7,1.9
		s-1.1,0.9-2,1.1l1.4,2.9h-2.1l-1.3-2.7h-1.4l-0.7,2.7H142L144.3,15.6z M146.7,19.7c0.3,0,0.6,0,0.8-0.1s0.5-0.1,0.6-0.3
		c0.2-0.1,0.3-0.3,0.4-0.4c0.1-0.2,0.2-0.4,0.2-0.6c0-0.3-0.1-0.5-0.3-0.7s-0.6-0.3-1.2-0.3h-1.5l-0.6,2.4H146.7z"/>
	<path class="st0" d="M153.5,20.7l-1.7-5.1h2.1l1,3.5l2.9-3.5h2.2l-4.6,5.3l-0.9,3.1h-1.8L153.5,20.7z"/>
</g>
</svg>
