<?xml version="1.0" encoding="utf-8"?>
<!-- Generator: Adobe Illustrator 22.1.0, SVG Export Plug-In . SVG Version: 6.00 Build 0)  -->
<svg version="1.1" id="Layer_1" xmlns="http://www.w3.org/2000/svg" xmlns:xlink="http://www.w3.org/1999/xlink" x="0px" y="0px"
	 viewBox="0 0 326 51" style="enable-background:new 0 0 326 51;" xml:space="preserve">
<style type="text/css">
	.st0{fill:none;stroke:#231F20;stroke-width:0.4113;}
	.st1{fill:#B1525A;}
	.st2{fill:#FFFFFF;}
	.st3{fill:none;stroke:#231F20;stroke-width:0.6459;}
	.st4{fill:#231F20;}
	.st5{fill:none;stroke:#231F20;stroke-width:0.132;}
	.st6{fill:none;stroke:#231F20;stroke-width:0.1345;}
</style>
<line class="st0" x1="189.7" y1="4" x2="189.7" y2="48.5"/>
<path d="M106.2,11.6c-0.4-0.8-0.9-1.4-1.9-1.6V9.5c0.6,0,2.6,0.1,3,0.1c0.4,0,2.2-0.1,2.8-0.1v0.5c-0.5,0.1-1.2,0.4-1.2,1
	c0,0.4,0.2,0.9,0.7,2l4.3,9.9l4.1-9.9c0.3-0.8,0.6-1.4,0.6-1.9c0-0.5-0.5-0.9-1.2-1V9.5c0.5,0,1.9,0.1,2.3,0.1
	c0.4,0,1.9-0.1,2.5-0.1v0.5c-1,0.3-1.6,0.8-2.2,2.2l-6,14.2h-1.3L106.2,11.6L106.2,11.6z"/>
<path d="M47.6,25.8c0.8-0.2,1.3-0.5,1.3-1.4V11.3c0-0.9-0.5-1.2-1.3-1.4V9.4c0.4,0,2.2,0.1,2.6,0.1c0.5,0,2.4-0.1,2.8-0.1v0.5
	c-0.8,0.2-1.4,0.5-1.4,1.4v5.5h9.7v-5.5c0-0.9-0.5-1.3-1.3-1.4V9.4c0.4,0,2.3,0.1,2.8,0.1c0.4,0,2.3-0.1,2.7-0.1v0.5
	c-0.8,0.2-1.4,0.5-1.4,1.4v13.1c0,0.9,0.6,1.2,1.4,1.4v0.4c-0.4,0-2.2,0-2.7,0c-0.5,0-2.4,0-2.8,0v-0.4c0.8-0.2,1.3-0.5,1.3-1.4
	v-6.2h-9.7v6.2c0,0.9,0.6,1.2,1.4,1.4v0.4c-0.4,0-2.3,0-2.8,0c-0.4,0-2.2,0-2.6,0V25.8L47.6,25.8z"/>
<path d="M83.7,24l-5.7-13c-0.2-0.5-0.5-1.6-0.5-1.6h-1.5c0,0-0.3,1.1-0.5,1.6L70.2,24c-0.4,0.9-1,1.6-2,1.9l0,0.4l2.4,0
	c0.3,0,1.8,0,2.4,0l0-0.4c-0.9-0.2-1.2-0.6-1.2-1.1c0-0.3,0.1-0.8,0.3-1.1l1.1-2.8l6.3,0l1.2,2.8c0.2,0.4,0.3,0.8,0.3,1.1
	c0,0.4-0.3,0.8-1.1,1l0,0.4c0.6,0,2.4,0,2.9,0c0.4,0,2.3,0,3,0l0-0.4C84.6,25.5,84.2,24.9,83.7,24z M73.7,19.5l2.5-6.2l2.7,6.2H73.7
	z"/>
<path d="M137.1,24l-5.7-13c-0.2-0.5-0.5-1.6-0.5-1.6h-1.5c0,0-0.3,1.1-0.5,1.6L123.5,24c-0.4,0.9-1,1.6-2,1.9l0,0.4l2.5,0
	c0.3,0,1.8,0,2.3,0l0-0.4c-0.9-0.2-1.2-0.6-1.2-1.1c0-0.3,0.1-0.8,0.3-1.1l1.1-2.8l6.3,0l1.2,2.8c0.2,0.4,0.3,0.8,0.3,1.1
	c0,0.4-0.3,0.8-1.1,1l0,0.4c0.6,0,2.4,0,2.9,0c0.4,0,2.3,0,3,0l0-0.4C137.9,25.5,137.5,24.9,137.1,24z M127,19.5l2.5-6.2l2.7,6.2
	H127z"/>
<path d="M168.2,9.3c-1.8,0-4.1,0.2-4.9,0.2c-0.5,0-2.4-0.1-2.9-0.1v0.5c1,0.2,1.5,0.5,1.5,1.4v13c0,0.9-0.6,1.3-1.6,1.5v0.5
	c0.6,0,2.3-0.1,2.8-0.1c0.8,0,3,0.1,4.8,0.1c6.2,0,10-3.7,10-8.6C177.9,12.7,174.2,9.3,168.2,9.3z M167.3,25.1c-0.9,0-2-0.1-2.6-0.2
	V10.6c0.6-0.1,1.8-0.2,2.8-0.2c4.7,0,7.5,3.1,7.5,7.5C174.9,22.1,172.3,25.1,167.3,25.1z"/>
<path d="M92.5,24.3c0,0.9,0.5,1.3,1.6,1.5v0.5c-0.6,0-2.4-0.1-2.9-0.1c-0.4,0-2.2,0.1-2.8,0.1v-0.5c0.9-0.2,1.5-0.6,1.5-1.5V11.4
	c0-0.8-0.4-1.3-1.5-1.5V9.4c0.6,0,2.3,0.1,2.8,0.1c0.8,0,3.2-0.1,4.1-0.1c4,0,6.3,1.7,6.3,4.5c0,2.2-1.7,3.8-4.2,4.4
	c0,0,0.6,0.3,1.2,1c0.7,0.8,2.7,3.6,3.5,4.6c0.8,1,1.8,2.1,2.9,2.1v0.4c-0.5,0.1-1.4,0.2-2,0.2c-1.4,0-2.5-0.5-3.5-1.8
	c-0.9-1.1-2.5-3.5-3.4-4.7c-0.6-0.7-1.3-1.3-2.6-1.5c-0.3,0-0.5-0.1-0.8-0.1V24.3L92.5,24.3z M92.5,17.4c0.5,0.1,1.3,0.1,2.1,0.1
	c3.2,0,4.1-1.8,4.1-3.4c0-2.3-1.5-3.7-4.3-3.7c-0.6,0-1.4,0.1-2,0.2V17.4L92.5,17.4z"/>
<path d="M145.5,24.3c0,0.9,0.5,1.3,1.6,1.5v0.5c-0.6,0-2.4-0.1-2.9-0.1c-0.4,0-2.2,0.1-2.8,0.1v-0.5c0.9-0.2,1.5-0.6,1.5-1.5V11.4
	c0-0.8-0.4-1.3-1.5-1.5V9.4c0.6,0,2.3,0.1,2.8,0.1c0.8,0,3.2-0.1,4.1-0.1c4,0,6.3,1.7,6.3,4.5c0,2.2-1.7,3.8-4.2,4.4
	c0,0,0.6,0.3,1.2,1c0.7,0.8,2.7,3.6,3.5,4.6c0.8,1,1.8,2.1,2.9,2.1v0.4c-0.5,0.1-1.4,0.2-2,0.2c-1.4,0-2.5-0.5-3.5-1.8
	c-0.9-1.1-2.5-3.5-3.4-4.7c-0.6-0.7-1.3-1.3-2.6-1.5c-0.3,0-0.5-0.1-0.8-0.1V24.3L145.5,24.3z M145.5,17.4c0.5,0.1,1.3,0.1,2.1,0.1
	c3.1,0,4.1-1.8,4.1-3.4c0-2.3-1.5-3.7-4.3-3.7c-0.6,0-1.4,0.1-2,0.2V17.4L145.5,17.4z"/>
<path class="st1" d="M47.6,42.8c0.2,0,0.9,0,1.1,0c0.2,0,1,0,1.2,0v-0.3c-0.6-0.1-0.7-0.4-0.7-0.7l0.5-5.2l3,6.2h0.6l2.6-6l0.4,5.1
	c0,0.2-0.2,0.6-0.6,0.7v0.3c0.2,0,1.1,0,1.3,0c0.2,0,1.1,0,1.3,0v-0.3c-0.4-0.1-0.6-0.4-0.6-0.7l-0.5-6.5c0-0.4,0.1-0.8,0.5-0.9
	v-0.3c-0.3,0-0.6,0-0.9,0c-0.2,0-0.5,0-0.8,0l-2.8,6.6L50,34.1c-0.3,0-0.6,0-0.8,0c-0.2,0-0.5,0-0.9,0v0.3c0.4,0.1,0.6,0.4,0.5,0.8
	l-0.6,6.5c0,0.3-0.3,0.6-0.7,0.7V42.8L47.6,42.8z M61.2,42.8c0.3,0,1.1,0,1.4,0h2.6c0.9,0,1.3,0,2.1,0.1l0.2-1.5l-0.4-0.1
	c-0.3,0.5-0.7,0.8-1.5,0.8h-2.3v-3.4h2.1c0.3,0,0.6,0.2,0.7,0.5h0.3c0-0.3,0-0.7,0-0.9c0-0.1,0-0.6,0-0.8h-0.4
	c-0.2,0.3-0.4,0.5-0.7,0.5h-2.1v-3h2.4c0.6,0,1,0.3,1.2,0.8h0.3l0-1.7H67c-0.1,0.1-0.4,0.1-0.5,0.1h-5.2v0.3
	c0.5,0.1,0.6,0.4,0.6,0.7v6.6c0,0.3-0.2,0.6-0.6,0.7V42.8L61.2,42.8z M70.2,42.8c0.3,0,1.1,0,1.4,0c0.4,0,1.6,0.1,2.4,0.1
	c2.7,0,4.5-1.8,4.5-4.2c0-2.6-1.8-4.5-4.5-4.5c-0.8,0-2,0.1-2.4,0.1c-0.2,0-1.1,0-1.4,0v0.3c0.5,0.1,0.6,0.4,0.6,0.7v6.6
	c0,0.3-0.2,0.6-0.6,0.7V42.8L70.2,42.8z M72.3,34.8c0.3-0.1,0.8-0.1,1.2-0.1c2,0,3.4,1.8,3.4,3.8c0,2.1-1.5,3.6-3.5,3.6
	c-0.4,0-0.9,0-1.2-0.1V34.8L72.3,34.8z M81.4,42.8c0.2,0,1.2,0,1.5,0c0.2,0,1.2,0,1.4,0v-0.3c-0.5-0.1-0.7-0.3-0.7-0.7v-6.6
	c0-0.3,0.2-0.5,0.7-0.7v-0.3c-0.2,0-1.2,0-1.4,0c-0.2,0-1.2,0-1.5,0v0.3c0.5,0.1,0.7,0.3,0.7,0.7v6.6c0,0.3-0.2,0.6-0.7,0.7V42.8
	L81.4,42.8z M94.5,40.9c-0.5,1-1.6,1.2-2.7,1.2c-2,0-3.1-2-3.1-3.7c0-2.1,1.1-3.7,3.1-3.7c1,0,2.1,0.3,2.6,1.3h0.3l-0.1-1.5
	c-0.1,0-0.3,0-0.7-0.1c-0.7-0.1-1.4-0.3-2.1-0.3c-2.9,0-4.6,2-4.6,4.5c0,2.5,1.6,4.5,4.6,4.5c0.8,0,1.5-0.2,2.2-0.3
	c0.3-0.1,0.6-0.1,0.7-0.1l0.1-1.5H94.5L94.5,40.9z M96.6,42.8c0.4,0,1,0,1.2,0c0.2,0,0.8,0,1.1,0v-0.3c-0.4-0.1-0.5-0.3-0.5-0.5
	c0-0.1,0.1-0.4,0.1-0.5l0.5-1.2h3.2l0.5,1.2c0,0.1,0.1,0.4,0.1,0.5c0,0.2,0,0.4-0.4,0.5v0.3c0.3,0,1.2,0,1.4,0c0.2,0,1,0,1.3,0v-0.3
	c-0.5-0.1-0.7-0.4-0.9-0.9l-2.5-6.5c-0.1-0.3-0.3-1-0.3-1h-0.9c0,0-0.2,0.8-0.3,1l-2.7,6.5c-0.2,0.5-0.3,0.8-0.9,0.9V42.8L96.6,42.8
	z M99.3,39.5l1.3-3.2l1.2,3.2H99.3L99.3,39.5z M107.5,42.8c0.3,0,1.1,0,1.4,0h2.6c0.9,0,1.3,0,2.1,0.1l0.2-1.8l-0.3-0.1
	c-0.3,0.7-0.7,1.1-1.5,1.1h-2.3v-6.9c0-0.3,0.2-0.5,0.7-0.7v-0.3c-0.2,0-1.2,0-1.4,0c-0.2,0-1.2,0-1.4,0v0.3
	c0.5,0.1,0.7,0.3,0.7,0.7v6.6c0,0.3-0.2,0.6-0.6,0.7V42.8L107.5,42.8z M119.9,42.5c0.9,0.2,1.7,0.4,2.5,0.4c1.8,0,3-0.9,3-2.6
	c0-0.9-0.4-1.5-1-1.8c-0.8-0.5-1.8-0.8-2.6-1.3c-0.5-0.3-0.8-0.6-0.8-1.3c0-0.8,0.7-1.3,1.7-1.3c0.9,0,1.7,0.4,2.1,1.3h0.3l-0.1-1.7
	c-0.8,0-1.6-0.1-2.2-0.1c-1.7,0-3.2,0.7-3.2,2.5c0,1.1,0.6,1.8,1.4,2.1c0.8,0.4,1.8,0.7,2.5,1.2c0.4,0.2,0.5,0.6,0.5,1.1
	c0,0.9-0.7,1.3-1.7,1.3c-0.5,0-1.1-0.1-1.4-0.4c-0.2-0.2-0.5-0.5-0.7-1h-0.3L119.9,42.5L119.9,42.5z M135.5,40.9
	c-0.5,1-1.6,1.2-2.7,1.2c-2,0-3.1-2-3.1-3.7c0-2.1,1.1-3.7,3.1-3.7c1,0,2.1,0.3,2.6,1.3h0.3l-0.1-1.5c-0.1,0-0.3,0-0.7-0.1
	c-0.7-0.1-1.4-0.3-2.1-0.3c-2.9,0-4.6,2-4.6,4.5c0,2.5,1.6,4.5,4.6,4.5c0.8,0,1.5-0.2,2.2-0.3c0.3-0.1,0.6-0.1,0.7-0.1l0.1-1.5
	H135.5L135.5,40.9z M138.2,42.8c0.2,0,1.1,0,1.3,0c0.2,0,1.1,0,1.3,0v-0.3c-0.4-0.1-0.6-0.4-0.6-0.7v-3.2h4.6v3.2
	c0,0.3-0.2,0.6-0.6,0.7v0.3c0.2,0,1.1,0,1.3,0c0.2,0,1,0,1.3,0v-0.3c-0.4-0.1-0.6-0.4-0.6-0.7v-6.6c0-0.3,0.2-0.6,0.6-0.7v-0.3
	c-0.2,0-1.1,0-1.3,0c-0.2,0-1.1,0-1.3,0v0.3c0.4,0.1,0.6,0.4,0.6,0.7v2.7h-4.6v-2.7c0-0.3,0.2-0.6,0.6-0.7v-0.3c-0.2,0-1.1,0-1.3,0
	c-0.2,0-1,0-1.3,0v0.3c0.4,0.1,0.6,0.4,0.6,0.7v6.6c0,0.3-0.2,0.6-0.6,0.7V42.8L138.2,42.8z M153.9,42.9c2.7,0,4.4-2,4.4-4.4
	c0-2.4-1.7-4.5-4.4-4.5c-2.7,0-4.4,2.1-4.4,4.5C149.5,40.9,151.2,42.9,153.9,42.9L153.9,42.9z M153.9,42.2c-2,0-2.9-1.8-2.9-3.7
	c0-1.9,0.8-3.8,2.9-3.8c2,0,2.8,1.8,2.8,3.8C156.7,40.4,155.9,42.2,153.9,42.2L153.9,42.2z M164.8,42.9c2.7,0,4.4-2,4.4-4.4
	c0-2.4-1.7-4.5-4.4-4.5c-2.7,0-4.4,2.1-4.4,4.5C160.4,40.9,162.2,42.9,164.8,42.9L164.8,42.9z M164.8,42.2c-2,0-2.9-1.8-2.9-3.7
	c0-1.9,0.8-3.8,2.9-3.8c2,0,2.8,1.8,2.8,3.8C167.7,40.4,166.9,42.2,164.8,42.2L164.8,42.2z M171.6,42.8c0.3,0,1.1,0,1.4,0h2.6
	c0.9,0,1.3,0,2.1,0.1l0.2-1.8l-0.3-0.1c-0.4,0.7-0.7,1.1-1.5,1.1h-2.3v-6.9c0-0.3,0.2-0.5,0.7-0.7v-0.3c-0.2,0-1.2,0-1.4,0
	c-0.2,0-1.2,0-1.4,0v0.3c0.5,0.1,0.7,0.3,0.7,0.7v6.6c0,0.3-0.2,0.6-0.6,0.7V42.8L171.6,42.8z"/>
<path class="st1" d="M21.2,4.3l-18.1,0l0,14.5c0,17.7,17.8,29,18,29.2l0.1,0c0,0,0.2-0.1,0.2-0.1c3-2,18.1-12.7,18.1-29l0-14.5
	C39.4,4.3,21.2,4.3,21.2,4.3L21.2,4.3z M39.3,17.1H3.5V15h35.8V17.1L39.3,17.1z"/>
<path class="st2" d="M10.9,18.8c0,0,0,0.2,0,0.2c0,0.1-0.1,0.2-0.3,0.2l-0.5-0.1c-0.2-0.1-0.4-0.1-0.6,0c-0.1,0.1-0.2,0.1-0.3,0.3
	c0,0,0.1,0,0.1,0c0.1,0.1,0.4,0.1,0.4,0.4c0,0.2,0.1,0.4,0.2,0.6l0.1,0.1c0,0.1,0.1,0.1,0.1,0.2c0,0,0,0.1-0.1,0.1l-0.2,0.3
	c0,0-0.1,0.1-0.1,0.1c0,0-0.1,0.3-0.2,0.4c0.1,0.1,0.1,0.2,0.2,0.2c0.2-0.1,0.4,0,0.6,0l0.3,0c0,0,0.1,0,0.1,0l0.1,0
	c0.2,0,0.4-0.1,0.5,0.1c0,0,0.2,0.3,0.2,0.4c0,0.1,0.1,0.2,0.1,0.3c0,0.1,0,0.3,0,0.4l0,0.2c0,0,0,0.1,0,0.1
	c-0.3,0.5-0.8,0.8-1.3,1.1c0,0,0,0,0,0c0,0,0,0,0,0.1c0,0,0,0,0,0c0.1,0.1,0.3,0,0.4,0l0.1,0c0.2,0,0.4-0.1,0.7-0.2l0.7-0.2
	c0.1,0,0.2,0,0.3,0.1c0.1,0.3,0.3,0.5,0.4,0.5c0,0,0,0,0.1-0.1c0.1-0.1,0.4-0.3,0.7-0.2c0,0,0,0,0.1,0c0.2,0.2,0.3,0.4,0.4,0.6
	c0,0.1,0.1,0.3,0.2,0.4c0,0,0.1,0.1,0.1,0.1c0,0,0,0,0,0.1c0,0.3-0.2,0.4-0.3,0.4l0,0c0,0,0,0-0.1,0l-0.6,0.1c-0.2,0-0.4,0-0.5,0.1
	c0,0,0,0,0.1,0.1c0.3,0.1,0.6,0.2,1,0.3l0.2,0c0,0,0.4,0,0.4,0l0.7,0c0.1,0,0.1,0.1,0.2,0.1c0,0.1,0,0.2,0,0.3l-0.1,0.2
	c0,0,0,0.1-0.1,0.1L14,28.2c0,0-0.7,0.3-0.7,0.3l-0.9,0.4c0,0-0.1,0-0.1,0c-0.5,0.1-0.9-0.2-1.2-0.4c-0.2-0.2-0.4-0.3-0.6-0.3
	c-0.2,0-0.3,0.1-0.5,0.2c-0.1,0.1-0.1,0.1-0.1,0.2c0,0,0,0.1,0,0.1c0,0,0.1,0,0.1,0c0.1,0,0.4,0.1,0.4,0.4c0,0.4-0.2,0.7-0.3,1
	c-0.1,0.3-0.3,0.5-0.3,0.8c0,0,0,0,0,0.1c0,0.1,0,0.1,0,0.1c0,0,0,0,0,0c0,0,0.1,0,0.1,0c0,0,0.1-0.1,0.1-0.1
	c0.1-0.1,0.2-0.3,0.4-0.4c0,0,0.1,0,0.1,0c0.5,0.1,0.7,0,0.9-0.2c0,0,0.1-0.1,0.1-0.1c0.1,0,0.3,0,0.4,0.1c0.1,0.1,0.2,0.2,0.2,0.4
	c0,0,0,0.1,0,0.1c0.3,0,0.5-0.3,0.7-0.7l0.1-0.2c0-0.1,0.1-0.1,0.2-0.1l0.2-0.1c0.2-0.1,0.5-0.2,0.8,0c0.1,0,0.1,0.1,0.1,0.2
	c0,0.1,0,0.1,0,0.2c0,0.2-0.1,0.5-0.2,0.6c0,0,0,0.1-0.1,0.2c0.4-0.1,0.8-0.5,1.1-0.9l0.2-0.2c0.1-0.1,0.2-0.4,0.6-0.4
	c0,0,0.1,0,0.1,0c0.2,0,0.2,0,0.4-0.3l0.4-0.4c0-0.1,0.1,0,0.2,0H17c0.1,0,0.1,0,0.2,0c0,0,0.1,0.1,0.1,0.1c0,0,0,0.3,0,0.3s0,0,0,0
	c0,0,0.3-0.1,0.3-0.1c0,0,0.5-0.3,0.5-0.3c0.1,0,0.2,0,0.2,0l1.8,0.5c0.4,0.1,0.4,0.4,0.4,0.6c0,0.1,0,0.2,0,0.2c0,0.1,0,0.1,0,0.2
	c0,0.1,0,0.1,0,0.1c0.1,0.1,0.1,0.1,0.1,0.2c0,0,0,0.1,0,0.1c-0.1,0.2-0.3,0.4-0.7,0.4c0,0-0.9,0.1-0.9,0.1c-0.8,0-1.5,0-2,0.5
	c0,0-0.5,0.5-0.5,0.5c0,0-0.1,0.1-0.2,0.1c-0.4,0-0.6,0.2-0.9,0.4c-0.3,0.2-0.6,0.4-0.9,0.4c-0.3,0.1-0.6,0.1-0.8,0.1
	c-0.2,0-0.3,0-0.4,0c0.2,0.3,0.7,0.4,1.1,0.5c0,0,0.2,0,0.2,0c0.2,0,0.5,0,0.6,0.3c0,0,0,0.1,0,0.1c0,0.2,0.1,0.3,0.2,0.4
	c0,0,0,0,0,0c0.1-0.1,0.3-0.2,0.6,0c0,0,0.4,0.4,0.4,0.4l0.5,0.5c0.1,0.1,0.1,0.2,0,0.3c-0.2,0.4-0.6,0.3-0.9,0.3l-0.2,0
	c0,0-0.3,0-0.3,0c-0.4,0.1-0.9,0.2-1.3-0.3c0,0,0,0,0,0L14,35.5c-0.3-0.3-0.5-0.5-0.9-0.5c-0.4,0.1-0.5,0.2-0.6,0.4c0,0,0,0,0,0
	c0,0,0.1,0.1,0.1,0.1l0.2,0.2c0,0,0.1,0.1,0.1,0.2c0,0,0,0,0,0c0,0.1-0.1,0.1-0.1,0.2C12.4,36.3,12,36.6,12,37c0,0,0,0.1,0,0.1
	c0,0,0,0,0,0.1c0,0,0.1,0,0.1,0c0.1-0.1,0.3-0.1,0.6,0c0.1,0,0.1,0.1,0.1,0.2l0,0.3c0,0.3,0,0.4,0.1,0.5c0.1,0,0.1-0.1,0.1-0.1
	c0.2-0.1,0.5-0.3,0.9,0c0.1,0,0.2,0,0.4-0.1l0.3-0.2c0,0,0,0,0.1,0c0.6,0,0.9,0.6,1.1,0.9c0,0,0,0,0,0c0,0,0,0,0,0
	c0.3,0.2,0.5,0.4,0.7,0.3c0,0,0-0.1,0-0.1c0-0.1,0-0.1,0-0.2c0-0.1,0-0.2,0-0.3c0-0.2,0.1-0.5,0.4-0.6c0,0,0.6-0.1,0.6-0.1l0.4,0
	c0,0,0.1,0,0.1,0c0.6,0.1,1,0.1,1.2-0.3c0,0,0.4-0.7,0.5-0.8c0-0.1,0.1-0.5,0.1-0.5c0-0.1,0.1-0.2,0.2-0.2c0.2-0.1,0.4,0,0.6,0.1
	c0,0,0.1,0,0.1,0c-0.1-0.3-0.2-0.6-0.2-0.9c0-0.2,0-0.3,0-0.5c0.1-0.5,0.3-0.8,0.6-1.1c0.1-0.1,0.2-0.1,0.3-0.1l0.1,0
	c0.1,0,0.1,0.1,0.2,0.2l0.1,0.6c0.1,0.4,0.1,0.7,0.3,1.1c0,0.1,0,0.1,0,0.1L22,36.5l-0.2,0.7c-0.2,0.6-0.6,1.2-1.2,1.5
	c0,0,0,0.1,0,0.1c0,0,0.1,0,0.2,0c0,0,0.2,0,0.2,0c0.7-0.1,1.3-0.4,1.8-0.9c0.1-0.1,0.2-0.1,0.3-0.1c0.1,0,0.2,0,0.4-0.1
	c0.2-0.1,0.5-0.3,0.9-0.1c0.2,0.1,0.4,0.1,0.6,0.1c0.4,0,1-0.1,1.1,0.6c0,0,0,0.1,0,0.1l0,0.3c0,0.3,0.1,0.9-0.5,1.1
	c-0.1,0-0.1,0-0.1,0l-0.7-0.2c-0.5-0.3-0.8-0.3-1,0c-0.1,0.1-0.1,0.2-0.1,0.2c0.1,0.2,0.3,0.6,0,0.8c0,0,0,0,0.1-0.1l0,0.1
	c-0.2,0.3-0.3,0.5-0.2,0.7c0,0,0,0.1,0.3,0c0.3-0.1,0.6,0,0.8,0.1l0.3,0.1c0,0,0.1,0,0.1,0.1l0.1,0.1c0.2,0.2,0.4,0.3,0.6,0.3
	c0,0,0,0,0,0l0.1-0.3c0,0,0.4-0.2,0.4-0.2c0.3-0.1,0.3-0.1,0.3-0.2c0.1-0.4,0.4-0.8,0.8-1.1c0,0,0.1,0,0.2,0c0.1,0,0.4-0.1,0.6-0.2
	c0,0,0,0,0,0L28,39.6c0,0-0.1-0.1-0.1-0.2c0-0.1,0-0.1,0-0.2c0-0.3,0.2-0.6,0.3-0.8c0.1-0.2,0.2-0.3,0.2-0.5c0-0.1,0-0.1-0.1-0.2
	c0,0,0,0,0-0.1l-0.1-0.4c0-0.3-0.1-0.5-0.3-0.7c0,0-0.5-0.2-0.5-0.2L27,36.2c-0.1,0-0.1-0.1-0.1-0.2c0-0.2,0.1-0.4,0.4-0.4l0.1,0
	c0.3-0.1,0.6,0,0.8,0.1c0.2,0.1,0.3,0.1,0.4,0.1c0-0.2-0.2-0.4-0.4-0.6c-0.3-0.2-0.7-0.3-1-0.4c-0.6-0.1-1.2-0.3-1.6-0.8
	c0,0,0-0.1,0-0.2c0-0.1,0-0.1,0.1-0.2l0.1-0.1c0.1-0.1,0.2-0.1,0.2-0.1c0.7,0.2,1.4,0,1.9-0.4c0.3-0.4,0.6-0.8,1.2-1
	c0.4-0.3,0.5-0.8,0.5-1.5c0-0.3,0.2-0.6,0.4-0.9c0,0,0.5-0.3,0.5-0.3c0.2-0.1,0.2-0.1,0.3-0.1c-0.3-0.2-0.6-0.3-1-0.3
	c-0.1,0-0.1,0-0.2,0c-0.2-0.1-0.2-0.2-0.2-0.3c0,0,0,0,0,0c0-0.2,0.1-0.3,0.2-0.4l0,0c0,0,0-0.1,0.1-0.1l0.6-0.3
	c0.7-0.4,1.2-0.7,1.2-1.3c0,0,0,0,0,0c0,0,0,0,0-0.1c-0.1,0-0.2,0.1-0.3,0.2l-0.4,0.3c-0.4,0.2-0.8,0.3-1.2,0.4
	c-0.4,0.1-0.8,0.2-1.1,0.4c0,0-0.1,0-0.1,0c-0.1,0-0.3-0.1-0.3-0.2c0,0,0-0.1,0-0.2c0-0.1,0.1-0.2,0.1-0.3c0.1-0.2,0.3-0.3,0.5-0.4
	c0.2-0.1,0.3-0.2,0.4-0.4l0.1-0.2c0.1-0.3,0.2-0.7,0.6-0.9c0.1,0,0.4-0.2,0.4-0.2c0.1,0,0.1-0.1,0.1-0.1c0,0,0,0-0.1,0
	c-0.6-0.2-1.2,0.3-1.5,0.6c0,0-0.1,0-0.1,0.1l-0.2,0.1c-0.4,0.2-0.8,0.3-1.1,0.6c0,0-0.1,0.1-0.1,0.1c-0.1,0-0.3,0-0.4-0.1
	c-0.1-0.1-0.2-0.2-0.2-0.3c-0.1-1,0.7-1.7,1.3-2.3l0.2-0.1c0,0,0.1-0.1,0.1-0.1l0.4-0.2c0.3-0.2,0.7-0.4,1.1-0.2
	c0.4,0.2,0.7,0.3,1,0.2c0.2-0.1,0.3-0.3,0.5-0.5c0.1-0.2,0.3-0.4,0.6-0.6c0.3-0.1,0.5,0,0.7,0c0.1,0,0.2,0.1,0.3,0.1
	c0,0,0-0.1,0-0.1c0,0,0-0.1,0-0.1c0-0.2-0.1-0.3-0.3-0.6l-0.2-0.3c0,0,0-0.1,0-0.1c0,0,0-0.1,0-0.1c0.1-0.2,0.1-0.4,0.1-0.6
	c0-0.5-0.2-0.9-0.6-1.2c-0.1-0.1-0.3-0.2-0.6-0.2c0,0,0.1,0.1,0.1,0.1l0.2,0.5c0,0.1,0,0.1,0,0.2c0,1.1-0.9,1.6-1.7,1.9L29,22.2
	c-1.5,0.8-3.5,2-3.7,4c0,1,0.5,2,1.2,2.8c0,0,0,0,0,0.1l0.3,0.4c0.3,0.5,0.7,1,0.7,1.6c0,0.2,0,0.3-0.1,0.5c-0.3,0.6-1,0.6-1.2,0.6
	c-1.5-0.1-2.3-1.6-2.9-2.7l-0.1-0.2c0,0-0.1-0.3-0.1-0.3c-0.2-0.4-0.3-0.7-0.4-1.2c0-0.1,0-0.2,0.1-0.2c0.1-0.1,0.3-0.2,0.5,0
	c0,0,0.3,0.5,0.3,0.5c0,0.1,0.1,0.1,0.1,0.2c0-0.1,0.1-0.1,0.1-0.2c0-0.3-0.1-0.6-0.2-0.8l0-0.1c-0.1-0.1-0.2-0.3-0.4-0.4
	c-0.2-0.2-0.5-0.4-0.6-0.7c0,0,0-0.1,0-0.1c0,0,0,0,0,0c0-0.4,0.3-0.4,0.4-0.5c0,0,0,0,0.1,0c-0.1-0.4-0.2-0.8-0.2-1.2
	c0-0.2,0-0.4,0-0.6c0,0,0,0,0,0c0,0,0,0,0,0c0,0,0,0,0,0l0.3-0.4c0.1-0.1,0.1-0.1,0.1-0.1c-0.1-0.4-0.1-0.9-0.1-1.3
	c0-0.2,0-0.4,0-0.5c0,0,0.1-0.4,0.1-0.4c0.1-0.2,0.1-0.3,0.1-0.4c0,0,0-0.1,0-0.1c-0.2-0.1-0.3-0.4-0.3-0.5c0,0,0-0.1,0-0.1
	c0,0,0,0,0,0c0,0,0,0,0.1,0c-0.6,0-1.1-0.2-1.6-0.5L21,18.8c-0.1,0-0.3,0-0.4,0.1L20.3,19c0,0-0.3,0.1-0.3,0.1
	c-0.3,0.1-0.6,0.1-0.8,0.3c-0.1,0.1-0.1,0.3-0.1,0.5l0,0.2c0,0,0,0.1,0,0.1c-0.1,0.2-0.2,0.2-0.2,0.3c-0.2,0.1-0.3,0-0.4-0.1l0,0
	c-0.5-0.3-0.7-0.7-0.5-1.2c0-0.1,0-0.2-0.1-0.2c-0.1-0.1-0.3-0.1-0.5-0.1c-0.1,0.1-0.2,0.2-0.3,0.5c0,0,0,0.1-0.1,0.1c0,0,0,0,0,0.1
	c0,0.2,0,0.3,0.1,0.4c0.2,0.2,0.5,0.4,0.8,0.6l0.8,0.5c0.1,0,0.1,0.1,0.1,0.1c0,0.1,0,0.2,0,0.2c0,0.3-0.1,0.5-0.3,0.7c0,0,0,0,0,0
	c0.1,0.1,0.3,0.2,0.3,0.4c0,0,0,0.1,0,0.1c0,0.1-0.1,0.2-0.2,0.2c-0.5,0.1-0.9,0-1.3-0.3c0,0-0.2-0.3-0.2-0.3
	c-0.1-0.1-0.1-0.2-0.2-0.2c0,0-0.1,0.1-0.1,0.2l-0.1,0.2c0,0,0,0.2,0,0.2c0,0.2,0,0.4-0.2,0.6c-0.1,0-0.1,0.1-0.2,0.1l-0.2,0
	c-1-0.3-1.9-0.8-2.8-1.5c-0.4-0.3-0.7-0.8-1-1.2l-0.2-0.3c0,0,0,0,0-0.1l-0.1-0.3c-0.2-0.6-0.3-1-0.7-1.1
	C11,18.8,10.9,18.8,10.9,18.8L10.9,18.8z M11.5,22.3L11.5,22.3C11.5,22.3,11.5,22.3,11.5,22.3L11.5,22.3L11.5,22.3z M9.6,21.9
	c0,0,0.1,0,0.1,0C9.7,21.9,9.6,21.9,9.6,21.9L9.6,21.9z M18.3,22.2C18.4,22.1,18.4,22.1,18.3,22.2L18.3,22.2
	C18.4,22.1,18.4,22.2,18.3,22.2L18.3,22.2z M23,25.4C23,25.4,23.1,25.4,23,25.4C23.1,25.5,23.1,25.4,23,25.4
	C23.1,25.4,23,25.4,23,25.4L23,25.4z M17.3,29.5C17.3,29.5,17.3,29.4,17.3,29.5C17.3,29.4,17.3,29.4,17.3,29.5L17.3,29.5L17.3,29.5z
	 M17.3,29.5C17.3,29.5,17.3,29.5,17.3,29.5C17.3,29.5,17.3,29.5,17.3,29.5C17.3,29.5,17.3,29.5,17.3,29.5L17.3,29.5z M12.1,31
	C12.1,31,12.1,31,12.1,31C12.1,31,12.1,31,12.1,31L12.1,31z M20.8,36.2C20.8,36.2,20.8,36.2,20.8,36.2
	C20.8,36.2,20.8,36.2,20.8,36.2C20.8,36.2,20.8,36.2,20.8,36.2L20.8,36.2z M21.1,38.7C21.1,38.7,21.1,38.7,21.1,38.7
	C21.1,38.7,21.1,38.7,21.1,38.7L21.1,38.7z"/>
<path class="st3" d="M3.3,18.8c0-4.2,0-8.9,0-14.4h36.1c0,0,0,2.2,0,14.5c0,18.3-18.2,29-18.2,29S3.3,36.6,3.3,18.8L3.3,18.8z"/>
<path class="st4" d="M28.5,39.8L28.5,39.8C28.5,39.8,28.5,39.8,28.5,39.8L28.5,39.8L28.5,39.8L28.5,39.8L28.5,39.8L28.5,39.8
	L28.5,39.8L28.5,39.8L28.5,39.8L28.5,39.8L28.5,39.8L28.5,39.8c-0.1-0.1-0.2-0.3-0.3-0.4c-0.1-0.6,0.9-1.1,0.4-1.7
	c-0.1-0.4,0-0.9-0.4-1.2c-0.3-0.2-0.7-0.3-1-0.5c0-0.2,0.2-0.1,0.3-0.2c0.5-0.1,1,0.5,1.4,0c0-0.4-0.3-0.7-0.5-0.9
	c-0.8-0.5-2-0.3-2.6-1.2l0.1-0.1c0.8,0.2,1.6,0,2.2-0.5c0.3-0.4,0.7-0.9,1.2-1c0.5-0.4,0.6-1.1,0.6-1.7c0-0.3,0.1-0.5,0.3-0.7
	c0.3-0.3,1-0.2,0.9-0.7c-0.4-0.2-0.8-0.4-1.3-0.4c-0.2-0.1,0-0.3,0.1-0.4c0.8-0.5,1.9-0.8,1.9-1.9c-0.1-0.1,0-0.3-0.2-0.3
	c-0.3,0-0.5,0.4-0.8,0.5C29.9,27,29,27,28.3,27.4c-0.1,0-0.1-0.2,0-0.2c0.3-0.4,0.8-0.4,1-0.8c0.1-0.4,0.2-0.8,0.6-1
	c0.2-0.2,0.6-0.2,0.8-0.5c0-0.2-0.2-0.3-0.4-0.3c-0.7-0.2-1.3,0.2-1.8,0.7c-0.5,0.2-1.1,0.4-1.4,0.8c-0.1,0-0.2,0-0.2-0.1
	c-0.1-0.9,0.8-1.6,1.4-2.2c0.4-0.1,0.8-0.7,1.3-0.4c0.4,0.2,0.7,0.4,1.2,0.2c0.5-0.2,0.6-0.8,1.1-1.1c0.4-0.1,0.9,0.4,1.1-0.1
	c0.1-0.5-0.3-0.8-0.5-1.2c0.3-0.7,0.1-1.6-0.5-2.1c-0.3-0.2-0.6-0.3-1-0.2c-0.3,0.3,0.2,0.5,0.3,0.9c0.1,1.3-1.3,1.7-2.2,2.2
	c-1.7,0.8-3.7,2.1-3.8,4.2c0,1.2,0.5,2.2,1.3,3c0.4,0.7,1.1,1.4,0.9,2.3c-0.2,0.4-0.6,0.4-1,0.4c-1.4-0.1-2.2-1.7-2.8-2.8
	c-0.2-0.4-0.4-0.8-0.5-1.3c0.1-0.1,0.1,0,0.2,0c0.3,0.2,0.2,0.8,0.7,0.7c0.4-0.5,0.1-1.1-0.1-1.6c-0.3-0.4-0.8-0.7-1-1.2
	c0-0.4,0.5-0.1,0.5-0.5c-0.2-0.6-0.2-1.3-0.1-1.8c0.1-0.3,0.5-0.2,0.5-0.6c-0.2-0.6-0.2-1.2-0.1-1.8c0.1-0.4,0.4-0.8,0.2-1.2
	c-0.4-0.1-0.1-0.6-0.5-0.8c-0.8,0-1.4-0.4-2.1-0.7c-0.4-0.1-0.6,0.1-0.9,0.2c-0.4,0.1-0.9,0.1-1.2,0.4c-0.2,0.3-0.2,0.5-0.2,0.9
	c-0.1,0.2-0.3,0-0.4,0c-0.3-0.2-0.4-0.5-0.4-0.9c0-0.2,0-0.3-0.2-0.5c-0.2-0.1-0.5-0.2-0.8-0.1c-0.3,0.1-0.4,0.5-0.6,0.8
	c0,0.2,0,0.5,0.1,0.7c0.5,0.5,1.1,0.7,1.7,1.1c0.1,0.3-0.1,0.6-0.3,0.8c0,0.3,0.4,0.3,0.3,0.5c-0.4,0.1-0.8,0-1-0.2
	c-0.2-0.2-0.2-0.5-0.5-0.6c-0.3,0-0.3,0.4-0.4,0.6c-0.1,0.2,0,0.6-0.2,0.7L16,23c-1-0.3-1.8-0.9-2.7-1.5c-0.5-0.4-0.9-0.9-1.2-1.4
	c-0.2-0.6-0.3-1.4-1-1.6c-0.2,0-0.4,0-0.4,0.2l0,0.2c-0.4,0-0.8-0.3-1.2-0.1C9.2,19,9,19.1,8.9,19.3c0,0.4,0.5,0.3,0.6,0.6
	c0,0.3,0.2,0.6,0.4,0.8c-0.1,0.2-0.3,0.3-0.4,0.4l-0.2,0.6c0.1,0.2,0.2,0.4,0.4,0.4c0.3-0.1,0.6,0.1,1,0c0.2,0,0.6-0.2,0.6,0.2
	c0.1,0.3,0,0.5,0,0.8c-0.3,0.4-0.7,0.8-1.2,1c-0.1,0.1-0.1,0.3-0.1,0.4c0.2,0.2,0.5,0.1,0.8,0.1c0.5,0,0.9-0.3,1.3-0.4
	c0.1,0.2,0.3,0.5,0.5,0.6c0.4,0.1,0.5-0.4,0.9-0.3c0.3,0.2,0.2,0.7,0.5,1c0,0.2-0.1,0.2-0.2,0.2c-0.4,0.1-1,0-1.3,0.3
	c0,0.2,0.1,0.4,0.3,0.4c0.4,0.2,0.8,0.2,1.2,0.3c0.4,0,0.8-0.1,1.1,0L15,27.2L13.9,28c-0.5,0.2-1.1,0.3-1.6,0.6
	c-0.7,0.2-1-0.7-1.7-0.7c-0.3,0-0.5,0.1-0.7,0.3c-0.2,0.2-0.2,0.4-0.1,0.6c0.1,0.2,0.4,0.1,0.4,0.4c0,0.7-0.6,1.1-0.6,1.8
	c0,0.2,0,0.4,0.2,0.4c0.1,0.1,0.3,0,0.4-0.1c0.1-0.1,0.1-0.4,0.4-0.4c0.4,0,0.8,0,1.1-0.3c0.1,0,0.3,0.1,0.3,0.2
	c0,0.2,0,0.4,0.2,0.4c0.6,0,0.9-0.6,1.1-1c0.3,0,0.5-0.2,0.8-0.1c0.1,0.4-0.2,0.7-0.3,1.1c0,0.1,0.1,0.2,0.3,0.2
	c0.7-0.1,1.1-0.8,1.5-1.3c0.1-0.1,0.1-0.3,0.4-0.3c0.5,0.2,0.7-0.5,1-0.7H17c0,0.2-0.1,0.3,0,0.5c0.2,0.3,0.5,0,0.7-0.1l0.5-0.3
	c0.6,0.2,1.2,0.3,1.8,0.5c0.5,0.2,0,0.7,0.3,1c-0.1,0.2-0.3,0.2-0.5,0.2c-1,0.1-2.2-0.1-3.1,0.6l-0.5,0.5c-0.8,0-1.2,0.7-1.9,0.8
	c-0.5,0.3-1.2-0.1-1.5,0.4c0.2,0.5,0.8,0.7,1.3,0.8c0.2,0.1,0.6,0,0.7,0.2c0,0.2,0.1,0.5,0.4,0.6c0.2,0.1,0.3-0.2,0.5-0.1
	c0.3,0.4,0.6,0.5,0.9,0.9c-0.2,0.3-0.6,0.1-0.9,0.1l0,0c-0.4,0-1,0.3-1.3-0.1c-0.4-0.3-0.8-0.8-1.4-0.8c-0.4,0.1-0.7,0.2-0.8,0.6
	c0,0.2,0.2,0.3,0.3,0.5c-0.4,0.3-0.9,0.7-0.7,1.3c0,0.1,0.1,0.3,0.3,0.3c0.2,0,0.4-0.2,0.6-0.1c0,0.4,0,0.9,0.4,1.1
	c0.3,0,0.6-0.4,0.9-0.1c0.4,0.2,0.6-0.2,0.9-0.3c0.5,0,0.7,0.5,0.9,0.8c0.3,0.2,0.7,0.6,1.2,0.4c0.3-0.4-0.3-0.9,0.3-1.2
	c0.3-0.1,0.6,0,0.9,0c0.5,0,1.2,0.1,1.4-0.5l0.5-0.8l0.1-0.5c0.3-0.1,0.8,0.4,0.9-0.1c-0.2-0.5-0.2-0.9-0.1-1.5
	c0.1-0.4,0.3-0.7,0.5-0.9l0.1,0c0.1,0.6,0.2,1.2,0.4,1.7c0,0.5-0.3,1-0.4,1.6c-0.1,0.6-0.5,1-1.1,1.3c-0.1,0.1-0.2,0.3-0.1,0.4
	c0.1,0.3,0.5,0.1,0.8,0.2c0.7-0.1,1.4-0.4,1.9-1c0.5,0.1,0.8-0.5,1.3-0.2c0.5,0.4,1.4-0.3,1.6,0.5c-0.1,0.4,0.3,1.1-0.3,1.2
	c-0.6-0.1-1.3-0.9-1.9-0.2c-0.1,0.1-0.2,0.3-0.1,0.5c0.1,0.2,0.2,0.4,0,0.5c-0.2,0.3-0.4,0.6-0.3,1c0.1,0.2,0.4,0.2,0.6,0.2
	c0.4-0.1,0.7,0.2,1,0.2c0.3,0.2,0.6,0.5,1,0.5c0.2-0.1,0.1-0.3,0.3-0.4c0.3-0.2,0.8-0.2,0.8-0.6c0.1-0.4,0.4-0.7,0.7-0.9
	C27.6,40.3,28.3,40.1,28.5,39.8L28.5,39.8L28.5,39.8z"/>
<path class="st5" d="M28.5,39.8L28.5,39.8C28.5,39.8,28.5,39.8,28.5,39.8L28.5,39.8L28.5,39.8L28.5,39.8L28.5,39.8L28.5,39.8
	L28.5,39.8L28.5,39.8L28.5,39.8L28.5,39.8L28.5,39.8L28.5,39.8c-0.1-0.1-0.2-0.3-0.3-0.4c-0.1-0.6,0.9-1.1,0.4-1.7
	c-0.1-0.4,0-0.9-0.4-1.2c-0.3-0.2-0.7-0.3-1-0.5c0-0.2,0.2-0.1,0.3-0.2c0.5-0.1,1,0.5,1.4,0c0-0.4-0.3-0.7-0.5-0.9
	c-0.8-0.5-2-0.3-2.6-1.2l0.1-0.1c0.8,0.2,1.6,0,2.2-0.5c0.3-0.4,0.7-0.9,1.2-1c0.5-0.4,0.6-1.1,0.6-1.7c0-0.3,0.1-0.5,0.3-0.7
	c0.3-0.3,1-0.2,0.9-0.7c-0.4-0.2-0.8-0.4-1.3-0.4c-0.2-0.1,0-0.3,0.1-0.4c0.8-0.5,1.9-0.8,1.9-1.9c-0.1-0.1,0-0.3-0.2-0.3
	c-0.3,0-0.5,0.4-0.8,0.5C29.9,27,29,27,28.3,27.4c-0.1,0-0.1-0.2,0-0.2c0.3-0.4,0.8-0.4,1-0.8c0.1-0.4,0.2-0.8,0.6-1
	c0.2-0.2,0.6-0.2,0.8-0.5c0-0.2-0.2-0.3-0.4-0.3c-0.7-0.2-1.3,0.2-1.8,0.7c-0.5,0.2-1.1,0.4-1.4,0.8c-0.1,0-0.2,0-0.2-0.1
	c-0.1-0.9,0.8-1.6,1.4-2.2c0.4-0.1,0.8-0.7,1.3-0.4c0.4,0.2,0.7,0.4,1.2,0.2c0.5-0.2,0.6-0.8,1.1-1.1c0.4-0.1,0.9,0.4,1.1-0.1
	c0.1-0.5-0.3-0.8-0.5-1.2c0.3-0.7,0.1-1.6-0.5-2.1c-0.3-0.2-0.6-0.3-1-0.2c-0.3,0.3,0.2,0.5,0.3,0.9c0.1,1.3-1.3,1.7-2.2,2.2
	c-1.7,0.8-3.7,2.1-3.8,4.2c0,1.2,0.5,2.2,1.3,3c0.4,0.7,1.1,1.4,0.9,2.3c-0.2,0.4-0.6,0.4-1,0.4c-1.4-0.1-2.2-1.7-2.8-2.8
	c-0.2-0.4-0.4-0.8-0.5-1.3c0.1-0.1,0.1,0,0.2,0c0.3,0.2,0.2,0.8,0.7,0.7c0.4-0.5,0.1-1.1-0.1-1.6c-0.3-0.4-0.8-0.7-1-1.2
	c0-0.4,0.5-0.1,0.5-0.5c-0.2-0.6-0.2-1.3-0.1-1.8c0.1-0.3,0.5-0.2,0.5-0.6c-0.2-0.6-0.2-1.2-0.1-1.8c0.1-0.4,0.4-0.8,0.2-1.2
	c-0.4-0.1-0.1-0.6-0.5-0.8c-0.8,0-1.4-0.4-2.1-0.7c-0.4-0.1-0.6,0.1-0.9,0.2c-0.4,0.1-0.9,0.1-1.2,0.4c-0.2,0.3-0.2,0.5-0.2,0.9
	c-0.1,0.2-0.3,0-0.4,0c-0.3-0.2-0.4-0.5-0.4-0.9c0-0.2,0-0.3-0.2-0.5c-0.2-0.1-0.5-0.2-0.8-0.1c-0.3,0.1-0.4,0.5-0.6,0.8
	c0,0.2,0,0.5,0.1,0.7c0.5,0.5,1.1,0.7,1.7,1.1c0.1,0.3-0.1,0.6-0.3,0.8c0,0.3,0.4,0.3,0.3,0.5c-0.4,0.1-0.8,0-1-0.2
	c-0.2-0.2-0.2-0.5-0.5-0.6c-0.3,0-0.3,0.4-0.4,0.6c-0.1,0.2,0,0.6-0.2,0.7L16,23c-1-0.3-1.8-0.9-2.7-1.5c-0.5-0.4-0.9-0.9-1.2-1.4
	c-0.2-0.6-0.3-1.4-1-1.6c-0.2,0-0.4,0-0.4,0.2l0,0.2c-0.4,0-0.8-0.3-1.2-0.1C9.2,19,9,19.1,8.9,19.3c0,0.4,0.5,0.3,0.6,0.6
	c0,0.3,0.2,0.6,0.4,0.8c-0.1,0.2-0.3,0.3-0.4,0.4l-0.2,0.6c0.1,0.2,0.2,0.4,0.4,0.4c0.3-0.1,0.6,0.1,1,0c0.2,0,0.6-0.2,0.6,0.2
	c0.1,0.3,0,0.5,0,0.8c-0.3,0.4-0.7,0.8-1.2,1c-0.1,0.1-0.1,0.3-0.1,0.4c0.2,0.2,0.5,0.1,0.8,0.1c0.5,0,0.9-0.3,1.3-0.4
	c0.1,0.2,0.3,0.5,0.5,0.6c0.4,0.1,0.5-0.4,0.9-0.3c0.3,0.2,0.2,0.7,0.5,1c0,0.2-0.1,0.2-0.2,0.2c-0.4,0.1-1,0-1.3,0.3
	c0,0.2,0.1,0.4,0.3,0.4c0.4,0.2,0.8,0.2,1.2,0.3c0.4,0,0.8-0.1,1.1,0L15,27.2L13.9,28c-0.5,0.2-1.1,0.3-1.6,0.6
	c-0.7,0.2-1-0.7-1.7-0.7c-0.3,0-0.5,0.1-0.7,0.3c-0.2,0.2-0.2,0.4-0.1,0.6c0.1,0.2,0.4,0.1,0.4,0.4c0,0.7-0.6,1.1-0.6,1.8
	c0,0.2,0,0.4,0.2,0.4c0.1,0.1,0.3,0,0.4-0.1c0.1-0.1,0.1-0.4,0.4-0.4c0.4,0,0.8,0,1.1-0.3c0.1,0,0.3,0.1,0.3,0.2
	c0,0.2,0,0.4,0.2,0.4c0.6,0,0.9-0.6,1.1-1c0.3,0,0.5-0.2,0.8-0.1c0.1,0.4-0.2,0.7-0.3,1.1c0,0.1,0.1,0.2,0.3,0.2
	c0.7-0.1,1.1-0.8,1.5-1.3c0.1-0.1,0.1-0.3,0.4-0.3c0.5,0.2,0.7-0.5,1-0.7H17c0,0.2-0.1,0.3,0,0.5c0.2,0.3,0.5,0,0.7-0.1l0.5-0.3
	c0.6,0.2,1.2,0.3,1.8,0.5c0.5,0.2,0,0.7,0.3,1c-0.1,0.2-0.3,0.2-0.5,0.2c-1,0.1-2.2-0.1-3.1,0.6l-0.5,0.5c-0.8,0-1.2,0.7-1.9,0.8
	c-0.5,0.3-1.2-0.1-1.5,0.4c0.2,0.5,0.8,0.7,1.3,0.8c0.2,0.1,0.6,0,0.7,0.2c0,0.2,0.1,0.5,0.4,0.6c0.2,0.1,0.3-0.2,0.5-0.1
	c0.3,0.4,0.6,0.5,0.9,0.9c-0.2,0.3-0.6,0.1-0.9,0.1l0,0c-0.4,0-1,0.3-1.3-0.1c-0.4-0.3-0.8-0.8-1.4-0.8c-0.4,0.1-0.7,0.2-0.8,0.6
	c0,0.2,0.2,0.3,0.3,0.5c-0.4,0.3-0.9,0.7-0.7,1.3c0,0.1,0.1,0.3,0.3,0.3c0.2,0,0.4-0.2,0.6-0.1c0,0.4,0,0.9,0.4,1.1
	c0.3,0,0.6-0.4,0.9-0.1c0.4,0.2,0.6-0.2,0.9-0.3c0.5,0,0.7,0.5,0.9,0.8c0.3,0.2,0.7,0.6,1.2,0.4c0.3-0.4-0.3-0.9,0.3-1.2
	c0.3-0.1,0.6,0,0.9,0c0.5,0,1.2,0.1,1.4-0.5l0.5-0.8l0.1-0.5c0.3-0.1,0.8,0.4,0.9-0.1c-0.2-0.5-0.2-0.9-0.1-1.5
	c0.1-0.4,0.3-0.7,0.5-0.9l0.1,0c0.1,0.6,0.2,1.2,0.4,1.7c0,0.5-0.3,1-0.4,1.6c-0.1,0.6-0.5,1-1.1,1.3c-0.1,0.1-0.2,0.3-0.1,0.4
	c0.1,0.3,0.5,0.1,0.8,0.2c0.7-0.1,1.4-0.4,1.9-1c0.5,0.1,0.8-0.5,1.3-0.2c0.5,0.4,1.4-0.3,1.6,0.5c-0.1,0.4,0.3,1.1-0.3,1.2
	c-0.6-0.1-1.3-0.9-1.9-0.2c-0.1,0.1-0.2,0.3-0.1,0.5c0.1,0.2,0.2,0.4,0,0.5c-0.2,0.3-0.4,0.6-0.3,1c0.1,0.2,0.4,0.2,0.6,0.2
	c0.4-0.1,0.7,0.2,1,0.2c0.3,0.2,0.6,0.5,1,0.5c0.2-0.1,0.1-0.3,0.3-0.4c0.3-0.2,0.8-0.2,0.8-0.6c0.1-0.4,0.4-0.7,0.7-0.9
	C27.6,40.3,28.3,40.1,28.5,39.8L28.5,39.8L28.5,39.8z"/>
<path class="st2" d="M17.7,19.1c-0.1,0.3,0,0.6,0.1,0.9c0.5,0.5,1.3,0.7,1.6,1.3l-0.2,0c-0.6-0.4-1.1-0.8-1.7-1.1
	c-0.2-0.2-0.4-0.4-0.4-0.7c0-0.2,0.1-0.4,0.4-0.5C17.6,18.9,17.7,19,17.7,19.1L17.7,19.1L17.7,19.1z"/>
<path class="st2" d="M22.8,19.7c0.1,0.1,0,0.4,0.3,0.5c0.1,0,0.1,0.1,0.1,0.1c0,0.2-0.1,0.5-0.1,0.7c-0.1,0.2-0.3,0.3-0.3,0.5
	c0,0.1,0.2,0.2,0.2,0.4l0,0.9c-0.6,0.2-0.3,0.9-0.4,1.3c-0.1,0.3,0,0.6,0,0.9c-0.1,0.1-0.4,0-0.5,0.3c0,0.4,0.2,0.6,0.3,0.9
	c0.2,0.3,0.7,0.4,0.7,0.8c-0.3,0-0.6-0.2-0.9-0.3c-0.4-0.2-0.8-0.7-1-1.1c-0.1-0.1-0.2-0.1-0.2,0c0,0.3-0.1,0.7-0.3,0.9
	c-0.3-0.2-0.3-0.9-0.8-0.7c-0.2,1-0.9,1.8-1.4,2.7c-0.1,0-0.2,0.3-0.4,0.2c0.3-0.8,0.5-1.7,0.2-2.6c-0.1-0.2-0.2-0.1-0.4,0
	c-0.1,0.1-0.2,0.3-0.4,0.3c-0.2-0.3,0.2-0.7-0.2-0.8c-0.3,0.1-0.5,0.4-0.8,0.5c-0.7,0.4-1.6,0.6-2.4,0.6c-0.2,0-0.3,0-0.4-0.1
	c0.2-0.2,0.5-0.3,0.8-0.4c1-0.6,1.7-1.7,2.5-2.5c-0.1-0.4-0.4-0.8,0-1.1c0.3,0,0.4,0.3,0.6,0.4c0.4,0.2,0.8,0.3,1.2,0.1
	c0.3-0.1,0.6-0.4,0.6-0.7c0-0.1-0.1-0.2-0.2-0.3c-0.1,0-0.2,0-0.3-0.1c0-0.2,0.1-0.3,0.3-0.3c0.4,0,0.8,0.9,1.1,0.2
	c0.2-0.6-0.4-1-0.8-1.3c-0.1-0.1-0.2-0.2-0.1-0.4c0.3-0.2-0.1-0.4,0.2-0.7c0.4-0.3,1-0.1,1.4-0.4C21.6,19,22.1,19.5,22.8,19.7
	L22.8,19.7L22.8,19.7z"/>
<path class="st2" d="M11.5,19.5c0,0.1,0,0.2,0,0.3c-0.1,0.1-0.2,0-0.3,0c-0.1-0.1-0.2-0.3-0.2-0.4C11.1,18.8,11.5,19.3,11.5,19.5
	L11.5,19.5L11.5,19.5z"/>
<path class="st2" d="M11.2,20.2c0.6,0.3,1.1,0.9,1.6,1.5c1,0.8,2.1,1.6,3.3,1.9c0,0.2-0.1,0.4-0.2,0.5c-0.4,0.4-0.7,0.9-1.2,1.3
	c-0.1,0-0.2,0-0.3,0C14,25,14,24.1,13.3,24.1c-0.2,0-0.4,0.3-0.7,0.1c-0.2-0.2,0.1-0.6-0.3-0.7c-0.4,0.2-0.7,0.6-1.2,0.5
	c0.3-0.5,0.9-1.1,0.6-1.8c-0.1-0.3-0.3-0.6-0.5-0.8c-0.3,0-0.4,0.3-0.7,0.2c-0.1-0.3-0.6-0.1-0.4-0.5c0.2-0.3,0.9-0.3,0.6-0.8
	c-0.2-0.3-0.6-0.1-0.7-0.5c0-0.2-0.1-0.5,0-0.6C10.5,19.3,10.9,19.8,11.2,20.2L11.2,20.2L11.2,20.2z"/>
<path class="st2" d="M31.9,20.5c0.1,0.4-0.3,0.6-0.2,1c0.1,0.2,0.4,0.2,0.4,0.4c-0.9,0-1.1,1.2-2,1.2c-0.4-0.1-0.7-0.5-1.1-0.3
	c-1.2,0.5-2.4,1.3-2.7,2.7c-0.1,0.5-0.1,1.1,0.3,1.5c0.1,0,0.2,0,0.3,0c0.2-0.4,0.4-1,1-1.1c0.3-0.1,0.7-0.2,1-0.4c0,0,0.1,0,0.1,0
	c-0.1,0.4-0.3,0.9-0.8,1c-0.3,0.3-0.6,0.6-0.7,1c0,0.2,0,0.5,0.1,0.7c0.2,0.1,0.4,0,0.5-0.1c0.6-0.8,1.5-0.9,2.5-0.9
	c0,0.1-0.1,0.2-0.2,0.2c-0.8,0.3-1.5,0.9-1.8,1.7c0,0.1,0.1,0.2,0.2,0.3c0.4,0,0.7-0.3,1.1-0.2c0.1,0.3-0.3,0.3-0.4,0.5
	c-0.7,0.6,0,2.1-1.2,2.3C28,32,28,32.5,27.8,32.7c-0.4,0.5-1.1,0.7-1.7,0.6c-0.5,0-0.9-0.6-1.3-0.2c0,0.5,0.4,0.7,0.7,1.1
	c0.6,0.6,1.4,0.6,2.2,0.9c0.1,0,0.2,0.1,0.2,0.2c0,0.2-0.2,0.1-0.4,0.1c-0.5,0.1-1,0.1-1.5,0c-0.1,0-0.1,0.1-0.2,0.1
	c0.1,0.5,0.7,0.7,1,1c0.4,0.2,0.8,0.1,1,0.5v0.5c0.2,0.3,0.3,0.6,0.2,0.9c-0.3,0.4-0.6,0.9-0.3,1.4c-0.1,0.1-0.4,0-0.5,0.1
	c-0.2,0.4-0.6,0.4-0.7,0.8c0,0.3-0.2,0.5-0.5,0.6c-0.2,0-0.4,0.1-0.6,0c-0.1-0.2,0.1-0.4-0.2-0.5c-0.3-0.1-0.4,0.4-0.8,0.3
	c-0.2-0.1-0.3-0.2-0.4-0.3c0-0.2,0.2-0.3,0.3-0.4c0.8-0.1,1.8-0.2,2.1-1.1c0-0.4-0.1-0.7-0.1-1.1c-0.1-0.5-0.6-0.7-1-0.8
	c-0.4-0.1-0.9,0-1.2-0.3C24,37,23.9,36.9,23.7,37c-0.1,0-0.2,0.2-0.3,0.1C23.3,37,23.1,36.8,23,37c-0.3,0.6-0.7,1.2-1.4,1.3
	c-0.1-0.2,0.1-0.4,0.2-0.5c0.2-0.4,0.4-0.9,0.5-1.4c0.2-0.3,0.4-0.6,0.3-0.9c-0.3-0.8-0.6-1.7-0.4-2.6c0.2-1.1-0.1-2.1-0.9-2.8
	c-0.4-0.3-0.8-0.7-1.4-0.8c-0.4-0.1-0.9,0-1.1-0.3c0-0.4,0.5-0.6,0.6-0.9l0.6-0.9c0.3,0,0.2,0.3,0.4,0.3c0.5,0,0.5-0.8,1-0.6
	c0.2,0.3,0.6,0.4,0.9,0.7c0.3,1.3,0.8,2.6,1.7,3.7c0.7,0.9,1.8,1.6,2.9,1.3c0.3-0.3,0.7-0.5,0.8-1c0.3-2.2-2.4-3.2-2.2-5.3
	c0.2-2,2.2-3.1,3.9-3.9c0.9-0.5,2-1.1,2.1-2.3c0-0.1,0-0.2,0-0.3C31.9,19.8,31.9,20.2,31.9,20.5L31.9,20.5L31.9,20.5z"/>
<path class="st2" d="M17.3,26.8c0.3,0,0.6-0.3,0.7,0.1c0,0.5-0.1,1.1-0.3,1.5c-0.2,0.2-0.6,0-0.8,0.2c-0.4,0.1-0.4,1-0.9,0.4
	c-0.2-0.1-0.3,0.1-0.4,0.2c-0.2,0.4-0.4,0.9-0.7,1.3c-0.1,0-0.2,0.1-0.3,0c0-0.3,0.2-0.8-0.3-0.9c-0.2,0-0.4,0.1-0.5,0.2
	c-0.4,0-0.8,0-1,0.3c0,0.2-0.1,0.4-0.3,0.4c-0.2-0.1-0.5-0.2-0.6-0.4c-0.1-0.1-0.2-0.2-0.4,0c-0.2,0.2-0.3,0.5-0.6,0.5
	c-0.2,0-0.4-0.1-0.6-0.2c0-0.5,0.7-0.6,1-0.8c0.8-0.2,1.3-0.6,2.1-0.8c1.2-0.4,2.1-1.3,3-2.2c0.1,0,0.3-0.1,0.4-0.1
	C17,26.5,17,26.8,17.3,26.8L17.3,26.8L17.3,26.8z"/>
<path class="st2" d="M11.5,29c-0.2,0.1-0.5,0.2-0.8,0.1c-0.1-0.1-0.1-0.4-0.1-0.6c0.1-0.2,0.3-0.1,0.4,0
	C11.2,28.6,11.5,28.7,11.5,29L11.5,29L11.5,29z"/>
<path class="st2" d="M21.6,32.1c0,0.4,0,0.6-0.2,0.9c-0.4,0.4-0.8,0.9-0.9,1.4c0,0.4,0,0.8-0.1,1.2c-0.1,0.1-0.2,0-0.3-0.1
	c-0.2-0.3-0.1-0.9-0.6-0.8c-0.3,0.3-0.5,0.7-0.4,1.1c0.2,0.3,0.6,0.5,0.4,0.9c-0.4,0.2-0.3,0.7-0.7,0.8c-0.7,0.1-1.4-0.2-2,0.3
	c-0.2,0.2-0.3,0.4-0.4,0.6c-0.3,0-0.2-0.4-0.4-0.6c-0.1-0.2-0.4-0.1-0.5-0.2c-0.3-0.1-0.5-0.4-0.8-0.2c-0.3,0.1-0.6,0.5-0.9,0.2
	l-0.4-0.1c0-0.1,0.1-0.3,0-0.5l-0.8-0.4c0-0.1,0-0.2,0.1-0.2c0.7-0.4,1.5,0.1,2.3-0.1c0.5-0.2,1-0.1,1.6-0.1c0.3,0,0.7,0.1,0.9-0.2
	c0.1-0.2,0.2-0.4,0-0.6c-0.2-0.5-1-0.6-1.1-1.3c0-0.1-0.1-0.2-0.3-0.3c-0.2-0.1-0.3,0.1-0.5,0c0-0.2-0.1-0.4-0.3-0.5
	c-0.4,0-0.8,0.2-1.1-0.1c0-0.2,0.3-0.1,0.4-0.2c0.5-0.1,0.9-0.4,1.4-0.6l0.7-0.1c0.7-1.1,2.1-1,3.3-1.1l1.2-0.4
	C21.4,31.3,21.5,31.7,21.6,32.1L21.6,32.1L21.6,32.1z"/>
<path class="st2" d="M14.1,35.9c-0.2,0.1-0.5,0-0.7,0c-0.1-0.1-0.2-0.4-0.2-0.5C13.5,35.2,13.9,35.6,14.1,35.9L14.1,35.9L14.1,35.9z
	"/>
<path class="st2" d="M24.6,39.7c0,0.1-0.1,0.1-0.2,0.1c-0.1,0-0.1,0-0.1-0.1C24.3,39.5,24.6,39.6,24.6,39.7L24.6,39.7L24.6,39.7z"/>
<path class="st4" d="M21.6,20.1c0,0.2-0.1,0.3-0.2,0.3c-0.3,0-0.5,0-0.8-0.2c-0.2-0.2-0.1-0.4,0-0.7c0.1-0.1,0.3-0.1,0.4,0
	C21.2,19.6,21.4,19.9,21.6,20.1L21.6,20.1L21.6,20.1z"/>
<path class="st4" d="M22.9,20.5c0,0.2-0.1,0.4-0.2,0.5c-0.1,0.1-0.2,0-0.3-0.1c0-0.2,0-0.4,0.2-0.5C22.7,20.3,22.9,20.3,22.9,20.5
	L22.9,20.5L22.9,20.5z"/>
<path class="st4" d="M21.4,22.2l0,0.4C21,23,21,23.7,20.4,24c-0.2,0-0.3-0.1-0.3-0.2c0-0.3-0.1-0.6,0-0.9c0.3-0.1,0.3,0.4,0.5,0.1
	c0.1-0.4,0.4-0.7,0.6-1C21.3,22,21.3,22.1,21.4,22.2L21.4,22.2L21.4,22.2z"/>
<polygon class="st4" points="3.3,14.8 39.4,14.8 39.4,17.3 3.3,17.3 3.3,14.8 "/>
<polygon class="st5" points="3.3,14.8 39.4,14.8 39.4,17.3 3.3,17.3 3.3,14.8 "/>
<polygon class="st2" points="30.2,15.3 34.3,15.3 34.3,16.9 30.2,16.9 30.2,15.3 "/>
<polygon class="st2" points="21.3,15.3 25.3,15.3 25.3,16.9 21.3,16.9 21.3,15.3 "/>
<polygon class="st2" points="12.3,15.3 16.4,15.3 16.4,16.9 12.3,16.9 12.3,15.3 "/>
<polygon class="st2" points="3.8,15.3 7.5,15.3 7.5,16.9 3.8,16.9 3.8,15.3 "/>
<path class="st4" d="M37.8,5.9c0.3,0.4,0.1,0.9,0.2,1.3c0.3,0.3,1,0,1.1,0.6c0,0.2-0.1,0.4-0.2,0.6c-0.2,0.2-0.6,0-0.8,0.2
	c-0.1,0.7,0,1.5,0,2.4c0.2,0.1,0.5,0.1,0.8,0.2c0.1,0.1,0.2,0.3,0.2,0.5c0,0.2-0.1,0.3-0.3,0.4c-0.2,0.1-0.5,0-0.6,0.3
	c-0.1,0.4,0,0.8,0,1.2c-0.3,0.1-0.6,0.1-0.9,0.1l-2.9,0c-0.3,0.1-0.6,0.4-0.9,0.3c-0.6-0.4-1.4-0.3-2.2-0.3l-2.2,0
	c-0.4-0.3-0.1-0.9-0.2-1.3c-0.1-0.2-0.5-0.1-0.8-0.3c-0.2-0.1-0.3-0.3-0.2-0.5c0-0.2,0.2-0.4,0.5-0.4c0.2-0.1,0.5,0.1,0.6-0.2
	c0-0.8,0-1.5,0-2.2c0-0.4-0.6-0.2-0.9-0.3c-0.2-0.1-0.2-0.4-0.2-0.7c0.2-0.4,0.7-0.3,1.1-0.4l0-0.1l0-1.3l0.1-0.1l3.4,0.1
	c0.4,0,0.7,0.2,1.1,0.3c0.7-0.5,1.8-0.3,2.6-0.4C36.6,5.9,37.2,5.8,37.8,5.9L37.8,5.9L37.8,5.9z"/>
<path class="st6" d="M37.8,5.9c0.3,0.4,0.1,0.9,0.2,1.3c0.3,0.3,1,0,1.1,0.6c0,0.2-0.1,0.4-0.2,0.6c-0.2,0.2-0.6,0-0.8,0.2
	c-0.1,0.7,0,1.5,0,2.4c0.2,0.1,0.5,0.1,0.8,0.2c0.1,0.1,0.2,0.3,0.2,0.5c0,0.2-0.1,0.3-0.3,0.4c-0.2,0.1-0.5,0-0.6,0.3
	c-0.1,0.4,0,0.8,0,1.2c-0.3,0.1-0.6,0.1-0.9,0.1l-2.9,0c-0.3,0.1-0.6,0.4-0.9,0.3c-0.6-0.4-1.4-0.3-2.2-0.3l-2.2,0
	c-0.4-0.3-0.1-0.9-0.2-1.3c-0.1-0.2-0.5-0.1-0.8-0.3c-0.2-0.1-0.3-0.3-0.2-0.5c0-0.2,0.2-0.4,0.5-0.4c0.2-0.1,0.5,0.1,0.6-0.2
	c0-0.8,0-1.5,0-2.2c0-0.4-0.6-0.2-0.9-0.3c-0.2-0.1-0.2-0.4-0.2-0.7c0.2-0.4,0.7-0.3,1.1-0.4l0-0.1l0-1.3l0.1-0.1l3.4,0.1
	c0.4,0,0.7,0.2,1.1,0.3c0.7-0.5,1.8-0.3,2.6-0.4C36.6,5.9,37.2,5.8,37.8,5.9L37.8,5.9L37.8,5.9z"/>
<path class="st4" d="M25.8,5.8c0.1,0,0.3,0.1,0.4,0.2c0.1,0.5,0,0.9,0.1,1.3c0.3,0.1,0.8,0,1,0.4c0.1,0.2,0.1,0.5,0,0.6
	c-0.2,0.3-0.8,0-1,0.4c0,0.9-0.1,1.5,0,2.3c0.2,0.2,0.7,0,0.9,0.4c0.1,0.1,0.2,0.3,0.1,0.5c-0.2,0.3-0.6,0.3-1,0.4
	c-0.1,0.1,0,0.3-0.1,0.5c-0.1,0.3,0.2,0.7-0.2,0.9c-1,0.1-2,0-3,0l-1,0c-0.3,0.2-0.6,0.4-0.9,0.2l-0.6-0.3c-0.7,0-1.4,0-2.2,0
	c-0.5,0-1.2,0.2-1.5-0.3c0-0.4,0.1-0.8,0-1.2c-0.4-0.1-1,0-1.2-0.4c0-0.1,0-0.3,0-0.5c0.3-0.4,0.9,0,1.2-0.4l0-1.1
	c0.1-0.5,0-0.9,0-1.4c-0.4-0.1-1,0-1.1-0.5c0-0.3,0.1-0.5,0.4-0.6c0.2-0.1,0.6,0,0.7-0.2l0.1-1.1c0.3-0.5,1-0.2,1.4-0.3l2.2,0
	c0.3,0,0.7,0.4,1,0.2C22.9,5.5,24.4,6,25.8,5.8L25.8,5.8L25.8,5.8z"/>
<path class="st6" d="M25.8,5.8c0.1,0,0.3,0.1,0.4,0.2c0.1,0.5,0,0.9,0.1,1.3c0.3,0.1,0.8,0,1,0.4c0.1,0.2,0.1,0.5,0,0.6
	c-0.2,0.3-0.8,0-1,0.4c0,0.9-0.1,1.5,0,2.3c0.2,0.2,0.7,0,0.9,0.4c0.1,0.1,0.2,0.3,0.1,0.5c-0.2,0.3-0.6,0.3-1,0.4
	c-0.1,0.1,0,0.3-0.1,0.5c-0.1,0.3,0.2,0.7-0.2,0.9c-1,0.1-2,0-3,0l-1,0c-0.3,0.2-0.6,0.4-0.9,0.2l-0.6-0.3c-0.7,0-1.4,0-2.2,0
	c-0.5,0-1.2,0.2-1.5-0.3c0-0.4,0.1-0.8,0-1.2c-0.4-0.1-1,0-1.2-0.4c0-0.1,0-0.3,0-0.5c0.3-0.4,0.9,0,1.2-0.4l0-1.1
	c0.1-0.5,0-0.9,0-1.4c-0.4-0.1-1,0-1.1-0.5c0-0.3,0.1-0.5,0.4-0.6c0.2-0.1,0.6,0,0.7-0.2l0.1-1.1c0.3-0.5,1-0.2,1.4-0.3l2.2,0
	c0.3,0,0.7,0.4,1,0.2C22.9,5.5,24.4,6,25.8,5.8L25.8,5.8L25.8,5.8z"/>
<path class="st4" d="M9.3,6.1c1.2-0.5,2.5-0.1,3.9-0.2c0.3,0.1,0.9-0.2,1.1,0.2c0,0.4,0,0.8,0,1.1c0.1,0.3,0.5,0,0.7,0.2
	c0.1,0.1,0.3,0.1,0.3,0.3c0.1,0.2,0,0.4-0.1,0.5c-0.2,0.3-0.6,0.2-0.9,0.2l-0.1,0.1c0,0.7-0.1,1.3,0,2c0,0.1-0.1,0.3,0.1,0.4
	c0.3,0,0.7,0,0.9,0.2c0.1,0.2,0.1,0.4,0,0.6c-0.1,0.7-1.3-0.1-1.2,0.8c0,0.3,0.1,0.8,0,1.1c-1.3,0-2.7-0.1-3.9,0
	C9.9,13.9,9.6,14,9.3,14c-0.3,0-0.5-0.2-0.7-0.3c-1.2,0-2.4,0-3.5-0.1c-0.4-0.3-0.1-0.8-0.2-1.3c-0.2-0.2-0.5,0-0.7-0.2
	C4,12.1,4,12,3.9,11.8c0-0.3,0-0.5,0.2-0.7C4.3,11,4.5,11.1,4.8,11l0.1-0.1c-0.1-0.8,0.1-1.6,0-2.4c-0.1-0.2-0.3,0-0.5-0.1
	C4.1,8.3,3.9,8.2,3.8,8c0-0.2-0.1-0.4,0.1-0.6c0.3-0.3,0.7,0,1-0.2L5,6c0.2-0.3,0.7-0.2,1-0.2c0.6-0.1,1.3,0,2,0
	C8.4,5.8,8.9,5.9,9.3,6.1L9.3,6.1L9.3,6.1z"/>
<path class="st6" d="M9.3,6.1c1.2-0.5,2.5-0.1,3.9-0.2c0.3,0.1,0.9-0.2,1.1,0.2c0,0.4,0,0.8,0,1.1c0.1,0.3,0.5,0,0.7,0.2
	c0.1,0.1,0.3,0.1,0.3,0.3c0.1,0.2,0,0.4-0.1,0.5c-0.2,0.3-0.6,0.2-0.9,0.2l-0.1,0.1c0,0.7-0.1,1.3,0,2c0,0.1-0.1,0.3,0.1,0.4
	c0.3,0,0.7,0,0.9,0.2c0.1,0.2,0.1,0.4,0,0.6c-0.1,0.7-1.3-0.1-1.2,0.8c0,0.3,0.1,0.8,0,1.1c-1.3,0-2.7-0.1-3.9,0
	C9.9,13.9,9.6,14,9.3,14c-0.3,0-0.5-0.2-0.7-0.3c-1.2,0-2.4,0-3.5-0.1c-0.4-0.3-0.1-0.8-0.2-1.3c-0.2-0.2-0.5,0-0.7-0.2
	C4,12.1,4,12,3.9,11.8c0-0.3,0-0.5,0.2-0.7C4.3,11,4.5,11.1,4.8,11l0.1-0.1c-0.1-0.8,0.1-1.6,0-2.4c-0.1-0.2-0.3,0-0.5-0.1
	C4.1,8.3,3.9,8.2,3.8,8c0-0.2-0.1-0.4,0.1-0.6c0.3-0.3,0.7,0,1-0.2L5,6c0.2-0.3,0.7-0.2,1-0.2c0.6-0.1,1.3,0,2,0
	C8.4,5.8,8.9,5.9,9.3,6.1L9.3,6.1L9.3,6.1z"/>
<path class="st2" d="M9.1,6.4l0.1,0.2c0,1.6,0,3.3,0,5l0,0.6c-0.4,0-0.8-0.2-1.3-0.1c-0.5,0-1,0-1.4-0.1c-0.2-0.6-0.1-1.1-0.1-1.7
	c0-1.2,0-2.7,0-4c0-0.1,0.1-0.1,0.2-0.2C7.5,6.2,8.4,6,9.1,6.4L9.1,6.4L9.1,6.4z"/>
<path class="st2" d="M5.8,6.2C5.6,6.4,5.3,6.7,5.4,7c0.1,2.1,0,3.9,0.1,5.8L5.7,13c1,0,2-0.1,2.9,0.1c0,0,0,0.1,0,0.1
	c-0.2,0.1-0.5,0-0.8,0l-2.5,0c-0.2-0.1-0.1-0.5-0.1-0.7c0-0.2,0.1-0.5-0.2-0.7c-0.3-0.1-0.7,0-0.9-0.2c0.2-0.5,1-0.1,1.1-0.6
	c0.1-0.9-0.1-1.8,0-2.7C5.1,7.9,4.6,8,4.2,7.9c0,0-0.1-0.1-0.1-0.2c0.3-0.3,0.9,0,1.1-0.4c0.1-0.4,0-0.8,0.1-1.1
	C5.4,6.1,5.7,6.1,5.8,6.2L5.8,6.2L5.8,6.2L5.8,6.2z"/>
<path class="st2" d="M12.7,6.3c0,2,0,3.9,0,5.8c-1,0.1-2.1-0.1-3.1,0.2c-0.2-0.2,0-0.5-0.1-0.8c0-0.6,0-1.3,0-2c0-1,0-2,0-3
	c0.1-0.3,0.5-0.4,0.8-0.4l2.3,0L12.7,6.3L12.7,6.3L12.7,6.3z"/>
<path class="st2" d="M13.8,6.2c0.1,0.4-0.1,0.9,0.1,1.3c0.2,0.1,0.6,0.1,0.9,0.1c0.1,0.1,0.1,0.2,0,0.3c-0.3,0.3-0.8-0.1-1,0.4
	c0,1,0,1.9,0,2.9l0.1,0.1c0.3,0,0.7-0.1,0.9,0.2c0,0.1,0,0.3-0.1,0.3c-0.3,0.1-0.8-0.1-1,0.2c-0.1,0.4,0,0.8-0.1,1.2l-0.2,0.1
	l-3.4,0c-0.1,0,0-0.1,0-0.1l0.3-0.1l2.8,0c0.3-0.1,0.3-0.4,0.3-0.7c0-1.4,0-2.6,0-3.9c0-0.7,0.1-1.3,0-1.9c0-0.1-0.2-0.2-0.3-0.4
	C13.5,6.1,13.8,6.1,13.8,6.2L13.8,6.2L13.8,6.2z"/>
<path class="st2" d="M29.6,6.2c0,0.2-0.3,0.3-0.4,0.5c0,2,0,4.2,0.1,6.3l0.2,0.1c1.1,0,2.2-0.2,3.2,0.2c0.1,0,0,0,0,0
	c-1.2,0-2.3,0.1-3.5,0L29,13.2c0-0.4,0-0.9-0.1-1.2c-0.3-0.2-1.1,0.1-0.9-0.5c0.3-0.2,0.8,0.1,0.9-0.3c0-1,0-1.9,0-2.9
	C28.7,8,28.3,8.2,28,8.2c-0.1-0.1-0.2-0.2-0.1-0.4c0.3-0.3,1.2,0.1,1.1-0.7c0.1-0.3-0.1-0.9,0.3-1C29.4,6.2,29.5,6.1,29.6,6.2
	L29.6,6.2L29.6,6.2z"/>
<path class="st2" d="M37.6,6.3c0.1,0.5-0.1,0.9,0.2,1.3c0.3,0.1,0.8-0.1,0.9,0.2c0,0.6-0.8,0.1-1,0.6c0.1,0.9-0.1,1.7,0,2.7
	c-0.1,0.1-0.1,0.2,0,0.3c0.3,0.2,0.6-0.1,0.9,0.1c0.2,0,0.1,0.2,0.1,0.3c-0.2,0.3-0.8,0-0.9,0.4l0,1.2l-0.2,0.1l-3.3,0
	c0,0,0-0.1,0-0.1l0.4-0.1h2.5c0.1,0,0.3-0.1,0.3-0.3c0-1.9,0-3.9,0-6L37,6.2C37.2,6.1,37.5,6.1,37.6,6.3L37.6,6.3L37.6,6.3z"/>
<path class="st2" d="M30,7c0,1.7,0,3.5,0,5.3c0,0.1-0.2,0.2-0.3,0.3l-0.1-0.1c0-0.6,0-1.2,0-1.7v-0.4c0-1.1,0-2.4,0-3.6
	c0.1-0.1,0.2-0.3,0.3-0.3C30,6.7,29.9,6.8,30,7L30,7L30,7z"/>
<path class="st2" d="M37.1,6.8c0,1.4,0,2.7,0,4c0,0.6,0,1.1,0,1.7c0,0,0,0.1-0.1,0.1c-0.4-0.2-0.3-0.6-0.3-1c0-0.5,0-1.1,0-1.6
	l-0.1-0.2l0-3.2C36.8,6.3,37,6.6,37.1,6.8L37.1,6.8L37.1,6.8z"/>
<path class="st2" d="M6.1,6.5c0.1,2,0,3.9,0,5.8c0,0.1-0.1,0.2-0.2,0.2c-0.1-0.6-0.1-1.2-0.1-1.8c0-1.2,0-2.6,0-3.9
	C5.8,6.6,5.9,6.5,6.1,6.5L6.1,6.5L6.1,6.5z"/>
<path class="st2" d="M13.4,6.7c0,2,0,3.9,0,5.7c0,0.1-0.1,0-0.2-0.1c-0.1-0.3,0-0.7,0-1c-0.1-1.6,0-3.2,0-4.8
	C13.2,6.4,13.3,6.6,13.4,6.7L13.4,6.7L13.4,6.7z"/>
<path class="st2" d="M33.5,9.2c0,0.1-0.3,0.1-0.4,0.1l-0.1,0c0.1-0.3,0-0.6,0.2-0.8C33.4,8.6,33.4,8.9,33.5,9.2L33.5,9.2L33.5,9.2z"
	/>
<path class="st2" d="M13.1,12.7c-0.1,0.1-0.3,0.1-0.4,0.1h-0.8c-0.6,0-1.3-0.1-1.8,0c-0.1,0-0.2-0.1-0.2-0.2
	c0.1-0.2,0.3-0.1,0.5-0.2c0.8,0,1.7,0,2.4,0C12.9,12.5,13,12.6,13.1,12.7L13.1,12.7L13.1,12.7z"/>
<path class="st2" d="M9,12.6c0,0.1-0.1,0.2-0.2,0.3c-0.8-0.2-1.6-0.1-2.5-0.2l0,0c0-0.1,0.2-0.3,0.3-0.3C7.4,12.4,8.2,12.4,9,12.6
	L9,12.6L9,12.6z"/>
<path class="st2" d="M33,12.7c0.1,0,0.1,0.2,0,0.2c-0.3,0.3-0.7-0.1-1.1,0c-0.6-0.1-1.3,0-2-0.1c0.2-0.5,0.9-0.2,1.3-0.3
	C31.9,12.5,32.5,12.4,33,12.7L33,12.7L33,12.7z"/>
<path class="st2" d="M36.6,12.5c0.1,0.1,0.2,0.2,0.3,0.3c-1,0.1-2-0.1-2.9,0.1c-0.1,0-0.2-0.2-0.1-0.3c0.2-0.2,0.5-0.2,0.8-0.2
	L36.6,12.5L36.6,12.5L36.6,12.5z"/>
<path class="st2" d="M9.8,13c0,0.2,0,0.4-0.1,0.5c-0.1,0.1-0.3,0.1-0.4,0.1c-0.1,0-0.2-0.2-0.2-0.3c0-0.3,0.2-0.4,0.4-0.6
	C9.6,12.8,9.7,12.9,9.8,13L9.8,13L9.8,13z"/>
<path class="st2" d="M33.7,13.2c0,0.2,0,0.5-0.3,0.5c-0.2,0-0.4-0.1-0.4-0.2c0-0.2,0.1-0.5,0.3-0.6C33.5,12.9,33.6,13.1,33.7,13.2
	L33.7,13.2L33.7,13.2z"/>
<path class="st2" d="M24.8,6.3c0,1.9,0,3.9,0,5.8l-0.1,0c-1.1,0.1-2.1-0.2-3,0.2c-0.2-0.1,0-0.4-0.1-0.6c0-1.7,0-3.4,0-5.1
	c0-0.2,0.1-0.3,0.3-0.4c0.3-0.2,0.6-0.1,1-0.2l1.9,0L24.8,6.3L24.8,6.3L24.8,6.3z"/>
<path class="st2" d="M25.9,6.3c0,0.4,0,0.8,0.1,1.3c0.3,0.3,1.1-0.1,1,0.5c-0.3,0.2-0.6,0-0.9,0.1l-0.1,0.1c-0.1,1,0.1,2,0,2.9
	c0,0.1,0.1,0.3,0.2,0.3c0.3,0,0.7-0.2,0.8,0.2c0,0.6-0.8,0-1,0.5c-0.1,0.4,0.1,0.8,0,1.2l-0.1,0.1c-1.2,0-2.5,0-3.6-0.1
	c0,0,0-0.1,0-0.1l0.2-0.1c1-0.1,2.1,0,3.1-0.1c0.1,0,0.3-0.1,0.2-0.3c0-1.9,0-3.8,0-5.9c0-0.3-0.3-0.5-0.4-0.7
	C25.5,6.2,25.8,6.1,25.9,6.3L25.9,6.3L25.9,6.3z"/>
<path class="st2" d="M17.8,6.2c0,0.2-0.2,0.3-0.3,0.5c-0.1,0.4,0,0.8,0,1.2c0,1.7,0,3.3,0,4.9c0,0.1,0.1,0.3,0.2,0.3l2.6,0
	c0.1,0,0.3,0.1,0.4,0.2c0,0.1-0.2,0.1-0.4,0.1c-1,0-2,0-3-0.1l-0.1-0.1c0-0.4,0-0.9-0.2-1.3c-0.3-0.1-0.7,0-1-0.1
	c-0.1-0.1-0.1-0.3,0-0.4c0.3-0.2,0.9,0.1,1.1-0.3c0-1,0-1.9,0-2.8c-0.3-0.4-0.8,0-1.1-0.4c0.1-0.6,0.9-0.1,1.1-0.5l0.1-1.1
	C17.4,6.1,17.6,6.2,17.8,6.2L17.8,6.2L17.8,6.2z"/>
<path class="st2" d="M18.2,6.5c0.1,1.7-0.1,3.2,0,4.9c-0.1,0.4,0.2,1-0.4,1.1c-0.1-1.7,0-3.5-0.1-5.3C17.7,6.8,17.8,6.6,18.2,6.5
	L18.2,6.5L18.2,6.5L18.2,6.5z"/>
<path class="st2" d="M25.4,6.8c0,1.9,0,3.9-0.1,5.7c-0.1,0-0.2-0.1-0.2-0.2c0-0.8-0.1-1.5,0-2.3c0-1.1-0.1-2.3,0-3.4
	C25.2,6.5,25.4,6.7,25.4,6.8L25.4,6.8L25.4,6.8z"/>
<path class="st2" d="M21,12.6c0.1,0,0.2,0.1,0.1,0.2L20.9,13c-0.9-0.3-1.9-0.1-2.8-0.2c0.1-0.1,0.1-0.2,0.3-0.3
	C19.2,12.5,20.1,12.4,21,12.6L21,12.6L21,12.6z"/>
<path class="st2" d="M24.8,12.5c0.1,0.1,0.3,0.2,0.3,0.3l-0.1,0c-1,0-2.1-0.1-3,0.1c-0.1,0-0.3,0-0.3-0.2c0.1-0.2,0.4-0.3,0.6-0.3
	C23.1,12.4,24,12.5,24.8,12.5L24.8,12.5L24.8,12.5z"/>
<path class="st2" d="M21.7,13.3c0,0.2,0,0.4-0.2,0.4c-0.2,0-0.4,0-0.4-0.2c0-0.2,0.2-0.3,0.4-0.4C21.5,13,21.6,13.2,21.7,13.3
	L21.7,13.3L21.7,13.3z"/>
<path class="st2" d="M21.2,10.2c0.1-1,0-2.1,0-3c0-0.3,0-0.6-0.2-0.8c-0.7-0.3-1.7-0.1-2.5-0.2c0,0-0.1,0-0.1,0.1c0,1.9,0,3.7,0,5.6
	l0,0.2c0.6,0.1,1.2,0,1.8,0c0.3,0.1,0.6,0.1,0.9,0.2c0-0.7,0.1-1.2,0-1.8L21.2,10.2L21.2,10.2z"/>
<path class="st4" d="M21,10.1c-0.3-0.2-0.4-0.6-0.6-0.9c0.1-0.1,0.3-0.2,0.4-0.3c0.2-0.2,0.4-0.5,0.3-0.8c0-0.2-0.1-0.5-0.4-0.6
	c-0.5-0.2-1.2-0.1-1.7-0.1c-0.1,0-0.1,0.1,0,0.2c0.2,0.1,0.3,0.2,0.3,0.4c0,0.7,0,1.3-0.1,2l-0.3,0.3c0.3,0.2,0.6,0,1,0.1
	c0.1-0.2-0.2-0.3-0.2-0.5c0.1-0.2,0-0.5,0.1-0.6c0.4,0.3,0.5,0.8,0.9,1.1l0.6,0l0-0.3C21.2,10.3,21,10.1,21,10.1L21,10.1z M20.2,8.9
	c-0.2,0-0.4,0.1-0.5-0.1c0-0.3-0.1-0.7,0-1c0.2-0.2,0.6-0.1,0.7,0.1c0.1,0.2,0.1,0.4,0.1,0.6C20.4,8.7,20.4,8.9,20.2,8.9L20.2,8.9z"
	/>
<path class="st2" d="M36.5,6.8c0-0.2,0-0.5-0.1-0.7l-0.9,0c-0.6,0.1-1.3-0.1-1.9,0.2c-0.2,0.3-0.1,0.6-0.2,1
	c0.1,0.2,0.1,0.4,0.2,0.6l-0.1,0.3l-0.4-0.1l-0.1-0.2c0-0.2,0.1-0.3,0.1-0.5c0-0.4,0.1-1.1-0.4-1.2c-0.8-0.1-1.5-0.1-2.4-0.1
	c0,0-0.1,0-0.1,0.1c0,1.9,0,3.5,0,5.4c0,0.2-0.1,0.5,0.2,0.6c0.7-0.1,1.3,0,2,0c0.3,0,0.4,0.2,0.7,0.2c0.1-0.8,0.1-1.7,0-2.5
	c0-0.1,0-0.2-0.1-0.3l0-0.2l0.4,0l0,0.1c0,0,0,0-0.1,0.1l0,2.5c0,0.1,0,0.3,0.2,0.2c0.8-0.4,1.7-0.1,2.6-0.2l0.2-0.1
	c0.1-0.4,0-1.9,0-1.9C36.5,9.1,36.5,8,36.5,6.8L36.5,6.8z"/>
<path class="st4" d="M33.6,9.6c0.1,0.1,0.2,0.3,0.1,0.5l-0.2,0.3l0.1,0.1c0.3,0,0.7,0.1,1,0c-0.1-0.1-0.2-0.2-0.3-0.3
	c-0.3-0.9-0.6-1.9-0.9-2.8l-0.3,0.1c-0.2,0.8-0.5,1.6-0.7,2.4c0,0.2-0.2,0.2-0.3,0.3c-0.2,0-0.2-0.1-0.3-0.2c0-0.7,0.1-1.3,0-2.1
	c0-0.1,0.1-0.3,0.2-0.1c0.2,0.1,0.2,0.3,0.2,0.5c0,0.1,0.2,0.1,0.2,0l0.1-0.8c-0.1-0.2-0.3,0-0.5,0c-0.4,0-0.9,0.1-1.2-0.1
	c-0.3,0.1-0.2,0.5-0.3,0.8c0,0,0,0.1,0,0.1C30.9,8,31,7.6,31.4,7.7l0,0.7L31.3,10c-0.1,0.1-0.3,0.2-0.3,0.3c0.4,0.1,0.9,0,1.3,0
	c0.2,0,0.5,0.1,0.7,0c0,0,0-0.1,0-0.2c-0.1-0.1-0.3-0.2-0.3-0.4c0.1-0.1,0.1-0.4,0.3-0.3c0.1,0,0.1,0,0.1,0.1l0.3,0v0
	C33.6,9.6,33.6,9.6,33.6,9.6L33.6,9.6z M33.1,9.3l-0.1,0c0.1-0.3,0-0.6,0.2-0.8c0.2,0.1,0.2,0.5,0.3,0.8C33.5,9.3,33.2,9.3,33.1,9.3
	L33.1,9.3z"/>
<path class="st4" d="M35.9,7.6c0,0.2,0.1,0.5,0,0.6c-0.2-0.1-0.2-0.3-0.5-0.4c-0.2,0-0.3,0-0.3,0.2c0,0.5,0.5,0.5,0.8,0.9
	c0.3,0.3,0.4,0.7,0.3,1.1c-0.1,0.3-0.2,0.4-0.5,0.4c-0.2,0-0.4-0.1-0.6,0c0,0-0.1,0.1-0.2,0l0-1c0,0,0.1-0.1,0.1-0.1
	c0.1,0.3,0,0.7,0.5,0.7c0.1,0,0.3,0,0.3-0.2c0-0.9-1.1-0.7-1.1-1.6c0-0.2,0-0.4,0.1-0.5c0.2-0.3,0.6-0.1,0.9-0.3
	C35.8,7.3,35.8,7.5,35.9,7.6L35.9,7.6L35.9,7.6z"/>
<path class="st4" d="M23.6,7.5c-0.2,0.1-0.5,0.3-0.4,0.7c-0.1,0.6,0,1.2,0,1.8l0.4,0.3l0,0c-0.4,0-0.8,0.1-1.2,0
	c-0.2-0.2,0.2-0.3,0.3-0.4c0.1-0.7,0.1-1.4,0.1-2.2c-0.1-0.2-0.4-0.1-0.3-0.4C22.7,7.4,23.2,7.4,23.6,7.5L23.6,7.5L23.6,7.5
	L23.6,7.5z"/>
<path class="st4" d="M11.7,8c-0.2,0.3-0.3-0.3-0.5-0.3c-0.1,0-0.4-0.1-0.5,0c0,0.3-0.1,0.6,0,0.9c0.1,0.1,0.3,0,0.4,0
	c0.1-0.1,0.2-0.4,0.4-0.3c0.1,0.1,0,0.3,0,0.4c0,0.2,0.1,0.4-0.1,0.5C11.3,9.2,11.2,9,11,9l-0.3,0c-0.1,0.4-0.1,0.8,0,1.2
	c0.2,0.2,0.4,0,0.7,0c0.3-0.1,0.2-0.5,0.5-0.5c0.1,0.2,0.1,0.4,0,0.6l-0.1,0.1l-1.7,0c-0.1,0-0.2,0-0.2-0.1c0.6-0.3,0.2-1,0.3-1.5
	c-0.1-0.4,0.2-1-0.3-1.2c0-0.1,0.1-0.1,0.2-0.1c0.4,0,1,0.2,1.4-0.2C11.7,7.4,11.7,7.7,11.7,8L11.7,8L11.7,8z"/>
<path class="st4" d="M9.1,7.6C8.6,8,8.5,8.7,8.3,9.3C8.1,9.6,8.2,10,7.9,10.3c-0.1,0-0.2-0.1-0.2-0.2C7.5,9.4,7.3,8.6,7,7.9
	c0-0.2-0.5-0.3-0.2-0.4c0.4,0,0.6,0,1,0c0.1,0.2-0.3,0.3-0.2,0.6C7.8,8.4,7.7,8.9,8,9.2l0.1-0.1c0-0.6,0.7-1.1,0.1-1.6
	C8.3,7.3,8.7,7.5,9,7.4C9,7.4,9.2,7.5,9.1,7.6L9.1,7.6L9.1,7.6z"/>
<g>
	<path class="st4" d="M202.3,17.4h1.3c1.4,0,2.3,0.6,2.3,2.2c0,1.6-0.9,2.2-2.3,2.2h-1.3V17.4z M203.6,21.2c1,0,1.5-0.4,1.5-1.6
		c0-1.1-0.5-1.5-1.5-1.5H203v3.1H203.6z"/>
	<path class="st4" d="M206.8,17.4h2.9v0.7h-2.1v1.1h1.6v0.7h-1.6v1.3h2.2v0.7h-3V17.4z"/>
	<path class="st4" d="M210.7,17.4h1.6c1,0,1.7,0.3,1.7,1.4c0,1.1-0.8,1.4-1.7,1.4h-0.8v1.7h-0.7V17.4z M212.2,19.5
		c0.7,0,1-0.2,1-0.7c0-0.5-0.3-0.7-1-0.7h-0.8v1.4H212.2z"/>
	<path class="st4" d="M215.5,17.4h0.7l1.6,4.5h-0.8l-0.4-1.1H215l-0.4,1.1h-0.7L215.5,17.4z M216.5,20.2l-0.6-1.8h0l-0.6,1.8H216.5z
		"/>
	<path class="st4" d="M218.6,17.4h1.6c1.1,0,1.7,0.4,1.7,1.3c0,0.7-0.4,1.1-1,1.3l1,1.8h-0.8l-1-1.8h-0.8v1.8h-0.7V17.4z
		 M220.2,19.5c0.6,0,1-0.2,1-0.7c0-0.5-0.3-0.7-1-0.7h-0.8v1.3H220.2z"/>
	<path class="st4" d="M223.8,18.1h-1.4v-0.7h3.5v0.7h-1.4v3.7h-0.7V18.1z"/>
	<path class="st4" d="M226.8,17.4h1l1.2,3.5h0l1.2-3.5h1v4.4h-0.7v-3.3h0c-0.1,0.3-0.2,0.6-0.3,0.9l-0.9,2.4h-0.7l-0.9-2.4
		c-0.1-0.3-0.2-0.5-0.3-0.9h0v3.3h-0.7V17.4z"/>
	<path class="st4" d="M232.3,17.4h2.9v0.7H233v1.1h1.6v0.7H233v1.3h2.2v0.7h-3V17.4z"/>
	<path class="st4" d="M236.2,17.4h0.8l2.1,3.2h0v-3.2h0.7v4.4H239l-2.2-3.2h0v3.2h-0.7V17.4z"/>
	<path class="st4" d="M241.9,18.1h-1.4v-0.7h3.5v0.7h-1.4v3.7h-0.7V18.1z"/>
	<path class="st4" d="M246.1,19.6c0-1.5,0.9-2.3,2-2.3c1.1,0,2,0.8,2,2.3c0,1.5-0.9,2.3-2,2.3C247,21.9,246.1,21.1,246.1,19.6z
		 M249.4,19.6c0-1-0.5-1.6-1.2-1.6c-0.8,0-1.3,0.6-1.3,1.6c0,1,0.5,1.6,1.3,1.6C248.9,21.3,249.4,20.7,249.4,19.6z"/>
	<path class="st4" d="M251.1,17.4h2.8v0.7h-2v1.2h1.5V20h-1.5v1.9h-0.7V17.4z"/>
</g>
<g>
	<path class="st4" d="M202.1,35.2c0.4-0.1,0.6-0.4,0.6-0.7v-6.6c0-0.3-0.2-0.6-0.6-0.7V27c0.2,0,1,0,1.2,0c0.4,0,1-0.1,1.5-0.1
		c1.5,0,2.8,0.5,2.8,2.1c0,1-0.7,1.7-1.5,1.9v0c1.1,0.3,1.9,1.1,1.9,2.2c0,1.8-1.4,2.3-2.9,2.3c-0.4,0-1.4-0.1-1.8-0.1
		c-0.2,0-1,0-1.2,0V35.2z M204.5,30.7c1.1,0,1.8-0.4,1.8-1.6c0-1-0.8-1.7-1.9-1.7c-0.3,0-0.4,0-0.7,0.1v3.2H204.5z M203.8,34.8
		c0.3,0.1,0.7,0.1,1,0.1c1.2,0,2-0.7,2-1.9c0-1.2-0.9-1.9-1.9-1.9h-1V34.8z"/>
	<path class="st4" d="M209.4,35.2c0.3-0.1,0.6-0.3,0.6-0.5v-3.4c0-0.4-0.2-0.6-0.7-0.7v-0.1l1.5-0.6h0.1v4.8c0,0.3,0.3,0.4,0.6,0.5
		v0.2c-0.2,0-0.9,0-1.1,0s-0.9,0-1.1,0V35.2z M210.4,27.7c0.3,0,0.6,0.3,0.6,0.6c0,0.3-0.3,0.6-0.6,0.6c-0.3,0-0.6-0.3-0.6-0.6
		C209.8,28,210.1,27.7,210.4,27.7z"/>
	<path class="st4" d="M212.7,32.7c0-1.6,1.1-2.8,2.7-2.8c1.6,0,2.7,1.2,2.7,2.8c0,1.6-1.1,2.8-2.7,2.8
		C213.8,35.5,212.7,34.3,212.7,32.7z M217.1,32.7c0-1.1-0.5-2.3-1.7-2.3c-1.2,0-1.7,1.3-1.7,2.3c0,1.1,0.5,2.3,1.7,2.3
		C216.6,35,217.1,33.7,217.1,32.7z"/>
	<path class="st4" d="M219.3,35.2c0.3-0.1,0.6-0.3,0.6-0.5v-3.4c0-0.4-0.2-0.6-0.7-0.7v-0.1l1.5-0.6h0.1l0.1,0.8
		c0.5-0.4,1-0.8,1.8-0.8c0.8,0,1.2,0.4,1.3,0.8c0.5-0.4,1.1-0.8,1.9-0.8c1.1,0,1.5,0.7,1.5,1.6v3.3c0,0.3,0.3,0.4,0.6,0.5v0.2
		c-0.2,0-0.9,0-1.1,0c-0.2,0-0.9,0-1.1,0v-0.2c0.3-0.1,0.6-0.3,0.6-0.5v-2.5c0-0.9-0.1-1.7-1-1.7c-0.5,0-1,0.3-1.3,0.6
		c0,0.1,0,0.2,0,0.3v3.3c0,0.3,0.3,0.4,0.6,0.5v0.2c-0.2,0-0.9,0-1.1,0c-0.2,0-0.9,0-1.1,0v-0.2c0.3-0.1,0.6-0.3,0.6-0.5v-2.5
		c0-0.9-0.1-1.7-1-1.7c-0.6,0-1,0.4-1.3,0.7v3.5c0,0.3,0.3,0.4,0.6,0.5v0.2c-0.2,0-0.9,0-1.1,0c-0.2,0-0.9,0-1.1,0V35.2z"/>
	<path class="st4" d="M233.9,34.6c-0.3,0.3-0.9,0.8-1.9,0.8c-1.8,0-2.8-1.1-2.8-2.8c0-1.7,1.2-2.8,2.6-2.8c1.4,0,2.3,1,2.2,2.1
		c0,0.1,0,0.2,0,0.3h-3.7c-0.2,1.5,0.7,2.6,1.9,2.6c0.7,0,1.2-0.1,1.5-0.5L233.9,34.6z M233,31.8c0.1-0.6-0.3-1.5-1.1-1.5
		c-0.9,0-1.4,0.8-1.5,1.5H233z"/>
	<path class="st4" d="M241.1,34.9c0,0-0.3,0.1-0.5,0.3c-0.2,0.1-0.5,0.4-0.5,0.4c-0.2-0.2-0.4-0.5-0.5-0.8c-0.4,0.4-1.1,0.7-1.9,0.7
		c-1.3,0-2.2-1.3-2.2-2.7c0-1.5,1-2.9,2.4-2.9c0.7,0,1.2,0.2,1.6,0.7v-2.6c0-0.4-0.2-0.6-0.7-0.7v-0.1l1.5-0.6h0.1v7.7
		c0,0.4,0.1,0.5,0.3,0.5c0.1,0,0.2,0,0.3-0.1L241.1,34.9z M239.5,31.5c-0.1-0.7-0.8-1.1-1.5-1.1c-1,0-1.5,1.1-1.5,2.1
		c0,1.2,0.6,2.2,1.7,2.2c0.5,0,1.1-0.2,1.3-0.7V31.5z"/>
	<path class="st4" d="M242.3,35.2c0.3-0.1,0.6-0.3,0.6-0.5v-3.4c0-0.4-0.2-0.6-0.7-0.7v-0.1l1.5-0.6h0.1v4.8c0,0.3,0.3,0.4,0.6,0.5
		v0.2c-0.2,0-0.9,0-1.1,0c-0.2,0-0.9,0-1.1,0V35.2z M243.3,27.7c0.3,0,0.6,0.3,0.6,0.6c0,0.3-0.3,0.6-0.6,0.6
		c-0.3,0-0.6-0.3-0.6-0.6C242.7,28,243,27.7,243.3,27.7z"/>
	<path class="st4" d="M250.5,34.5c-0.3,0.3-1,1-2,1c-1.8,0-2.8-1.1-2.8-2.8c0-1.8,1.2-2.8,2.8-2.8c0.5,0,1.3,0.1,1.8,0.3v1.1h-0.2
		c-0.3-0.5-0.8-0.9-1.6-0.9c-1.1,0-1.8,0.9-1.8,2.2c0,1.5,0.8,2.3,1.9,2.3c0.7,0,1.3-0.2,1.6-0.6L250.5,34.5z"/>
	<path class="st4" d="M252.4,30.1c0.5-0.1,1.1-0.3,1.8-0.3c1.5,0,1.9,0.8,1.9,1.7v2.7c0,0.4,0.1,0.5,0.3,0.5c0.1,0,0.2,0,0.3-0.1
		l0.1,0.2c0,0-0.3,0.1-0.5,0.3c-0.2,0.1-0.5,0.4-0.5,0.4c-0.2-0.2-0.4-0.5-0.5-0.8c-0.4,0.4-1,0.7-1.7,0.7c-1,0-1.7-0.5-1.7-1.5
		c0-1,0.9-1.5,1.9-1.7c0.3,0,1.1-0.1,1.4-0.1v-0.8c0-0.6-0.4-1.1-1.2-1.1c-0.6,0-1.1,0.3-1.4,0.9h-0.2V30.1z M255.1,32.7h-0.8
		c-0.8,0-1.4,0.4-1.4,1.2c0,0.6,0.4,0.9,0.9,0.9c0.5,0,1-0.3,1.3-0.7V32.7z"/>
	<path class="st4" d="M257.8,35.2c0.3-0.1,0.6-0.3,0.6-0.5v-6.8c0-0.4-0.2-0.6-0.7-0.7v-0.1l1.5-0.6h0.1v8.2c0,0.3,0.3,0.4,0.6,0.5
		v0.2c-0.2,0-0.9,0-1.1,0c-0.2,0-0.9,0-1.1,0V35.2z"/>
	<path class="st4" d="M264.3,35.2c0.4-0.1,0.7-0.3,0.7-0.7v-6.6c0-0.4-0.2-0.6-0.7-0.7V27c0.1,0,1,0,1.2,0c0.2,0,1.1,0,1.2,0v0.2
		c-0.4,0.1-0.7,0.3-0.7,0.7v6.6c0,0.4,0.3,0.6,0.7,0.7v0.2c-0.1,0-1,0-1.2,0c-0.2,0-1.1,0-1.2,0V35.2z"/>
	<path class="st4" d="M267.9,35.2c0.3-0.1,0.6-0.3,0.6-0.5v-3.4c0-0.4-0.2-0.6-0.7-0.7v-0.1l1.5-0.6h0.1l0.1,0.8
		c0.5-0.4,1.1-0.8,1.9-0.8c1.1,0,1.8,0.7,1.8,1.6v3.3c0,0.3,0.3,0.4,0.6,0.5v0.2c-0.2,0-0.9,0-1.1,0c-0.2,0-0.9,0-1.1,0v-0.2
		c0.3-0.1,0.6-0.3,0.6-0.5v-2.5c0-0.9-0.4-1.7-1.3-1.7c-0.6,0-1.1,0.4-1.4,0.7v3.5c0,0.3,0.3,0.4,0.6,0.5v0.2c-0.2,0-0.9,0-1.1,0
		c-0.2,0-0.9,0-1.1,0V35.2z"/>
	<path class="st4" d="M275,35.2c0.3-0.1,0.6-0.3,0.6-0.5v-4.3h-0.7v-0.4l0.7-0.1v-1.6c0-1.2,0.9-1.9,1.7-1.9c0.5,0,0.9,0.2,1.3,0.3
		v1.1h-0.2c-0.3-0.5-0.5-0.8-1.1-0.8c-0.3,0-0.7,0.4-0.7,1.1v2h1.4v0.5h-1.4v4.3c0,0.3,0.4,0.4,0.7,0.5v0.2c-0.2,0-1.1,0-1.2,0
		c-0.2,0-0.9,0-1.1,0V35.2z"/>
	<path class="st4" d="M278.3,32.7c0-1.6,1.1-2.8,2.7-2.8c1.6,0,2.7,1.2,2.7,2.8c0,1.6-1.1,2.8-2.7,2.8
		C279.4,35.5,278.3,34.3,278.3,32.7z M282.7,32.7c0-1.1-0.5-2.3-1.7-2.3c-1.2,0-1.7,1.3-1.7,2.3c0,1.1,0.5,2.3,1.7,2.3
		C282.2,35,282.7,33.7,282.7,32.7z"/>
	<path class="st4" d="M284.9,35.2c0.3-0.1,0.6-0.3,0.6-0.5v-3.4c0-0.4-0.2-0.6-0.7-0.7v-0.1l1.5-0.6h0.1c0,0.2,0.1,1,0.1,1
		c0.3-0.4,0.7-1,1.5-1c0.3,0,0.6,0.1,0.8,0.2v1.2h-0.2c-0.2-0.4-0.5-0.7-1-0.7c-0.8,0-1.2,0.6-1.2,1.2v3c0,0.3,0.3,0.4,0.6,0.5v0.2
		c-0.2,0-0.9,0-1.1,0c-0.2,0-0.9,0-1.1,0V35.2z"/>
	<path class="st4" d="M289.6,35.2c0.3-0.1,0.6-0.3,0.6-0.5v-3.4c0-0.4-0.2-0.6-0.7-0.7v-0.1l1.5-0.6h0.1l0.1,0.8
		c0.5-0.4,1-0.8,1.8-0.8c0.8,0,1.2,0.4,1.3,0.8c0.5-0.4,1.1-0.8,1.9-0.8c1.1,0,1.5,0.7,1.5,1.6v3.3c0,0.3,0.3,0.4,0.6,0.5v0.2
		c-0.2,0-0.9,0-1.1,0c-0.2,0-0.9,0-1.1,0v-0.2c0.3-0.1,0.6-0.3,0.6-0.5v-2.5c0-0.9-0.1-1.7-1-1.7c-0.5,0-1,0.3-1.3,0.6
		c0,0.1,0,0.2,0,0.3v3.3c0,0.3,0.3,0.4,0.6,0.5v0.2c-0.2,0-0.9,0-1.1,0c-0.2,0-0.9,0-1.1,0v-0.2c0.3-0.1,0.6-0.3,0.6-0.5v-2.5
		c0-0.9-0.1-1.7-1-1.7c-0.6,0-1,0.4-1.3,0.7v3.5c0,0.3,0.3,0.4,0.6,0.5v0.2c-0.2,0-0.9,0-1.1,0c-0.2,0-0.9,0-1.1,0V35.2z"/>
	<path class="st4" d="M300.1,30.1c0.5-0.1,1.1-0.3,1.8-0.3c1.5,0,1.9,0.8,1.9,1.7v2.7c0,0.4,0.1,0.5,0.3,0.5c0.1,0,0.2,0,0.3-0.1
		l0.1,0.2c0,0-0.3,0.1-0.5,0.3c-0.2,0.1-0.5,0.4-0.5,0.4c-0.2-0.2-0.4-0.5-0.5-0.8c-0.4,0.4-1,0.7-1.7,0.7c-1,0-1.7-0.5-1.7-1.5
		c0-1,0.9-1.5,1.9-1.7c0.3,0,1.1-0.1,1.4-0.1v-0.8c0-0.6-0.4-1.1-1.2-1.1c-0.6,0-1.1,0.3-1.4,0.9h-0.2V30.1z M302.8,32.7H302
		c-0.8,0-1.4,0.4-1.4,1.2c0,0.6,0.4,0.9,0.9,0.9c0.5,0,1-0.3,1.3-0.7V32.7z"/>
	<path class="st4" d="M306.3,30.5h-0.8v-0.3l0.7-0.2c0.4-0.3,0.6-0.9,0.7-1.5h0.4V30h1.6v0.5h-1.6v3.3c0,0.7,0.2,0.9,0.6,0.9
		c0.4,0,0.6-0.2,0.8-0.4l0.2,0.2c-0.1,0.3-0.7,0.9-1.4,0.9c-0.6,0-1.2-0.3-1.2-1.5V30.5z"/>
	<path class="st4" d="M310.3,35.2c0.3-0.1,0.6-0.3,0.6-0.5v-3.4c0-0.4-0.2-0.6-0.7-0.7v-0.1l1.5-0.6h0.1v4.8c0,0.3,0.3,0.4,0.6,0.5
		v0.2c-0.2,0-0.9,0-1.1,0c-0.2,0-0.9,0-1.1,0V35.2z M311.3,27.7c0.3,0,0.6,0.3,0.6,0.6c0,0.3-0.3,0.6-0.6,0.6
		c-0.3,0-0.6-0.3-0.6-0.6C310.7,28,311,27.7,311.3,27.7z"/>
	<path class="st4" d="M318.5,34.5c-0.3,0.3-1,1-2,1c-1.8,0-2.8-1.1-2.8-2.8c0-1.8,1.2-2.8,2.8-2.8c0.5,0,1.3,0.1,1.8,0.3v1.1h-0.2
		c-0.3-0.5-0.8-0.9-1.6-0.9c-1.1,0-1.8,0.9-1.8,2.2c0,1.5,0.8,2.3,1.9,2.3c0.7,0,1.3-0.2,1.6-0.6L318.5,34.5z"/>
	<path class="st4" d="M320,34.1h0.2c0.4,0.7,0.8,0.9,1.5,0.9c0.7,0,1.1-0.3,1.1-0.8c0-0.3-0.2-0.5-0.4-0.6l-1.6-0.8
		c-0.5-0.3-0.8-0.7-0.8-1.3c0-1.1,1-1.6,2-1.6c0.5,0,1.2,0.1,1.6,0.3v1.1h-0.2c-0.3-0.5-0.8-0.9-1.4-0.9c-0.6,0-1,0.3-1,0.8
		c0,0.4,0.2,0.6,0.6,0.8l1.6,0.8c0.3,0.1,0.6,0.5,0.6,1.1c0,1-0.8,1.6-2.1,1.6c-0.5,0-1.2-0.1-1.6-0.3V34.1z"/>
</g>
</svg>
