<?xml version="1.0" encoding="utf-8"?>
<!-- Generator: Adobe Illustrator 22.1.0, SVG Export Plug-In . SVG Version: 6.00 Build 0)  -->
<svg version="1.1" id="Layer_1" xmlns="http://www.w3.org/2000/svg" xmlns:xlink="http://www.w3.org/1999/xlink" x="0px" y="0px"
	 viewBox="0 0 157.8 46" style="enable-background:new 0 0 157.8 46;" xml:space="preserve">
<style type="text/css">
	.st0{fill:#4F515B;}
	.st1{clip-path:url(#SVGID_2_);fill:#4F515B;}
	.st2{clip-path:url(#SVGID_4_);fill:#4F515B;}
	.st3{fill:#EB2227;}
	.st4{fill:#36AADB;}
	.st5{fill:#6D7FA4;}
	.st6{fill:#A5556D;}
	.st7{fill:#EA2228;}
</style>
<g>
	<path class="st0" d="M74.5,3.5h4.3c2.5,0,4.1,1.3,4.1,3.5c0,2.3-1.8,3.6-4.3,3.6h-1.3v2.8h-2.7L74.5,3.5z M78.5,8.4
		c1,0,1.6-0.5,1.6-1.3s-0.6-1.3-1.6-1.3h-1.3v2.7L78.5,8.4L78.5,8.4z"/>
	<g>
		<g>
			<defs>
				<rect id="SVGID_1_" x="2" y="3" width="155.8" height="41.2"/>
			</defs>
			<clipPath id="SVGID_2_">
				<use xlink:href="#SVGID_1_"  style="overflow:visible;"/>
			</clipPath>
			<path class="st1" d="M85.2,3.5h8v2.3h-5.3v1.5h4.8v2.2h-4.8V11h5.4v2.3h-8.1V3.5z"/>
		</g>
		<g>
			<defs>
				<rect id="SVGID_3_" x="2" y="3" width="155.8" height="41.2"/>
			</defs>
			<clipPath id="SVGID_4_">
				<use xlink:href="#SVGID_3_"  style="overflow:visible;"/>
			</clipPath>
			<path class="st2" d="M95.3,8.4c0-7.2,10.7-7.2,10.7,0C106.1,15.6,95.3,15.6,95.3,8.4L95.3,8.4z M103.2,8.4
				c0.1-1.5-1.1-2.7-2.6-2.7S98,6.9,98.1,8.4c-0.1,1.5,1.1,2.7,2.5,2.7C102.2,11.1,103.3,9.9,103.2,8.4L103.2,8.4z"/>
		</g>
	</g>
	<path class="st0" d="M108.6,3.5h4.2c2.5,0,4.1,1.3,4.1,3.5c0,2.3-1.8,3.6-4.3,3.6h-1.3v2.8h-2.7L108.6,3.5z M112.6,8.4
		c1,0,1.6-0.5,1.6-1.3s-0.6-1.3-1.6-1.3h-1.3v2.7L112.6,8.4L112.6,8.4z"/>
	<path class="st0" d="M119.3,3.5h2.7V11h4.8v2.4h-7.6L119.3,3.5z"/>
	<path class="st0" d="M129.2,3.5h8v2.3h-5.3v1.5h4.8v2.2h-4.8V11h5.4v2.3h-8.1L129.2,3.5z"/>
	<rect x="139.4" y="7.8" class="st0" width="4.7" height="2.4"/>
	<path class="st0" d="M74.5,18.2h4.3c2.5,0,4.1,1.3,4.1,3.5c0,2.3-1.8,3.6-4.3,3.6h-1.3v2.8h-2.7L74.5,18.2z M78.5,23.1
		c1,0,1.6-0.5,1.6-1.3s-0.6-1.3-1.6-1.3h-1.3v2.7h1.3V23.1z"/>
	<path class="st0" d="M84.8,23.1c0-7.2,10.7-7.2,10.7,0S84.8,30.3,84.8,23.1L84.8,23.1z M92.7,23.1c0.1-1.5-1.1-2.7-2.6-2.7
		s-2.6,1.2-2.5,2.7c-0.1,1.4,1.1,2.7,2.5,2.7C91.6,25.8,92.7,24.6,92.7,23.1L92.7,23.1z"/>
	<path class="st0" d="M96.8,18.2h2.9l1.7,5.7l1.9-5.8h2.4l1.9,5.8l1.7-5.7h2.8l-3.3,10h-2.4l-2-5.7l-2,5.7H100L96.8,18.2z"/>
	<path class="st0" d="M114.5,18.2h8v2.3h-5.3V22h4.8v2.2h-4.8v1.6h5.4v2.3h-8.1V18.2z"/>
	<path class="st0" d="M125.1,18.2h4.7c1.2-0.1,2.3,0.3,3.2,1.1c0.6,0.6,0.9,1.4,0.9,2.3c0,1.3-0.8,2.6-2,3l2.4,3.5h-3.2l-2-3h-1.2v3
		h-2.7L125.1,18.2z M129.7,22.9c0.9,0,1.5-0.5,1.5-1.2c0-0.8-0.6-1.2-1.5-1.2h-1.8V23L129.7,22.9z"/>
	<path class="st0" d="M136.4,18.2h8v2.3h-5.3V22h4.8v2.2h-4.8v1.6h5.4v2.3h-8.1L136.4,18.2z"/>
	<path class="st0" d="M147,18.2h3.8c3.5,0,5.6,2,5.6,4.9s-2.1,5-5.7,5H147V18.2z M150.9,25.7c1.5,0.2,2.7-1,2.7-2.5
		s-1.2-2.7-2.7-2.5h-1.1v5.1L150.9,25.7z"/>
	<path class="st0" d="M74.9,32.9h1.9l3,4.7l3-4.7h1.9v9.9H83v-7.1l-3.1,4.7l-3.2-4.7v7.1H75L74.9,32.9z"/>
	<path class="st0" d="M88.3,32.9h7.4v1.6h-5.6V37h5v1.6h-5v2.7h5.7v1.6h-7.4L88.3,32.9L88.3,32.9z"/>
	<path class="st0" d="M99,32.9h3.7c2.9-0.2,5.3,2.1,5.3,4.9c0,2.9-2.4,5.1-5.3,5H99V32.9z M102.7,41.2c1.9,0.1,3.5-1.4,3.4-3.3
		c0.1-1.9-1.5-3.5-3.5-3.4h-1.9v6.7H102.7z"/>
	<rect x="111.3" y="32.9" class="st0" width="1.7" height="9.9"/>
	<path class="st0" d="M116.4,37.9c-0.1-2.9,2.3-5.2,5.1-5.1c1.5-0.1,2.9,0.5,3.9,1.5l-1.1,1.3c-0.7-0.8-1.7-1.2-2.8-1.2
		c-1.9,0-3.4,1.6-3.3,3.5c-0.1,1.9,1.4,3.5,3.3,3.5c1.1,0,2.1-0.5,2.8-1.3l1.1,1.1c-1,1.2-2.5,1.8-4,1.8
		C118.6,43,116.3,40.7,116.4,37.9L116.4,37.9z"/>
	<path class="st0" d="M128.5,32.9h1.7v9.9h-1.7V32.9z"/>
	<path class="st0" d="M134.1,32.9h1.6l5.4,6.9v-6.9h1.7v9.9h-1.5l-5.5-7.1v7.1h-1.7V32.9z"/>
	<path class="st0" d="M146.4,32.9h7.4v1.6h-5.6V37h5v1.6h-5v2.7h5.7v1.6h-7.4L146.4,32.9L146.4,32.9z"/>
	<path class="st3" d="M62.5,43.3H2V15.1h60.5v4.5H67v19.3h-4.5V43.3z M3.6,41.7h57.3v-4.5h4.5V21.1h-4.5v-4.5H3.6V41.7z"/>
	<rect x="6.8" y="19.9" class="st4" width="9.7" height="18.6"/>
	<path class="st4" d="M16.5,7.8c0,2.7-2.2,4.8-4.8,4.8c-2.7,0-4.8-2.2-4.8-4.8S9,3,11.6,3C14.3,3,16.5,5.1,16.5,7.8L16.5,7.8z"/>
	<rect x="19.1" y="19.9" class="st5" width="9.7" height="18.6"/>
	<path class="st5" d="M28.7,7.8c0,2.7-2.2,4.8-4.8,4.8c-2.7,0-4.8-2.2-4.8-4.8S21.2,3,23.9,3S28.7,5.1,28.7,7.8L28.7,7.8z"/>
	<rect x="31.3" y="19.9" class="st6" width="9.7" height="18.6"/>
	<path class="st6" d="M41,7.8c0,2.7-2.2,4.8-4.8,4.8c-2.7,0-4.8-2.2-4.8-4.8S33.5,3,36.2,3C38.8,3,41,5.1,41,7.8L41,7.8z"/>
	<path class="st7" d="M62.2,24.4h-4.5v-4.5H48v4.5h-4.5V34H48v4.5h9.7V34h4.5V24.4z"/>
	<path class="st7" d="M57.7,7.8c0,2.7-2.2,4.8-4.8,4.8c-2.7,0-4.8-2.2-4.8-4.8S50.2,3,52.9,3C55.6,3,57.7,5.1,57.7,7.8L57.7,7.8z"/>
</g>
</svg>
