<?xml version="1.0" encoding="utf-8"?>
<!-- Generator: Adobe Illustrator 23.0.0, SVG Export Plug-In . SVG Version: 6.00 Build 0)  -->
<svg version="1.1" id="Layer_1" xmlns="http://www.w3.org/2000/svg" xmlns:xlink="http://www.w3.org/1999/xlink" x="0px" y="0px"
	 viewBox="0 0 161 27" style="enable-background:new 0 0 161 27;" xml:space="preserve">
<style type="text/css">
	.st0{fill:#FFFFFF;}
</style>
<path id="S4S_Logo_Symbol" class="st0" d="M10.4,10.4h5.8c1.7,0,3.5,1.4,3.7,3.1c0,0.1,0,6.2,0,6.2c0,3.1-4.3,4.2-5.7,4.2
	c-0.3,0-6.9,0-6.9,0c-4-0.1-6-3.6-6-4.8c0-0.4,0-0.5,0-0.5h9.4V20c0,0,0.1,0.3,0.4,0.1c0.2-0.2,3.1-2.4,3.1-2.4s0.2-0.2-0.1-0.3
	c-0.2-0.1-2.9-2.3-2.9-2.3s-0.4-0.2-0.4,0.1v1.3c0,0-5.7,0-6.3,0c-1.4-0.1-3.1-1.5-3.2-2.9c0,0,0-6.1,0-6.9c0-1.8,2.6-4,5.9-4h7.1
	c2.2-0.1,5.6,1.8,5.6,4c0,0.8,0,1.7,0,1.7l-9.5-0.1V7c0-0.3-0.3-0.3-0.4-0.2C9.8,7,7,9.1,7,9.1S6.7,9.3,7,9.6s2.9,2.3,2.9,2.3
	s0.4,0.2,0.4-0.2C10.4,11,10.4,10.4,10.4,10.4z"/>
<g>
	<path class="st0" d="M26.4,8.4h4.3c1.4,0,2.7,0.2,3.6,0.5c0.9,0.4,1.8,0.9,2.3,1.4c1.1,1.1,1.6,2.5,1.6,4.5c0,1.1-0.2,2.2-0.5,3.2
		c-0.4,1.1-1.1,2-1.8,2.7c-0.9,0.9-2,1.6-3.2,2.2c-1.3,0.5-2.9,0.7-4.7,0.7h-5.6L26.4,8.4z M28.4,20.5c1.1,0,2-0.2,2.9-0.5
		c0.9-0.4,1.6-0.7,2.2-1.4c0.5-0.5,0.9-1.1,1.1-1.6c0.2-0.7,0.4-1.3,0.4-2.2c0-1.1-0.4-1.8-0.9-2.3c-0.4-0.4-0.7-0.5-1.3-0.7
		c-0.5-0.2-1.3-0.4-2.2-0.4H29l-2.5,9.2C26.4,20.5,28.4,20.5,28.4,20.5z"/>
	<path class="st0" d="M43.4,8.4h3.2l-4,15.1h-3.2L43.4,8.4z"/>
	<path class="st0" d="M45.9,21l2.5-2.2c0.5,0.7,1.3,1.1,2,1.4c0.7,0.4,1.4,0.5,2.3,0.5c0.7,0,1.3-0.2,1.6-0.4
		c0.4-0.2,0.7-0.7,0.7-1.1c0-0.2,0-0.4-0.2-0.5c-0.2-0.2-0.2-0.4-0.4-0.5c-0.2-0.2-0.5-0.4-0.7-0.5c-0.4-0.2-0.7-0.4-1.3-0.5
		c-0.5-0.2-0.9-0.4-1.4-0.7c-0.4-0.2-0.9-0.5-1.3-0.9c-0.4-0.4-0.5-0.7-0.9-1.1c-0.4-0.4-0.4-0.9-0.4-1.4c0-0.7,0.2-1.4,0.5-2.2
		c0.4-0.5,0.7-1.1,1.3-1.6c0.5-0.4,1.3-0.7,2-1.1c0.7-0.2,1.4-0.4,2.3-0.4C56,7.8,57.1,8,58,8.4s1.6,0.9,2.3,1.6L58,12.4
		c-0.5-0.5-1.1-0.9-1.6-1.3s-1.3-0.4-2-0.4s-1.3,0.2-1.6,0.5c-0.4,0.4-0.5,0.7-0.5,1.1c0,0.2,0,0.4,0.2,0.5s0.2,0.4,0.4,0.4
		c0.2,0.2,0.5,0.4,0.9,0.5c0.4,0.2,0.7,0.4,1.3,0.5c0.5,0.2,1.1,0.4,1.4,0.7c0.4,0.2,0.9,0.5,1.1,0.9c0.2,0.4,0.5,0.7,0.7,1.1
		s0.4,0.9,0.4,1.4c0,0.7-0.2,1.4-0.5,2.2c-0.4,0.5-0.7,1.1-1.3,1.6c-0.5,0.4-1.3,0.7-2,0.9c-0.7,0.2-1.4,0.4-2.3,0.4
		C49.7,23.7,47.3,22.8,45.9,21z"/>
	<path class="st0" d="M65.7,23.4c-0.9-0.4-1.6-0.7-2.2-1.3s-1.1-1.3-1.4-2.2c-0.4-0.9-0.5-1.8-0.5-2.7c0-1.3,0.2-2.3,0.7-3.4
		s1.1-2,2-2.9s1.8-1.4,2.9-2c1.1-0.5,2.3-0.7,3.6-0.7c1.4,0,2.7,0.4,3.6,0.9s1.8,1.4,2.3,2.3l-2.7,2c-0.4-0.7-0.9-1.1-1.4-1.4
		c-0.5-0.4-1.3-0.5-2.2-0.5c-0.7,0-1.4,0.2-2,0.5c-0.7,0.4-1.3,0.7-1.6,1.3c-0.5,0.5-0.9,1.1-1.3,1.8s-0.4,1.4-0.4,2.3
		c0,0.5,0,1.1,0.4,1.4c0.2,0.4,0.4,0.9,0.7,1.1c0.4,0.4,0.7,0.5,1.1,0.7s0.9,0.2,1.4,0.2c0.7,0,1.4-0.2,2-0.4
		c0.5-0.2,1.1-0.5,1.6-1.1l2.2,2.2c-0.7,0.7-1.6,1.3-2.5,1.6c-0.9,0.4-2,0.7-3.2,0.7C67.5,23.7,66.5,23.7,65.7,23.4z"/>
	<path class="st0" d="M81.3,23.4c-0.9-0.4-1.6-0.7-2.2-1.4c-0.5-0.7-1.1-1.3-1.4-2.2c-0.4-0.9-0.5-1.6-0.5-2.7s0.2-2.2,0.7-3.2
		c0.5-1.1,1.1-2,1.8-2.9s1.8-1.4,2.9-2s2.3-0.7,3.8-0.7c1.1,0,2,0.2,2.9,0.5c0.9,0.4,1.6,0.7,2.2,1.4c0.5,0.7,1.1,1.3,1.4,2.2
		c0.4,0.9,0.5,1.6,0.5,2.7s-0.2,2.2-0.7,3.2c-0.5,1.1-1.1,2-1.8,2.9c-0.7,0.9-1.8,1.4-2.9,2s-2.3,0.7-3.8,0.7
		C83.1,23.7,82,23.5,81.3,23.4z M86.7,20.3c0.7-0.4,1.3-0.7,1.6-1.3c0.5-0.5,0.9-1.1,1.1-1.8c0.2-0.7,0.4-1.3,0.4-2
		c0-0.5,0-1.1-0.2-1.6s-0.4-0.9-0.7-1.3c-0.4-0.4-0.7-0.5-1.3-0.7c-0.5-0.2-1.1-0.4-1.6-0.4c-0.7,0-1.4,0.2-2.2,0.5
		c-0.7,0.4-1.3,0.7-1.6,1.3c-0.5,0.5-0.9,1.1-1.1,1.8s-0.4,1.3-0.4,2c0,0.5,0,1.1,0.2,1.6s0.4,0.9,0.7,1.3c0.4,0.4,0.7,0.5,1.3,0.7
		c0.5,0.2,1.1,0.4,1.6,0.4C85.2,20.7,85.9,20.5,86.7,20.3z"/>
	<path class="st0" d="M96.4,8.4h3.6l1.1,10.6l6.7-10.6h3.8l-10.1,15.3h-2.9L96.4,8.4z"/>
	<path class="st0" d="M113.7,8.4h11.4l-0.7,2.9h-7.9l-0.9,3.1h7l-0.7,2.9h-7l-0.9,3.2h8.1l-0.7,2.9h-11.7L113.7,8.4z"/>
	<path class="st0" d="M128.1,8.4h5.6c1.1,0,2.2,0.2,2.9,0.4s1.4,0.5,2,1.1c0.7,0.7,1.1,1.8,1.1,3.1c0,1.4-0.4,2.5-1.3,3.4
		c-0.9,0.9-2,1.6-3.6,2l2.5,5.2h-3.8l-2.3-4.9h-2.5l-1.3,4.9H124L128.1,8.4z M132.5,15.8c0.5,0,1.1,0,1.4-0.2
		c0.4-0.2,0.9-0.2,1.1-0.5c0.4-0.2,0.5-0.5,0.7-0.7c0.2-0.4,0.4-0.7,0.4-1.1c0-0.5-0.2-0.9-0.5-1.3c-0.4-0.4-1.1-0.5-2.2-0.5h-2.7
		l-1.1,4.3H132.5z"/>
	<path class="st0" d="M144.7,17.6l-3.1-9.2h3.8l1.8,6.3l5.2-6.3h4l-8.3,9.6l-1.6,5.6h-3.2L144.7,17.6z"/>
</g>
</svg>
