<?xml version="1.0" encoding="utf-8"?>
<!-- Generator: Adobe Illustrator 23.0.1, SVG Export Plug-In . SVG Version: 6.00 Build 0)  -->
<svg version="1.1" id="Layer_1_copy" xmlns="http://www.w3.org/2000/svg" xmlns:xlink="http://www.w3.org/1999/xlink" x="0px"
	 y="0px" viewBox="0 0 161 27" style="enable-background:new 0 0 161 27;" xml:space="preserve">
<style type="text/css">
	.st0{opacity:0.75;fill:#FFFFFF;enable-background:new    ;}
	.st1{opacity:0.75;}
	.st2{fill:#FFFFFF;}
</style>
<path id="S4S_Logo_Symbol_1_" class="st0" d="M10.4,10.4h5.8c1.7,0,3.5,1.4,3.7,3.1c0,0.1,0,6.2,0,6.2c0,3.1-4.3,4.2-5.7,4.2
	c-0.3,0-6.9,0-6.9,0c-4-0.1-6-3.6-6-4.8c0-0.4,0-0.5,0-0.5h9.4V20c0,0,0.1,0.3,0.4,0.1c0.2-0.2,3.1-2.4,3.1-2.4s0.2-0.2-0.1-0.3
	c-0.2-0.1-2.9-2.3-2.9-2.3s-0.4-0.2-0.4,0.1v1.3c0,0-5.7,0-6.3,0c-1.4-0.1-3.1-1.5-3.2-2.9c0,0,0-6.1,0-6.9c0-1.8,2.6-4,5.9-4h7.1
	c2.2-0.1,5.6,1.8,5.6,4c0,0.8,0,1.7,0,1.7l-9.5-0.1V7c0-0.3-0.3-0.3-0.4-0.2C9.8,7,7,9.1,7,9.1S6.7,9.3,7,9.6s2.9,2.3,2.9,2.3
	s0.4,0.2,0.4-0.2C10.4,11,10.4,10.4,10.4,10.4z"/>
<g class="st1">
	<path class="st2" d="M25,10.9h3.6c1.2,0,2.3,0.2,3,0.4c0.8,0.3,1.5,0.8,1.9,1.2c0.9,0.9,1.3,2.1,1.3,3.8c0,0.9-0.2,1.8-0.4,2.7
		c-0.3,0.9-0.9,1.7-1.5,2.3c-0.8,0.8-1.7,1.3-2.7,1.8c-1.1,0.4-2.4,0.6-3.9,0.6h-4.7L25,10.9z M26.7,21c0.9,0,1.7-0.2,2.4-0.4
		c0.8-0.3,1.3-0.6,1.8-1.2c0.4-0.4,0.8-0.9,0.9-1.3c0.2-0.6,0.3-1.1,0.3-1.8c0-0.9-0.3-1.5-0.8-1.9c-0.3-0.3-0.6-0.4-1.1-0.6
		c-0.4-0.2-1.1-0.3-1.8-0.3h-1.3L25,21.2C25,21,26.7,21,26.7,21z"/>
	<path class="st2" d="M39.2,10.9h2.7l-3.4,12.7h-2.7L39.2,10.9z"/>
	<path class="st2" d="M41.3,21.4l2.1-1.8c0.4,0.6,1.1,0.9,1.7,1.2c0.6,0.3,1.2,0.4,1.9,0.4c0.6,0,1.1-0.2,1.3-0.3
		c0.3-0.2,0.6-0.6,0.6-0.9c0-0.2,0-0.3-0.2-0.4c-0.2-0.2-0.2-0.3-0.3-0.4c-0.2-0.2-0.4-0.3-0.6-0.4c-0.3-0.2-0.6-0.3-1.1-0.4
		c-0.4-0.2-0.8-0.3-1.2-0.6c-0.3-0.2-0.8-0.4-1.1-0.8c-0.3-0.3-0.4-0.6-0.8-0.9c-0.3-0.3-0.3-0.8-0.3-1.2c0-0.6,0.2-1.2,0.4-1.8
		c0.3-0.4,0.6-0.9,1.1-1.3c0.4-0.3,1.1-0.6,1.7-0.9c0.6-0.2,1.2-0.3,1.9-0.3c1.3,0,2.2,0.2,2.9,0.5c0.8,0.3,1.3,0.8,1.9,1.3l-1.9,2
		c-0.4-0.4-0.9-0.8-1.3-1.1C49.6,13,48.9,13,48.3,13c-0.6,0-1.1,0.2-1.3,0.4c-0.3,0.3-0.4,0.6-0.4,0.9c0,0.2,0,0.3,0.2,0.4
		C47,14.8,47,15,47.1,15c0.2,0.2,0.4,0.3,0.8,0.4c0.3,0.2,0.6,0.3,1.1,0.4c0.4,0.2,0.9,0.3,1.2,0.6c0.3,0.2,0.8,0.4,0.9,0.8
		c0.2,0.3,0.4,0.6,0.6,0.9s0.3,0.8,0.3,1.2c0,0.6-0.2,1.2-0.4,1.8c-0.3,0.4-0.6,0.9-1.1,1.3c-0.4,0.3-1.1,0.6-1.7,0.8
		c-0.6,0.2-1.2,0.3-1.9,0.3C44.5,23.7,42.5,22.9,41.3,21.4z"/>
	<path class="st2" d="M57.9,23.4c-0.8-0.3-1.3-0.6-1.8-1.1s-0.9-1.1-1.2-1.8c-0.3-0.8-0.4-1.5-0.4-2.3c0-1.1,0.2-1.9,0.6-2.8
		c0.4-0.9,0.9-1.7,1.7-2.4c0.8-0.8,1.5-1.2,2.4-1.7c0.9-0.4,1.9-0.6,3-0.6c1.2,0,2.3,0.3,3,0.8s1.5,1.2,1.9,1.9l-2.3,1.7
		c-0.3-0.6-0.8-0.9-1.2-1.2s-1.1-0.4-1.8-0.4c-0.6,0-1.2,0.2-1.7,0.4c-0.6,0.3-1.1,0.6-1.3,1.1c-0.4,0.4-0.8,0.9-1.1,1.5
		s-0.3,1.2-0.3,1.9c0,0.4,0,0.9,0.3,1.2c0.2,0.3,0.3,0.8,0.6,0.9c0.3,0.3,0.6,0.4,0.9,0.6c0.3,0.2,0.8,0.2,1.2,0.2
		c0.6,0,1.2-0.2,1.7-0.3c0.4-0.2,0.9-0.4,1.3-0.9l1.8,1.8c-0.6,0.6-1.3,1.1-2.1,1.3c-0.8,0.3-1.7,0.6-2.7,0.6
		C59.4,23.7,58.6,23.7,57.9,23.4z"/>
	<path class="st2" d="M71,23.4c-0.8-0.3-1.3-0.6-1.8-1.2c-0.4-0.6-0.9-1.1-1.2-1.8c-0.3-0.8-0.4-1.3-0.4-2.3s0.2-1.8,0.6-2.7
		c0.4-0.9,0.9-1.7,1.5-2.4c0.6-0.8,1.5-1.2,2.4-1.7s1.9-0.6,3.2-0.6c0.9,0,1.7,0.2,2.4,0.4c0.8,0.3,1.3,0.6,1.8,1.2
		c0.4,0.6,0.9,1.1,1.2,1.8c0.3,0.8,0.4,1.3,0.4,2.3c0,0.9-0.2,1.8-0.6,2.7c-0.4,0.9-0.9,1.7-1.5,2.4c-0.6,0.8-1.5,1.2-2.4,1.7
		s-1.9,0.6-3.2,0.6C72.5,23.7,71.6,23.5,71,23.4z M75.5,20.8c0.6-0.3,1.1-0.6,1.3-1.1c0.4-0.4,0.8-0.9,0.9-1.5
		c0.2-0.6,0.3-1.1,0.3-1.7c0-0.4,0-0.9-0.2-1.3c-0.2-0.4-0.3-0.8-0.6-1.1c-0.3-0.3-0.6-0.4-1.1-0.6c-0.4-0.2-0.9-0.3-1.3-0.3
		c-0.6,0-1.2,0.2-1.8,0.4c-0.6,0.3-1.1,0.6-1.3,1.1c-0.4,0.4-0.8,0.9-0.9,1.5c-0.2,0.6-0.3,1.1-0.3,1.7c0,0.4,0,0.9,0.2,1.3
		s0.3,0.8,0.6,1.1c0.3,0.3,0.6,0.4,1.1,0.6c0.4,0.2,0.9,0.3,1.3,0.3C74.3,21.2,74.8,21,75.5,20.8z"/>
	<path class="st2" d="M83.6,10.9h3l0.9,8.9l5.6-8.9h3.2l-8.5,12.8h-2.4L83.6,10.9z"/>
	<path class="st2" d="M98.1,10.9h9.6l-0.6,2.4h-6.6l-0.8,2.6h5.9l-0.6,2.4h-5.9L98.4,21h6.8l-0.6,2.4h-9.8L98.1,10.9z"/>
	<path class="st2" d="M110.2,10.9h4.7c0.9,0,1.8,0.2,2.4,0.3c0.6,0.2,1.2,0.4,1.7,0.9c0.6,0.6,0.9,1.5,0.9,2.6
		c0,1.2-0.3,2.1-1.1,2.8c-0.8,0.8-1.7,1.3-3,1.7l2.1,4.4h-3.2l-1.9-4.1h-2.1l-1.1,4.1h-2.8L110.2,10.9z M113.9,17.1
		c0.4,0,0.9,0,1.2-0.2c0.3-0.2,0.8-0.2,0.9-0.4c0.3-0.2,0.4-0.4,0.6-0.6c0.2-0.3,0.3-0.6,0.3-0.9c0-0.4-0.2-0.8-0.4-1.1
		c-0.3-0.3-0.9-0.4-1.8-0.4h-2.3l-0.9,3.6H113.9z"/>
	<path class="st2" d="M124.1,18.6l-2.6-7.7h3.2l1.5,5.3l4.4-5.3h3.4l-7,8l-1.3,4.7H123L124.1,18.6z"/>
</g>
</svg>
