<?xml version="1.0" encoding="utf-8"?>
<!-- Generator: Adobe Illustrator 22.1.0, SVG Export Plug-In . SVG Version: 6.00 Build 0)  -->
<svg version="1.1" id="Layer_1" xmlns="http://www.w3.org/2000/svg" xmlns:xlink="http://www.w3.org/1999/xlink" x="0px" y="0px"
	 viewBox="0 0 345.6 61.6" style="enable-background:new 0 0 345.6 61.6;" xml:space="preserve">
<style type="text/css">
	.st0{fill:#636569;}
	.st1{fill:#316094;}
</style>
<polygon class="st0" points="92.9,23.4 95.6,23.4 102.2,34 102.2,34 102.2,23.4 104.6,23.4 104.6,37.8 102,37.8 95.4,27.2 
	95.3,27.2 95.3,37.8 92.9,37.8 "/>
<g>
	<path class="st0" d="M113.3,32.6c-0.7,0.5-1.8,0.4-2.8,0.6c-1,0.2-1.9,0.5-1.9,1.7c0,1,1.3,1.3,2.1,1.3c1,0,2.6-0.5,2.6-2
		C113.3,34.2,113.3,32.6,113.3,32.6z M115.6,35.5c0,0.6,0.1,0.8,0.5,0.8c0.1,0,0.3,0,0.6,0v1.6c-0.3,0.1-1.1,0.3-1.5,0.3
		c-0.9,0-1.6-0.3-1.8-1.3c-0.9,0.9-2.4,1.3-3.6,1.3c-1.9,0-3.6-1-3.6-3.1c0-2.6,2.1-3,4-3.3c1.7-0.3,3.1-0.1,3.1-1.5
		c0-1.2-1.2-1.4-2.2-1.4c-1.3,0-2.2,0.5-2.3,1.7h-2.3c0.2-2.7,2.4-3.5,4.8-3.5c2,0,4.2,0.8,4.2,3v5.4H115.6z"/>
	<path class="st0" d="M116.7,27.3h1.7v-3.1h2.3v3.1h2.1V29h-2.1v5.6c0,1,0.1,1.4,1.1,1.4c0.3,0,0.6,0,1-0.1v1.8
		c-0.5,0-1,0.1-1.5,0.1c-2.4,0-2.9-0.9-2.9-2.7v-6.2h-1.7V27.3z"/>
</g>
<path class="st0" d="M124.1,27.3h2.3v10.4h-2.3V27.3z M124.1,23.4h2.3v2.2h-2.3V23.4z"/>
<g>
	<path class="st0" d="M136.3,32.6c0-1.8-0.9-3.7-3-3.7s-3,1.9-3,3.7c0,1.8,0.9,3.7,3,3.7C135.4,36.3,136.3,34.4,136.3,32.6
		 M128,32.6c0-3.2,1.9-5.5,5.3-5.5c3.4,0,5.3,2.3,5.3,5.5s-1.9,5.5-5.3,5.5S128,35.8,128,32.6"/>
	<path class="st0" d="M140.1,27.3h2.2v1.5l0,0c0.7-1.2,1.9-1.9,3.3-1.9c2.3,0,3.7,1.2,3.7,3.6v7.2H147v-6.6c0-1.6-0.7-2.3-2-2.3
		c-1.5,0-2.5,1.2-2.5,2.7v6.2h-2.3L140.1,27.3L140.1,27.3z"/>
	<path class="st0" d="M157.7,32.6c-0.7,0.5-1.8,0.4-2.8,0.6c-1,0.2-1.9,0.5-1.9,1.7c0,1,1.3,1.3,2.1,1.3c1,0,2.6-0.5,2.6-2
		L157.7,32.6L157.7,32.6z M160,35.5c0,0.6,0.1,0.8,0.5,0.8c0.1,0,0.3,0,0.6,0v1.6c-0.3,0.1-1.1,0.3-1.5,0.3c-0.9,0-1.6-0.3-1.8-1.3
		c-0.9,0.9-2.4,1.3-3.6,1.3c-1.9,0-3.6-1-3.6-3.1c0-2.6,2.1-3,4-3.3c1.7-0.3,3.1-0.1,3.1-1.5c0-1.2-1.2-1.4-2.2-1.4
		c-1.3,0-2.2,0.5-2.3,1.7h-2.3c0.2-2.7,2.4-3.5,4.8-3.5c2,0,4.2,0.8,4.2,3v5.4H160z"/>
</g>
<rect x="162.2" y="23.4" class="st0" width="2.3" height="14.4"/>
<rect x="172.1" y="23.4" class="st0" width="2.5" height="14.4"/>
<g>
	<path class="st0" d="M177,27.3h2.2v1.5l0,0c0.7-1.2,1.9-1.9,3.3-1.9c2.3,0,3.7,1.2,3.7,3.6v7.2h-2.3v-6.6c0-1.6-0.7-2.3-2-2.3
		c-1.5,0-2.5,1.2-2.5,2.7v6.2H177V27.3z"/>
	<path class="st0" d="M190,34.4c0.1,1.3,1.1,1.8,2.4,1.8c0.9,0,2.4-0.2,2.3-1.4c-0.1-1.2-1.7-1.4-3.4-1.7c-1.7-0.4-3.4-1-3.4-3.1
		c0-2.3,2.5-3,4.4-3c2.1,0,4.1,0.9,4.4,3.2h-2.4c-0.2-1.1-1.1-1.4-2.1-1.4c-0.7,0-1.9,0.2-1.9,1.1c0,1.1,1.7,1.3,3.4,1.7
		c1.7,0.4,3.4,1,3.4,3.1c0,2.5-2.5,3.4-4.7,3.4c-2.6,0-4.6-1.2-4.6-3.6h2.2L190,34.4L190,34.4z"/>
	<path class="st0" d="M197.3,27.3h1.7v-3.1h2.3v3.1h2.1V29h-2.1v5.6c0,1,0.1,1.4,1.1,1.4c0.3,0,0.6,0,1-0.1v1.8
		c-0.5,0-1,0.1-1.5,0.1c-2.4,0-2.9-0.9-2.9-2.7v-6.2h-1.7L197.3,27.3L197.3,27.3z"/>
</g>
<path class="st0" d="M204.7,27.3h2.3v10.4h-2.3V27.3z M204.7,23.4h2.3v2.2h-2.3V23.4z"/>
<g>
	<path class="st0" d="M208,27.3h1.7v-3.1h2.3v3.1h2.1V29H212v5.6c0,1,0.1,1.4,1.1,1.4c0.3,0,0.6,0,1-0.1v1.8c-0.5,0-1,0.1-1.5,0.1
		c-2.4,0-2.8-0.9-2.9-2.7v-6.2H208V27.3z"/>
	<path class="st0" d="M224.6,37.8h-2.3v-1.5l0,0c-0.6,1.1-1.8,1.7-3,1.7c-2.7,0-3.9-1.4-3.9-4.1v-6.6h2.3v6.4c0,1.8,0.7,2.5,2,2.5
		c1.9,0,2.6-1.2,2.6-2.8v-6.1h2.3L224.6,37.8L224.6,37.8z"/>
	<path class="st0" d="M225.6,27.3h1.7v-3.1h2.3v3.1h2.1V29h-2.1v5.6c0,1,0.1,1.4,1.1,1.4c0.3,0,0.6,0,1-0.1v1.8
		c-0.5,0-1,0.1-1.5,0.1c-2.4,0-2.8-0.9-2.9-2.7v-6.2h-1.7L225.6,27.3L225.6,27.3z"/>
	<path class="st0" d="M240.1,31.6c-0.1-1.5-1.1-2.8-2.6-2.8c-1.6,0-2.7,1.2-2.7,2.8H240.1z M234.7,33.2c0,1.6,0.9,3.1,2.8,3.1
		c1.3,0,2.1-0.6,2.5-1.7h2.2c-0.5,2.3-2.4,3.6-4.7,3.6c-3.3,0-5.1-2.3-5.1-5.5c0-3,1.9-5.5,5.1-5.5c3.3,0,5.3,3,4.9,6.1L234.7,33.2
		L234.7,33.2z"/>
	<path class="st0" d="M245.5,34.4c0.1,1.3,1.1,1.8,2.4,1.8c0.9,0,2.4-0.2,2.3-1.4c-0.1-1.2-1.7-1.4-3.4-1.7c-1.7-0.4-3.4-1-3.4-3.1
		c0-2.3,2.5-3,4.4-3c2.1,0,4.1,0.9,4.4,3.2h-2.4c-0.2-1.1-1.1-1.4-2.1-1.4c-0.7,0-1.9,0.2-1.9,1.1c0,1.1,1.7,1.3,3.4,1.7
		c1.7,0.4,3.4,1,3.4,3.1c0,2.5-2.5,3.4-4.7,3.4c-2.6,0-4.6-1.2-4.6-3.6h2.2L245.5,34.4L245.5,34.4z"/>
	<path class="st0" d="M266.8,32.6c0-1.8-0.9-3.7-3-3.7s-3,1.9-3,3.7c0,1.8,0.9,3.7,3,3.7S266.8,34.4,266.8,32.6 M258.6,32.6
		c0-3.2,1.9-5.5,5.3-5.5s5.3,2.3,5.3,5.5s-1.9,5.5-5.3,5.5S258.6,35.8,258.6,32.6"/>
	<path class="st0" d="M269.6,27.3h1.7v-0.9c0-2.7,1.4-3.1,2.9-3.1c0.7,0,1.3,0,1.6,0.1v1.8c-0.3-0.1-0.6-0.1-1.1-0.1
		c-0.6,0-1.1,0.2-1.1,1.1v1.1h2V29h-2v8.7h-2.3V29h-1.7V27.3z"/>
</g>
<polygon class="st0" points="282.1,23.4 284.6,23.4 284.6,29.1 291.2,29.1 291.2,23.4 293.7,23.4 293.7,37.8 291.2,37.8 291.2,31.3 
	284.6,31.3 284.6,37.8 282.1,37.8 "/>
<g>
	<path class="st0" d="M303.2,31.6c-0.1-1.5-1.1-2.8-2.6-2.8c-1.6,0-2.7,1.2-2.7,2.8H303.2z M297.8,33.2c0,1.6,0.9,3.1,2.8,3.1
		c1.3,0,2.1-0.6,2.5-1.7h2.2c-0.5,2.3-2.4,3.6-4.7,3.6c-3.3,0-5.1-2.3-5.1-5.5c0-3,1.9-5.5,5.1-5.5c3.3,0,5.3,3,4.9,6.1L297.8,33.2
		L297.8,33.2z"/>
	<path class="st0" d="M313.3,32.6c-0.7,0.5-1.8,0.4-2.8,0.6c-1,0.2-1.9,0.5-1.9,1.7c0,1,1.3,1.3,2.1,1.3c1,0,2.6-0.5,2.6-2
		L313.3,32.6L313.3,32.6z M315.6,35.5c0,0.6,0.1,0.8,0.5,0.8c0.1,0,0.3,0,0.6,0v1.6c-0.3,0.1-1.1,0.3-1.5,0.3
		c-0.9,0-1.6-0.3-1.8-1.3c-0.9,0.9-2.4,1.3-3.6,1.3c-1.9,0-3.6-1-3.6-3.1c0-2.6,2.1-3,4-3.3c1.7-0.3,3.1-0.1,3.1-1.5
		c0-1.2-1.2-1.4-2.2-1.4c-1.3,0-2.2,0.5-2.3,1.7h-2.3c0.2-2.7,2.4-3.5,4.8-3.5c2,0,4.2,0.8,4.2,3L315.6,35.5L315.6,35.5z"/>
</g>
<rect x="317.7" y="23.4" class="st0" width="2.3" height="14.4"/>
<g>
	<path class="st0" d="M321.1,27.3h1.7v-3.1h2.3v3.1h2.1V29h-2.1v5.6c0,1,0.1,1.4,1.1,1.4c0.3,0,0.6,0,1-0.1v1.8
		c-0.5,0-1,0.1-1.5,0.1c-2.4,0-2.8-0.9-2.9-2.7v-6.2h-1.7V27.3z"/>
	<path class="st0" d="M328.5,23.4h2.3v5.4l0,0c0.6-0.9,1.8-1.7,3.1-1.7c2.3,0,3.7,1.2,3.7,3.6v7.2h-2.3v-6.6c0-1.6-0.7-2.3-2-2.3
		c-1.5,0-2.5,1.2-2.5,2.7v6.2h-2.3L328.5,23.4L328.5,23.4z"/>
</g>
<g>
	<path class="st0" d="M61.4,19.5v23h-4V32.1H47.1v10.4h-4v-23h4v9.1h10.3v-9.1H61.4z M39.1,42.5h-4v-23h4V42.5z M31.3,42.5h-4.2
		L16.7,25.6h-0.1v16.9h-3.8v-23H17l10.4,16.9h0.1V19.5h3.8V42.5z M75.4,30.9l-14-25.7H9.7C7.1,5.3,5,7.4,5,10v41.9
		c0,2.6,2.1,4.7,4.7,4.7h51.6L75.4,30.9z"/>
	<path class="st1" d="M64.8,56.6l14.1-25.7l-14-25.7h3.5c1.9,0,4.3,1.4,5.2,3.1l12.3,22.6L73.5,53.5c-0.9,1.7-3.3,3.1-5.2,3.1H64.8z
		"/>
</g>
</svg>
