<?xml version="1.0" encoding="utf-8"?>
<!-- Generator: Adobe Illustrator 23.0.6, SVG Export Plug-In . SVG Version: 6.00 Build 0)  -->
<svg version="1.1" id="Layer_1" xmlns="http://www.w3.org/2000/svg" xmlns:xlink="http://www.w3.org/1999/xlink" x="0px" y="0px"
	 viewBox="0 0 38.9 21" style="enable-background:new 0 0 38.9 21;" xml:space="preserve">
<style type="text/css">
	.st0{fill:#74809A;}
	.st1{fill:#E6E7E6;}
	.st2{fill:#E6E6E6;}
	.st3{fill:#74809A;stroke:#E6E6E6;stroke-miterlimit:10;}
	.st4{fill:none;stroke:#74809A;stroke-miterlimit:10;}
</style>
<g>
	<path class="st0" d="M28.5,20.1H10.6c-5.3,0-9.6-4.3-9.6-9.6l0,0c0-5.3,4.3-9.6,9.6-9.6h17.9c5.3,0,9.6,4.3,9.6,9.6l0,0
		C38.1,15.8,33.8,20.1,28.5,20.1z"/>
	<rect x="15.5" y="2.8" class="st1" width="8.1" height="7.2"/>
	<rect x="15.5" y="10.6" class="st2" width="8.1" height="7.2"/>
	<rect x="12.3" y="5.8" class="st3" width="14.6" height="7.5"/>
	<line class="st4" x1="16.9" y1="16.1" x2="22.1" y2="16.1"/>
	<line class="st4" x1="16.9" y1="14.4" x2="22.1" y2="14.4"/>
	<g>
		<g>
			<path class="st2" d="M24,9.4c1.3,0,1.3-2,0-2C22.7,7.4,22.7,9.4,24,9.4L24,9.4z"/>
		</g>
	</g>
</g>
</svg>
