<?xml version="1.0" encoding="utf-8"?>
<!-- Generator: Adobe Illustrator 23.0.6, SVG Export Plug-In . SVG Version: 6.00 Build 0)  -->
<svg version="1.1" id="Layer_1" xmlns="http://www.w3.org/2000/svg" xmlns:xlink="http://www.w3.org/1999/xlink" x="0px" y="0px"
	 viewBox="0 0 38.8 21" style="enable-background:new 0 0 38.8 21;" xml:space="preserve">
<style type="text/css">
	.st0{fill:#74809A;}
	.st1{fill:#FFFFFF;}
	.st2{fill:#74809A;stroke:#FFFFFF;stroke-miterlimit:10;}
	.st3{fill:none;stroke:#74809A;stroke-miterlimit:10;}
</style>
<g>
	<path class="st0" d="M28.3,20.1H10.4c-5.3,0-9.6-4.3-9.6-9.6l0,0c0-5.3,4.3-9.6,9.6-9.6h17.9c5.3,0,9.6,4.3,9.6,9.6l0,0
		C37.9,15.8,33.6,20.1,28.3,20.1z"/>
	<rect x="15.3" y="2.8" class="st1" width="8.1" height="7.2"/>
	<rect x="15.3" y="10.6" class="st1" width="8.1" height="7.2"/>
	<rect x="12.1" y="5.8" class="st2" width="14.6" height="7.5"/>
	<line class="st3" x1="16.7" y1="16.1" x2="21.9" y2="16.1"/>
	<line class="st3" x1="16.7" y1="14.4" x2="21.9" y2="14.4"/>
	<g>
		<g>
			<path class="st1" d="M23.8,9.4c1.3,0,1.3-2,0-2C22.5,7.4,22.5,9.4,23.8,9.4L23.8,9.4z"/>
		</g>
	</g>
</g>
</svg>
