<?xml version="1.0" encoding="utf-8"?>
<!-- Generator: Adobe Illustrator 23.0.2, SVG Export Plug-In . SVG Version: 6.00 Build 0)  -->
<svg version="1.1" xmlns="http://www.w3.org/2000/svg" xmlns:xlink="http://www.w3.org/1999/xlink" x="0px" y="0px"
	 viewBox="0 0 314.1 46.6" style="enable-background:new 0 0 314.1 46.6;" xml:space="preserve">
<style type="text/css">
	.st0{fill:#FFFFFF;}
	.st1{display:none;}
	.st2{display:inline;fill:#001A72;}
	.st3{fill:#001A72;}
</style>
<g id="Layer_4_1_">
	<rect x="5.4" y="39.5" class="st0" width="303.7" height="7.1"/>
</g>
<g id="Layer_2" class="st1">
	<rect x="5.2" class="st2" width="303.9" height="42.2"/>
</g>
<g id="Layer_3">
	<path class="st0" d="M5.4,42.8L33.4,8c1.5-3.1,6.2-5,9-5H272c2.8,0,7.3,2,9,5l28,34.8H5.4z"/>
</g>
<g id="Layer_1">
	<g>
		<path class="st3" d="M225.2,0v28.9c0,7.2-6.8,13.3-14.9,13.3H103.8c-8.2,0-14.9-6-14.9-13.3V0H225.2z"/>
	</g>
	<g id="Layer_3_2_">
	</g>
	<g id="Layer_4">
		<g>
			<g>
				<path class="st0" d="M201.6,18.1H112c-2.2,0-3.9-1.9-3.9-4.2s1.7-4.2,3.9-4.2h89.6c2.2,0,3.9,1.9,3.9,4.2
					C205.5,16.1,203.7,18.1,201.6,18.1z"/>
			</g>
			<g>
				<path class="st0" d="M201.6,32H112c-2.2,0-3.9-1.9-3.9-4.2s1.7-4.2,3.9-4.2h89.6c2.2,0,3.9,1.9,3.9,4.2S203.7,32,201.6,32z"/>
			</g>
		</g>
	</g>
</g>
</svg>
