<?xml version="1.0" encoding="utf-8"?>
<!-- Generator: Adobe Illustrator 23.0.4, SVG Export Plug-In . SVG Version: 6.00 Build 0)  -->
<svg version="1.1" xmlns="http://www.w3.org/2000/svg" xmlns:xlink="http://www.w3.org/1999/xlink" x="0px" y="0px"
	 viewBox="0 0 80 80" style="enable-background:new 0 0 80 80;" xml:space="preserve">
<style type="text/css">
	.st0{fill:#6088D8;}
	.st1{fill:#C0C5DB;}
	.st2{fill:#FFFFFF;}
	.st3{display:none;}
	.st4{display:inline;}
	.st5{fill:#6975A8;}
	.st6{display:none;fill:#FFFFFF;}
</style>
<g id="Layer_2">
	<g>
		<path class="st0" d="M58.7,60.6H21.3c-11.1,0-20.1-9-20.1-20.1l0,0c0-11.1,9-20.1,20.1-20.1h37.4c11.1,0,20.1,9,20.1,20.1l0,0
			C78.8,51.6,69.8,60.6,58.7,60.6z"/>
	</g>
	<g>
		<path class="st1" d="M9.8,44.8v-9.4c0-3.5,5.3-6.5,11.7-6.5h37c6.4,0,11.7,2.9,11.7,6.5v9.4c0,3.5-5.3,6.5-11.7,6.5h-37
			C15,51.2,9.8,48.3,9.8,44.8z"/>
		<path class="st2" d="M58.5,51.3h-37C15,51.2,9.8,48.3,9.8,44.8v-9.4c0-3.5,5.3-6.5,11.7-6.5h37C58.5,28.9,58.5,51.3,58.5,51.3z"/>
	</g>
</g>
<g id="Layer_1">
	<g class="st3">
		<g class="st4">
			<path class="st5" d="M63.8,79H16.2c-8.2,0-15-6.8-15-15V16.4c0-8.2,6.8-15,15-15h47.6c8.2,0,15,6.8,15,15V64
				C78.8,72.2,72,79,63.8,79z"/>
			<polygon class="st6" points="75.8,40.2 49.9,20.3 49.9,33.6 30.1,33.6 30.1,20.3 4.2,40.2 30.1,60.1 30.1,46.4 49.9,46.4 
				49.9,60.1 			"/>
		</g>
	</g>
	<g>
		<path class="st1" d="M9.8,45.6v-11c0-4.2,5.3-7.6,11.7-7.6h37c6.4,0,11.7,3.4,11.7,7.6v11c0,4.2-5.3,7.6-11.7,7.6h-37
			C15,53.2,9.8,49.8,9.8,45.6z"/>
		<path class="st2" d="M41.5,53.2h-20C15,53.2,9.8,49.8,9.8,45.6v-11c0-4.2,5.3-7.6,11.7-7.6h20C41.5,27,41.5,53.2,41.5,53.2z"/>
	</g>
	<g>
		<path class="st5" d="M38.8,35.9c-0.5,0.4-1,0.8-1.5,1.5l-2.3-1.9c0.4-0.5,0.7-1,1.2-1.4c0.4-0.4,0.8-0.7,1.3-1s0.9-0.5,1.4-0.6
			c0.5-0.2,1.2-0.2,1.8-0.2c0.8,0,1.5,0.1,2.2,0.4c0.6,0.2,1.2,0.5,1.6,1c0.5,0.5,0.8,0.9,1.1,1.4c0.3,0.5,0.4,1.3,0.4,1.9
			c0,0.6-0.1,1.2-0.3,1.7c-0.2,0.5-0.5,1-0.7,1.4c-0.4,0.5-0.7,0.9-1.3,1.3s-1.1,0.9-1.7,1.4l-2.4,1.9H46v2.9H34.7v-2.6l5-4.1
			c0.5-0.4,0.9-0.7,1.2-1.1c0.4-0.3,0.6-0.6,0.8-0.9c0.2-0.3,0.4-0.5,0.5-0.8c0.1-0.3,0.2-0.5,0.2-0.9c0-0.6-0.2-1.2-0.5-1.4
			c-0.4-0.4-0.9-0.5-1.4-0.5C39.8,35.4,39.2,35.5,38.8,35.9z"/>
	</g>
</g>
</svg>
