<?xml version="1.0" encoding="utf-8"?>
<!-- Generator: Adobe Illustrator 23.0.4, SVG Export Plug-In . SVG Version: 6.00 Build 0)  -->
<svg version="1.1" xmlns="http://www.w3.org/2000/svg" xmlns:xlink="http://www.w3.org/1999/xlink" x="0px" y="0px"
	 viewBox="0 0 80 80" style="enable-background:new 0 0 80 80;" xml:space="preserve">
<style type="text/css">
	.st0{fill:#6088D8;}
	.st1{fill:#C0C5DB;}
	.st2{fill:#FFFFFF;}
	.st3{fill:#6975A8;}
</style>
<g id="Layer_2">
	<g>
		<path class="st0" d="M58.7,60.6H21.3c-11.1,0-20.1-9-20.1-20.1l0,0c0-11.1,9-20.1,20.1-20.1h37.4c11.1,0,20.1,9,20.1,20.1l0,0
			C78.8,51.6,69.8,60.6,58.7,60.6z"/>
	</g>
</g>
<g id="Layer_1">
	<g>
		<path class="st1" d="M9.8,44.8v-9.4c0-3.5,5.3-6.5,11.7-6.5h37c6.4,0,11.7,2.9,11.7,6.5v9.4c0,3.5-5.3,6.5-11.7,6.5h-37
			C15,51.2,9.8,48.3,9.8,44.8z"/>
		<path class="st2" d="M58.5,51.3h-37C15,51.2,9.8,48.3,9.8,44.8v-9.4c0-3.5,5.3-6.5,11.7-6.5h37C58.5,28.9,58.5,51.3,58.5,51.3z"/>
	</g>
	<g>
		<g>
			<path class="st3" d="M35.3,35.4v-2.9h10.3v2.5l-3.9,3.7c0.5,0.1,1,0.2,1.5,0.5c0.4,0.2,0.9,0.5,1.3,0.8c0.4,0.4,0.7,0.7,0.9,1.3
				c0.3,0.5,0.4,1.1,0.4,1.8c0,0.7-0.1,1.3-0.4,2c-0.3,0.6-0.6,1.2-1.1,1.6c-0.5,0.5-1.1,0.8-1.7,1.1c-0.7,0.3-1.4,0.4-2.2,0.4
				c-1.4,0-2.5-0.3-3.5-0.7c-1-0.5-1.8-1.1-2.4-1.9l2.2-2.2c0.5,0.6,1.1,1.1,1.6,1.3c0.5,0.3,1.3,0.5,2,0.5c0.6,0,1.2-0.2,1.5-0.5
				c0.4-0.4,0.6-0.8,0.6-1.4c0-0.6-0.3-1.1-0.8-1.4c-0.5-0.4-1.3-0.5-2.2-0.5h-1.3l-0.5-2.2l3.6-3.6L35.3,35.4L35.3,35.4z"/>
		</g>
	</g>
</g>
</svg>
