<?xml version="1.0" encoding="utf-8"?>
<!-- Generator: Adobe Illustrator 23.0.3, SVG Export Plug-In . SVG Version: 6.00 Build 0)  -->
<svg version="1.1" id="Layer_1" xmlns="http://www.w3.org/2000/svg" xmlns:xlink="http://www.w3.org/1999/xlink" x="0px" y="0px"
	 viewBox="0 0 80 80" style="enable-background:new 0 0 80 80;" xml:space="preserve">
<style type="text/css">
	.st0{fill:#6975A8;}
	.st1{display:none;fill:#FFFFFF;}
	.st2{fill:#C0C5DB;}
	.st3{fill:#FFFFFF;}
</style>
<g>
	<g>
		<path class="st0" d="M63.8,79H16.2c-8.2,0-15-6.8-15-15V16.4c0-8.2,6.8-15,15-15h47.6c8.2,0,15,6.8,15,15V64
			C78.8,72.2,72,79,63.8,79z"/>
		<polygon class="st1" points="75.8,40.2 49.9,20.3 49.9,33.6 30.1,33.6 30.1,20.3 4.2,40.2 30.1,60.1 30.1,46.4 49.9,46.4 
			49.9,60.1 		"/>
	</g>
</g>
<g>
	<path class="st2" d="M48.5,70.3h-17c-6.4,0-11.7-5.3-11.7-11.7v-37c0-6.4,5.3-11.7,11.7-11.7h17c6.4,0,11.7,5.3,11.7,11.7v37
		C60.1,65.1,54.9,70.3,48.5,70.3z"/>
	<path class="st3" d="M60.2,21.6v37c-0.1,6.5-5.3,11.7-11.7,11.7h-17c-6.4,0-11.7-5.3-11.7-11.7v-37C19.8,21.6,60.2,21.6,60.2,21.6z
		"/>
</g>
<g id="Layer_2">
	<g>
		<path class="st0" d="M34.8,35.9v-3.2h11.4v2.8l-4.3,4.1c0.6,0.1,1.1,0.2,1.7,0.5c0.5,0.2,1,0.5,1.4,0.9s0.8,0.8,1,1.4
			c0.3,0.6,0.4,1.2,0.4,2c0,0.8-0.1,1.5-0.4,2.2c-0.3,0.7-0.7,1.3-1.2,1.8c-0.5,0.5-1.2,0.9-1.9,1.2c-0.8,0.3-1.6,0.4-2.5,0.4
			c-1.5,0-2.8-0.3-3.9-0.8c-1.1-0.5-2-1.2-2.7-2.1l2.5-2.4c0.6,0.7,1.2,1.2,1.8,1.5c0.6,0.3,1.4,0.5,2.2,0.5c0.7,0,1.3-0.2,1.7-0.6
			c0.4-0.4,0.7-0.9,0.7-1.5c0-0.7-0.3-1.2-0.9-1.6c-0.6-0.4-1.4-0.6-2.4-0.6H38L37.4,40l4-4H34.8z"/>
	</g>
</g>
</svg>
