<?xml version="1.0" encoding="utf-8"?>
<!-- Generator: Adobe Illustrator 23.0.2, SVG Export Plug-In . SVG Version: 6.00 Build 0)  -->
<svg version="1.1" id="Layer_1" xmlns="http://www.w3.org/2000/svg" xmlns:xlink="http://www.w3.org/1999/xlink" x="0px" y="0px"
	 viewBox="0 0 80 80" style="enable-background:new 0 0 80 80;" xml:space="preserve">
<style type="text/css">
	.st0{fill:#6975A8;}
	.st1{display:none;fill:#FFFFFF;}
	.st2{fill:#C0C5DB;}
	.st3{fill:#FFFFFF;}
</style>
<g>
	<g>
		<path class="st0" d="M63.8,79H16.2c-8.2,0-15-6.8-15-15V16.4c0-8.2,6.8-15,15-15h47.6c8.2,0,15,6.8,15,15V64
			C78.8,72.2,72,79,63.8,79z"/>
		<polygon class="st1" points="75.8,40.2 49.9,20.3 49.9,33.6 30.1,33.6 30.1,20.3 4.2,40.2 30.1,60.1 30.1,46.4 49.9,46.4 
			49.9,60.1 		"/>
	</g>
</g>
<g>
	<path class="st2" d="M48.5,70.3h-17c-6.4,0-11.7-5.3-11.7-11.7v-37c0-6.4,5.3-11.7,11.7-11.7h17c6.4,0,11.7,5.3,11.7,11.7v37
		C60.1,65.1,54.9,70.3,48.5,70.3z"/>
	<path class="st3" d="M60.2,21.6v37c-0.1,6.5-5.3,11.7-11.7,11.7h-17c-6.4,0-11.7-5.3-11.7-11.7v-37H60.2z"/>
</g>
</svg>
