<?xml version="1.0" encoding="utf-8"?>
<!-- Generator: Adobe Illustrator 23.0.4, SVG Export Plug-In . SVG Version: 6.00 Build 0)  -->
<svg version="1.1" xmlns="http://www.w3.org/2000/svg" xmlns:xlink="http://www.w3.org/1999/xlink" x="0px" y="0px"
	 viewBox="0 0 80 80" style="enable-background:new 0 0 80 80;" xml:space="preserve">
<style type="text/css">
	.st0{fill:#6088D8;}
	.st1{display:none;}
	.st2{display:inline;}
	.st3{fill:#6975A8;}
	.st4{display:none;fill:#FFFFFF;}
	.st5{fill:#C0C5DB;}
	.st6{fill:#FFFFFF;}
</style>
<g id="Layer_2">
	<g>
		<path class="st0" d="M58.7,60.6H21.3c-11.1,0-20.1-9-20.1-20.1l0,0c0-11.1,9-20.1,20.1-20.1h37.4c11.1,0,20.1,9,20.1,20.1l0,0
			C78.8,51.6,69.8,60.6,58.7,60.6z"/>
	</g>
</g>
<g id="Layer_1">
	<g class="st1">
		<g class="st2">
			<path class="st3" d="M63.8,79H16.2c-8.2,0-15-6.8-15-15V16.4c0-8.2,6.8-15,15-15h47.6c8.2,0,15,6.8,15,15V64
				C78.8,72.2,72,79,63.8,79z"/>
			<polygon class="st4" points="75.8,40.2 49.9,20.3 49.9,33.6 30.1,33.6 30.1,20.3 4.2,40.2 30.1,60.1 30.1,46.4 49.9,46.4 
				49.9,60.1 			"/>
		</g>
	</g>
	<g>
		<path class="st5" d="M9.8,45.6v-11c0-4.2,5.3-7.6,11.7-7.6h37c6.4,0,11.7,3.4,11.7,7.6v11c0,4.2-5.3,7.6-11.7,7.6h-37
			C15,53.2,9.8,49.8,9.8,45.6z"/>
		<path class="st6" d="M21.5,53.2C15,53.2,9.8,49.8,9.8,45.6v-11c0-4.2,5.3-7.6,11.7-7.6C21.5,27,21.5,53.2,21.5,53.2z"/>
	</g>
	<g>
		<path class="st3" d="M40.6,31.4h2.2v15.2h-3.2V34.9L37,35.5l-0.7-2.7L40.6,31.4z"/>
	</g>
</g>
</svg>
