<?xml version="1.0" encoding="utf-8"?>
<!-- Generator: Adobe Illustrator 22.1.0, SVG Export Plug-In . SVG Version: 6.00 Build 0)  -->
<svg version="1.1" id="Layer_1" xmlns="http://www.w3.org/2000/svg" xmlns:xlink="http://www.w3.org/1999/xlink" x="0px" y="0px"
	 viewBox="0 0 25.8 27" style="enable-background:new 0 0 25.8 27;" xml:space="preserve">
<style type="text/css">
	.st0{fill:#FFFFFF;}
</style>
<path id="S4S_Logo_Symbol" class="st0" d="M12.4,10.4h5.8c1.7,0,3.5,1.4,3.7,3.1c0,0.1,0,6.2,0,6.2c0,3.1-4.3,4.2-5.7,4.2
	c-0.3,0-6.9,0-6.9,0c-4-0.1-6-3.6-6-4.8c0-0.4,0-0.5,0-0.5h9.4V20c0,0,0.1,0.3,0.4,0.1c0.2-0.2,3.1-2.4,3.1-2.4s0.2-0.2-0.1-0.3
	c-0.2-0.1-2.9-2.3-2.9-2.3s-0.4-0.2-0.4,0.1v1.3c0,0-5.7,0-6.3,0c-1.4-0.1-3.1-1.5-3.2-2.9c0,0,0-6.1,0-6.9c0-1.8,2.6-4,5.9-4h7.1
	c2.2-0.1,5.6,1.8,5.6,4c0,0.8,0,1.7,0,1.7l-9.5-0.1V7c0-0.3-0.3-0.3-0.4-0.2C11.8,7,9,9.1,9,9.1S8.7,9.3,9,9.6s2.9,2.3,2.9,2.3
	s0.4,0.2,0.4-0.2C12.4,11,12.4,10.4,12.4,10.4z"/>
</svg>
