<?xml version="1.0" encoding="utf-8"?>
<!-- Generator: Adobe Illustrator 22.1.0, SVG Export Plug-In . SVG Version: 6.00 Build 0)  -->
<svg version="1.1" id="Layer_1" xmlns="http://www.w3.org/2000/svg" xmlns:xlink="http://www.w3.org/1999/xlink" x="0px" y="0px"
	 viewBox="0 0 161 27" style="enable-background:new 0 0 161 27;" xml:space="preserve">
<style type="text/css">
	.st0{fill:#4430D6;}
</style>
<g>
	<path class="st0" d="M26.3,6.4c0.1,0.2,0.2,0.3,0.3,0.4C26.8,7,27,7.1,27.3,7.2c0.3,0.1,0.6,0.2,1.1,0.3c0.9,0.2,1.5,0.5,1.9,0.9
		c0.4,0.4,0.6,0.9,0.6,1.5c0,0.4-0.1,0.7-0.2,1c-0.1,0.3-0.3,0.5-0.5,0.8c-0.2,0.2-0.5,0.4-0.8,0.5s-0.7,0.2-1.1,0.2
		c-0.6,0-1.2-0.1-1.7-0.3c-0.5-0.2-1-0.5-1.5-1l0.5-0.7c0.4,0.4,0.8,0.7,1.2,0.9c0.4,0.2,0.9,0.3,1.4,0.3c0.5,0,0.9-0.1,1.3-0.4
		c0.3-0.3,0.5-0.6,0.5-1c0-0.2,0-0.4-0.1-0.5c-0.1-0.2-0.2-0.3-0.3-0.4c-0.1-0.1-0.4-0.2-0.6-0.3c-0.3-0.1-0.6-0.2-1-0.3
		c-0.4-0.1-0.8-0.2-1.2-0.4c-0.3-0.1-0.6-0.3-0.8-0.5c-0.2-0.2-0.4-0.4-0.5-0.7c-0.1-0.3-0.2-0.6-0.2-0.9c0-0.3,0.1-0.6,0.2-0.9
		s0.3-0.5,0.5-0.7c0.2-0.2,0.5-0.4,0.8-0.5s0.7-0.2,1-0.2c0.6,0,1.1,0.1,1.5,0.3s0.8,0.4,1.2,0.8l-0.5,0.7c-0.4-0.3-0.7-0.5-1.1-0.7
		c-0.4-0.1-0.7-0.2-1.1-0.2c-0.3,0-0.5,0-0.7,0.1c-0.2,0.1-0.4,0.2-0.5,0.3c-0.1,0.1-0.3,0.3-0.3,0.4c-0.1,0.2-0.1,0.3-0.1,0.5
		C26.2,6.1,26.2,6.2,26.3,6.4z"/>
	<path class="st0" d="M36.5,12.1h-0.9V8.8l-3.2-5h1.1l2.6,4.2l2.6-4.2h1l-3.2,5V12.1z"/>
	<path class="st0" d="M47.7,3.8h0.9v8.3h-0.7l-5-6.8v6.8H42V3.8h0.8l4.9,6.7V3.8z"/>
	<path class="st0" d="M57.7,11.4c-0.2,0.2-0.5,0.3-0.7,0.5c-0.3,0.1-0.5,0.2-0.8,0.3c-0.3,0.1-0.6,0.1-1,0.1c-0.6,0-1.1-0.1-1.6-0.3
		c-0.5-0.2-0.9-0.5-1.2-0.9s-0.6-0.8-0.8-1.4S51.3,8.6,51.3,8c0-0.6,0.1-1.2,0.3-1.7c0.2-0.5,0.5-1,0.8-1.4c0.3-0.4,0.8-0.7,1.2-0.9
		c0.5-0.2,1-0.3,1.6-0.3c0.4,0,0.7,0,1,0.1C56.5,3.8,56.8,3.9,57,4c0.2,0.1,0.5,0.3,0.7,0.4c0.2,0.2,0.4,0.3,0.6,0.5l-0.6,0.7
		C57.4,5.3,57,5,56.6,4.8c-0.4-0.2-0.8-0.3-1.4-0.3c-0.4,0-0.8,0.1-1.2,0.3c-0.4,0.2-0.7,0.4-1,0.7c-0.3,0.3-0.5,0.7-0.6,1.1
		c-0.2,0.4-0.2,0.9-0.2,1.3s0.1,0.9,0.2,1.4s0.4,0.8,0.6,1.1c0.3,0.3,0.6,0.6,1,0.7c0.4,0.2,0.8,0.3,1.2,0.3c0.5,0,1-0.1,1.4-0.3
		s0.8-0.5,1.1-0.9l0.6,0.6C58.2,11,57.9,11.2,57.7,11.4z"/>
	<path class="st0" d="M70.6,4.7h-4.7v3h4.2v0.9h-4.2v3.6H65V3.8h5.6V4.7z"/>
	<path class="st0" d="M80.3,9.6c-0.2,0.5-0.5,1-0.8,1.4c-0.3,0.4-0.8,0.7-1.3,0.9c-0.5,0.2-1,0.4-1.6,0.4s-1.1-0.1-1.6-0.3
		c-0.5-0.2-0.9-0.5-1.2-0.9c-0.3-0.4-0.6-0.8-0.8-1.4c-0.2-0.5-0.3-1.1-0.3-1.6s0.1-1.1,0.3-1.6s0.5-1,0.8-1.4
		C74.1,4.5,74.5,4.2,75,4c0.5-0.2,1-0.4,1.6-0.4c0.6,0,1.1,0.1,1.6,0.3s0.9,0.5,1.2,0.9c0.3,0.4,0.6,0.8,0.8,1.4s0.3,1.1,0.3,1.6
		S80.5,9.1,80.3,9.6z M79.4,6.6c-0.2-0.4-0.4-0.8-0.6-1.1c-0.3-0.3-0.6-0.6-1-0.7c-0.4-0.2-0.8-0.3-1.2-0.3s-0.9,0.1-1.2,0.3
		c-0.4,0.2-0.7,0.4-1,0.7s-0.5,0.7-0.6,1.1s-0.2,0.9-0.2,1.3c0,0.5,0.1,0.9,0.2,1.3c0.2,0.4,0.4,0.8,0.6,1.1s0.6,0.6,1,0.7
		s0.8,0.3,1.2,0.3c0.4,0,0.9-0.1,1.2-0.3c0.4-0.2,0.7-0.4,1-0.7s0.5-0.7,0.6-1.1s0.2-0.9,0.2-1.3C79.7,7.5,79.6,7,79.4,6.6z"/>
	<path class="st0" d="M88.7,12.1l-2.3-3.2h-2.2v3.2h-0.9V3.8h3.3c0.4,0,0.8,0.1,1.2,0.2c0.3,0.1,0.6,0.3,0.9,0.5
		c0.2,0.2,0.4,0.5,0.6,0.8c0.1,0.3,0.2,0.6,0.2,1c0,0.3-0.1,0.7-0.2,0.9s-0.2,0.5-0.4,0.7c-0.2,0.2-0.4,0.4-0.7,0.5
		c-0.3,0.1-0.5,0.2-0.8,0.3l2.4,3.4H88.7z M88.1,5.1c-0.3-0.3-0.8-0.4-1.5-0.4h-2.4V8h2.4c0.3,0,0.6,0,0.8-0.1s0.5-0.2,0.6-0.3
		c0.2-0.1,0.3-0.3,0.4-0.5s0.2-0.5,0.2-0.7C88.6,5.8,88.4,5.4,88.1,5.1z"/>
	<path class="st0" d="M26.3,18.3c0.1,0.2,0.2,0.3,0.3,0.4c0.2,0.1,0.4,0.2,0.6,0.4c0.3,0.1,0.6,0.2,1.1,0.3c0.9,0.2,1.5,0.5,1.9,0.9
		c0.4,0.4,0.6,0.9,0.6,1.5c0,0.4-0.1,0.7-0.2,1c-0.1,0.3-0.3,0.5-0.5,0.8c-0.2,0.2-0.5,0.4-0.8,0.5s-0.7,0.2-1.1,0.2
		c-0.6,0-1.2-0.1-1.7-0.3c-0.5-0.2-1-0.5-1.5-1l0.5-0.7c0.4,0.4,0.8,0.7,1.2,0.9c0.4,0.2,0.9,0.3,1.4,0.3c0.5,0,0.9-0.1,1.3-0.4
		c0.3-0.3,0.5-0.6,0.5-1c0-0.2,0-0.4-0.1-0.5c-0.1-0.2-0.2-0.3-0.3-0.4c-0.1-0.1-0.4-0.2-0.6-0.3c-0.3-0.1-0.6-0.2-1-0.3
		c-0.4-0.1-0.8-0.2-1.2-0.4c-0.3-0.1-0.6-0.3-0.8-0.5c-0.2-0.2-0.4-0.4-0.5-0.7c-0.1-0.3-0.2-0.6-0.2-0.9c0-0.3,0.1-0.6,0.2-0.9
		s0.3-0.5,0.5-0.7c0.2-0.2,0.5-0.4,0.8-0.5s0.7-0.2,1-0.2c0.6,0,1.1,0.1,1.5,0.3s0.8,0.4,1.2,0.8l-0.5,0.7c-0.4-0.3-0.7-0.5-1.1-0.7
		c-0.4-0.1-0.7-0.2-1.1-0.2c-0.3,0-0.5,0-0.7,0.1c-0.2,0.1-0.4,0.2-0.5,0.3c-0.1,0.1-0.3,0.3-0.3,0.4c-0.1,0.2-0.1,0.3-0.1,0.5
		C26.2,17.9,26.2,18.1,26.3,18.3z"/>
	<path class="st0" d="M39.6,23.3c-0.2,0.2-0.5,0.3-0.7,0.5C38.6,23.9,38.3,24,38,24c-0.3,0.1-0.6,0.1-1,0.1c-0.6,0-1.1-0.1-1.6-0.3
		c-0.5-0.2-0.9-0.5-1.2-0.9s-0.6-0.8-0.8-1.4s-0.3-1.1-0.3-1.7c0-0.6,0.1-1.2,0.3-1.7c0.2-0.5,0.5-1,0.8-1.4
		c0.3-0.4,0.8-0.7,1.2-0.9c0.5-0.2,1-0.3,1.6-0.3c0.4,0,0.7,0,1,0.1c0.3,0.1,0.5,0.2,0.8,0.3c0.2,0.1,0.5,0.3,0.7,0.4
		c0.2,0.2,0.4,0.3,0.6,0.5l-0.6,0.7c-0.3-0.3-0.7-0.6-1.1-0.8c-0.4-0.2-0.8-0.3-1.4-0.3c-0.4,0-0.8,0.1-1.2,0.3
		c-0.4,0.2-0.7,0.4-1,0.7c-0.3,0.3-0.5,0.7-0.6,1.1c-0.2,0.4-0.2,0.9-0.2,1.3s0.1,0.9,0.2,1.4s0.4,0.8,0.6,1.1
		c0.3,0.3,0.6,0.6,1,0.7c0.4,0.2,0.8,0.3,1.2,0.3c0.5,0,1-0.1,1.4-0.3s0.8-0.5,1.1-0.9l0.6,0.6C40,22.9,39.8,23.1,39.6,23.3z"/>
	<path class="st0" d="M43.6,15.7V24h-0.9v-8.3H43.6z"/>
	<path class="st0" d="M52.3,16.5h-4.7v2.8h4.2v0.9h-4.2v2.9h4.8V24h-5.7v-8.3h5.6V16.5z"/>
	<path class="st0" d="M60.8,15.7h0.9V24h-0.7l-5-6.8V24h-0.9v-8.3h0.8l4.9,6.7V15.7z"/>
	<path class="st0" d="M70.8,23.3c-0.2,0.2-0.5,0.3-0.7,0.5c-0.3,0.1-0.5,0.2-0.8,0.3c-0.3,0.1-0.6,0.1-1,0.1c-0.6,0-1.1-0.1-1.6-0.3
		c-0.5-0.2-0.9-0.5-1.2-0.9s-0.6-0.8-0.8-1.4s-0.3-1.1-0.3-1.7c0-0.6,0.1-1.2,0.3-1.7c0.2-0.5,0.5-1,0.8-1.4
		c0.3-0.4,0.8-0.7,1.2-0.9c0.5-0.2,1-0.3,1.6-0.3c0.4,0,0.7,0,1,0.1c0.3,0.1,0.5,0.2,0.8,0.3c0.2,0.1,0.5,0.3,0.7,0.4
		c0.2,0.2,0.4,0.3,0.6,0.5l-0.6,0.7c-0.3-0.3-0.7-0.6-1.1-0.8c-0.4-0.2-0.8-0.3-1.4-0.3c-0.4,0-0.8,0.1-1.2,0.3
		c-0.4,0.2-0.7,0.4-1,0.7c-0.3,0.3-0.5,0.7-0.6,1.1c-0.2,0.4-0.2,0.9-0.2,1.3s0.1,0.9,0.2,1.4s0.4,0.8,0.6,1.1
		c0.3,0.3,0.6,0.6,1,0.7c0.4,0.2,0.8,0.3,1.2,0.3c0.5,0,1-0.1,1.4-0.3s0.8-0.5,1.1-0.9l0.6,0.6C71.2,22.9,71,23.1,70.8,23.3z"/>
	<path class="st0" d="M79.4,16.5h-4.7v2.8h4.2v0.9h-4.2v2.9h4.8V24h-5.7v-8.3h5.6V16.5z"/>
	<path class="st0" d="M92.9,21.5c-0.2,0.5-0.5,1-0.8,1.3s-0.8,0.7-1.3,0.9c-0.5,0.2-1.1,0.3-1.7,0.3h-2.7v-8.3h2.7
		c0.6,0,1.2,0.1,1.7,0.3c0.5,0.2,0.9,0.5,1.3,0.9s0.6,0.8,0.8,1.3c0.2,0.5,0.3,1.1,0.3,1.6S93.1,21,92.9,21.5z M92,18.5
		c-0.2-0.4-0.4-0.8-0.6-1.1c-0.3-0.3-0.6-0.5-1-0.7c-0.4-0.2-0.8-0.3-1.3-0.3h-1.8v6.6h1.8c0.5,0,0.9-0.1,1.3-0.2
		c0.4-0.2,0.7-0.4,1-0.7c0.3-0.3,0.5-0.6,0.6-1c0.2-0.4,0.2-0.8,0.2-1.3C92.3,19.4,92.2,19,92,18.5z"/>
	<path class="st0" d="M96.9,15.7V24H96v-8.3H96.9z"/>
	<path class="st0" d="M100.8,18.3c0.1,0.2,0.2,0.3,0.3,0.4c0.2,0.1,0.4,0.2,0.6,0.4c0.3,0.1,0.6,0.2,1.1,0.3
		c0.9,0.2,1.5,0.5,1.9,0.9c0.4,0.4,0.6,0.9,0.6,1.5c0,0.4-0.1,0.7-0.2,1c-0.1,0.3-0.3,0.5-0.5,0.8c-0.2,0.2-0.5,0.4-0.8,0.5
		s-0.7,0.2-1.1,0.2c-0.6,0-1.2-0.1-1.7-0.3c-0.5-0.2-1-0.5-1.5-1l0.5-0.7c0.4,0.4,0.8,0.7,1.2,0.9c0.4,0.2,0.9,0.3,1.4,0.3
		c0.5,0,0.9-0.1,1.3-0.4c0.3-0.3,0.5-0.6,0.5-1c0-0.2,0-0.4-0.1-0.5c-0.1-0.2-0.2-0.3-0.3-0.4c-0.1-0.1-0.4-0.2-0.6-0.3
		c-0.3-0.1-0.6-0.2-1-0.3c-0.4-0.1-0.8-0.2-1.2-0.4c-0.3-0.1-0.6-0.3-0.8-0.5c-0.2-0.2-0.4-0.4-0.5-0.7c-0.1-0.3-0.2-0.6-0.2-0.9
		c0-0.3,0.1-0.6,0.2-0.9s0.3-0.5,0.5-0.7c0.2-0.2,0.5-0.4,0.8-0.5s0.7-0.2,1-0.2c0.6,0,1.1,0.1,1.5,0.3s0.8,0.4,1.2,0.8l-0.5,0.7
		c-0.4-0.3-0.7-0.5-1.1-0.7c-0.4-0.1-0.7-0.2-1.1-0.2c-0.3,0-0.5,0-0.7,0.1c-0.2,0.1-0.4,0.2-0.5,0.3c-0.1,0.1-0.3,0.3-0.3,0.4
		c-0.1,0.2-0.1,0.3-0.1,0.5C100.7,17.9,100.8,18.1,100.8,18.3z"/>
	<path class="st0" d="M114.1,23.3c-0.2,0.2-0.5,0.3-0.7,0.5c-0.3,0.1-0.5,0.2-0.8,0.3c-0.3,0.1-0.6,0.1-1,0.1
		c-0.6,0-1.1-0.1-1.6-0.3c-0.5-0.2-0.9-0.5-1.2-0.9s-0.6-0.8-0.8-1.4s-0.3-1.1-0.3-1.7c0-0.6,0.1-1.2,0.3-1.7c0.2-0.5,0.5-1,0.8-1.4
		c0.3-0.4,0.8-0.7,1.2-0.9c0.5-0.2,1-0.3,1.6-0.3c0.4,0,0.7,0,1,0.1c0.3,0.1,0.5,0.2,0.8,0.3c0.2,0.1,0.5,0.3,0.7,0.4
		c0.2,0.2,0.4,0.3,0.6,0.5l-0.6,0.7c-0.3-0.3-0.7-0.6-1.1-0.8c-0.4-0.2-0.8-0.3-1.4-0.3c-0.4,0-0.8,0.1-1.2,0.3
		c-0.4,0.2-0.7,0.4-1,0.7c-0.3,0.3-0.5,0.7-0.6,1.1c-0.2,0.4-0.2,0.9-0.2,1.3s0.1,0.9,0.2,1.4s0.4,0.8,0.6,1.1
		c0.3,0.3,0.6,0.6,1,0.7c0.4,0.2,0.8,0.3,1.2,0.3c0.5,0,1-0.1,1.4-0.3s0.8-0.5,1.1-0.9l0.6,0.6C114.5,22.9,114.3,23.1,114.1,23.3z"
		/>
	<path class="st0" d="M124.2,21.5c-0.2,0.5-0.5,1-0.8,1.4c-0.3,0.4-0.8,0.7-1.3,0.9c-0.5,0.2-1,0.4-1.6,0.4s-1.1-0.1-1.6-0.3
		c-0.5-0.2-0.9-0.5-1.2-0.9c-0.3-0.4-0.6-0.8-0.8-1.4c-0.2-0.5-0.3-1.1-0.3-1.6s0.1-1.1,0.3-1.6s0.5-1,0.8-1.4
		c0.3-0.4,0.8-0.7,1.3-0.9c0.5-0.2,1-0.4,1.6-0.4c0.6,0,1.1,0.1,1.6,0.3c0.5,0.2,0.9,0.5,1.2,0.9c0.3,0.4,0.6,0.8,0.8,1.4
		s0.3,1.1,0.3,1.6S124.4,20.9,124.2,21.5z M123.4,18.5c-0.2-0.4-0.4-0.8-0.6-1.1c-0.3-0.3-0.6-0.6-1-0.7c-0.4-0.2-0.8-0.3-1.2-0.3
		s-0.9,0.1-1.2,0.3c-0.4,0.2-0.7,0.4-1,0.7s-0.5,0.7-0.6,1.1s-0.2,0.9-0.2,1.3s0.1,0.9,0.2,1.3c0.2,0.4,0.4,0.8,0.6,1.1
		s0.6,0.6,1,0.7s0.8,0.3,1.2,0.3c0.4,0,0.9-0.1,1.2-0.3c0.4-0.2,0.7-0.4,1-0.7s0.5-0.7,0.6-1.1s0.2-0.9,0.2-1.3
		S123.5,18.9,123.4,18.5z"/>
	<path class="st0" d="M132.6,15.7h0.9l-3.3,8.4h-0.8l-3.3-8.4h1l2.8,7.2L132.6,15.7z"/>
	<path class="st0" d="M141.6,16.5h-4.7v2.8h4.2v0.9h-4.2v2.9h4.8V24H136v-8.3h5.6V16.5z"/>
	<path class="st0" d="M149.7,24l-2.3-3.2h-2.2V24h-0.9v-8.3h3.3c0.4,0,0.8,0.1,1.2,0.2c0.3,0.1,0.6,0.3,0.9,0.5
		c0.2,0.2,0.4,0.5,0.6,0.8c0.1,0.3,0.2,0.6,0.2,1c0,0.3-0.1,0.7-0.2,0.9s-0.2,0.5-0.4,0.7c-0.2,0.2-0.4,0.4-0.7,0.5
		c-0.3,0.1-0.5,0.2-0.8,0.3l2.4,3.4H149.7z M149.1,17c-0.3-0.3-0.8-0.4-1.5-0.4h-2.4v3.4h2.4c0.3,0,0.6,0,0.8-0.1s0.5-0.2,0.6-0.3
		c0.2-0.1,0.3-0.3,0.4-0.5s0.2-0.5,0.2-0.7C149.6,17.7,149.4,17.3,149.1,17z"/>
	<path class="st0" d="M156.3,24h-0.9v-3.3l-3.2-5h1.1l2.6,4.2l2.6-4.2h1l-3.2,5V24z"/>
</g>
<path id="S4S_Logo_Symbol" class="st0" d="M12.4,10.4h5.8c1.7,0,3.5,1.4,3.7,3.1c0,0.1,0,6.2,0,6.2c0,3.1-4.3,4.2-5.7,4.2
	c-0.3,0-6.9,0-6.9,0c-4-0.1-6-3.6-6-4.8c0-0.4,0-0.5,0-0.5h9.4l0,1.4c0,0,0.1,0.3,0.4,0.1c0.2-0.2,3.1-2.4,3.1-2.4s0.2-0.2-0.1-0.3
	c-0.2-0.1-2.9-2.3-2.9-2.3s-0.4-0.2-0.4,0.1l0,1.3c0,0-5.7,0-6.3,0c-1.4-0.1-3.1-1.5-3.2-2.9c0,0,0-6.1,0-6.9c0-1.8,2.6-4,5.9-4
	l7.1,0c2.2-0.1,5.6,1.8,5.6,4c0,0.8,0,1.7,0,1.7l-9.5-0.1l0-1.3c0-0.3-0.3-0.3-0.4-0.2C11.8,7,9,9.1,9,9.1S8.7,9.3,9,9.6
	c0.3,0.3,2.9,2.3,2.9,2.3s0.4,0.2,0.4-0.2C12.4,11,12.4,10.4,12.4,10.4z"/>
</svg>
