<?xml version="1.0" encoding="utf-8"?>
<!-- Generator: Adobe Illustrator 22.1.0, SVG Export Plug-In . SVG Version: 6.00 Build 0)  -->
<svg version="1.1" id="Layer_1" xmlns="http://www.w3.org/2000/svg" xmlns:xlink="http://www.w3.org/1999/xlink" x="0px" y="0px"
	 viewBox="0 0 27 27" style="enable-background:new 0 0 27 27;" xml:space="preserve">
<style type="text/css">
	.st0{fill:#FFFFFF;}
	.st1{fill:#626363;}
</style>
<circle id="White_Background_3_" class="st0" cx="16.9" cy="9.8" r="6.8"/>
<path id="Search_Button_Icon_2_" class="st1" d="M3.6,23.9l-1.2-1.2c-0.2-0.2-0.2-0.6,0-0.8l7.7-7c0.2-0.2,0.5-0.2,0.7,0l0.6,0.6
	c0.2,0.2,0.2,0.5,0,0.7l-7,7.7C4.2,24.1,3.8,24.1,3.6,23.9z M23.7,9.8c0-3.9-3.2-7.1-7.1-7.1S9.4,5.8,9.4,9.8s3.2,7.1,7.1,7.1
	S23.7,13.7,23.7,9.8z M22.6,9.8c0,3.3-2.7,6-6,6s-6-2.7-6-6c0-3.3,2.7-6,6-6S22.6,6.4,22.6,9.8z M18.7,5.2c-0.2,0-0.5,0-0.7,0
	c-3.4,0-6.1,2.7-6.1,6.1c0,0.2,0,0.5,0,0.7c-0.3-0.6-0.4-1.3-0.4-2.1c0-2.8,2.3-5.1,5.1-5.1C17.3,4.7,18,4.9,18.7,5.2z"/>
</svg>
