<?xml version="1.0" encoding="utf-8"?>
<!-- Generator: Adobe Illustrator 23.0.2, SVG Export Plug-In . SVG Version: 6.00 Build 0)  -->
<svg version="1.1" xmlns="http://www.w3.org/2000/svg" xmlns:xlink="http://www.w3.org/1999/xlink" x="0px" y="0px"
	 viewBox="0 0 80 80" style="enable-background:new 0 0 80 80;" xml:space="preserve">
<style type="text/css">
	.st0{fill:#6975A8;}
	.st1{fill:#FFFFFF;}
	.st2{fill:#C0C5DB;}
</style>
<g id="Layer_1">
	<g>
		<path class="st0" d="M63.8,79H16.2c-8.2,0-15-6.8-15-15V16.4c0-8.2,6.8-15,15-15h47.6c8.2,0,15,6.8,15,15V64
			C78.8,72.2,72,79,63.8,79z"/>
	</g>
</g>
<g id="Layer_1_copy">
</g>
<g id="Layer_5">
	<path class="st1" d="M44.9,27.8l-8.6,8L1.2,57v7c0,8.2,6.8,15,15,15h9.1l17.8-32.7l11-14.9L52,25.6L44.9,27.8z"/>
</g>
<g id="Layer_3">
</g>
<g id="Layer_2">
	<g>
		<path class="st2" d="M64,6.8c-0.1,0-0.2,0.1-0.3,0.2L37.6,33.2c-1.1,0-4.5,0.2-5.9,1.5l-0.6,0.6l0,0l-8.3,8.3c0,0,0,0,0,0
			c-0.3,0.3-0.7,0.9-0.7,1.9c0,2.2,1.9,5.6,4.8,8.4c3.5,3.5,8.4,6,10.3,4.1c0,0,0,0,0,0l8.3-8.3l0,0c0,0,0,0,0,0l0.6-0.6
			c1.3-1.3,1.5-4.7,1.5-5.9L73.8,17c0.1-0.1,0.1-0.2,0.2-0.3c0-0.1,0.2-0.4,0.2-1c0-1.2-0.6-3.2-3.2-5.9C66.9,5.8,64.3,6.7,64,6.8z
			 M23.8,45.7c0-0.1,0-0.2,0-0.2c0-0.3,0.1-0.6,0.2-0.7c0.2-0.2,0.5-0.2,0.9-0.2c1.5,0.1,4.3,1.5,7.1,4.3c2.7,2.7,4.2,5.5,4.3,7.1
			c0,0.1,0,0.2,0,0.2c0,0.3-0.1,0.6-0.2,0.7l0,0C35.9,57,35.6,57,35.1,57c-1.5-0.1-4.3-1.5-7.1-4.3C25.4,50,23.9,47.2,23.8,45.7z
			 M49.3,28.8c1.5,0,2.7,1.2,2.7,2.7c0,1.5-1.2,2.7-2.7,2.7c-1.5,0-2.7-1.2-2.7-2.7C46.6,30,47.8,28.8,49.3,28.8z"/>
	</g>
</g>
</svg>
