<?xml version="1.0" encoding="utf-8"?>
<!-- Generator: Adobe Illustrator 23.0.4, SVG Export Plug-In . SVG Version: 6.00 Build 0)  -->
<svg version="1.1" id="Layer_3" xmlns="http://www.w3.org/2000/svg" xmlns:xlink="http://www.w3.org/1999/xlink" x="0px" y="0px"
	 viewBox="0 0 15 15" style="enable-background:new 0 0 15 15;" xml:space="preserve">
<style type="text/css">
	.st0{fill:#FFFFFF;}
</style>
<path class="st0" d="M9.1,0C5.9,0,3.2,2.6,3.2,5.9c0,1.4,0.5,2.7,1.3,3.7l-4,4L2,15l4.1-4.1C7,11.4,8,11.8,9.1,11.8
	c3.2,0,5.9-2.6,5.9-5.9C15,2.6,12.4,0,9.1,0z M9.1,10.1c-2.4,0-4.3-1.9-4.3-4.3c0-2.4,1.9-4.3,4.3-4.3s4.3,1.9,4.3,4.3
	C13.4,8.2,11.5,10.1,9.1,10.1z"/>
</svg>
