<?xml version="1.0" encoding="utf-8"?>
<!-- Generator: Adobe Illustrator 23.0.6, SVG Export Plug-In . SVG Version: 6.00 Build 0)  -->
<svg version="1.1" xmlns="http://www.w3.org/2000/svg" xmlns:xlink="http://www.w3.org/1999/xlink" x="0px" y="0px"
	 viewBox="0 0 100 100" style="enable-background:new 0 0 100 100;" xml:space="preserve">
<style type="text/css">
	.st0{fill:#FFFFFF;}
	.st1{fill:#8A98B5;}
	.st2{fill:#8798B8;}
	.st3{clip-path:url(#SVGID_2_);fill:#DBE3F5;}
	.st4{fill:none;stroke:#8798B8;stroke-width:2.279;stroke-linejoin:round;stroke-miterlimit:10;}
	.st5{clip-path:url(#SVGID_4_);fill:#DBE3F5;}
	.st6{clip-path:url(#SVGID_4_);fill:none;stroke:#DBE3F5;stroke-width:1.436;stroke-miterlimit:10;}
	.st7{fill:none;stroke:#DBE3F5;stroke-miterlimit:10;}
	.st8{fill:none;stroke:#DBE3F5;stroke-width:1.106;stroke-miterlimit:10;}
	.st9{fill:none;stroke:#DBE3F5;stroke-width:1.5;stroke-linejoin:round;stroke-miterlimit:10;}
	.st10{fill:#DBE3F5;}
	.st11{fill:none;stroke:#DBE3F5;stroke-width:1.106;stroke-linecap:round;stroke-linejoin:round;stroke-miterlimit:10;}
	.st12{fill:none;stroke:#DBE3F5;stroke-width:1.5;stroke-miterlimit:10;}
</style>
<g id="Layer_1">
	<rect x="50" class="st0" width="50" height="100"/>
	<g>
		<circle class="st1" cx="50" cy="50" r="50"/>
	</g>
</g>
<g id="Layer_2">
	<path class="st2" d="M98,50.2c0,26.5-21.5,48-48,48S2,76.7,2,50.2c0-26.5,21.5-48,48-48S98,23.7,98,50.2"/>
	<g>
		<defs>
			<path id="SVGID_1_" d="M9.4,50.3c0,12,9.7,21.7,21.7,21.7s21.7-9.7,21.7-21.7s-9.7-21.7-21.7-21.7S9.4,38.3,9.4,50.3"/>
		</defs>
		<clipPath id="SVGID_2_">
			<use xlink:href="#SVGID_1_"  style="overflow:visible;"/>
		</clipPath>
		<path class="st3" d="M49.5,60.8c0-10.2-8.2-18.4-18.4-18.4c-10.2,0-18.4,8.2-18.4,18.4c0,10.2,8.2,18.4,18.4,18.4
			C41.3,79.2,49.5,71,49.5,60.8"/>
	</g>
	<polygon class="st2" points="31.1,56.2 22.9,46.5 31.1,38.3 39.3,46.5 	"/>
	<line class="st4" x1="40" y1="54.8" x2="40" y2="62.2"/>
	<line class="st4" x1="43.7" y1="58.5" x2="36.3" y2="58.5"/>
	<path class="st2" d="M42.1,37.6c0,6.1-4.9,11-11,11s-11-4.9-11-11c0-6.1,4.9-11,11-11S42.1,31.5,42.1,37.6"/>
	<g>
		<defs>
			<path id="SVGID_3_" d="M20.1,37.6c0,6.1,4.9,11,11,11c6.1,0,11-4.9,11-11s-4.9-11-11-11C25,26.6,20.1,31.5,20.1,37.6"/>
		</defs>
		<clipPath id="SVGID_4_">
			<use xlink:href="#SVGID_3_"  style="overflow:visible;"/>
		</clipPath>
		<path class="st5" d="M16.1,33c4.2,0.9,6.9,5.1,6,9.3c-0.2,1-0.7,2-1.2,2.8"/>
		<path class="st6" d="M16.1,33c4.2,0.9,6.9,5.1,6,9.3c-0.2,1-0.7,2-1.2,2.8"/>
		<path class="st5" d="M44.9,26.5c0,4.3-3.5,7.8-7.8,7.8s-7.8-3.5-7.8-7.8c0-4.3,3.5-7.8,7.8-7.8S44.9,22.2,44.9,26.5"/>
		<path class="st6" d="M44.9,26.5c0,4.3-3.5,7.8-7.8,7.8s-7.8-3.5-7.8-7.8c0-4.3,3.5-7.8,7.8-7.8S44.9,22.2,44.9,26.5z"/>
		<path class="st5" d="M24,19.6c3.8,2.1,5.1,6.9,3,10.6c-2.1,3.8-6.9,5.1-10.6,3"/>
		<path class="st6" d="M24,19.6c3.8,2.1,5.1,6.9,3,10.6c-2.1,3.8-6.9,5.1-10.6,3"/>
	</g>
	<ellipse transform="matrix(0.7497 -0.6618 0.6618 0.7497 -17.0902 29.994)" class="st7" cx="31.1" cy="37.6" rx="11" ry="11"/>
	<line class="st8" x1="70.3" y1="41.8" x2="61.4" y2="41.8"/>
	<line class="st8" x1="79.1" y1="46.2" x2="61.4" y2="46.2"/>
	<line class="st8" x1="79.1" y1="50.6" x2="61.4" y2="50.6"/>
	<line class="st8" x1="79.1" y1="55" x2="61.4" y2="55"/>
	<line class="st8" x1="79.1" y1="59.4" x2="61.4" y2="59.4"/>
	<line class="st8" x1="79.1" y1="63.8" x2="61.4" y2="63.8"/>
	<rect x="57.2" y="32.1" class="st9" width="26.1" height="39.1"/>
	<path class="st10" d="M77.5,35.4H63v-3.3c0-1.3,1-2.3,2.3-2.3h9.9c1.3,0,2.3,1,2.3,2.3V35.4z"/>
	<path class="st11" d="M77.5,35.4H63v-3.3c0-1.3,1-2.3,2.3-2.3h9.9c1.3,0,2.3,1,2.3,2.3V35.4z"/>
	<path class="st12" d="M70.4,26.1h-0.4c-1,0-1.8,0.8-1.8,1.8v2.2h4v-2.2C72.3,26.9,71.4,26.1,70.4,26.1z"/>
</g>
</svg>
