<?xml version="1.0" encoding="utf-8"?>
<!-- Generator: Adobe Illustrator 23.0.6, SVG Export Plug-In . SVG Version: 6.00 Build 0)  -->
<svg version="1.1" xmlns="http://www.w3.org/2000/svg" xmlns:xlink="http://www.w3.org/1999/xlink" x="0px" y="0px"
	 viewBox="0 0 100 100" style="enable-background:new 0 0 100 100;" xml:space="preserve">
<style type="text/css">
	.st0{fill:#FFFFFF;}
	.st1{fill:#8A98B5;}
	.st2{fill:#8798B8;}
	.st3{clip-path:url(#SVGID_2_);fill:none;stroke:#DBE3F5;stroke-width:1.5;stroke-miterlimit:10;}
	.st4{clip-path:url(#SVGID_2_);fill:#DBE3F5;}
	.st5{clip-path:url(#SVGID_2_);}
</style>
<g id="Layer_1">
	<rect x="50" class="st0" width="50" height="100"/>
	<g>
		<circle class="st1" cx="50" cy="50" r="50"/>
	</g>
</g>
<g id="Layer_2">
	<path id="Timeline_Background" class="st2" d="M99.3,49.4c0,27.3-22.1,49.4-49.4,49.4S0.6,76.6,0.6,49.4S22.7,0,49.9,0
		S99.3,22.1,99.3,49.4"/>
	<g id="Timeline_Group">
		<defs>
			<path id="SVGID_1_" d="M0.6,50.6c0,27.3,22.1,49.4,49.4,49.4c27.3,0,49.4-22.1,49.4-49.4c0-27.3-22.1-49.4-49.4-49.4
				C22.7,1.3,0.6,23.4,0.6,50.6"/>
		</defs>
		<clipPath id="SVGID_2_">
			<use xlink:href="#SVGID_1_"  style="overflow:visible;"/>
		</clipPath>
		<path class="st3" d="M-16.2,26.5h85.7c6.2,0,11.2,5,11.2,11.2V38c0,6.2-5,11.2-11.2,11.2H27.7c-6.2,0-11.2,5-11.2,11.2
			c0,6.2,5,11.2,11.2,11.2h80.9"/>
		<path class="st4" d="M29.2,26.4c0,3.6-2.9,6.6-6.6,6.6S16,30,16,26.4c0-3.6,2.9-6.6,6.6-6.6S29.2,22.8,29.2,26.4"/>
		<g class="st5">
			<g>
				<path class="st2" d="M22.2,27h-2.7v-0.9h2.7v-2.9h1v2.9h2.7V27h-2.7v2.9h-1V27z"/>
			</g>
		</g>
		<path class="st4" d="M49.2,26.4c0,3.6-2.9,6.6-6.6,6.6c-3.6,0-6.6-2.9-6.6-6.6c0-3.6,2.9-6.6,6.6-6.6
			C46.3,19.8,49.2,22.8,49.2,26.4"/>
		<g class="st5">
			<g>
				<path class="st2" d="M42.2,27h-2.7v-0.9h2.7v-2.9h1v2.9h2.7V27h-2.7v2.9h-1V27z"/>
			</g>
		</g>
		<path class="st4" d="M86.5,37.8c0,3.6-2.9,6.6-6.6,6.6c-3.6,0-6.6-2.9-6.6-6.6c0-3.6,2.9-6.6,6.6-6.6
			C83.6,31.2,86.5,34.1,86.5,37.8"/>
		<g class="st5">
			<g>
				<path class="st2" d="M79.5,38.4h-2.7v-0.9h2.7v-2.9h1v2.9h2.7v0.9h-2.7v2.9h-1V38.4z"/>
			</g>
		</g>
		<path class="st4" d="M63.7,48.9c0,3.6-2.9,6.6-6.6,6.6s-6.6-2.9-6.6-6.6c0-3.6,2.9-6.6,6.6-6.6S63.7,45.2,63.7,48.9"/>
		<g class="st5">
			<g>
				<path class="st2" d="M56.7,49.5H54v-0.9h2.7v-2.9h1v2.9h2.7v0.9h-2.7v2.9h-1V49.5z"/>
			</g>
		</g>
		<path class="st4" d="M49.2,71.7c0,3.6-2.9,6.6-6.6,6.6c-3.6,0-6.6-2.9-6.6-6.6c0-3.6,2.9-6.6,6.6-6.6C46.3,65.1,49.2,68,49.2,71.7
			"/>
		<g class="st5">
			<g>
				<path class="st2" d="M42.2,72.3h-2.7v-0.9h2.7v-2.9h1v2.9h2.7v0.9h-2.7v2.9h-1V72.3z"/>
			</g>
		</g>
		<path class="st4" d="M87.2,71.7c0,3.6-2.9,6.6-6.6,6.6s-6.6-2.9-6.6-6.6c0-3.6,2.9-6.6,6.6-6.6S87.2,68,87.2,71.7"/>
		<g class="st5">
			<g>
				<path class="st2" d="M80.3,72.3h-2.7v-0.9h2.7v-2.9h1v2.9h2.7v0.9h-2.7v2.9h-1V72.3z"/>
			</g>
		</g>
	</g>
</g>
</svg>
