<?xml version="1.0" encoding="utf-8"?>
<!-- Generator: Adobe Illustrator 23.0.6, SVG Export Plug-In . SVG Version: 6.00 Build 0)  -->
<svg version="1.1" xmlns="http://www.w3.org/2000/svg" xmlns:xlink="http://www.w3.org/1999/xlink" x="0px" y="0px"
	 viewBox="0 0 100 100" style="enable-background:new 0 0 100 100;" xml:space="preserve">
<style type="text/css">
	.st0{fill:#FFFFFF;}
	.st1{fill:#8A98B5;}
	.st2{fill:#8798B8;}
	.st3{fill:#DBE3F5;}
	.st4{fill:none;stroke:#DBE3F5;stroke-miterlimit:10;}
	.st5{fill:none;stroke:#DBE3F5;stroke-width:1.5;stroke-miterlimit:10;}
</style>
<g id="Layer_1">
	<rect x="50" class="st0" width="50" height="100"/>
	<g>
		<circle class="st1" cx="50" cy="50" r="50"/>
	</g>
</g>
<g id="Layer_2">
	<path class="st2" d="M99,50.1C99,77.1,77.1,99,50.1,99S1.2,77.1,1.2,50.1c0-27,21.9-48.9,48.9-48.9S99,23.1,99,50.1"/>
	<polygon class="st3" points="37.8,37.5 35.4,37.5 32.8,29.3 35.1,29.3 	"/>
	<polygon class="st3" points="39.7,34.3 31.5,34.3 30.8,32.2 39,32.2 	"/>
	<line class="st4" x1="32.1" y1="47.8" x2="70.2" y2="47.8"/>
	<line class="st4" x1="31.3" y1="50.8" x2="69.5" y2="50.8"/>
	<line class="st4" x1="30.5" y1="53.7" x2="68.8" y2="53.7"/>
	<line class="st4" x1="69.4" y1="30.4" x2="53.3" y2="30.4"/>
	<line class="st4" x1="70.3" y1="33.4" x2="54" y2="33.4"/>
	<line class="st4" x1="71" y1="36.3" x2="54.8" y2="36.3"/>
	<polygon class="st5" points="77.2,76.9 72,59.3 77.2,41.5 72.3,25.2 23.9,25.2 29.1,41.5 23.9,59.3 29.1,76.9 	"/>
	<line class="st5" x1="29.1" y1="42.2" x2="77.9" y2="42.2"/>
	<line class="st5" x1="72.7" y1="59.3" x2="23.9" y2="59.3"/>
	<polygon class="st3" points="72.7,60 24.1,60 29.1,76.9 77.2,76.9 	"/>
	<g>
		<g>
			<path class="st2" d="M64,70.2c0.9,0.5,1.8,1,2.9,1c1.1,0,1.5-0.5,1.3-1.2c-0.5-1.7-4.9-1.4-5.6-3.9c-0.4-1.3,0.5-2.1,2.1-2.1
				c1.2,0,2.1,0.5,2.9,1.1l-0.4,0.7c-0.8-0.5-1.4-0.8-2.3-0.8c-0.9,0-1.4,0.4-1.2,1.2c0.5,1.5,4.8,1.3,5.6,3.8
				c0.4,1.3-0.5,2.3-2.3,2.3c-1.2,0-2.5-0.5-3.3-1.1L64,70.2z M63.7,62.1h0.8l0.7,2.3h-0.8L63.7,62.1z M67.4,71.8l0.7,2.4h-0.8
				l-0.7-2.4H67.4z"/>
		</g>
	</g>
</g>
</svg>
