<?xml version="1.0" encoding="utf-8"?>
<!-- Generator: Adobe Illustrator 23.0.6, SVG Export Plug-In . SVG Version: 6.00 Build 0)  -->
<svg version="1.1" xmlns="http://www.w3.org/2000/svg" xmlns:xlink="http://www.w3.org/1999/xlink" x="0px" y="0px"
	 viewBox="0 0 100 100" style="enable-background:new 0 0 100 100;" xml:space="preserve">
<style type="text/css">
	.st0{fill:#FFFFFF;}
	.st1{fill:#8A98B5;}
	.st2{fill:#8798B8;}
	.st3{fill:#DBE3F5;}
	.st4{fill:none;stroke:#DBE3F5;stroke-width:1.198;stroke-linecap:round;stroke-miterlimit:10;}
	.st5{fill:none;stroke:#DBE3F5;stroke-width:0.898;stroke-linecap:round;stroke-miterlimit:10;}
	.st6{fill:none;stroke:#DBE3F5;stroke-width:2.396;stroke-linecap:round;stroke-miterlimit:10;}
	.st7{fill:none;stroke:#8798B8;stroke-width:0.898;stroke-linecap:round;stroke-miterlimit:10;}
	.st8{fill:none;stroke:#8798B8;stroke-width:1.198;stroke-miterlimit:10;}
	.st9{fill:none;stroke:#DBE3F5;stroke-width:1.198;stroke-linejoin:round;stroke-miterlimit:10;}
	.st10{fill:none;stroke:#DBE3F5;stroke-width:1.198;stroke-miterlimit:10;}
	.st11{fill:none;stroke:#8798B8;stroke-width:1.797;stroke-linejoin:round;stroke-miterlimit:10;}
	.st12{fill:none;stroke:#8798B8;stroke-width:1.198;stroke-linejoin:round;stroke-miterlimit:10;}
	.st13{fill:none;stroke:#DBE3F5;stroke-width:1.198;stroke-linecap:round;stroke-linejoin:round;stroke-miterlimit:10;}
	
		.st14{clip-path:url(#SVGID_2_);fill:none;stroke:#8798B8;stroke-width:1.198;stroke-linecap:round;stroke-linejoin:round;stroke-miterlimit:10;}
</style>
<g id="Layer_1">
	<rect x="50" class="st0" width="50" height="100"/>
	<g>
		<circle class="st1" cx="50" cy="50" r="50"/>
	</g>
</g>
<g id="Layer_2">
	<g>
		<path class="st2" d="M98,49.7c0,26.2-21.3,47.5-47.5,47.5S3,75.9,3,49.7C3,23.4,24.3,2.2,50.5,2.2S98,23.4,98,49.7"/>
		<path class="st3" d="M65.9,42.6c-0.9,0-1.8-0.4-2.4-1c-0.6-0.6-1-1.5-1-2.4c0-0.9,0.4-1.8,1-2.4l7.6-7.7l4.8,4.8l-7.6,7.7
			C67.7,42.2,66.8,42.6,65.9,42.6"/>
		<path class="st3" d="M71.1,30l3.9,3.9l-7.2,7.2c-0.5,0.5-1.2,0.8-1.9,0.8c-0.7,0-1.4-0.3-1.9-0.8c-0.5-0.5-0.8-1.2-0.8-1.9
			c0-0.7,0.3-1.4,0.8-1.9L71.1,30 M71.1,28.1L63,36.2c-1.6,1.6-1.6,4.2,0,5.8c0.8,0.8,1.9,1.2,2.9,1.2c1.1,0,2.1-0.4,2.9-1.2
			l8.1-8.1L71.1,28.1z"/>
		<path class="st3" d="M25.7,64.3l4.7,4.7l-4.3,4.3c-0.6,0.6-1.5,1-2.4,1c-0.9,0-1.7-0.3-2.4-1c-1.3-1.3-1.3-3.4,0-4.7L25.7,64.3
			 M25.7,62.4l-5.3,5.3c-1.8,1.8-1.8,4.8,0,6.7c0.9,0.9,2.1,1.4,3.3,1.4s2.4-0.5,3.3-1.4l5.3-5.3L25.7,62.4z"/>
		<path class="st3" d="M32.4,69l3.8-3.8c1.8-1.8,1.8-4.8,0-6.7c-1.8-1.8-4.8-1.8-6.7,0l-3.8,3.8L32.4,69z"/>
		<path class="st3" d="M74.2,27l3.9,3.9L67.4,41.6c-0.4,0.4-0.9,0.6-1.5,0.6c-0.6,0-1.1-0.2-1.5-0.6l-1-1c-0.8-0.8-0.8-2.1,0-2.9
			L74.2,27 M74.2,25L62.5,36.7c-1.3,1.3-1.3,3.5,0,4.9l1,1c0.7,0.7,1.5,1,2.4,1c0.9,0,1.8-0.3,2.4-1L80,30.8L74.2,25z"/>
		<line class="st4" x1="73.3" y1="25.1" x2="80" y2="31.7"/>
		<line class="st5" x1="63" y1="42" x2="56.4" y2="48.7"/>
		<line class="st6" x1="63" y1="42" x2="62.2" y2="42.9"/>
		<line class="st4" x1="80.1" y1="25" x2="76.9" y2="28.2"/>
		<line class="st4" x1="78.3" y1="23.1" x2="81.9" y2="26.8"/>
		<line class="st7" x1="72.5" y1="33.9" x2="74.9" y2="36.3"/>
		<line class="st7" x1="70.6" y1="35.8" x2="73" y2="38.2"/>
		<line class="st7" x1="68.7" y1="37.7" x2="71.1" y2="40.1"/>
		<path class="st3" d="M40.7,76.8c-1.7,1.7-4.5,1.7-6.2,0c-1.7-1.7-1.7-4.5,0-6.2c1.7-1.7,4.5-1.7,6.2,0
			C42.4,72.4,42.4,75.1,40.7,76.8"/>
		<line class="st8" x1="41.3" y1="77.4" x2="34.5" y2="70.7"/>
		<path class="st9" d="M78.5,67.9l-1.9-3.3c-1.6-2.8-4.5-4.4-7.7-4.4"/>
		<path class="st3" d="M79,67.9H68.9v-7.7h0H53.7c-0.7,0-1.2,0.6-1.2,1.2v12.9c0,0.7,0.6,1.2,1.2,1.2h25.9c0.7,0,1.2-0.6,1.2-1.2v-4
			c0-1.3-1.1-2.4-2.4-2.4"/>
		<path class="st10" d="M79,67.9H68.9v-7.7h0H53.7c-0.7,0-1.2,0.6-1.2,1.2v12.9c0,0.7,0.6,1.2,1.2,1.2h25.9c0.7,0,1.2-0.6,1.2-1.2
			v-4c0-1.3-1.1-2.4-2.4-2.4"/>
		<line class="st11" x1="60.2" y1="63.1" x2="60.2" y2="69.7"/>
		<line class="st11" x1="63.6" y1="66.4" x2="56.9" y2="66.4"/>
		<path class="st3" d="M62.6,76.1c0-1.3-1.1-2.4-2.4-2.4c-1.3,0-2.4,1.1-2.4,2.4c0,1.3,1.1,2.4,2.4,2.4
			C61.5,78.5,62.6,77.4,62.6,76.1"/>
		<path class="st12" d="M62.6,76.1c0-1.3-1.1-2.4-2.4-2.4c-1.3,0-2.4,1.1-2.4,2.4c0,1.3,1.1,2.4,2.4,2.4
			C61.5,78.5,62.6,77.4,62.6,76.1z"/>
		<path class="st3" d="M76.5,76.1c0-1.3-1.1-2.4-2.4-2.4c-1.3,0-2.4,1.1-2.4,2.4c0,1.3,1.1,2.4,2.4,2.4
			C75.4,78.5,76.5,77.4,76.5,76.1"/>
		<path class="st12" d="M76.5,76.1c0-1.3-1.1-2.4-2.4-2.4c-1.3,0-2.4,1.1-2.4,2.4c0,1.3,1.1,2.4,2.4,2.4
			C75.4,78.5,76.5,77.4,76.5,76.1z"/>
		<path class="st3" d="M65.9,57.6h-0.7c-0.6,0-1.1,0.5-1.1,1.1v1.2h2.9v-1.2C67.1,58.1,66.6,57.6,65.9,57.6"/>
		<polyline class="st13" points="38.9,35.9 38.2,35.9 34.7,29.9 29.9,39.1 25.1,25.1 22,35 14.2,35 		"/>
		<path class="st3" d="M33.1,36l7.8,7.8l7.8-7.8c6.4-6.4-1.4-14.2-7.8-7.8C34.4,21.7,26.6,29.5,33.1,36"/>
	</g>
	<g>
		<defs>
			<path id="SVGID_1_" d="M33.1,35.4l7.8,7.8l7.8-7.8c6.4-6.4-1.4-14.2-7.8-7.8c-1.7-1.7-3.5-2.4-5.1-2.4
				C31.3,25.2,28.3,30.7,33.1,35.4"/>
		</defs>
		<clipPath id="SVGID_2_">
			<use xlink:href="#SVGID_1_"  style="overflow:visible;"/>
		</clipPath>
		<polyline class="st14" points="41.6,35.9 38.2,35.9 34.7,29.9 29.9,39.1 25.1,25.1 22,35 14.2,35 		"/>
	</g>
</g>
</svg>
