<?xml version="1.0" encoding="utf-8"?>
<!-- Generator: Adobe Illustrator 22.1.0, SVG Export Plug-In . SVG Version: 6.00 Build 0)  -->
<svg version="1.1" id="Layer_3" xmlns="http://www.w3.org/2000/svg" xmlns:xlink="http://www.w3.org/1999/xlink" x="0px" y="0px"
	 viewBox="0 0 27 27" style="enable-background:new 0 0 27 27;" xml:space="preserve">
<style type="text/css">
	.st0{fill:#666666;}
</style>
<g>
	<path class="st0" d="M0.7,25.3l0-1.2C1,24.1,1.4,24,2,23.9c0.9-0.2,1.5-0.3,1.7-0.5c0.2-0.1,0.4-0.5,0.7-1l3.7-9l4.3-10.6
		c0.4,0,0.8,0,1.2,0h0.8l0.2,0.3l3.2,7c0.7,1.5,1.4,2.9,1.9,4.3c0.6,1.4,1.1,2.5,1.5,3.4c0.2,0.5,0.6,1.3,1,2.4
		c0.2,0.6,0.6,1.3,1,2.2c0.2,0.5,0.4,0.8,0.5,0.8c0.2,0.2,0.6,0.3,1.1,0.3c0.5,0.1,1,0.2,1.6,0.4c0.1,0.4,0.1,0.7,0.1,0.8
		c0,0.1,0,0.2,0,0.4c-0.9,0-1.9,0-3-0.1c-1.1-0.1-2.1-0.1-2.9-0.1c-1,0-1.7,0-2.1,0l-3.1,0.2l-0.9,0c0-0.4,0-0.8,0.1-1.1l2-0.4
		c0.6-0.1,1-0.3,1.1-0.3c0.1-0.1,0.2-0.2,0.2-0.4s0-0.3-0.1-0.5L17,20.9l-1.4-3.3l-7,0c-0.3,0.5-0.8,1.9-1.6,4
		c-0.2,0.6-0.3,1-0.3,1.2c0,0.3,0.1,0.5,0.3,0.6c0.3,0.2,0.8,0.4,1.6,0.5c0.1,0,0.5,0.1,1.3,0.2c0,0.4,0,0.7,0,0.8
		c0,0.1,0,0.3,0,0.4c-0.8,0-2.6-0.1-5.4-0.3l-0.7,0.1c-0.9,0.1-1.8,0.2-2.6,0.2H0.7z M9.3,15.7c2.8,0,4.5,0.1,5,0.1l0.5,0
		c-0.4-1-0.8-2.2-1.4-3.5s-1.1-2.4-1.4-3.1L9.3,15.7z"/>
</g>
</svg>
