<?xml version="1.0" encoding="utf-8"?>
<!-- Generator: Adobe Illustrator 22.1.0, SVG Export Plug-In . SVG Version: 6.00 Build 0)  -->
<svg version="1.1" id="Layer_2_1_" xmlns="http://www.w3.org/2000/svg" xmlns:xlink="http://www.w3.org/1999/xlink" x="0px" y="0px"
	 viewBox="0 0 20 38" style="enable-background:new 0 0 20 38;" xml:space="preserve">
<style type="text/css">
	.st0{fill:#0082CA;stroke:#FFFFFF;stroke-miterlimit:10;}
	.st1{fill:#001A72;}
	.st2{fill:#01A6AA;}
</style>
<path class="st0" d="M12.6,19c0,3.4,2.7,6.1,6.1,6.1v6.5l-1.5,4l-1.9-4H3.9c-1.7,0-3-1.3-3-3v-7.5v-4.5V9.4c0-1.6,1.3-3,3-3h11.3
	l1.9-4l1.6,4v6.5C15.4,12.9,12.6,15.6,12.6,19z"/>
<path class="st1" d="M12.6,19c0,3.4,2.7,6.1,6.1,6.1v6.5l-1.5,4l-1.9-4H3.9c-1.7,0-3-1.3-3-3v-7.5v-4.5V9.4c0-1.6,1.3-3,3-3h11.3
	l1.9-4l1.6,4v6.5C15.4,12.9,12.6,15.6,12.6,19z"/>
<path class="st2" d="M12.6,19c0,3.4,2.7,6.1,6.1,6.1V27H8.6c-1.6,0-3-1.3-3-3v-9.9c0-1.6,1.4-3,3-3h10.1v1.8
	C15.3,12.9,12.6,15.6,12.6,19z"/>
</svg>
