<?xml version="1.0" encoding="utf-8"?>
<!-- Generator: Adobe Illustrator 22.1.0, SVG Export Plug-In . SVG Version: 6.00 Build 0)  -->
<svg version="1.1" id="Layer_2_1_" xmlns="http://www.w3.org/2000/svg" xmlns:xlink="http://www.w3.org/1999/xlink" x="0px" y="0px"
	 viewBox="0 0 25 37" style="enable-background:new 0 0 25 37;" xml:space="preserve">
<style type="text/css">
	.st0{fill:#0082CA;stroke:#FFFFFF;stroke-miterlimit:10;}
	.st1{fill:#001A72;}
	.st2{fill:#01A6AA;}
</style>
<path class="st0" d="M9.5,18.1c0,3.4-2.7,6.1-6.1,6.1v6.5l1.5,4l1.9-4h11.4c1.7,0,3-1.3,3-3v-7.5v-4.5V8.5c0-1.6-1.3-3-3-3H6.9
	L5,1.5l-1.6,4V12C6.7,12,9.5,14.7,9.5,18.1z"/>
<path class="st1" d="M9.5,18.1c0,3.4-2.7,6.1-6.1,6.1v6.5l1.5,4l1.9-4h11.4c1.7,0,3-1.3,3-3v-7.5v-4.5V8.5c0-1.6-1.3-3-3-3H6.9
	L5,1.5l-1.6,4V12C6.7,12,9.5,14.7,9.5,18.1z"/>
<path class="st2" d="M9.5,18.1c0,3.4-2.7,6.1-6.1,6.1v1.9h10.1c1.6,0,3-1.3,3-3v-9.9c0-1.6-1.4-3-3-3H3.4V12
	C6.8,12,9.5,14.7,9.5,18.1z"/>
</svg>
