<?xml version="1.0" encoding="utf-8"?>
<!-- Generator: Adobe Illustrator 23.0.1, SVG Export Plug-In . SVG Version: 6.00 Build 0)  -->
<svg version="1.1" id="Layer_1" xmlns="http://www.w3.org/2000/svg" xmlns:xlink="http://www.w3.org/1999/xlink" x="0px" y="0px"
	 viewBox="0 0 64 59" style="enable-background:new 0 0 64 59;" xml:space="preserve">
<style type="text/css">
	.st0{fill:#8D3031;}
</style>
<g>
	<path class="st0" d="M13.6,2.5v6.2l2.9,0c10.1,0.3,19,10,19,20.8s-8.9,20.5-19,20.8l-2.9,0v6.2h29.1c10.6,0,19.2-8.7,19.2-19.2
		V21.7c0-10.6-8.7-19.2-19.2-19.2H13.6z"/>
	<path class="st0" d="M26.1,28"/>
	<path class="st0" d="M14.7,40.4"/>
	<polygon class="st0" points="2.7,27 12.7,27 12.7,17 16.7,17 16.7,27 26.7,27 26.7,31 16.7,31 16.7,41 12.7,41 12.7,31 2.7,31 	"/>
</g>
</svg>
