<?xml version="1.0" encoding="utf-8"?>
<!-- Generator: Adobe Illustrator 22.1.0, SVG Export Plug-In . SVG Version: 6.00 Build 0)  -->
<svg version="1.1" id="Layer_2_1_" xmlns="http://www.w3.org/2000/svg" xmlns:xlink="http://www.w3.org/1999/xlink" x="0px" y="0px"
	 viewBox="0 0 20 38" style="enable-background:new 0 0 20 38;" xml:space="preserve">
<style type="text/css">
	.st0{fill:#0082CA;stroke:#FFFFFF;stroke-miterlimit:10;}
	.st1{fill:#001A72;}
	.st2{fill:#01A6AA;}
</style>
<path class="st0" d="M0.7,12.9V6.4l1.6-4l1.9,4h11.3c1.7,0,3,1.4,3,3v7.2v4.5v7.5c0,1.7-1.3,3-3,3H4.1l-1.9,4l-1.5-4v-6.5
	c3.4,0,6.1-2.7,6.1-6.1S4,12.9,0.7,12.9z"/>
<path class="st1" d="M0.7,12.9V6.4l1.6-4l1.9,4h11.3c1.7,0,3,1.4,3,3v7.2v4.5v7.5c0,1.7-1.3,3-3,3H4.1l-1.9,4l-1.5-4v-6.5
	c3.4,0,6.1-2.7,6.1-6.1S4,12.9,0.7,12.9z"/>
<path class="st2" d="M0.7,12.9v-1.8h10.1c1.6,0,3,1.4,3,3V24c0,1.7-1.4,3-3,3H0.7v-1.9c3.4,0,6.1-2.7,6.1-6.1S4.1,12.9,0.7,12.9z"/>
</svg>
