<?xml version="1.0" encoding="utf-8"?>
<!-- Generator: Adobe Illustrator 23.0.1, SVG Export Plug-In . SVG Version: 6.00 Build 0)  -->
<svg version="1.1" id="Left_Thumb_3" xmlns="http://www.w3.org/2000/svg" xmlns:xlink="http://www.w3.org/1999/xlink" x="0px"
	 y="0px" viewBox="0 0 21.8 43.4" style="enable-background:new 0 0 21.8 43.4;" xml:space="preserve">
<style type="text/css">
	.st0{fill:#8D3031;}
	.st1{opacity:0.2;fill:#8D3031;}
</style>
<g>
	<path class="st0" d="M17.2,35.4v-1.9l-0.3,0h-0.9c-3.2-0.1-6-3.1-6-6.5s2.8-6.4,6-6.5h0.9v-2v-1.9v0h-0.9c-0.2,0-0.3,0-0.5,0H1.7
		v0.1v12.9c0,3.3,2.7,6,6,6H17.2z"/>
	<path class="st0" d="M16.8,3.4V1.5H7.7C6,1.5,4.4,2.2,3.3,3.4H16.8z"/>
</g>
<polygon class="st0" points="17.2,26.2 17.2,23 15.9,23 15.9,26.2 12.8,26.2 12.8,27.4 15.9,27.4 15.9,30.6 17.2,30.6 17.2,27.4 
	20.3,27.4 20.3,26.2 "/>
<path class="st1" d="M15.9,16.5c-3.2-0.1-6-3.1-6-6.5s2.8-6.4,6-6.5h0.9V2.7H4.1C2.6,3.8,1.7,5.5,1.7,7.5v9H15.9z"/>
</svg>
