<?xml version="1.0" encoding="utf-8"?>
<!-- Generator: Adobe Illustrator 22.1.0, SVG Export Plug-In . SVG Version: 6.00 Build 0)  -->
<svg version="1.1" id="Layer_2" xmlns="http://www.w3.org/2000/svg" xmlns:xlink="http://www.w3.org/1999/xlink" x="0px" y="0px"
	 viewBox="0 0 25 37" style="enable-background:new 0 0 25 37;" xml:space="preserve">
<style type="text/css">
	.st0{fill:#0082CA;stroke:#FFFFFF;stroke-miterlimit:10;}
	.st1{fill:#0082CA;}
	.st2{fill:#4FB2DF;}
</style>
<path class="st0" d="M15.1,18.1c0,3.4,2.7,6.1,6.1,6.1v6.5l-1.5,4l-1.9-4H6.4c-1.7,0-3-1.3-3-3v-7.5v-4.5V8.5c0-1.6,1.3-3,3-3h11.3
	l1.9-4l1.5,4V12C17.8,12,15.1,14.7,15.1,18.1z"/>
<path class="st1" d="M15.1,18.1c0,3.4,2.7,6.1,6.1,6.1v6.5l-1.5,4l-1.9-4H6.4c-1.7,0-3-1.3-3-3v-7.5v-4.5V8.5c0-1.6,1.3-3,3-3h11.3
	l1.9-4l1.5,4V12C17.8,12,15.1,14.7,15.1,18.1z"/>
<path class="st2" d="M15.1,18.1c0,3.4,2.7,6.1,6.1,6.1v1.9H11.1c-1.6,0-3-1.3-3-3v-9.9c0-1.6,1.4-3,3-3h10.1V12
	C17.8,12,15.1,14.7,15.1,18.1z"/>
</svg>
