<?xml version="1.0" encoding="utf-8"?>
<!-- Generator: Adobe Illustrator 23.0.1, SVG Export Plug-In . SVG Version: 6.00 Build 0)  -->
<svg version="1.1" xmlns="http://www.w3.org/2000/svg" xmlns:xlink="http://www.w3.org/1999/xlink" x="0px" y="0px"
	 viewBox="0 0 64 76.7" style="enable-background:new 0 0 64 76.7;" xml:space="preserve">
<style type="text/css">
	.st0{fill:#8D3031;}
</style>
<g id="Layer_1">
	<g>
		<path class="st0" d="M42.8,2.5C53.3,2.5,62,11.1,62,21.7v15.6c0,10.5-8.6,19.2-19.2,19.2H13.7v-6.2h2.9c10.1-0.3,19-10,19-20.8
			c0-10.8-8.9-20.5-19-20.8h-2.9V2.5H42.8z"/>
		<path class="st0" d="M26.1,29"/>
		<path class="st0" d="M14.7,40.4"/>
		<polygon class="st0" points="2.7,31 12.7,31 12.7,41 16.7,41 16.7,31 26.7,31 26.7,27 16.7,27 16.7,17 12.7,17 12.7,27 2.7,27 		
			"/>
	</g>
</g>
<g id="Layer_2">
	
		<rect x="12.6" y="50.5" transform="matrix(-1 -4.489488e-11 4.489488e-11 -1 29.4 124.5072)" class="st0" width="4.2" height="23.5"/>
</g>
</svg>
