<?xml version="1.0" encoding="utf-8"?>
<!-- Generator: Adobe Illustrator 23.0.1, SVG Export Plug-In . SVG Version: 6.00 Build 0)  -->
<svg version="1.1" id="Layer_1" xmlns="http://www.w3.org/2000/svg" xmlns:xlink="http://www.w3.org/1999/xlink" x="0px" y="0px"
	 viewBox="0 0 64 59" style="enable-background:new 0 0 64 59;" xml:space="preserve">
<style type="text/css">
	.st0{fill:#8D3031;}
</style>
<g>
	<path class="st0" d="M51,2.5v6.2h-2.9c-10.1,0.3-19,10-19,20.8S38,50,48.1,50.3H51v6.2H21.9c-10.6,0-19.2-8.7-19.2-19.2V21.7
		c0-10.6,8.7-19.2,19.2-19.2H51z"/>
	<path class="st0" d="M38.6,29"/>
	<path class="st0" d="M50,40.4"/>
	<polygon class="st0" points="62,27 52,27 52,17 48,17 48,27 38,27 38,31 48,31 48,41 52,41 52,31 62,31 	"/>
</g>
</svg>
