<?xml version="1.0" encoding="utf-8"?>
<!-- Generator: Adobe Illustrator 23.0.1, SVG Export Plug-In . SVG Version: 6.00 Build 0)  -->
<svg version="1.1" id="Right_Thumb_3" xmlns="http://www.w3.org/2000/svg" xmlns:xlink="http://www.w3.org/1999/xlink" x="0px"
	 y="0px" viewBox="0 0 21.8 43.4" style="enable-background:new 0 0 21.8 43.4;" xml:space="preserve">
<style type="text/css">
	.st0{fill:#8D3031;}
	.st1{opacity:0.2;fill:#8D3031;}
</style>
<g>
	<path class="st0" d="M4.8,35.4v-1.9l0.3,0H6c3.2-0.1,6-3.1,6-6.5s-2.8-6.4-6-6.5H5.1v-2v-1.9v0H6c0.2,0,0.3,0,0.5,0h13.7v0.1v12.9
		c0,3.3-2.7,6-6,6H4.8z"/>
	<path class="st0" d="M5.1,3.4V1.5h9.1c1.7,0,3.3,0.7,4.4,1.9H5.1z"/>
</g>
<polygon class="st0" points="4.8,26.2 4.8,23 6.1,23 6.1,26.2 9.2,26.2 9.2,27.4 6.1,27.4 6.1,30.6 4.8,30.6 4.8,27.4 1.7,27.4 
	1.7,26.2 "/>
<path class="st1" d="M6,16.5c3.2-0.1,6-3.1,6-6.5S9.2,3.5,6,3.4H5.1V2.7h12.7c1.5,1.1,2.4,2.8,2.4,4.8v9H6z"/>
</svg>
