<?xml version="1.0" encoding="utf-8"?>
<!-- Generator: Adobe Illustrator 22.1.0, SVG Export Plug-In . SVG Version: 6.00 Build 0)  -->
<svg version="1.1" id="Layer_2" xmlns="http://www.w3.org/2000/svg" xmlns:xlink="http://www.w3.org/1999/xlink" x="0px" y="0px"
	 viewBox="0 0 27 27" style="enable-background:new 0 0 27 27;" xml:space="preserve">
<style type="text/css">
	.st0{fill:#FFFFFF;}
	.st1{fill:#626363;}
</style>
<g id="User_Data_Button_2_">
	<polygon class="st0" points="16.7,22.6 11.2,23.1 10.2,16.8 12.3,13.5 15.3,13.8 17.2,16.8 	"/>
	<path id="User_Data_Icon_1_" class="st1" d="M18.8,9.9c-0.2,0.9-0.4,1.6-0.8,1.5c-0.2,0-0.3-0.1-0.4-0.2c-0.1,1.1-1.2,2.9-2.2,3.5
		c-0.2,0.3-0.9,0.6-1.7,0.6c-0.8,0-1.5-0.3-1.7-0.6c-1-0.6-2.1-2.4-2.2-3.5c-0.1,0.1-0.2,0.2-0.4,0.2c-0.4,0-0.6-0.6-0.8-1.5
		C8.4,9,8.7,8.6,9,8.5c0.2,0,0.4,0,0.5,0.1c0-0.8-0.1-1.6,0-2.2c0.1-1,0.7-1.9,1.3-2.3c0.9-0.6,2.3-1,2.9-1c0.5,0,2,0.4,2.9,1
		c0.6,0.4,1.2,1.3,1.3,2.3c0.1,0.6,0,1.4,0,2.2c0.2-0.1,0.3-0.2,0.5-0.1C18.7,8.6,18.9,9,18.8,9.9z M20.5,17.6
		c-1.5-0.8-3.8-1.5-3.8-1.5c-0.3,1.7-1,4-2,5.9c0-1-0.1-2.4-0.3-3.9c0.6-0.9,0.6-1.1,0.6-1.3c0-0.2-0.3-0.6-0.6-0.8h-1.5
		c-0.3,0.1-0.6,0.5-0.6,0.8c0,0.2,0,0.4,0.6,1.3c-0.2,1.5-0.3,2.9-0.3,3.9c-1-1.9-1.7-4.3-2-5.9c0,0-2.3,0.8-3.8,1.5
		c-1.5,0.8-2.3,1.8-2.3,3.8v1.1c0,1.1,0.9,1.9,1.9,1.9h7.2h7.2c1.1,0,1.9-0.9,1.9-1.9v-1.1C22.8,19.4,22.1,18.4,20.5,17.6z"/>
</g>
</svg>
