<?xml version="1.0" encoding="utf-8"?>
<!-- Generator: Adobe Illustrator 23.0.2, SVG Export Plug-In . SVG Version: 6.00 Build 0)  -->
<svg version="1.1" xmlns="http://www.w3.org/2000/svg" xmlns:xlink="http://www.w3.org/1999/xlink" x="0px" y="0px"
	 viewBox="0 0 80 80" style="enable-background:new 0 0 80 80;" xml:space="preserve">
<style type="text/css">
	.st0{fill:#6975A8;}
	.st1{display:none;fill:#FFFFFF;}
	.st2{fill:#C0C5DB;}
</style>
<g id="Layer_1">
	<path class="st0" d="M63.8,79H16.2c-8.2,0-15-6.8-15-15V16.4c0-8.2,6.8-15,15-15h47.6c8.2,0,15,6.8,15,15V64
		C78.8,72.2,72,79,63.8,79z"/>
	<polygon class="st1" points="75.8,40.2 49.9,20.3 49.9,33.6 30.1,33.6 30.1,20.3 4.2,40.2 30.1,60.1 30.1,46.4 49.9,46.4 
		49.9,60.1 	"/>
</g>
<g id="Layer_2">
	<path class="st2" d="M57.6,44.7c0,7.6-5.1,14-12,16v-4.4H33.3v4.4c-7-2-12.1-8.4-12.1-16V16.1c0-4.6,3.7-8.3,8.3-8.3h19.7
		c4.6,0,8.3,3.7,8.3,8.3V44.7z"/>
	<path class="st2" d="M43.5,28.4c0-0.1,0-0.1,0-0.2c0.5,1.1,0.9,2,0.9,2.5c0,2.7-2.2,4.9-4.9,4.9c-1.2,0-2.2-0.4-3-1.1
		c0.3,0,0.5,0.1,0.8,0.1C40.7,34.7,43.5,31.9,43.5,28.4z"/>
	<path class="st0" d="M50.7,14.1H28.2c-0.5,0-0.9,0.5-0.9,1.1V41c0,0.6,0.4,1.1,0.9,1.1h22.5c0.5,0,0.9-0.5,0.9-1.1V15.2
		C51.6,14.6,51.2,14.1,50.7,14.1z"/>
	<path class="st2" d="M39.5,38.1c-4,0-7.3-3.3-7.3-7.3c0-4,7.3-12.5,7.3-12.5s7.3,8.4,7.3,12.5C46.8,34.8,43.5,38.1,39.5,38.1z"/>
	<path class="st2" d="M30.7,45.3c-1.9,0-3.4,1.5-3.4,3.4c0,1.8,1.5,3.3,3.4,3.3c1.8,0,3.4-1.5,3.4-3.3C34,46.8,32.5,45.3,30.7,45.3z
		"/>
	<path class="st2" d="M44.4,30.8c0,2.7-2.2,4.9-4.9,4.9c-1.2,0-2.2-0.4-3-1.1c0.3,0,0.5,0.1,0.8,0.1c3.4,0,6.2-2.8,6.2-6.3
		c0-0.1,0-0.1,0-0.2C44.1,29.3,44.4,30.2,44.4,30.8z"/>
	<path class="st2" d="M35.4,71.4c0,1.5,1.2,2.7,2.7,2.7h2.9c1.5,0,2.7-1.2,2.7-2.7V58.2h-8.2V71.4z"/>
	<path class="st2" d="M48.2,45.3c-1.9,0-3.4,1.5-3.4,3.4c0,1.8,1.5,3.3,3.4,3.3c1.9,0,3.3-1.5,3.3-3.3
		C51.6,46.8,50.1,45.3,48.2,45.3z"/>
	<path class="st2" d="M43.5,71.4c0,1.5-1.2,2.7-2.7,2.7H38c-1.5,0-2.7-1.2-2.7-2.7V58.2h8.2V71.4z"/>
	<path class="st0" d="M48.2,45.3c-1.9,0-3.4,1.5-3.4,3.4c0,1.8,1.5,3.3,3.4,3.3c1.9,0,3.3-1.5,3.3-3.3
		C51.6,46.8,50.1,45.3,48.2,45.3z"/>
	<path class="st0" d="M30.7,45.3c-1.9,0-3.4,1.5-3.4,3.4c0,1.8,1.5,3.3,3.4,3.3c1.8,0,3.4-1.5,3.4-3.3C34,46.8,32.5,45.3,30.7,45.3z
		"/>
</g>
</svg>
