<?xml version="1.0" encoding="utf-8"?>
<!-- Generator: Adobe Illustrator 23.0.2, SVG Export Plug-In . SVG Version: 6.00 Build 0)  -->
<svg version="1.1" id="Layer_1" xmlns="http://www.w3.org/2000/svg" xmlns:xlink="http://www.w3.org/1999/xlink" x="0px" y="0px"
	 viewBox="0 0 80 80" style="enable-background:new 0 0 80 80;" xml:space="preserve">
<style type="text/css">
	.st0{fill:#6975A8;}
	.st1{opacity:0.75;fill:#C0C5DB;enable-background:new    ;}
</style>
<g>
	<path class="st0" d="M63.8,79H16.2c-8.2,0-15-6.8-15-15V16.4c0-8.2,6.8-15,15-15h47.6c8.2,0,15,6.8,15,15V64
		C78.8,72.2,72,79,63.8,79z"/>
</g>
<g>
	<path class="st1" d="M64.3,22.6L64,22.7v-5.2c0-3.8-3.2-7-7-7h-6.9c-0.6-0.6-1.6-1-2.5-1h-1.4c-1-2-3.1-3.3-5.5-3.3
		c-2.3,0-4.4,1.3-5.5,3.3h-1.9c-0.9,0-1.9,0.4-2.5,1H24c-3.8,0-7,3.2-7,7V62c0,3.8,3.2,7,7,7c0,0,5.8,0,8.4,0l0.8,6L58,71.5l11-14.6
		L64.3,22.6z"/>
</g>
<g id="Layer_4">
	<g>
		<path class="st0" d="M47.6,11.3H45c-0.5-1.9-2.1-3.3-4.2-3.3c-2,0-3.8,1.4-4.2,3.3h-3.2c-0.9,0-1.7,0.7-1.7,1.7V17
			c0,0.9,0.7,1.7,1.7,1.7h14.2c0.9,0,1.7-0.7,1.7-1.7V13C49.4,12,48.6,11.3,47.6,11.3z M40.9,13.7c-0.8,0-1.6-0.7-1.6-1.6
			s0.7-1.6,1.6-1.6s1.6,0.7,1.6,1.6S41.7,13.7,40.9,13.7z"/>
		<g>
			<path class="st0" d="M28.8,29.4l6,43.6L55,70.1l2-0.3l2.5-3.2l5.2-6.9l2.5-3.2l-0.3-2l-4.1-29.8L28.8,29.4z M57.2,64.9l-0.8-6
				l6-0.8L57.2,64.9z M53,56.3l1.5,10.9l-17.2,2.4l-5.2-37.8L60.2,28L64,54.9L53,56.3z"/>
			
				<rect x="35.4" y="33.7" transform="matrix(0.9907 -0.1362 0.1362 0.9907 -4.2885 6.6981)" class="st0" width="22.8" height="1.9"/>
			
				<rect x="36.2" y="39.6" transform="matrix(0.9907 -0.1362 0.1362 0.9907 -5.0888 6.8671)" class="st0" width="22.8" height="1.9"/>
			<rect x="37.1" y="45.6" transform="matrix(0.9907 -0.1362 0.1362 0.9907 -5.889 7.036)" class="st0" width="22.8" height="1.9"/>
			
				<rect x="37.9" y="51.6" transform="matrix(0.9907 -0.1362 0.1362 0.9907 -6.7021 7.2059)" class="st0" width="22.8" height="1.9"/>
			<g>
				<path class="st0" d="M62.1,17.5c0-2.8-2.3-5.1-5.1-5.1h-4.7c0,0.2,0,0.4,0,0.6v3.8h4.8c0.4,0,0.7,0.4,0.7,0.7v6.1l4.4-0.6
					L62.1,17.5C62.2,17.5,62.1,17.5,62.1,17.5z"/>
				<path class="st0" d="M24,62.7c-0.4,0-0.7-0.4-0.7-0.7V17.5c0-0.4,0.4-0.7,0.7-0.7h4.8V13c0-0.2,0-0.4,0-0.6H24
					c-2.8,0-5.1,2.3-5.1,5.1V62c0,2.8,2.3,5.1,5.1,5.1h8.3l-0.6-4.4H24z"/>
			</g>
			
				<rect x="38.7" y="58.2" transform="matrix(0.9907 -0.1362 0.1362 0.9907 -7.6389 6.6738)" class="st0" width="12.4" height="1.9"/>
		</g>
	</g>
</g>
</svg>
