<?xml version="1.0" encoding="utf-8"?>
<!-- Generator: Adobe Illustrator 23.0.2, SVG Export Plug-In . SVG Version: 6.00 Build 0)  -->
<svg version="1.1" id="Layer_1" xmlns="http://www.w3.org/2000/svg" xmlns:xlink="http://www.w3.org/1999/xlink" x="0px" y="0px"
	 viewBox="0 0 80 80" style="enable-background:new 0 0 80 80;" xml:space="preserve">
<style type="text/css">
	.st0{fill:#FFFFFF;}
	.st1{fill:#001A72;}
</style>
<g>
	<path class="st0" d="M61.7,44c0,8.7-5.8,16-13.7,18.3v-5H34v5C26,60,20.2,52.7,20.2,44V11.4c0-5.2,4.2-9.5,9.5-9.5h22.5
		c5.2,0,9.5,4.2,9.5,9.5V44H61.7z"/>
	<path class="st0" d="M45.6,25.4c0-0.1,0-0.1,0-0.2c0.6,1.3,1,2.3,1,2.9c0,3.1-2.5,5.6-5.6,5.6c-1.4,0-2.5-0.5-3.4-1.3
		c0.3,0,0.6,0.1,0.9,0.1C42.4,32.6,45.6,29.4,45.6,25.4z"/>
	<path class="st1" d="M53.9,9.1H28.2c-0.6,0-1,0.6-1,1.3v29.4c0,0.7,0.5,1.3,1,1.3h25.7c0.6,0,1-0.6,1-1.3V10.3
		C54.9,9.7,54.4,9.1,53.9,9.1z"/>
	<path class="st0" d="M41.1,36.5c-4.6,0-8.3-3.8-8.3-8.3s8.3-14.3,8.3-14.3s8.3,9.6,8.3,14.3C49.4,32.7,45.6,36.5,41.1,36.5z"/>
	<path class="st0" d="M31,44.7c-2.2,0-3.9,1.7-3.9,3.9c0,2.1,1.7,3.8,3.9,3.8c2.1,0,3.9-1.7,3.9-3.8C34.8,46.4,33.1,44.7,31,44.7z"
		/>
	<path class="st0" d="M46.7,28.1c0,3.1-2.5,5.6-5.6,5.6c-1.4,0-2.5-0.5-3.4-1.3c0.3,0,0.6,0.1,0.9,0.1c3.9,0,7.1-3.2,7.1-7.2
		c0-0.1,0-0.1,0-0.2C46.3,26.4,46.7,27.5,46.7,28.1z"/>
	<path class="st0" d="M36.4,74.5c0,1.7,1.4,3.1,3.1,3.1h3.3c1.7,0,3.1-1.4,3.1-3.1V59.4h-9.4v15.1H36.4z"/>
	<path class="st0" d="M51,44.7c-2.2,0-3.9,1.7-3.9,3.9c0,2.1,1.7,3.8,3.9,3.8s3.8-1.7,3.8-3.8C54.9,46.4,53.2,44.7,51,44.7z"/>
	<path class="st0" d="M45.6,74.5c0,1.7-1.4,3.1-3.1,3.1h-3.2c-1.7,0-3.1-1.4-3.1-3.1V59.4h9.4V74.5z"/>
	<path class="st1" d="M51,44.7c-2.2,0-3.9,1.7-3.9,3.9c0,2.1,1.7,3.8,3.9,3.8s3.8-1.7,3.8-3.8C54.9,46.4,53.2,44.7,51,44.7z"/>
	<path class="st1" d="M31,44.7c-2.2,0-3.9,1.7-3.9,3.9c0,2.1,1.7,3.8,3.9,3.8c2.1,0,3.9-1.7,3.9-3.8C34.8,46.4,33.1,44.7,31,44.7z"
		/>
</g>
</svg>
