<?xml version="1.0" encoding="utf-8"?>
<!-- Generator: Adobe Illustrator 23.0.2, SVG Export Plug-In . SVG Version: 6.00 Build 0)  -->
<svg version="1.1" xmlns="http://www.w3.org/2000/svg" xmlns:xlink="http://www.w3.org/1999/xlink" x="0px" y="0px"
	 viewBox="0 0 80 80" style="enable-background:new 0 0 80 80;" xml:space="preserve">
<style type="text/css">
	.st0{fill:#6975A8;}
	.st1{fill:#C0C5DB;}
</style>
<g id="Layer_1">
	<g>
		<path class="st0" d="M63.8,79H16.2c-8.2,0-15-6.8-15-15V16.4c0-8.2,6.8-15,15-15h47.6c8.2,0,15,6.8,15,15V64
			C78.8,72.2,72,79,63.8,79z"/>
	</g>
</g>
<g id="Layer_2">
	<path class="st1" d="M60,47.3c-0.4-1.4-1.1-2.7-1.9-3.9c-0.9-1.2-1.9-2.3-3.2-3.2c-1.3-0.9-2.8-1.7-4.6-2.2
		c-0.7-0.2-1.9-0.5-3.4-0.9c-1.2-0.3-2.4-0.6-3.6-0.9V20.8c1.1,0.3,2.2,0.8,3.1,1.4c1.7,1.2,2.9,3.1,3.3,5.7
		c0.1,0.9,0.9,1.5,1.8,1.5h5.8c0.5,0,1-0.2,1.3-0.6c0.3-0.4,0.5-0.9,0.5-1.4c-0.2-2-0.7-3.8-1.5-5.3c-1.1-2.1-2.6-3.9-4.4-5.3
		c-1.8-1.4-4-2.5-6.5-3.2c-1.1-0.3-2.2-0.6-3.3-0.7V6.8c0-0.9-0.7-1.6-1.6-1.6h-5.3c-0.9,0-1.6,0.7-1.6,1.6v6
		c-1,0.2-2.1,0.4-3.1,0.6c-2.3,0.6-4.4,1.6-6.2,2.9c-1.8,1.3-3.3,2.9-4.4,4.9c-1.1,1.9-1.7,4.3-1.7,6.9c0,1.4,0.2,2.8,0.6,4.1
		c0.4,1.3,1,2.6,1.9,3.8c0.9,1.2,2.1,2.3,3.6,3.2c1.5,1,3.4,1.7,5.7,2.3c1.3,0.4,2.5,0.7,3.7,1v17.3c-1.6-0.4-3-1.1-4.2-2
		c-1.2-0.9-2.2-2.1-2.9-3.5c-0.5-1-0.8-2.2-1-3.6c-0.1-0.9-0.9-1.6-1.8-1.6h-5.7c-0.5,0-1,0.2-1.3,0.6c-0.3,0.4-0.5,0.9-0.5,1.4
		c0.2,2.4,0.8,4.6,1.8,6.5c1.2,2.4,2.8,4.4,4.7,5.9c2,1.5,4.3,2.7,7,3.4c1.2,0.3,2.5,0.6,3.8,0.8v6.1c0,0.9,0.7,1.6,1.6,1.6h5.3
		c0.9,0,1.6-0.7,1.6-1.6v-6c1.3-0.2,2.7-0.4,4-0.7c2.5-0.6,4.8-1.6,6.8-2.9c2-1.3,3.6-3.1,4.8-5.2c1.2-2.1,1.8-4.7,1.8-7.6
		C60.6,50,60.4,48.6,60,47.3z M30.5,31.4c-1.2-1.1-1.7-2.5-1.7-4.4c0-1.3,0.3-2.5,0.9-3.3c0.6-0.9,1.4-1.6,2.3-2.1
		c0.9-0.5,1.8-0.8,2.9-1.1v13.3C33.1,33.2,31.6,32.4,30.5,31.4z M50.8,55.4c-0.4,1-1,1.8-1.9,2.6c-0.9,0.7-2.1,1.4-3.5,1.8
		c-0.6,0.2-1.3,0.4-2,0.5V44.7c1.3,0.4,2.6,0.8,3.7,1.2c1.1,0.4,2.1,1.1,3,2c0.9,1,1.4,2.5,1.4,4.5C51.4,53.4,51.2,54.4,50.8,55.4z"
		/>
</g>
</svg>
