<?xml version="1.0" encoding="utf-8"?>
<!-- Generator: Adobe Illustrator 23.0.1, SVG Export Plug-In . SVG Version: 6.00 Build 0)  -->
<svg version="1.1" xmlns="http://www.w3.org/2000/svg" xmlns:xlink="http://www.w3.org/1999/xlink" x="0px" y="0px"
	 viewBox="0 0 80 80" style="enable-background:new 0 0 80 80;" xml:space="preserve">
<style type="text/css">
	.st0{fill:#FFFFFF;}
	.st1{fill:#001A72;}
</style>
<g id="Layer_1">
	<path class="st0" d="M63.8,79H16.2c-8.2,0-15-6.8-15-15V16.4c0-8.2,6.8-15,15-15h47.6c8.2,0,15,6.8,15,15V64
		C78.8,72.2,72,79,63.8,79z"/>
</g>
<g id="Layer_6">
	<polygon class="st0" points="19.3,67.5 19.3,65.6 19.3,13.6 20.7,11.6 23.2,10.2 36.4,10.2 39.7,12.7 44.1,10.2 57.3,10.2 62,15.3 
		62.8,20.6 62.9,24.4 67.1,57.2 56.4,71 33.8,74.3 33.8,68.7 22.3,68.7 	"/>
</g>
<g id="Layer_4_copy_2">
	<g>
		<g>
			<g>
				<path class="st0" d="M31.6,19.1c-2.1,0-3.8-1.7-3.8-3.8v-4.4c0-2.1,1.7-3.8,3.8-3.8h2.1c1.1-2.2,3.4-3.6,5.9-3.6
					c2.6,0,4.8,1.4,5.9,3.6H47c2.1,0,3.8,1.7,3.8,3.8v4.4c0,2.1-1.7,3.8-3.8,3.8H31.6z"/>
			</g>
			<g>
				<g>
					<path class="st0" d="M24.4,26.8L65,21.2l5.1,37.1L58.2,74l-26.7,3.7L24.4,26.8z M37.5,69.7l14.7-2l-1.6-11.8l11.8-1.6l-3.4-25
						l-26.4,3.6L37.5,69.7z"/>
				</g>
				<g>
					
						<rect x="31.8" y="31.2" transform="matrix(0.9907 -0.1362 0.1362 0.9907 -4.2364 6.6044)" class="st0" width="28.6" height="6.1"/>
				</g>
				<g>
					
						<rect x="32.7" y="37.6" transform="matrix(0.9907 -0.1362 0.1362 0.9907 -5.1004 6.7822)" class="st0" width="28.6" height="6.1"/>
				</g>
				<g>
					
						<rect x="33.6" y="44" transform="matrix(0.9907 -0.1362 0.1362 0.9907 -5.9664 6.9632)" class="st0" width="28.6" height="6.1"/>
				</g>
				<g>
					
						<rect x="34.5" y="50.5" transform="matrix(0.9907 -0.1362 0.1362 0.9907 -6.8313 7.1428)" class="st0" width="28.6" height="6.1"/>
				</g>
				<g>
					<g>
						<path class="st0" d="M55.9,16.9h-6v-6.1c0-0.1,0-0.2,0-0.4l-0.3-2.2h7.5c4.1,0,7.5,3.4,7.5,7.5v7.7l-8.7,1.2V16.9z"/>
					</g>
					<g>
						<path class="st0" d="M21.5,71.2c-4.1,0-7.5-3.4-7.5-7.5v-48c0-4.1,3.4-7.5,7.5-7.5h7.5l-0.3,2.2c0,0.1,0,0.2,0,0.4v6.1h-6
							v45.6h8.8l1.2,8.7H21.5z"/>
					</g>
				</g>
				<g>
					
						<rect x="35.4" y="57.6" transform="matrix(0.9907 -0.1362 0.1362 0.9907 -7.8548 6.5708)" class="st0" width="17.4" height="6.1"/>
				</g>
			</g>
		</g>
	</g>
</g>
<g id="Layer_4">
	<g>
		<path class="st1" d="M47,9h-2.8c-0.5-2.1-2.3-3.6-4.5-3.6c-2.2,0-4.1,1.5-4.5,3.6h-3.5c-1,0-1.8,0.8-1.8,1.8v4.4
			c0,1,0.8,1.8,1.8,1.8H47c1,0,1.8-0.8,1.8-1.8v-4.4C48.9,9.8,48,9,47,9z M39.7,11.6c-0.9,0-1.7-0.8-1.7-1.7s0.8-1.7,1.7-1.7
			s1.7,0.8,1.7,1.7S40.6,11.6,39.7,11.6z"/>
		<g>
			<path class="st1" d="M26.7,28.5l6.5,47l21.7-3l2.2-0.3l2.7-3.5l5.6-7.4l2.7-3.5l-0.3-2.2l-4.4-32.1L26.7,28.5z M57.3,66.8
				l-0.9-6.5l6.5-0.9L57.3,66.8z M52.8,57.6l1.6,11.8l-18.6,2.6l-5.6-40.8L60.6,27l4,29L52.8,57.6z"/>
			
				<rect x="33.8" y="33.2" transform="matrix(0.9907 -0.1362 0.1362 0.9907 -4.2358 6.6033)" class="st1" width="24.6" height="2.1"/>
			
				<rect x="34.7" y="39.6" transform="matrix(0.9907 -0.1362 0.1362 0.9907 -5.101 6.7831)" class="st1" width="24.6" height="2.1"/>
			<rect x="35.6" y="46" transform="matrix(0.9907 -0.1362 0.1362 0.9907 -5.9661 6.9629)" class="st1" width="24.6" height="2.1"/>
			
				<rect x="36.5" y="52.5" transform="matrix(0.9907 -0.1362 0.1362 0.9907 -6.8311 7.1426)" class="st1" width="24.6" height="2.1"/>
			<g>
				<path class="st1" d="M62.6,15.7c0-3-2.5-5.5-5.5-5.5H52c0,0.2,0,0.4,0,0.6v4.1h5.2c0.4,0,0.8,0.4,0.8,0.8v6.6l4.7-0.6V15.7z"/>
				<path class="st1" d="M21.5,64.5c-0.4,0-0.8-0.4-0.8-0.8v-48c0-0.4,0.4-0.8,0.8-0.8h5.2v-4.1c0-0.2,0-0.4,0-0.6h-5.2
					c-3,0-5.5,2.5-5.5,5.5v48c0,3,2.5,5.5,5.5,5.5h8.9l-0.6-4.7H21.5z"/>
			</g>
			
				<rect x="37.4" y="59.6" transform="matrix(0.9907 -0.1362 0.1362 0.9907 -7.8529 6.569)" class="st1" width="13.4" height="2.1"/>
		</g>
	</g>
</g>
</svg>
