<?xml version="1.0" encoding="utf-8"?>
<!-- Generator: Adobe Illustrator 23.0.2, SVG Export Plug-In . SVG Version: 6.00 Build 0)  -->
<svg version="1.1" id="Layer_1" xmlns="http://www.w3.org/2000/svg" xmlns:xlink="http://www.w3.org/1999/xlink" x="0px" y="0px"
	 viewBox="0 0 80 80" style="enable-background:new 0 0 80 80;" xml:space="preserve">
<style type="text/css">
	.st0{fill:#6975A8;}
	.st1{fill:#C0C5DB;}
</style>
<g>
	<path class="st0" d="M63.8,79H16.2c-8.2,0-15-6.8-15-15V16.4c0-8.2,6.8-15,15-15h47.6c8.2,0,15,6.8,15,15V64
		C78.8,72.2,72,79,63.8,79z"/>
</g>
<g>
	<polygon class="st0" points="27.2,43.7 31.4,38.1 48.8,38.1 54.3,43.2 40.5,56.7 	"/>
	<g>
		<path class="st1" d="M54.3,27.4c0,9.1-6,16.9-13.8,16.9s-13.8-7.5-13.8-16.9c0-9.1,6-16.9,13.8-16.9
			C48.2,10.5,54.3,17.9,54.3,27.4z"/>
		<g>
			<path class="st1" d="M52.6,41.7L40.5,53.9L28.3,41.7c-17.9,4.4-21,17.1-16.6,27.7h57.5C73.4,58.8,70.6,45.9,52.6,41.7z"/>
		</g>
	</g>
</g>
</svg>
