<?xml version="1.0" encoding="utf-8"?>
<!-- Generator: Adobe Illustrator 23.0.1, SVG Export Plug-In . SVG Version: 6.00 Build 0)  -->
<svg version="1.1" id="Layer_2" xmlns="http://www.w3.org/2000/svg" xmlns:xlink="http://www.w3.org/1999/xlink" x="0px" y="0px"
	 viewBox="0 0 80 80" style="enable-background:new 0 0 80 80;" xml:space="preserve">
<style type="text/css">
	.st0{fill:#001A72;}
	.st1{fill:#FFFFFF;}
</style>
<path class="st0" d="M63.8,79H16.2c-8.2,0-15-6.8-15-15V16.4c0-8.2,6.8-15,15-15h47.6c8.2,0,15,6.8,15,15V64
	C78.8,72.2,72,79,63.8,79z"/>
<path class="st1" d="M65,21.2l-0.4,0.1v-5.6c0-4.1-3.4-7.5-7.5-7.5h-7.4C49,7.5,48,7.1,47,7.1h-1.5c-1.1-2.2-3.3-3.6-5.9-3.6
	c-2.5,0-4.8,1.4-5.9,3.6h-2.1c-1,0-2,0.4-2.7,1.1h-7.4c-4.1,0-7.5,3.4-7.5,7.5v48c0,4.1,3.4,7.5,7.5,7.5c0,0,6.3,0,9.1,0l0.9,6.5
	L58.2,74l11.9-15.7L65,21.2z"/>
<g id="Layer_4_1_">
	<g>
		<path class="st0" d="M47,9h-2.8c-0.5-2.1-2.3-3.6-4.5-3.6S35.6,6.9,35.2,9h-3.5c-1,0-1.8,0.8-1.8,1.8v4.4c0,1,0.8,1.8,1.8,1.8H47
			c1,0,1.8-0.8,1.8-1.8v-4.4C48.9,9.8,48,9,47,9z M39.7,11.6c-0.9,0-1.7-0.8-1.7-1.7s0.8-1.7,1.7-1.7s1.7,0.8,1.7,1.7
			S40.6,11.6,39.7,11.6z"/>
		<g>
			<path class="st0" d="M26.7,28.5l6.5,47l21.7-3l2.2-0.3l2.7-3.5l5.6-7.4l2.7-3.5l-0.3-2.2l-4.4-32.1L26.7,28.5z M57.3,66.8
				l-0.9-6.5l6.5-0.9L57.3,66.8z M52.8,57.6l1.6,11.8L35.8,72l-5.6-40.8L60.6,27l4,29L52.8,57.6z"/>
			<rect x="33.8" y="33.2" transform="matrix(0.9907 -0.1362 0.1362 0.9907 -4.236 6.598)" class="st0" width="24.6" height="2.1"/>
			
				<rect x="34.7" y="39.6" transform="matrix(0.9907 -0.1362 0.1362 0.9907 -5.099 6.7799)" class="st0" width="24.6" height="2.1"/>
			<rect x="35.6" y="46" transform="matrix(0.9907 -0.1362 0.1362 0.9907 -5.962 6.9618)" class="st0" width="24.6" height="2.1"/>
			
				<rect x="36.5" y="52.5" transform="matrix(0.9907 -0.1362 0.1362 0.9907 -6.8383 7.1466)" class="st0" width="24.6" height="2.1"/>
			<g>
				<path class="st0" d="M62.6,15.7c0-3-2.5-5.5-5.5-5.5H52c0,0.2,0,0.4,0,0.6v4.1h5.2c0.4,0,0.8,0.4,0.8,0.8v6.6l4.7-0.6v-6H62.6z"
					/>
				<path class="st0" d="M21.5,64.5c-0.4,0-0.8-0.4-0.8-0.8v-48c0-0.4,0.4-0.8,0.8-0.8h5.2v-4.1c0-0.2,0-0.4,0-0.6h-5.2
					c-3,0-5.5,2.5-5.5,5.5v48c0,3,2.5,5.5,5.5,5.5h8.9l-0.6-4.7H21.5z"/>
			</g>
			
				<rect x="37.4" y="59.6" transform="matrix(0.9907 -0.1362 0.1362 0.9907 -7.8493 6.5711)" class="st0" width="13.4" height="2.1"/>
		</g>
	</g>
</g>
</svg>
