<?xml version="1.0" encoding="utf-8"?>
<!-- Generator: Adobe Illustrator 23.0.1, SVG Export Plug-In . SVG Version: 6.00 Build 0)  -->
<svg version="1.1" xmlns="http://www.w3.org/2000/svg" xmlns:xlink="http://www.w3.org/1999/xlink" x="0px" y="0px"
	 viewBox="0 0 80 80" style="enable-background:new 0 0 80 80;" xml:space="preserve">
<style type="text/css">
	.st0{fill:#001A72;}
	.st1{fill:#FFFFFF;}
</style>
<g id="Layer_1">
	<path class="st0" d="M63.8,79H16.2c-8.2,0-15-6.8-15-15V16.4c0-8.2,6.8-15,15-15h47.6c8.2,0,15,6.8,15,15V64
		C78.8,72.2,72,79,63.8,79z"/>
</g>
<g id="Layer_2">
	<rect x="1.2" y="20.3" class="st1" width="77.6" height="2.3"/>
	<rect x="1.2" y="39" class="st1" width="77.6" height="2.3"/>
	<rect x="1.2" y="57.8" class="st1" width="77.6" height="2.3"/>
</g>
<g id="Layer_4">
	<g>
		<circle class="st1" cx="19" cy="21.5" r="8"/>
		<circle class="st0" cx="19" cy="21.5" r="4.9"/>
	</g>
	<g>
		<circle class="st1" cx="50.2" cy="21.5" r="8"/>
		<circle class="st0" cx="50.2" cy="21.5" r="4.9"/>
	</g>
	<g>
		<circle class="st1" cx="65.7" cy="40" r="8"/>
		<circle class="st0" cx="65.7" cy="40" r="4.9"/>
	</g>
	<g>
		<circle class="st1" cx="30.6" cy="58.9" r="8"/>
		<circle class="st0" cx="30.6" cy="58.9" r="4.9"/>
	</g>
</g>
</svg>
