<?xml version="1.0" encoding="utf-8"?>
<!-- Generator: Adobe Illustrator 23.0.2, SVG Export Plug-In . SVG Version: 6.00 Build 0)  -->
<svg version="1.1" id="Layer_1" xmlns="http://www.w3.org/2000/svg" xmlns:xlink="http://www.w3.org/1999/xlink" x="0px" y="0px"
	 viewBox="0 0 80 80" style="enable-background:new 0 0 80 80;" xml:space="preserve">
<style type="text/css">
	.st0{fill:#FFFFFF;}
</style>
<g id="Layer_2">
	<g id="Speech_Bubble">
		<g id="Bubbles">
			<path id="Shadow" class="st0" d="M25.5,14.6c-13.3,0-24,7.9-24,17.7c0,2.3,0.6,4.5,1.6,6.5c0.5,0.9,1,1.7,1.7,2.5l0,0l-2.6,11
				l10.6-4.9c3.7,1.7,8.1,2.7,12.7,2.7c13.3,0,24-7.9,24-17.7C49.5,22.6,38.8,14.6,25.5,14.6z"/>
			<path class="st0" d="M77,52.4c1.1-2,1.7-4.2,1.7-6.5c0-9.8-10.8-17.7-24-17.7c-0.5,0-0.9,0-1.4,0c0.3,1.4,0.5,2.8,0.5,4.2
				c0,10.1-8.8,18.6-20.8,21.2c3.9,5.9,12.1,10.1,21.7,10.1c4.7,0,9-1,12.7-2.7L78,65.9l-2.6-11C76,54.1,76.5,53.2,77,52.4z"/>
		</g>
	</g>
</g>
</svg>
