<?xml version="1.0" encoding="utf-8"?>
<!-- Generator: Adobe Illustrator 23.0.2, SVG Export Plug-In . SVG Version: 6.00 Build 0)  -->
<svg version="1.1" id="Layer_1" xmlns="http://www.w3.org/2000/svg" xmlns:xlink="http://www.w3.org/1999/xlink" x="0px" y="0px"
	 viewBox="0 0 80 80" style="enable-background:new 0 0 80 80;" xml:space="preserve">
<style type="text/css">
	.st0{fill:#FFFFFF;}
</style>
<path class="st0" d="M63.2,47.9c-0.5-1.5-1.2-3-2.1-4.3c-1-1.3-2.2-2.5-3.6-3.6c-1.4-1-3.1-1.9-5.1-2.5c-0.8-0.2-2.1-0.6-3.8-1
	c-1.3-0.3-2.6-0.7-3.9-1V18.6c1.3,0.4,2.4,0.9,3.4,1.6c1.9,1.3,3.2,3.5,3.7,6.4c0.2,1,1,1.7,2,1.7h6.4c0.6,0,1.1-0.2,1.5-0.7
	c0.4-0.4,0.6-1,0.5-1.5c-0.2-2.2-0.8-4.2-1.7-5.9c-1.2-2.3-2.8-4.3-4.9-5.9c-2-1.6-4.5-2.8-7.2-3.6c-1.2-0.3-2.4-0.6-3.7-0.8V3.1
	c0-1-0.8-1.7-1.7-1.7h-5.9c-1,0-1.7,0.8-1.7,1.7v6.7c-1.2,0.2-2.3,0.4-3.4,0.7c-2.6,0.7-4.9,1.8-6.9,3.2c-2,1.4-3.7,3.2-4.9,5.4
	c-1.2,2.2-1.9,4.7-1.9,7.7c0,1.5,0.2,3.1,0.6,4.5c0.4,1.5,1.1,2.9,2.1,4.2c1,1.3,2.3,2.5,4,3.6c1.7,1.1,3.8,1.9,6.3,2.6
	c1.4,0.4,2.8,0.8,4.1,1.1v19.2c-1.7-0.5-3.3-1.2-4.7-2.2c-1.4-1-2.4-2.3-3.2-3.9c-0.6-1.1-0.9-2.5-1.1-4c-0.1-1-1-1.8-2-1.8h-6.3
	c-0.6,0-1.1,0.2-1.5,0.7c-0.4,0.4-0.6,1-0.5,1.5c0.3,2.7,0.9,5.1,1.9,7.2c1.3,2.6,3.1,4.9,5.3,6.5c2.2,1.7,4.8,3,7.7,3.8
	c1.4,0.4,2.8,0.7,4.3,0.9v6.7c0,1,0.8,1.7,1.7,1.7H43c1,0,1.7-0.8,1.7-1.7v-6.6c1.5-0.2,3-0.4,4.4-0.8c2.8-0.7,5.3-1.8,7.5-3.3
	c2.2-1.5,4-3.4,5.3-5.7c1.3-2.3,2-5.2,2-8.4C63.9,51,63.7,49.5,63.2,47.9z M30.5,30.4c-1.3-1.2-1.9-2.8-1.9-4.9c0-1.5,0.3-2.7,1-3.7
	c0.7-1,1.6-1.8,2.6-2.3c1-0.5,2-0.9,3.2-1.2V33C33.4,32.4,31.7,31.5,30.5,30.4z M53,57c-0.4,1.1-1.2,2-2.1,2.8c-1,0.8-2.3,1.5-3.9,2
	c-0.7,0.2-1.4,0.4-2.3,0.5V45.1c1.5,0.4,2.8,0.9,4.1,1.3c1.2,0.4,2.3,1.2,3.3,2.3c1,1.1,1.5,2.7,1.5,5C53.7,54.8,53.4,55.9,53,57z"
	/>
</svg>
